<?xml version="1.0" encoding="UTF-8" standalone="no"?>
<!-- Created with Inkscape (http://www.inkscape.org/) -->

<svg
   xmlns:dc="http://purl.org/dc/elements/1.1/"
   xmlns:cc="http://creativecommons.org/ns#"
   xmlns:rdf="http://www.w3.org/1999/02/22-rdf-syntax-ns#"
   xmlns:svg="http://www.w3.org/2000/svg"
   xmlns="http://www.w3.org/2000/svg"
   xmlns:sodipodi="http://sodipodi.sourceforge.net/DTD/sodipodi-0.dtd"
   xmlns:inkscape="http://www.inkscape.org/namespaces/inkscape"
   width="744.09448819"
   height="1052.3622047"
   id="svg3015"
   version="1.1"
   inkscape:version="0.48.0 r9654"
   sodipodi:docname="dc10.svg">
  <defs
     id="defs3017" />
  <sodipodi:namedview
     id="base"
     pagecolor="#ffffff"
     bordercolor="#666666"
     borderopacity="1.0"
     inkscape:pageopacity="0.0"
     inkscape:pageshadow="2"
     inkscape:zoom="0.35"
     inkscape:cx="0.71428571"
     inkscape:cy="520"
     inkscape:document-units="px"
     inkscape:current-layer="layer1"
     showgrid="false"
     inkscape:window-width="1280"
     inkscape:window-height="950"
     inkscape:window-x="0"
     inkscape:window-y="25"
     inkscape:window-maximized="1" />
  <metadata
     id="metadata3020">
    <rdf:RDF>
      <cc:Work
         rdf:about="">
        <dc:format>image/svg+xml</dc:format>
        <dc:type
           rdf:resource="http://purl.org/dc/dcmitype/StillImage" />
        <dc:title></dc:title>
      </cc:Work>
    </rdf:RDF>
  </metadata>
  <g
     inkscape:label="Layer 1"
     inkscape:groupmode="layer"
     id="layer1">
    <g
       id="g3148"
       transform="translate(-27.952757,10.961766)">
      <path
         id="path3960"
         d="m 184.83477,564.30722 8.6421,-8.58748 9.66369,-9.60488 1.56001,-4.32629 c 0.90455,-2.51404 1.4542,-5.18847 1.27902,-6.38219 -0.16596,-1.13082 -0.069,-1.99841 0.4957,-3.13629 l 0.28868,-0.46315 c -3.56253,3.81715 -5.38218,5.56016 -7.04843,7.04958 0.30349,-0.32393 0.62592,-0.67124 0.97538,-1.01349 l 6.78351,-7.1388 c 3.52264,-5.17939 3.8535,-4.23522 -4.05076,-12.1879 -7.74226,-7.78965 -7.23745,-7.54058 -11.69441,-5.60418 -5.2009,2.25961 -15.0945,13.07867 -20.79672,22.78502 -0.28451,0.48431 -0.1599,1.21336 0.23815,1.61383 0.56239,0.56584 0.34275,1.20209 -0.93685,2.86976 -2.77749,3.61985 -6.32797,8.43518 -7.96593,10.82541 -0.85715,1.2508 -2.2577,2.99298 -3.12748,3.85747 l -1.59584,1.58612 3.10617,3.12519 3.10617,3.12519 -1.62219,2.97817 c -0.89168,1.63468 -1.90662,3.40549 -2.26589,3.92639 -3.61028,6.65008 -7.58596,13.28174 -10.07246,20.45335 -0.002,0.5547 0.91394,1.93908 2.02362,3.05559 l 2.00468,2.01696 0.19827,0.19947 4.36186,4.38855 12.56723,-12.49075 -4.38412,-4.41094 -0.18731,-0.16584 5.88387,-5.8501 4.56112,4.58906 12.56725,-12.49076 -4.55809,-4.59207 z"
         style="fill:none;stroke:#c60000;stroke-width:0.99921256;stroke-miterlimit:4;stroke-opacity:1;stroke-dasharray:none"
         inkscape:connector-curvature="0" />
      <path
         id="path3958"
         d="m 252.18639,497.92976 -8.36433,8.85822 -9.35536,9.90545 -4.28511,1.66981 c -2.49015,0.96836 -5.1497,1.58603 -6.3475,1.44134 -1.13471,-0.13707 -1.99952,-0.018 -3.12264,0.5755 l -0.45564,0.30039 c 3.72509,-3.65868 5.42113,-5.52218 6.86758,-7.22586 -0.31608,0.31165 -0.65507,0.64282 -0.9883,1.00089 l -6.96349,6.96333 c -5.08791,3.65356 -4.1356,3.96024 -12.28724,-3.73869 -7.98452,-7.54113 -7.72268,-7.04283 -5.90054,-11.54771 2.12626,-5.25681 12.68954,-15.42304 22.24735,-21.37091 0.4769,-0.29677 1.20888,-0.19078 1.61937,0.19693 0.58,0.54777 1.21045,0.31199 2.84497,-1.00972 3.54783,-2.86888 8.27107,-6.54098 10.61876,-8.23936 1.22855,-0.88875 2.93444,-2.33328 3.77647,-3.22482 l 1.54493,-1.63577 3.20337,3.02548 3.20336,3.02548 2.93584,-1.6976 c 1.61142,-0.93307 3.35577,-1.99282 3.86735,-2.36527 6.55587,-3.77866 13.084,-7.92213 20.18987,-10.59069 0.55447,-0.0158 1.96176,0.8642 3.1062,1.94505 l 2.0674,1.95262 0.20448,0.19311 4.49834,4.24854 -12.16625,12.88163 -4.5213,-4.27022 -0.17056,-0.18303 -5.69817,6.03113 4.70386,4.44263 -12.16627,12.88162 -4.7068,-4.4395 z"
         style="fill:none;stroke:#c60000;stroke-width:0.99921256;stroke-miterlimit:4;stroke-opacity:1;stroke-dasharray:none"
         inkscape:connector-curvature="0" />
      <path
         id="path3956"
         d="m 545.54646,501.9806 -12.00572,0.28046 -72.93335,-21.85182 c -0.38163,0.86792 -0.56884,4.58247 -0.4847,9.61658 0.16615,9.94185 0.80492,16.12199 1.78884,17.30754 0.40339,0.48602 4.82209,3.84973 9.81937,7.47487 l 43.02688,31.495 0,0 30.78868,22.46533 30.78867,-22.46533 0,0 43.02687,-31.495 c 4.99728,-3.62514 9.41598,-6.98885 9.81937,-7.47487 0.98392,-1.18555 1.62269,-7.36569 1.78884,-17.30754 0.0841,-5.03411 -0.10307,-8.74866 -0.48469,-9.61658 l -72.93334,21.85182 -12.00572,-0.28046 z"
         style="fill:none;stroke:#c60000;stroke-width:0.99921256;stroke-miterlimit:4;stroke-opacity:1;stroke-dasharray:none"
         inkscape:connector-curvature="0" />
      <path
         id="path3954"
         d="m 542.88897,550.63371 0,-14.17323 5.31497,0 0,14.17323 -5.31497,0 z"
         style="fill:none;stroke:#c60000;stroke-width:0.99921256;stroke-miterlimit:4;stroke-opacity:1;stroke-dasharray:none"
         inkscape:connector-curvature="0" />
      <path
         id="path3952"
         d="m 542.88896,526.63371 0,-14.17323 5.31497,0 0,14.17323 -5.31497,0 z"
         style="fill:none;stroke:#c60000;stroke-width:0.99921256;stroke-miterlimit:4;stroke-opacity:1;stroke-dasharray:none"
         inkscape:connector-curvature="0" />
      <path
         id="path3950"
         d="m 613.16403,525.29826 -23.59375,23.5 c -12.97294,12.92417 -24.29981,24.06244 -25.15625,24.75 -1.48792,1.1945 -2.05836,1.25 -12.6875,1.25 -9.43316,0 -11.3754,0.14768 -12.875,0.96875 -2.15743,1.18124 -2.22595,1.51003 -2.40625,11.875 -0.16885,9.70621 -0.30247,9.50251 6.28125,10.75001 l 3.8125,0.7187 0,2 0,2.0314 -4.375,-0.4064 c -31.51863,-2.8179 -45.36614,-3.2376 -113,-3.5937 -29.55689,-0.1556 -73.70167,-0.461 -98.125,-0.6563 -31.22209,-0.2496 -47.9601,-0.1569 -56.3125,0.3125 -29.34984,1.6498 -49.20041,6.8298 -57.59376,15.0314 -1.60852,1.5717 -3.943,3.6264 -5.1875,4.5311 -4.34976,3.1621 -4.96017,4.1182 -4.65625,7.2813 0.18817,1.9582 0.614,3.1082 1.40625,3.7187 0.6313,0.4865 2.15165,1.6292 3.34375,2.5625 1.19208,0.9334 3.81575,2.2823 5.84375,3 6.86922,2.4312 16.11359,5.4426 17.03125,5.5313 0.50216,0.049 1.26766,0.303 1.6875,0.5625 0.41983,0.2595 1.80662,0.654 3.0625,0.875 1.25588,0.221 4.29225,0.8296 6.78125,1.3437 7.79351,1.6099 17.81971,2.6117 25.75001,2.5938 4.32694,0.034 8.6983,0.7644 12.96875,0.2187 0.40006,0.2473 12.86079,0.53 27.6875,0.625 13.59261,0.087 33.79978,0.2816 47.84375,0.4688 l 0.0625,-6.25 9.375,0.062 -0.0625,6.1875 21.25,0.1562 0.0625,-6.1875 11.9375,0.094 -0.0312,6.1875 21.25,0.125 0.0312,-6.1875 11.96875,0.094 -0.0312,6.1875 8.59375,0.062 12.65625,0 0.0312,-6.0937 9.375,0.062 -0.0312,6.0625 13.8125,0 c 35.06406,-0.097 40.60632,-0.39 56,-2.9688 6.34483,-1.0629 22.69513,-4.7209 29.40625,-6.5625 1.71119,-0.4695 5.01029,-1.37 7.34375,-2 10.08811,-2.4338 19.79813,-5.638 29.4375,-9.4062 8.87408,-3.4238 12.99999,-6.907 13,-10.9374 0.64968,-5.9725 -3.37368,-8.2086 -5.24842,-8.4599 l -6.59533,-0.8839 -0.34375,-1.5312 c -0.45615,-2.0784 0.0448,-2.7263 2.1875,-2.7501 2.52233,-0.028 11.66132,-1.4425 12.09375,-1.875 0.19621,-0.1962 -0.0752,-0.3438 -0.59375,-0.3438 -0.73527,0 -1.41152,-1.0347 -0.78125,-1.1875 1.99409,-0.4832 12.95203,-1.7399 17.375,-2 5.85307,-0.3442 7.37499,-0.7831 7.375,-2.18747 0.3017,-11.34199 0.0963,-0.0663 0.34375,-11.37499 l -0.0625,-6.71875 -11.03125,-1.25 c -6.06694,-0.68607 -12.11521,-1.29831 -13.4375,-1.375 -1.32229,-0.0767 -2.40628,-0.35614 -2.40625,-0.625 0,-0.41733 2.87659,-7.49899 5.375,-13.1875 2.53034,-5.76122 3.40519,-7.82548 5.125,-12.03125 1.0554,-2.58098 2.41027,-5.75441 3,-7.0625 2.80956,-6.23186 5.71876,-13.44021 5.71875,-14.15625 0,-0.99363 -4.90816,-1.52561 -14.34375,-1.53125 l -6.71875,0 z"
         style="fill:none;stroke:#c60000;stroke-width:0.99921256;stroke-miterlimit:4;stroke-opacity:1;stroke-dasharray:none"
         inkscape:connector-curvature="0" />
      <path
         id="path3948"
         d="m 593.79651,623.20772 -0.006,-2.5866 0,-2.7284 -13.46457,0 -0.002,5.315 -10.52818,0 -0.005,-5.315 -13.46457,0 -0.002,5.315 -17.91831,0 0,-5.315 41.57935,0 15.53851,0 5.994,0 3.64404,0 0,5.315 -11.36451,0 z"
         style="fill:none;stroke:#c60000;stroke-width:0.99921256;stroke-miterlimit:4;stroke-opacity:1;stroke-dasharray:none"
         inkscape:connector-curvature="0" />
      <path
         id="path3946"
         d="m 548.75138,617.89272 58.79185,0"
         style="fill:none;stroke:#c60000;stroke-width:0.99921256;stroke-miterlimit:4;stroke-opacity:1;stroke-dasharray:none"
         inkscape:connector-curvature="0" />
      <path
         id="path3944"
         d="m 313.14352,457.34976 -1.08377,0.18825 -27.01759,28.40732 c -7.42848,7.81251 -7.93854,7.71798 -14.58095,14.57614 -2.54376,2.6264 -5.53375,5.49344 -6.64441,6.37119 -1.11069,0.87776 -3.09114,2.86335 -4.40096,4.41244 -1.30987,1.54909 -6.03968,6.2995 -10.51065,10.55647 -4.47104,4.25699 -10.59787,10.21 -13.61523,13.22897 -3.01734,3.01895 -9.47892,9.41212 -14.35897,14.20703 -4.88007,4.79495 -10.34845,10.17856 -12.15196,11.96367 -1.80349,1.78507 -4.27144,4.22603 -5.48434,5.42434 -1.21287,1.19835 -3.67919,3.65211 -5.48071,5.45284 -1.80152,1.80071 -5.39814,5.32214 -7.99256,7.82536 -2.5944,2.50321 -7.40765,7.22639 -10.6961,10.49596 -8.60104,8.55158 -15.58274,15.38298 -21.0815,20.62738 -2.6402,2.5181 -5.01329,5.1817 -5.27353,5.9191 -0.26023,0.7374 -0.36776,2.8726 -0.23897,4.7449 0.12883,1.8723 1.0527,8.3434 2.05306,14.3802 l 1.81892,10.9759 1.9075,-1.4139 c 3.11258,-2.3068 8.81271,-6.0943 9.29912,-6.1788 0.24836,-0.043 1.70405,-0.9552 3.23485,-2.0269 4.21691,-2.9522 5.65556,-3.8758 8.23231,-5.2854 2.12453,-1.1622 32.45408,-20.2377 34.93847,-21.9741 2.43668,-1.7032 19.98981,-12.8684 35.4165,-22.5277 5.26896,-3.29911 10.00247,-6.34631 10.51893,-6.77156 l 70.97823,-17.96814 72.88001,-7.01907 c 0.62961,0.22618 6.11342,1.49872 12.18627,2.82783 17.78036,3.89145 38.07045,8.48348 40.93875,9.26521 2.92446,0.79705 37.91004,8.52768 40.30202,8.9054 2.90117,0.4581 4.56702,0.84251 9.53244,2.19975 1.80252,0.49268 3.48056,0.86055 3.72891,0.81739 0.48639,-0.0845 7.12985,1.55899 10.83801,2.68112 l 2.27255,0.68778 -1.98884,-10.94633 c -1.0939,-6.02054 -2.40625,-12.42411 -2.91637,-14.23022 -0.51011,-1.8061 -1.33137,-3.77998 -1.82502,-4.38643 -0.49365,-0.60642 -3.62591,-2.3138 -6.96063,-3.79409 -6.94522,-3.08309 -15.8216,-7.15991 -26.80256,-12.31025 -4.19836,-1.96918 -10.32243,-4.79259 -13.609,-6.27432 -3.28653,-1.48174 -7.86,-3.58408 -10.16322,-4.67181 -2.30322,-1.08779 -5.45253,-2.56615 -6.99845,-3.28528 -1.54596,-0.71915 -4.69247,-2.18492 -6.99227,-3.25728 -2.29984,-1.07236 -9.26336,-4.29664 -15.47455,-7.16512 -6.21114,-2.86843 -14.45011,-6.70823 -18.30873,-8.53287 -3.85866,-1.82463 -11.63407,-5.36292 -17.27874,-7.86288 -5.6446,-2.49995 -11.69931,-5.37719 -13.45483,-6.39384 -1.75546,-1.01666 -4.2895,-2.21812 -5.63112,-2.66994 -1.34157,-0.4518 -5.12325,-2.14265 -8.40366,-3.75741 -8.56604,-4.21659 -9.01432,-3.95559 -18.64221,-8.80554 -23.23673,-11.70528 -15.22231,-7.68813 -17.89879,-9.03471 -0.9251,-0.46543 -3.12735,-1.57162 -8.33861,-4.18924 -1.58498,-0.79614 -3.4483,-1.7321 -5.63868,-2.83236 -0.97931,-0.49192 -2.02397,-1.01665 -3.13837,-1.57645 z"
         style="fill:none;stroke:#c60000;stroke-width:0.99921256;stroke-miterlimit:4;stroke-opacity:1;stroke-dasharray:none"
         inkscape:connector-curvature="0" />
      <path
         id="path3942"
         d="m 316.6471,467.11754 3.63823,20.94623 -4.59189,0.79758 -3.6382,-20.94623 4.59186,-0.79758 z"
         style="fill:none;stroke:#c60000;stroke-width:0.99921256;stroke-miterlimit:4;stroke-opacity:1;stroke-dasharray:none"
         inkscape:connector-curvature="0" />
      <path
         id="path3940"
         d="m 328.01511,532.56622 3.63822,20.94623 -4.59187,0.79759 -3.63822,-20.94623 4.59187,-0.79759 z"
         style="fill:none;stroke:#c60000;stroke-width:0.99921256;stroke-miterlimit:4;stroke-opacity:1;stroke-dasharray:none"
         inkscape:connector-curvature="0" />
      <path
         id="path3938"
         d="m 322.3311,499.84187 3.63821,20.94622 -4.59186,0.79758 -3.63822,-20.94622 4.59187,-0.79758 z"
         style="fill:none;stroke:#c60000;stroke-width:0.99921256;stroke-miterlimit:4;stroke-opacity:1;stroke-dasharray:none"
         inkscape:connector-curvature="0" />
      <path
         id="path3936"
         d="m 265.15518,519.36115 2.97121,17.10608 -5.23656,0.90955 -2.97121,-17.10609 5.23656,-0.90954 z"
         style="fill:none;stroke:#c60000;stroke-width:0.99921256;stroke-miterlimit:4;stroke-opacity:1;stroke-dasharray:none"
         inkscape:connector-curvature="0" />
      <path
         id="path3934"
         d="m 269.61501,545.03764 2.97121,17.10605 -5.23656,0.90957 -2.9712,-17.10608 5.23655,-0.90954 z"
         style="fill:none;stroke:#c60000;stroke-width:0.99921256;stroke-miterlimit:4;stroke-opacity:1;stroke-dasharray:none"
         inkscape:connector-curvature="0" />
      <path
         id="path3932"
         d="m 383.38496,498.82543 2.97123,17.10609 -5.23656,0.90955 -2.97122,-17.10609 5.23655,-0.90955 z"
         style="fill:none;stroke:#c60000;stroke-width:0.99921256;stroke-miterlimit:4;stroke-opacity:1;stroke-dasharray:none"
         inkscape:connector-curvature="0" />
      <path
         id="path3930"
         d="m 387.84481,524.50191 2.97121,17.10607 -5.23656,0.90956 -2.9712,-17.10608 5.23655,-0.90955 z"
         style="fill:none;stroke:#c60000;stroke-width:0.99921256;stroke-miterlimit:4;stroke-opacity:1;stroke-dasharray:none"
         inkscape:connector-curvature="0" />
      <path
         id="path3928"
         d="m 344.13662,496.22669 -1.25365,14.11767 -5.11765,-0.45444 1.25365,-14.11768 5.11765,0.45445 z"
         style="fill:none;stroke:#c60000;stroke-width:0.99921256;stroke-miterlimit:4;stroke-opacity:1;stroke-dasharray:none"
         inkscape:connector-curvature="0" />
      <path
         id="path3926"
         d="m 341.48307,526.1091 -1.25364,14.11768 -5.11765,-0.45446 1.25364,-14.11765 5.11765,0.45443 z"
         style="fill:none;stroke:#c60000;stroke-width:0.99921256;stroke-miterlimit:4;stroke-opacity:1;stroke-dasharray:none"
         inkscape:connector-curvature="0" />
      <path
         id="path3924"
         d="m 295.7144,504.6999 5.97317,12.85309 4.65923,-2.16527 -5.97314,-12.85309 -4.65926,2.16527 z"
         style="fill:none;stroke:#c60000;stroke-width:0.99921256;stroke-miterlimit:4;stroke-opacity:1;stroke-dasharray:none"
         inkscape:connector-curvature="0" />
      <path
         id="path3922"
         d="m 308.35756,531.9056 5.97315,12.85308 4.65925,-2.16528 -5.97314,-12.85307 -4.65926,2.16527 z"
         style="fill:none;stroke:#c60000;stroke-width:0.99921256;stroke-miterlimit:4;stroke-opacity:1;stroke-dasharray:none"
         inkscape:connector-curvature="0" />
      <path
         id="path3920"
         d="m 466.53975,394.82348 -1.3474,4.83001 7.34307,2.0335 c -44.62072,7.93611 -67.31968,35.05249 -68.78643,55.79379 -1.47323,20.83268 29.36437,35.66805 52.09832,49.47384 7.49836,4.55359 5.7569,6.12936 6.90193,10.17542 l 0.47896,0.22984 -2.32556,4.84587 -16.50975,-7.92312 2.31204,-4.81769 -14.31221,-6.8685 -2.31203,4.81769 -16.50976,-7.92312 2.31204,-4.81769 -14.34038,-6.88203 -2.31204,4.81769 -16.48158,-7.90959 2.31204,-4.8177 -14.34038,-6.88203 -2.31203,4.81769 -16.48158,-7.90959 2.31203,-4.81769 -2.36658,-1.13574 c 36.72128,6.45468 69.3841,-73.81993 63.25386,-78.06775 l 6.7672,1.86112 1.40037,-5.01257 14.33565,4.00279 -1.37332,4.95623 14.57342,4.01291 1.37445,-4.88636 14.33565,4.00278 z"
         style="fill:none;stroke:#c60000;stroke-width:0.99921256;stroke-miterlimit:4;stroke-opacity:1;stroke-dasharray:none"
         inkscape:connector-curvature="0" />
      <path
         id="path3918"
         d="m 449.59275,401.318 -28.86399,-7.82074 c -1.00135,4.40534 -1.80551,8.9633 -5.44844,16.55351 2.05844,3.88236 5.77935,4.92671 9.79537,4.14625 7.05889,-4.68902 15.63217,-9.34642 24.51706,-12.87902 z"
         style="fill:none;stroke:#c60000;stroke-width:0.99921256;stroke-miterlimit:4;stroke-opacity:1;stroke-dasharray:none"
         inkscape:connector-curvature="0" />
      <path
         id="path3916"
         d="m 395.26659,455.0045 c -0.24728,-0.14925 -0.52563,-0.26717 -0.84408,-0.33575 -5.09518,-1.09725 -14.0512,6.21328 -20.38718,9.83493 -1.47267,0.84175 -3.79674,2.64937 -1.51878,3.74256 l 31.41361,15.07557 c 2.98564,1.43282 3.67629,-3.7537 1.61328,-5.67297 -10.14298,-9.43628 -6.56751,-20.40557 -10.27685,-22.64434 z"
         style="fill:none;stroke:#c60000;stroke-width:0.99921256;stroke-miterlimit:4;stroke-opacity:1;stroke-dasharray:none"
         inkscape:connector-curvature="0" />
      <path
         id="path3896"
         d="m 295.8818,459.48438 -4.9559,0.76389 1.17497,7.52829 c -25.62752,-37.37941 -59.69069,-46.87896 -79.19171,-39.66349 -19.58694,7.24725 -20.38812,41.45842 -23.5925,67.86229 -1.05691,8.70882 -3.21051,7.77197 -6.42455,10.48336 l -0.0119,0.53112 -5.37364,-0.12071 0.41126,-18.30788 5.3424,0.12001 0.35652,-15.87101 -5.3424,-0.12001 0.41126,-18.30788 5.3424,0.12001 0.35722,-15.90224 -5.3424,-0.12001 0.41056,-18.27664 5.3424,0.12001 0.35722,-15.90224 -5.3424,-0.12001 0.41056,-18.27664 5.3424,0.12001 0.0589,-2.62433 c 9.25987,36.11606 95.86077,32.77573 97.2032,25.43939 l 1.09458,6.93258 5.14406,-0.79092 2.26395,14.7108 -5.08157,0.79233 2.35276,14.93161 5.01839,-0.76249 2.26394,14.7108 z"
         style="fill:none;stroke:#c60000;stroke-width:0.99921256;stroke-miterlimit:4;stroke-opacity:1;stroke-dasharray:none"
         inkscape:connector-curvature="0" />
      <path
         id="path3894"
         d="m 282.97765,446.72261 -4.77572,-29.52095 c -4.42633,0.90407 -8.91041,2.05071 -17.32743,1.86133 -2.6883,3.47605 -2.10559,7.29656 0.26126,10.63355 7.18234,4.49766 14.96025,10.38804 21.84189,17.02607 z"
         style="fill:none;stroke:#c60000;stroke-width:0.99921256;stroke-miterlimit:4;stroke-opacity:1;stroke-dasharray:none"
         inkscape:connector-curvature="0" />
      <path
         id="path7164"
         d="m 211.66783,419.36424 c 0.034,-0.28683 0.0267,-0.58903 -0.0421,-0.90743 -1.10113,-5.09435 -11.45398,-10.23952 -17.36583,-14.51866 -1.37407,-0.99461 -3.9791,-2.36665 -4.03584,0.15941 l -0.78252,34.83496 c -0.0744,3.31082 4.93554,1.8016 5.83349,-0.86921 4.41488,-13.13136 15.88258,-14.39663 16.39283,-18.69907 z"
         style="fill:none;stroke:#c60000;stroke-width:0.99921256;stroke-miterlimit:4;stroke-opacity:1;stroke-dasharray:none"
         inkscape:connector-curvature="0" />
      <path
         id="path3994"
         d="m 650.20361,440.74808 c 0,26.4862 -47.2913,47.98225 -105.56095,47.98225 -58.26964,0 -105.56094,-21.49605 -105.56094,-47.98225 0,-26.4862 47.2913,-47.98225 105.56094,-47.98225 58.26965,0 105.56095,21.49605 105.56095,47.98225 z"
         style="fill:none;stroke:#c60000;stroke-width:0.99921256;stroke-miterlimit:4;stroke-opacity:1;stroke-dasharray:none"
         inkscape:connector-curvature="0" />
      <path
         id="path3992"
         d="m 505.41251,403.54241 16.83221,4.51017 -1.32976,4.96273 -16.83221,-4.51018 1.32976,-4.96272 z"
         style="fill:none;stroke:#c60000;stroke-width:0.99921256;stroke-miterlimit:4;stroke-opacity:1;stroke-dasharray:none"
         inkscape:connector-curvature="0" />
      <path
         id="path3990"
         d="m 538.44388,412.39313 16.8322,4.51018 -1.32975,4.96272 -16.83221,-4.51017 1.32976,-4.96273 z"
         style="fill:none;stroke:#c60000;stroke-width:0.99921256;stroke-miterlimit:4;stroke-opacity:1;stroke-dasharray:none"
         inkscape:connector-curvature="0" />
      <path
         id="path3988"
         d="m 571.47526,421.24386 16.8322,4.51018 -1.32976,4.96272 -16.8322,-4.51017 1.32976,-4.96273 z"
         style="fill:none;stroke:#c60000;stroke-width:0.99921256;stroke-miterlimit:4;stroke-opacity:1;stroke-dasharray:none"
         inkscape:connector-curvature="0" />
      <path
         id="path3986"
         d="m 604.50663,430.09459 16.8322,4.51018 -1.32976,4.96272 -16.8322,-4.51017 1.32976,-4.96273 z"
         style="fill:none;stroke:#c60000;stroke-width:0.99921256;stroke-miterlimit:4;stroke-opacity:1;stroke-dasharray:none"
         inkscape:connector-curvature="0" />
      <path
         id="path3984"
         d="m 505.41254,477.95368 16.83221,-4.51018 -1.32976,-4.96273 -16.83221,4.51017 1.32976,4.96274 z"
         style="fill:none;stroke:#c60000;stroke-width:0.99921256;stroke-miterlimit:4;stroke-opacity:1;stroke-dasharray:none"
         inkscape:connector-curvature="0" />
      <path
         id="path3982"
         d="m 538.44388,469.10296 16.83222,-4.51018 -1.32976,-4.96273 -16.83222,4.51017 1.32976,4.96274 z"
         style="fill:none;stroke:#c60000;stroke-width:0.99921256;stroke-miterlimit:4;stroke-opacity:1;stroke-dasharray:none"
         inkscape:connector-curvature="0" />
      <path
         id="path3980"
         d="m 571.47526,460.25223 16.8322,-4.51018 -1.32976,-4.96273 -16.8322,4.51017 1.32976,4.96274 z"
         style="fill:none;stroke:#c60000;stroke-width:0.99921256;stroke-miterlimit:4;stroke-opacity:1;stroke-dasharray:none"
         inkscape:connector-curvature="0" />
      <path
         id="path3978"
         d="m 604.50663,451.4015 16.8322,-4.51017 -1.32976,-4.96274 -16.8322,4.51018 1.32976,4.96273 z"
         style="fill:none;stroke:#c60000;stroke-width:0.99921256;stroke-miterlimit:4;stroke-opacity:1;stroke-dasharray:none"
         inkscape:connector-curvature="0" />
      <path
         id="path3976"
         d="m 488.44183,413.29857 -5.72031,-1.167 0,3.50102 3.15483,0.64833 0,1.66211 c -10e-6,1.38009 -0.42904,2.41246 -1.27117,3.08844 -0.52636,0.43127 -1.147,0.67914 -1.88366,0.73085 l 0,3.65427 c 1.63211,0.0911 2.93065,-0.30572 3.88288,-1.17879 1.2287,-1.12664 1.83742,-3.08925 1.83743,-5.90577 l 0,-5.03346 z"
         style="fill:none;stroke:#c60000;stroke-width:0.99921256;stroke-miterlimit:4;stroke-opacity:1;stroke-dasharray:none"
         inkscape:connector-curvature="0" />
      <path
         id="path3974"
         d="m 481.41567,425.25156 0,-3.58355 c -0.0465,-0.008 -0.0916,-0.014 -0.13867,-0.0236 -1.44962,-0.29576 -2.59004,-0.95237 -3.43219,-1.98039 -0.84216,-1.01397 -1.27118,-2.25089 -1.27118,-3.70142 l 0,-1.57958 4.84204,0.99018 0,-3.50102 -7.40751,-1.50885 0,4.88021 c 0,2.78835 0.61097,5.01971 1.82587,6.69556 1.21491,1.68991 3.01059,2.78414 5.38518,3.27706 0.0679,0.0138 0.12946,0.0229 0.19646,0.0354 z"
         style="fill:none;stroke:#c60000;stroke-width:0.99921256;stroke-miterlimit:4;stroke-opacity:1;stroke-dasharray:none"
         inkscape:connector-curvature="0" />
      <path
         id="path3972"
         d="m 481.19385,430.70502 c -1.46341,-0.29576 -2.6369,-0.0845 -3.52046,0.63371 -0.88358,0.73229 -1.32536,1.85186 -1.32536,3.35872 0,0.67596 0.0759,1.34489 0.2278,2.00679 0.15186,0.67595 0.31753,1.23925 0.49702,1.68991 l -2.73355,-0.38024 c -0.15188,-0.57739 -0.28302,-1.2252 -0.39348,-1.9434 -0.12425,-0.70415 -0.18638,-1.44349 -0.18638,-2.21802 0,-2.54897 0.64889,-4.42901 1.94663,-5.64011 1.31154,-1.19703 3.12009,-1.55614 5.42566,-1.07732 2.31936,0.46471 4.15553,1.57725 5.50851,3.33759 1.36676,1.76032 2.05015,3.88681 2.05017,6.37944 -2e-5,0.87312 -0.0829,1.64063 -0.24851,2.30253 -0.15188,0.67595 -0.30375,1.21109 -0.4556,1.60542 l -2.81637,-0.84496 c 0.30372,-0.43658 0.53151,-0.95059 0.68338,-1.54205 0.16566,-0.57741 0.2485,-1.19 0.24851,-1.83779 -10e-6,-1.43644 -0.4556,-2.69685 -1.36678,-3.7812 -0.91119,-1.0703 -2.09158,-1.7533 -3.54119,-2.04902"
         style="fill:none;stroke:#c60000;stroke-width:0.99921256;stroke-miterlimit:4;stroke-opacity:1;stroke-dasharray:none"
         inkscape:connector-curvature="0" />
      <path
         id="path3970"
         d="m 480.75898,440.47454 0,5.61898 -2.50576,-0.50697 0,-5.61899 2.50576,0.50698"
         style="fill:none;stroke:#c60000;stroke-width:0.99921256;stroke-miterlimit:4;stroke-opacity:1;stroke-dasharray:none"
         inkscape:connector-curvature="0" />
      <path
         id="path3968"
         d="m 474.00795,454.6273 0,-3.46435 11.03772,2.26028 -1.88448,-2.91513 2.15369,-1.09843 3.12702,5.1965 0,2.93624 -14.43395,-2.91511"
         style="fill:none;stroke:#c60000;stroke-width:0.99921256;stroke-miterlimit:4;stroke-opacity:1;stroke-dasharray:none"
         inkscape:connector-curvature="0" />
      <path
         id="path3966"
         d="m 488.69606,466.94553 c -10e-6,-1.8589 -0.64595,-3.36228 -1.92988,-4.50298 -1.00165,-0.87891 -2.35405,-1.56968 -4.04466,-2.06289 l 0,3.35957 c 0.92011,0.2436 1.68669,0.51372 2.26501,0.81335 0.86974,0.46473 1.30583,1.09744 1.30584,1.88609 -1e-5,0.8027 -0.43608,1.24753 -1.30584,1.33203 -0.57814,0.0655 -1.34532,0.0268 -2.26501,-0.0943 l 0,3.37135 c 1.6899,0.19342 3.04332,0.0589 4.04466,-0.42437 1.28392,-0.60555 1.92987,-1.83302 1.92988,-3.67785 z"
         style="fill:none;stroke:#c60000;stroke-width:0.99921256;stroke-miterlimit:4;stroke-opacity:1;stroke-dasharray:none"
         inkscape:connector-curvature="0" />
      <path
         id="path3914"
         d="m 481.41567,470.84736 0,-3.38314 c -0.0685,-0.013 -0.12655,-0.0216 -0.19646,-0.0354 -1.62909,-0.33799 -2.886,-0.72817 -3.75575,-1.17879 -0.86978,-0.45067 -1.30585,-1.07388 -1.30586,-1.86249 0,-0.80272 0.43608,-1.25704 1.30586,-1.35562 0.86975,-0.0986 2.12667,0.0274 3.75575,0.36542 0.0702,0.0138 0.12769,0.0331 0.19646,0.0471 l 0,-3.38314 c -0.0668,-0.0143 -0.12874,-0.0333 -0.19646,-0.0471 -2.40221,-0.49289 -4.25148,-0.44052 -5.5354,0.16502 -1.28394,0.61965 -1.92989,1.85659 -1.92989,3.70143 0,1.8589 0.64594,3.3528 1.92989,4.47942 1.28392,1.14068 3.1332,1.95899 5.5354,2.45189 0.0676,0.0138 0.12973,0.0224 0.19646,0.0354 z"
         style="fill:none;stroke:#c60000;stroke-width:0.99921256;stroke-miterlimit:4;stroke-opacity:1;stroke-dasharray:none"
         inkscape:connector-curvature="0" />
    </g>
  </g>
</svg>
