<?xml version="1.0" encoding="UTF-8" standalone="no"?>
<!-- Created with Inkscape (http://www.inkscape.org/) -->

<svg
   xmlns:dc="http://purl.org/dc/elements/1.1/"
   xmlns:cc="http://creativecommons.org/ns#"
   xmlns:rdf="http://www.w3.org/1999/02/22-rdf-syntax-ns#"
   xmlns:svg="http://www.w3.org/2000/svg"
   xmlns="http://www.w3.org/2000/svg"
   xmlns:sodipodi="http://sodipodi.sourceforge.net/DTD/sodipodi-0.dtd"
   xmlns:inkscape="http://www.inkscape.org/namespaces/inkscape"
   width="210mm"
   height="297mm"
   viewBox="0 0 744.09448819 1052.3622047"
   id="svg24823"
   version="1.1"
   inkscape:version="0.91 r13725"
   sodipodi:docname="1.svg">
  <defs
     id="defs24825" />
  <sodipodi:namedview
     id="base"
     pagecolor="#ffffff"
     bordercolor="#666666"
     borderopacity="1.0"
     inkscape:pageopacity="0.0"
     inkscape:pageshadow="2"
     inkscape:zoom="2.8"
     inkscape:cx="237.64386"
     inkscape:cy="450.04437"
     inkscape:document-units="px"
     inkscape:current-layer="layer1"
     showgrid="false"
     inkscape:window-width="2560"
     inkscape:window-height="1388"
     inkscape:window-x="1912"
     inkscape:window-y="-8"
     inkscape:window-maximized="1" />
  <metadata
     id="metadata24828">
    <rdf:RDF>
      <cc:Work
         rdf:about="">
        <dc:format>image/svg+xml</dc:format>
        <dc:type
           rdf:resource="http://purl.org/dc/dcmitype/StillImage" />
        <dc:title></dc:title>
      </cc:Work>
    </rdf:RDF>
  </metadata>
  <g
     inkscape:label="Layer 1"
     inkscape:groupmode="layer"
     id="layer1">
    <path
       inkscape:connector-curvature="0"
       style="fill:#000000;stroke:none;stroke-linejoin:round"
       label="Layer 1* (23) (J) (3) (J)"
       id="Layer 1* (23) (J) (3) (J)"
       d="m 460.95345,593.74621 c 0,0 -4.013,3.015 -6.089,4.455 -0.61,0.423 -1.359,0.939 -2.04,1.4 l -2.07,-3.907 c 0,0 -0.039,0.01 -0.04,0.011 0,0 -0.266,0.112 -0.538,0.223 -0.081,0.033 -0.063,0.02 -0.163,0.061 -0.336,0.139 -0.784,0.325 -1.268,0.538 -0.184,0.08 -0.363,0.155 -0.558,0.243 -0.16,0.072 -0.313,0.148 -0.477,0.223 -0.261,0.121 -0.519,0.247 -0.782,0.376 -0.285,0.139 -0.569,0.272 -0.842,0.416 -0.201,0.106 -0.381,0.219 -0.568,0.325 -0.073,0.041 -0.153,0.08 -0.223,0.121 -0.036,0.021 -0.078,0.041 -0.112,0.061 0.029,-0.436 0.049,-0.871 0.071,-1.309 0.006,-0.112 0.015,-0.222 0.02,-0.335 0.004,-0.081 0.007,-0.162 0.01,-0.243 0.02,-0.467 0.03,-0.941 0.041,-1.411 0.771,-0.444 1.64,-0.636 2.567,-0.7 1.031,-0.072 2.127,-0.04 3.126,-0.142 3.297,-0.338 9.935,-0.406 9.935,-0.406 z m -190.232,-2.496 c 0,0 6.638,0.068 9.935,0.406 0.999,0.102 2.095,0.07 3.125,0.142 1.03,0.071 1.989,0.293 2.821,0.852 0.351,0.236 0.655,0.52 0.914,0.842 10e-4,0.002 -0.002,0.008 0,0.01 0.002,0.509 0.008,1.017 0.02,1.523 0.012,0.505 0.029,1.009 0.051,1.512 -0.145,-0.107 -0.291,-0.212 -0.437,-0.315 -0.007,-0.005 -0.013,-0.015 -0.02,-0.02 -0.11,-0.078 -0.23,-0.154 -0.355,-0.234 -0.008,-0.004 -0.013,-0.015 -0.021,-0.02 -0.128,-0.081 -0.264,-0.161 -0.405,-0.243 -0.007,-0.004 -0.014,-0.007 -0.021,-0.011 -0.291,-0.169 -0.606,-0.339 -0.933,-0.507 -0.007,-0.003 -0.014,-0.007 -0.021,-0.01 -0.325,-0.167 -0.668,-0.338 -1.004,-0.497 -0.01,-0.005 -0.021,-0.006 -0.031,-0.01 -0.335,-0.159 -0.663,-0.315 -0.984,-0.457 -0.01,-0.005 -0.02,-0.006 -0.03,-0.01 -0.32,-0.142 -0.624,-0.277 -0.904,-0.396 -0.858,-0.367 -1.461,-0.609 -1.461,-0.609 l -0.01,0.01 c -10e-4,0 -0.031,-0.01 -0.031,-0.01 l -2.07,3.907 c -0.68,-0.461 -1.429,-0.977 -2.039,-1.4 -2.076,-1.44 -6.089,-4.455 -6.089,-4.455 z m 85.343,-210.03074 c 7.914,4.98268 10.528,13.37044 10.615,24.71004 -0.081,-2e-4 -0.162,0 -0.244,0 -0.511,0 -1.022,0.0107 -1.532,0.0203 -0.449,0.009 -0.893,0.0248 -1.339,0.0406 -0.061,0.002 -0.122,-0.002 -0.183,0 0.305,-0.0124 0.607,-0.0325 0.913,-0.0406 -0.115,-4.4166 -0.204,-9.1992 -1.979,-12.5935 -3.302,-6.31559 -7.937,-9.75689 -11.7,-10.08697 7.005,6.25117 8.121,13.40927 9.123,22.93417 0.202,-0.0167 0.407,-0.0251 0.609,-0.0406 -0.718,0.0543 -1.43,0.1197 -2.141,0.1928 -0.597,0.0614 -1.194,0.1285 -1.786,0.203 -0.245,0.0307 -0.488,0.0686 -0.731,0.1015 -0.458,0.0618 -0.915,0.1232 -1.37,0.1928 -0.179,0.0274 -0.359,0.0525 -0.538,0.0812 -0.543,0.0869 -1.084,0.1862 -1.624,0.2841 -0.084,0.0153 -0.169,0.025 -0.253,0.0406 -0.699,-5.0313 -2.81,-9.6704 -5.774,-13.4967 -4.099,-5.801 -8.428,-9.0207 -16.257,-10.21884 5.321,3.60972 10.059,8.58184 13.222,13.68944 2.194,3.6706 3.523,7.1664 4.222,11.0104 -0.396,0.0978 -0.794,0.2009 -1.187,0.3045 -0.15,0.0393 -0.298,0.0816 -0.447,0.1218 -0.434,0.1171 -0.867,0.2308 -1.299,0.3551 -0.041,0.0119 -0.081,0.0287 -0.122,0.0406 -0.548,0.159 -1.09,0.3168 -1.633,0.4872 -0.021,0.006 -0.041,0.0138 -0.061,0.0202 -0.366,0.1149 -0.733,0.2351 -1.096,0.3552 -0.211,0.0697 -0.42,0.1417 -0.629,0.2131 -0.936,0.3183 -1.862,0.6525 -2.781,1.0046 -2.846,-3.5099 -5.297,-6.2377 -9.011,-9.1939 -3.942,-2.9865 -9.255,-5.1774 -13.71,-5.0232 -1.247,0.0431 -2.425,0.2774 -3.491,0.7205 10.986,2.8028 17.398,9.7165 21.656,15.4146 -0.37,0.169 -0.74,0.3431 -1.106,0.5175 -0.22,0.1049 -0.441,0.2078 -0.66,0.3146 -1.224,0.5972 -2.425,1.2299 -3.613,1.8875 -0.438,0.2428 -0.876,0.4899 -1.309,0.7408 -0.432,0.2501 -0.862,0.5031 -1.288,0.7611 -0.43,0.2598 -0.855,0.5238 -1.279,0.7915 -0.422,0.2662 -0.842,0.538 -1.258,0.8119 -1.33,-1.7397 -2.931,-3.1671 -4.871,-5.0232 -6.167,-4.564 -10.565,-6.0231 -15.385,-6.109 -2.19,-0.0391 -4.463,0.2072 -7.032,0.5682 10.819,2.8401 17.48,6.3684 23.036,13.5576 -0.167,0.1263 -0.332,0.2569 -0.498,0.3856 -0.365,0.2813 -0.725,0.5649 -1.085,0.8524 -2.356,-1.9777 -4.977,-3.5582 -7.611,-4.3128 -2.187,-0.4828 -4.454,-0.9276 -6.657,-0.9438 -2.204,-0.0161 -4.344,0.3883 -6.272,1.5933 10.03,0.8895 14.525,3.3259 17.495,6.2104 0.125,-0.1099 0.25,-0.2158 0.376,-0.3247 -0.17,0.148 -0.339,0.2971 -0.508,0.4465 -0.257,0.2289 -0.516,0.4579 -0.771,0.6901 -0.267,0.2433 -0.528,0.4938 -0.792,0.7408 -0.197,0.1849 -0.393,0.3711 -0.588,0.5581 -0.094,0.0893 -0.191,0.1741 -0.284,0.2638 -1.806,-1.0956 -3.613,-2.0932 -5.308,-2.3644 -1.49,-0.2385 -3.163,-0.3847 -4.82,-0.3754 -2.762,0.0152 -5.483,0.4696 -7.286,1.6946 5.981,-0.1937 10.889,1.0182 15.09,3.3792 -0.319,0.3348 -0.631,0.6745 -0.944,1.0148 -0.047,0.0512 -0.095,0.101 -0.142,0.1523 -1.546,1.6911 -3.019,3.4546 -4.414,5.2769 -0.721,0.9407 -1.423,1.8981 -2.101,2.8718 -0.272,0.3906 -0.536,0.7814 -0.802,1.1772 -0.122,0.1821 -0.244,0.3647 -0.365,0.548 -0.047,0.0715 -0.095,0.1413 -0.142,0.213 -0.223,0.3419 -0.441,0.6896 -0.66,1.0351 -0.315,0.4998 -0.629,1.0047 -0.933,1.512 -0.538,0.8967 -1.06,1.8002 -1.563,2.7197 -0.044,0.0815 -0.088,0.1618 -0.132,0.2435 -0.129,0.2386 -0.258,0.4805 -0.385,0.7205 -0.125,0.2352 -0.254,0.4737 -0.376,0.7104 -0.052,0.1004 -0.101,0.2037 -0.152,0.3044 -0.193,0.3774 -0.382,0.7556 -0.568,1.1366 -0.077,0.1553 -0.148,0.3108 -0.224,0.4668 -0.26,0.5393 -0.513,1.0774 -0.761,1.6236 -0.215,0.4746 -0.423,0.9513 -0.629,1.4309 -0.062,0.1445 -0.121,0.2914 -0.183,0.4363 -0.139,0.3299 -0.28,0.6624 -0.416,0.9945 -0.105,0.2574 -0.212,0.5125 -0.314,0.7713 -0.108,0.2722 -0.21,0.5482 -0.315,0.8219 -0.087,0.2274 -0.179,0.4516 -0.264,0.6799 -0.027,0.0743 -0.054,0.149 -0.081,0.2233 -0.165,0.4479 -0.32,0.8979 -0.477,1.3497 -0.198,0.5716 -0.393,1.1475 -0.578,1.7251 -0.186,0.5764 -0.366,1.1531 -0.538,1.7353 -0.14,0.4708 -0.275,0.9361 -0.406,1.4106 -0.032,0.1149 -0.06,0.2299 -0.091,0.345 -0.138,0.5083 -0.278,1.0199 -0.406,1.5323 -0.086,0.3426 -0.163,0.6907 -0.244,1.0351 -0.038,0.1619 -0.074,0.3248 -0.111,0.4871 -0.077,0.3337 -0.152,0.6693 -0.224,1.0046 -0.069,0.324 -0.137,0.6487 -0.203,0.9742 -0.038,0.1894 -0.074,0.3784 -0.111,0.5683 -0.103,0.5285 -0.203,1.0609 -0.295,1.5932 -0.105,0.6098 -0.202,1.2222 -0.294,1.8368 -0.091,0.6138 -0.176,1.2284 -0.253,1.8469 -0.078,0.6214 -0.151,1.2413 -0.214,1.8671 -0.254,0.0252 -0.691,0.0686 -0.923,0.0914 -1.059,0.1038 -1.602,1.5686 -1.776,2.6181 -0.274,1.655 1.21,3.159 1.35,4.83 0.22,2.638 -2.561,7.108 0.943,8.2 l 0,59.852 c -0.142,-0.286 -0.314,-0.629 -0.314,-0.629 -0.872,3.073 -1.208,12.661 -0.183,15.496 0.083,0.228 0.163,0.443 0.244,0.649 10e-4,0.004 0.008,0.006 0.01,0.01 0.079,0.202 0.154,0.395 0.233,0.579 0.003,0.006 0.008,0.013 0.01,0.02 l 0,2.628 c -2.809,1.105 -8.709,3.407 -11.599,4.384 -4.066,1.375 -8.449,1.905 -12.268,3.856 -2.05,1.047 -4.108,2.337 -5.541,4.13 -1.365,1.708 -2.41,3.815 -2.689,5.978 -0.297,4.612 2.387,8.033 5.743,10.472 2.925,2.124 5.58,3.248 8.9,4.689 1.292,0.56 2.606,1.061 3.927,1.552 l -1.806,3.44 6.089,1.705 0.132,0.721 0.253,1.522 c -0.032,-0.024 -0.317,-0.238 -0.761,-0.518 -0.073,-0.047 -0.154,-0.103 -0.233,-0.152 -0.078,-0.046 -0.151,-0.085 -0.234,-0.132 -0.179,-0.104 -0.364,-0.199 -0.558,-0.294 -0.004,-0.002 -0.006,-0.008 -0.01,-0.01 -0.568,-0.276 -1.172,-0.483 -1.644,-0.427 -1.407,0.168 -2.717,1.307 -3.349,2.568 -0.005,0.01 -0.015,0.02 -0.02,0.03 -0.056,0.115 -0.103,0.237 -0.152,0.355 -0.435,1.045 -0.564,2.214 -0.487,3.39 0.008,0.139 0.026,0.277 0.04,0.416 10e-4,0.007 0,0.014 0,0.02 0.015,0.139 0.032,0.278 0.051,0.416 0.001,0.007 -10e-4,0.014 0,0.021 0.02,0.138 0.047,0.278 0.071,0.416 0.019,0.103 0.04,0.202 0.061,0.304 0.095,0.469 0.208,0.931 0.345,1.37 0.046,0.148 0.099,0.297 0.152,0.447 0.002,0.004 0.009,0.006 0.01,0.01 0.052,0.145 0.095,0.29 0.153,0.436 10e-4,0.004 0.008,0.006 0.01,0.01 0.058,0.146 0.118,0.291 0.183,0.437 10e-4,0.004 0.008,0.006 0.01,0.01 0.064,0.145 0.132,0.292 0.203,0.436 0.002,0.004 0.008,0.006 0.01,0.01 0.071,0.144 0.136,0.295 0.213,0.437 0.002,0.004 0.008,0.006 0.01,0.01 0.874,1.601 2.131,3.037 3.714,3.673 0.202,0.082 0.402,0.136 0.599,0.163 1.386,0.21 2.655,-0.795 4.181,-0.975 2.749,-0.323 5.782,0.755 8.301,-0.385 0.609,-0.276 1.192,-0.629 1.745,-1.035 0.227,0.601 0.456,1.187 0.69,1.765 0.201,0.496 0.4,0.983 0.609,1.462 0.083,0.19 0.169,0.38 0.254,0.568 0.04,0.088 0.081,0.176 0.122,0.264 0.171,0.374 0.347,0.742 0.527,1.106 0.002,0.004 0.008,0.006 0.01,0.01 0.005,0.017 0.006,0.034 0.011,0.051 0.109,0.393 0.229,0.786 0.355,1.177 0.007,0.023 0.012,0.048 0.02,0.071 0.123,0.381 0.258,0.758 0.396,1.137 0.007,0.02 0.013,0.04 0.02,0.06 0.146,0.398 0.305,0.793 0.467,1.188 0.156,0.382 0.316,0.768 0.487,1.147 0.016,0.034 0.035,0.067 0.051,0.101 0.012,0.026 0.018,0.055 0.03,0.081 0.352,0.769 0.736,1.527 1.147,2.283 0.647,1.189 1.365,2.357 2.151,3.512 0.26,0.382 0.527,0.768 0.802,1.146 0.277,0.381 0.561,0.76 0.852,1.137 0.293,0.378 0.587,0.753 0.893,1.126 0.056,0.068 0.107,0.136 0.163,0.203 0.559,0.675 1.15,1.34 1.755,1.999 0.332,0.362 0.67,0.72 1.015,1.076 0.346,0.358 0.696,0.713 1.055,1.066 0.664,0.651 1.344,1.295 2.05,1.928 0.057,0.05 0.116,0.101 0.173,0.152 0.003,0.003 0.006,0.007 0.01,0.01 0.359,0.319 0.727,0.64 1.096,0.954 0.073,0.062 0.15,0.121 0.223,0.183 0.215,0.181 0.432,0.358 0.65,0.537 0.216,0.178 0.429,0.362 0.649,0.538 0.03,0.025 0.061,0.047 0.091,0.071 0.296,0.237 0.592,0.467 0.893,0.701 0.378,0.291 0.761,0.585 1.147,0.872 0.043,0.032 0.089,0.06 0.132,0.092 0.305,0.225 0.613,0.447 0.924,0.669 0.203,0.146 0.403,0.293 0.608,0.437 0.366,0.256 0.734,0.509 1.107,0.761 0.45,0.304 0.909,0.605 1.369,0.903 0.439,0.284 0.872,0.565 1.32,0.842 0.023,0.015 0.047,0.026 0.071,0.041 0.358,0.221 0.722,0.442 1.086,0.659 0.114,0.069 0.23,0.135 0.345,0.203 0.481,0.285 0.97,0.565 1.461,0.843 0.185,0.104 0.372,0.211 0.558,0.314 0.307,0.171 0.613,0.34 0.924,0.508 0.899,0.486 1.812,0.969 2.739,1.43 0.098,0.049 0.196,0.094 0.295,0.143 0.456,0.225 0.917,0.44 1.38,0.659 0.061,0.029 0.121,0.062 0.182,0.091 l 2.091,10.717 c 0.025,0.105 0.057,0.208 0.101,0.314 0.006,0.014 0.015,0.027 0.021,0.041 0.043,0.099 0.092,0.205 0.152,0.304 0.005,0.008 0.015,0.013 0.02,0.021 0.008,0.012 0.012,0.027 0.02,0.04 0.06,0.095 0.13,0.189 0.204,0.284 0.076,0.099 0.162,0.196 0.253,0.295 0.031,0.033 0.059,0.068 0.091,0.101 0.014,0.014 0.027,0.026 0.041,0.041 0.078,0.079 0.156,0.154 0.244,0.233 0.107,0.098 0.224,0.197 0.345,0.294 0.02,0.017 0.039,0.034 0.061,0.051 0.065,0.052 0.134,0.101 0.203,0.152 0.081,0.062 0.157,0.122 0.243,0.183 0.03,0.021 0.061,0.04 0.091,0.061 0.231,0.159 0.479,0.319 0.741,0.477 0.256,0.153 0.518,0.306 0.802,0.456 0.014,0.008 0.027,0.013 0.04,0.021 0.292,0.154 0.605,0.306 0.924,0.456 0.645,0.305 1.337,0.598 2.08,0.883 0.282,0.108 0.569,0.22 0.863,0.325 0.095,0.034 0.187,0.068 0.284,0.101 0.051,0.018 0.101,0.034 0.152,0.051 -1.434,0.144 -3.331,0.384 -4.546,0.711 -1.766,0.474 -3.656,0.929 -5.054,2.1 -1.333,1.11803 -2.209,2.77503 -2.801,4.40403 -0.531,1.464 -0.571,3.071 -0.598,4.628 -0.021,1.165 0.335,3.47 0.335,3.47 0,0 5.544,0.789 8.341,0.883 2.724,0.092 5.483,0.032 8.189,-0.284 2.171,-0.253 4.333,-0.606 6.404,-1.299 2.059,-0.689 5.886,-2.831 5.886,-2.831 l 9.538,-0.69 c 0,0 0.479,-4.871 0.244,-7.307 -0.068,-0.70503 -0.23,-1.58403 -0.426,-2.47603 0.176,-0.065 0.346,-0.132 0.517,-0.203 0.007,-0.003 0.014,-0.007 0.021,-0.01 0.17,-0.071 0.342,-0.147 0.507,-0.223 0.007,-0.003 0.014,-0.007 0.02,-0.01 0.007,-0.003 0.014,-0.007 0.021,-0.01 0.335,-0.155 0.662,-0.321 0.974,-0.498 l -0.508,-6.809 c 0.658,0.04 1.321,0.075 1.979,0.102 0.123,0.005 0.243,0.005 0.366,0.01 0.572,0.021 1.141,0.04 1.715,0.051 0.311,0.005 0.622,0.007 0.933,0.01 0.598,0.005 1.198,0.006 1.796,0 0.754,-0.008 1.51,-0.025 2.263,-0.051 l -0.466,5.825 c 0.406,0.159 0.845,0.312 1.299,0.456 0.118,0.039 0.233,0.075 0.355,0.112 0.081,0.025 0.16,0.046 0.243,0.071 -0.339,1.245 -0.679,2.644 -0.812,3.76503 -0.286,2.43 0.092,7.327 0.092,7.327 l 9.549,0.893 c 0,0 3.74,2.238 5.784,2.973 2.056,0.74 4.238,1.129 6.403,1.431 2.699,0.377 5.445,0.497 8.169,0.467 2.799,-0.032 8.342,-0.69 8.342,-0.69 0,0 0.432,-2.295 0.436,-3.461 0.006,-1.557 -0.017,-3.182 -0.517,-4.658 -0.557,-1.642 -1.391,-3.307 -2.7,-4.455 -1.372,-1.20203 -3.267,-1.68803 -5.023,-2.20203 -1.495,-0.437 -4.111,-0.774 -5.48,-0.933 0.076,-0.02 0.149,-0.041 0.224,-0.061 0.082,-0.023 0.161,-0.048 0.243,-0.071 0.277,-0.078 0.552,-0.159 0.822,-0.244 0.348,-0.108 0.689,-0.214 1.025,-0.335 0.007,-0.002 0.013,-0.007 0.02,-0.01 0.298,-0.106 0.585,-0.219 0.873,-0.335 0.042,-0.016 0.081,-0.033 0.122,-0.05 0.293,-0.12 0.581,-0.246 0.863,-0.376 0.323,-0.149 0.636,-0.304 0.943,-0.467 0.308,-0.162 0.612,-0.33 0.903,-0.507 0.013,-0.008 0.028,-0.012 0.041,-0.02 0.048,-0.03 0.094,-0.062 0.142,-0.092 0.188,-0.117 0.369,-0.242 0.548,-0.365 0.042,-0.029 0.09,-0.052 0.132,-0.081 0.128,-0.09 0.252,-0.181 0.375,-0.274 0.004,-0.003 0.007,-0.007 0.011,-0.01 0.127,-0.096 0.252,-0.195 0.375,-0.295 l 2.304,-12.664 c 0.092,-0.05 0.182,-0.102 0.274,-0.152 0.339,-0.188 0.678,-0.375 1.014,-0.569 0.374,-0.215 0.756,-0.437 1.127,-0.659 0.054,-0.033 0.108,-0.069 0.162,-0.102 0.389,-0.235 0.771,-0.467 1.157,-0.71 0.035,-0.022 0.067,-0.049 0.102,-0.071 0.402,-0.255 0.809,-0.507 1.207,-0.771 0.018,-0.012 0.033,-0.029 0.051,-0.041 0.788,-0.523 1.563,-1.064 2.334,-1.624 0.043,-0.031 0.088,-0.059 0.132,-0.091 0.013,-0.01 0.027,-0.02 0.04,-0.03 0.396,-0.289 0.787,-0.585 1.178,-0.883 0.026,-0.021 0.054,-0.041 0.081,-0.061 0.373,-0.286 0.747,-0.578 1.116,-0.873 0.043,-0.034 0.089,-0.067 0.132,-0.101 0.354,-0.284 0.706,-0.571 1.055,-0.863 0.057,-0.048 0.116,-0.094 0.173,-0.142 0.333,-0.28 0.665,-0.565 0.994,-0.852 0.072,-0.063 0.142,-0.13 0.213,-0.193 0.315,-0.277 0.623,-0.558 0.934,-0.843 0.085,-0.077 0.169,-0.155 0.254,-0.233 0.294,-0.272 0.592,-0.543 0.883,-0.822 0.098,-0.094 0.196,-0.189 0.294,-0.284 0.275,-0.267 0.55,-0.539 0.822,-0.812 0.111,-0.111 0.224,-0.222 0.335,-0.335 0.256,-0.26 0.507,-0.526 0.761,-0.791 0.316,-0.331 0.632,-0.666 0.944,-1.005 0.047,-0.051 0.095,-0.101 0.142,-0.152 0.135,-0.148 0.271,-0.297 0.406,-0.447 0.22,-0.245 0.441,-0.491 0.659,-0.74 0.146,-0.167 0.292,-0.339 0.437,-0.508 0.203,-0.237 0.407,-0.479 0.608,-0.72 0.158,-0.188 0.311,-0.378 0.467,-0.569 0.003,-0.003 0.007,-0.006 0.01,-0.01 0.325,-0.397 0.645,-0.8 0.964,-1.207 0.027,-0.034 0.055,-0.068 0.082,-0.102 0.169,-0.217 0.339,-0.439 0.507,-0.659 0.177,-0.232 0.353,-0.465 0.528,-0.701 0.152,-0.205 0.305,-0.411 0.456,-0.619 0.056,-0.076 0.107,-0.156 0.163,-0.233 0.268,-0.372 0.537,-0.746 0.801,-1.126 0.318,-0.458 0.633,-0.922 0.944,-1.391 0.312,-0.47 0.619,-0.949 0.924,-1.431 0.297,-0.47 0.592,-0.949 0.882,-1.43 0.007,-0.011 0.014,-0.02 0.021,-0.031 0.216,-0.36 0.437,-0.72 0.649,-1.086 0.078,-0.134 0.156,-0.27 0.234,-0.406 0.222,-0.388 0.441,-0.781 0.659,-1.177 0.065,-0.117 0.129,-0.237 0.193,-0.355 0.011,-0.02 0.02,-0.041 0.03,-0.061 0.272,-0.499 0.538,-1.001 0.802,-1.512 0.232,-0.448 0.464,-0.893 0.69,-1.349 0.04,-0.081 0.082,-0.163 0.122,-0.244 0.235,-0.477 0.472,-0.965 0.7,-1.451 0.03,-0.064 0.062,-0.129 0.091,-0.193 0.069,-0.148 0.135,-0.298 0.203,-0.446 0.187,-0.407 0.366,-0.815 0.548,-1.228 0.08,-0.18 0.154,-0.367 0.234,-0.548 0.566,0.42 1.17,0.782 1.796,1.065 2.519,1.14 5.542,0.073 8.291,0.396 1.5,0.176 2.76,1.132 4.12,0.964 0.177,-0.022 0.356,-0.057 0.538,-0.122 0.033,-0.011 0.068,-0.017 0.101,-0.03 0.007,-0.003 0.014,-0.008 0.021,-0.01 0.006,-0.003 0.013,-0.008 0.02,-0.011 0.274,-0.111 0.537,-0.249 0.791,-0.405 0.007,-0.004 0.014,-0.007 0.021,-0.011 0.127,-0.078 0.253,-0.165 0.375,-0.253 0.006,-0.005 0.014,-0.006 0.02,-0.01 0.122,-0.09 0.239,-0.186 0.356,-0.285 0.005,-0.004 0.014,-0.005 0.02,-0.01 0.116,-0.098 0.224,-0.207 0.335,-0.314 0.005,-0.005 0.015,-0.005 0.02,-0.01 0.113,-0.109 0.218,-0.219 0.325,-0.335 0.003,-0.004 0.007,-0.007 0.01,-0.01 0.107,-0.117 0.213,-0.242 0.314,-0.366 0.004,-0.003 0.008,-0.006 0.011,-0.01 0.099,-0.122 0.2,-0.248 0.294,-0.375 0.004,-0.006 0.006,-0.015 0.01,-0.021 0.052,-0.07 0.102,-0.141 0.152,-0.213 0.045,-0.063 0.089,-0.128 0.132,-0.193 0.09,-0.134 0.17,-0.267 0.254,-0.406 0.002,-0.003 0.008,-0.006 0.01,-0.01 0.084,-0.138 0.166,-0.284 0.244,-0.426 0.002,-0.004 0.008,-0.006 0.01,-0.01 0.024,-0.044 0.048,-0.088 0.071,-0.132 0.126,-0.238 0.236,-0.478 0.345,-0.72 0.006,-0.014 0.014,-0.027 0.02,-0.041 0.063,-0.143 0.125,-0.283 0.183,-0.426 0.003,-0.007 0.007,-0.014 0.01,-0.02 0.058,-0.147 0.11,-0.291 0.162,-0.437 10e-4,-0.003 -10e-4,-0.007 0,-0.01 0.052,-0.146 0.107,-0.282 0.152,-0.426 0.002,-0.006 -10e-4,-0.014 0,-0.021 0.046,-0.144 0.081,-0.297 0.122,-0.446 0.035,-0.126 0.08,-0.247 0.112,-0.375 0.067,-0.274 0.123,-0.552 0.172,-0.833 0.002,-0.006 -10e-4,-0.013 0,-0.02 0.025,-0.137 0.052,-0.278 0.072,-0.416 0,-0.007 -0.002,-0.014 0,-0.02 0.04,-0.283 0.072,-0.559 0.091,-0.843 0,-0.01 -10e-4,-0.02 0,-0.03 0.072,-1.166 -0.056,-2.334 -0.487,-3.369 -0.048,-0.116 -0.097,-0.233 -0.153,-0.345 -0.006,-0.013 -0.013,-0.027 -0.02,-0.041 -0.072,-0.144 -0.154,-0.286 -0.243,-0.426 -0.69,-1.082 -1.859,-1.993 -3.106,-2.141 -0.785,-0.094 -1.928,0.532 -2.679,1.015 -0.007,0.004 -0.013,0.015 -0.02,0.02 -0.139,0.09 -0.27,0.17 -0.375,0.244 -0.224,0.152 -0.345,0.247 -0.366,0.263 l 0.244,-1.502 0.142,-0.75 6.089,-1.705 -1.807,-3.44 c 1.322,-0.492 2.636,-0.993 3.928,-1.553 3.319,-1.44 5.975,-2.564 8.899,-4.688 3.356,-2.44 6.041,-5.861 5.744,-10.473 -0.279,-2.163 -1.325,-4.27 -2.689,-5.977 -1.433,-1.794 -3.491,-3.083 -5.541,-4.13 -3.82,-1.951 -8.203,-2.481 -12.269,-3.856 -2.554,-0.864 -7.361,-2.724 -10.412,-3.918 l 0,-0.608 c 0.193,-0.261 0.387,-0.526 0.579,-0.792 0,0 1.489,-7.969 0.741,-10.402 -0.55,-1.785 -0.974,-6.291 -0.974,-6.291 -0.114,0.196 -0.231,0.385 -0.346,0.578 l 0,-58.725 c 0.838,-0.318 1.312,-2.153 1.472,-3.055 0.442,-2.497 -1.015,-4.432 -0.437,-6.9 1.235,-1.923 1.537,-2.982 1.208,-4.192 -0.03,-0.11 -0.061,-0.221 -0.101,-0.334 -0.161,-0.453 -0.404,-0.937 -0.711,-1.502 -0.388,-0.09 -0.909,-0.2 -1.491,-0.315 -0.027,-0.66 -0.069,-1.313 -0.112,-1.969 -0.043,-0.6553 -0.093,-1.3071 -0.152,-1.9582 -0.059,-0.6481 -0.129,-1.2948 -0.203,-1.9382 -0.075,-0.6472 -0.154,-1.296 -0.244,-1.9383 -0.089,-0.6392 -0.189,-1.2735 -0.294,-1.9077 -0.105,-0.6346 -0.215,-1.2685 -0.335,-1.8977 -0.121,-0.6331 -0.25,-1.2599 -0.386,-1.8875 -0.004,-0.0202 -0.005,-0.0406 -0.01,-0.0609 -0.401,-1.8509 -0.862,-3.6805 -1.39,-5.4798 -0.155,-0.5299 -0.321,-1.0579 -0.487,-1.5831 -0.024,-0.0748 -0.047,-0.1484 -0.071,-0.2232 -10e-4,-0.003 0.001,-0.007 0,-0.0102 -0.192,-0.599 -0.393,-1.1933 -0.599,-1.786 -0.031,-0.091 -0.059,-0.1831 -0.091,-0.274 -0.176,-0.5018 -0.352,-1.0048 -0.538,-1.5019 -0.095,-0.2559 -0.196,-0.5064 -0.294,-0.761 -0.128,-0.33 -0.255,-0.6567 -0.386,-0.9844 -0.017,-0.0437 -0.033,-0.0883 -0.051,-0.1319 -0.216,-0.5379 -0.441,-1.0715 -0.669,-1.6034 -0.088,-0.2043 -0.175,-0.4054 -0.264,-0.6089 -0.162,-0.3682 -0.32,-0.7307 -0.487,-1.0959 -0.165,-0.3595 -0.338,-0.7192 -0.508,-1.0757 -0.098,-0.2064 -0.194,-0.4136 -0.294,-0.619 -0.074,-0.1528 -0.148,-0.3045 -0.223,-0.4567 -0.2,-0.4038 -0.403,-0.8077 -0.609,-1.2076 -0.158,-0.3068 -0.325,-0.6089 -0.487,-0.9133 -0.187,-0.3498 -0.377,-0.6986 -0.569,-1.0452 -0.242,-0.4386 -0.48,-0.8757 -0.73,-1.3091 -0.146,-0.2529 -0.298,-0.4999 -0.447,-0.7509 3.824,-1.6 9.233,-0.4431 12.898,-0.5784 0,0 -3.797,-2.6995 -5.997,-3.3286 -1.361,-0.3129 -2.65,-0.4547 -3.897,-0.4566 -1.783,-0.003 -3.486,0.287 -5.246,0.7814 -0.084,-0.1261 -0.17,-0.2503 -0.254,-0.3755 -0.08,-0.1188 -0.163,-0.2368 -0.244,-0.3552 -0.185,-0.2707 -0.369,-0.5424 -0.558,-0.8118 3.903,-3.3075 8.338,-5.1748 12.624,-7.1035 -0.713,-0.0358 -1.404,-0.0441 -2.08,-0.0305 -4.729,0.0957 -8.586,1.4182 -12.228,4.2013 -0.1,0.076 -0.204,0.1475 -0.305,0.2232 -0.139,-0.1818 -0.285,-0.3576 -0.426,-0.5378 -0.018,-0.0229 -0.033,-0.0482 -0.051,-0.0711 -0.016,-0.0208 -0.034,-0.04 -0.05,-0.0609 -0.364,-0.4609 -0.733,-0.9172 -1.107,-1.3699 -0.135,-0.1649 -0.268,-0.3332 -0.405,-0.4973 7.685,-5.7159 19.366,-3.4255 24.121,-2.5674 0,0 -4.217,-3.469 -9.092,-4.5259 -5.39,-1.1684 -9.549,0.3537 -14.319,2.1006 5.854,-8.538 19.847,-2.2993 25.999,-3.8055 -5.947,-2.1613 -7.386,-4.2317 -15.141,-4.2519 -1.436,-0.004 -3.084,0.0637 -5.023,0.2131 -4.408,0.3397 -7.814,4.5433 -11.142,7.7935 -0.326,-0.3273 -0.654,-0.6526 -0.985,-0.9741 -0.087,-0.085 -0.176,-0.1692 -0.264,-0.2537 -0.442,-0.426 -0.897,-0.8428 -1.349,-1.2584 -0.428,-0.3927 -0.852,-0.7837 -1.289,-1.167 -0.027,-0.0238 -0.054,-0.0472 -0.081,-0.071 -0.024,-0.0206 -0.048,-0.0403 -0.071,-0.0609 -0.439,-0.3828 -0.883,-0.7634 -1.33,-1.1366 -0.261,-0.2186 -0.527,-0.4342 -0.791,-0.6494 -0.212,-0.1722 -0.426,-0.3475 -0.639,-0.5176 -0.15,-0.119 -0.297,-0.2372 -0.447,-0.3551 -0.333,-0.2615 -0.667,-0.5151 -1.005,-0.7713 -0.03,-0.0231 -0.06,-0.0479 -0.091,-0.071 6.456,-6.5519 15.61,-9.9981 25.075,-9.0925 -2.583,-1.9996 -5.511,-2.7864 -8.483,-2.8109 -4.345,-0.036 -8.784,1.5473 -12.391,3.298 -2.158,1.4243 -5.333,3.5117 -8.159,5.8046 -0.162,-0.1075 -0.324,-0.2183 -0.487,-0.3247 -0.235,-0.154 -0.473,-0.3053 -0.71,-0.4567 -0.284,-0.1814 -0.566,-0.36 -0.853,-0.5379 -0.116,-0.0724 -0.237,-0.1412 -0.355,-0.213 -0.186,-0.1146 -0.37,-0.232 -0.558,-0.3451 -0.219,-0.1316 -0.439,-0.2661 -0.659,-0.3957 -0.007,-0.004 -0.014,-0.006 -0.021,-0.0102 -0.229,-0.1348 -0.459,-0.2632 -0.69,-0.3958 -0.176,-0.1014 -0.35,-0.2043 -0.527,-0.3044 -0.277,-0.1562 -0.554,-0.3138 -0.833,-0.4668 -0.396,-0.218 -0.796,-0.428 -1.197,-0.6393 -0.547,-0.2882 -1.1,-0.5668 -1.654,-0.8423 -0.041,-0.0201 -0.081,-0.0408 -0.122,-0.0609 -0.429,-0.2121 -0.855,-0.4248 -1.289,-0.6291 3.913,-9.5888 11.665,-14.2437 25.938,-18.8954 -1.346,-0.1485 -2.651,-0.23 -3.907,-0.2334 -6.782,-0.018 -12.375,2.1173 -18.286,6.6875 -3.997,3.0899 -6.08,6.8028 -7.987,10.6045 -0.618,-0.2482 -1.24,-0.4876 -1.867,-0.7205 -0.628,-0.2338 -1.261,-0.4618 -1.897,-0.6799 -0.626,-0.2146 -1.255,-0.43 -1.888,-0.6292 -0.01,-0.003 -0.02,-0.007 -0.03,-0.0102 -0.01,-0.003 -0.021,-0.007 -0.031,-0.01 -0.25,-0.0785 -0.5,-0.1575 -0.751,-0.2335 3.848,-8.4029 11.287,-11.9708 16.572,-15.6683 -6.057,-0.0371 -10.416,2.6807 -14.674,6.0887 -2.674,2.14 -4.822,5.0055 -6.413,8.1285 -0.089,0.0501 -0.193,0.1097 -0.285,0.1623 -0.241,-0.0568 -0.487,-0.1077 -0.73,-0.1623 -0.071,-0.0159 -0.143,-0.025 -0.213,-0.0406 -0.585,-0.1297 -1.167,-0.2587 -1.756,-0.3755 -0.567,-0.1124 -1.134,-0.2245 -1.705,-0.3247 -0.061,-0.0107 -0.122,-0.0199 -0.182,-0.0304 -0.041,-0.007 -0.082,-0.0134 -0.122,-0.0204 -0.593,-0.1016 -1.189,-0.1956 -1.786,-0.2841 -0.091,-0.0134 -0.183,-0.0275 -0.274,-0.0406 -0.55,-0.0794 -1.101,-0.1551 -1.654,-0.2233 -0.597,-0.0735 -1.196,-0.1427 -1.797,-0.2029 -0.047,-0.005 -0.094,-0.005 -0.142,-0.0101 -0.26,-0.0257 -0.52,-0.048 -0.781,-0.0711 -0.078,-0.007 -0.156,-0.0136 -0.233,-0.0203 -0.413,-0.0352 -0.824,-0.0725 -1.238,-0.1015 -0.054,-0.004 -0.109,-0.006 -0.163,-0.0101 0.04,-2.492 -0.152,-5.1992 -0.609,-7.6211 -1.4,-9.79234 -7.41,-16.71945 -15.232,-17.27164 z" />
    <path
       inkscape:connector-curvature="0"
       style="fill:#f8e67c;stroke:none;stroke-linejoin:round"
       label="Layer 1* (7) (J) (B)"
       id="Layer 1* (7) (J) (B)"
       d="m 366.73945,577.48921 c -5.135,-0.404 -12.823,-2.774 -17.617,-5.431 -8.981,-4.976 -15.973,-15.761 -19.001,-29.31 -0.102,-0.455 -0.076,-0.491 0.289,-0.399 8.109,2.035 35.854,1.355 69.572,-1.705 3.581,-0.325 6.539,-0.562 6.574,-0.527 0.035,0.035 -0.105,1.087 -0.311,2.337 -2.352,14.231 -9.566,26.118 -18.526,30.526 -5.978,2.941 -15.341,4.953 -20.98,4.509 z m 0.509,-91.279 c -6.583,-2.152 -5.271,-11.7009 1.604,-11.6707 6.293,0.0275 8.238,8.4587 2.592,11.2377 -1.31,0.645 -3.01,0.821 -4.196,0.433 z m -19.172,195.504 c 3.396,0.445 10.26,0.025 12.876,-0.789 2.448,-0.761 3.371,-1.285 3.295,-1.872 -0.138,-1.076 -0.449,-6.061 -0.383,-6.128 0.038,-0.038 2.078,-0.018 4.534,0.043 4.41,0.11 4.465,0.116 4.392,0.475 -0.041,0.2 -0.121,1.108 -0.179,2.017 -0.057,0.909 -0.149,2.02 -0.204,2.468 l -0.1,0.815 1.717,0.532 c 10.459,3.239 25.704,1.949 31.612,-2.675 l 0.547,-0.428 1.142,-6.295 1.141,-6.294 1.646,-0.951 c 12.553,-7.247 22.634,-18.591 29.329,-33 l 0.961,-2.069 -1.065,-1.052 c -2.938,-2.901 -3.512,-5.838 -2.44,-12.471 1.343,-8.313 3.922,-13.32 7.965,-15.465 0.321,-0.17 0.391,-0.355 0.393,-1.028 0.003,-1.951 0.171,-2.57 0.758,-2.8 0.758,-0.297 6.036,-0.695 10.811,-0.814 l 4.002,-0.101 -0.505,0.404 c -0.4,0.32 -4.994,3.684 -7.044,5.158 l -0.415,0.298 2.393,4.477 c 1.316,2.462 2.449,4.477 2.516,4.477 0.572,0 7.679,-3.112 9.648,-4.225 8.594,-4.855 11.048,-11.142 6.826,-17.493 -2.254,-3.391 -6.189,-5.589 -13.332,-7.45 -3.722,-0.97 -5.491,-1.547 -10.158,-3.311 -2.404,-0.909 -4.586,-1.732 -4.849,-1.829 -0.568,-0.211 -0.595,-0.489 -0.138,-1.437 0.833,-1.728 1.367,-9.028 0.816,-11.147 -0.244,-0.937 -0.805,-4.701 -0.812,-5.447 -0.002,-0.254 -0.026,-0.259 -0.171,-0.034 -0.109,0.169 -0.169,-10.056 -0.171,-29.032 l -0.003,-29.293 0.431,-0.512 c 0.99,-1.176 1.268,-3.164 0.802,-5.719 -0.5,-2.738 -0.477,-3.133 0.277,-4.658 1.198,-2.424 0.776,-5.019 -0.871,-5.365 l -0.726,-0.153 -0.117,-1.74 c -2.527,-37.52 -30.448,-67.6745 -67.654,-73.0658 -43.683,-6.3298 -84.699,25.2931 -89.523,69.0211 l -0.11,1.0004 -0.67,0.1072 c -1.92,0.307 -2.525,2.6641 -1.373,5.3531 0.723,1.688 0.795,2.642 0.36,4.734 -0.542,2.61 -0.577,2.935 -0.399,3.728 0.168,0.745 0.942,1.737 1.357,1.737 0.187,0 0.228,5.324 0.228,29.851 0,19.856 -0.058,29.815 -0.174,29.743 -0.096,-0.059 -0.176,-0.044 -0.177,0.033 -0.002,0.078 -0.119,0.924 -0.26,1.881 -0.641,4.355 -0.498,11.245 0.28,13.479 0.22,0.633 0.331,1.424 0.331,2.367 l 0,1.417 -3.61,1.4 c -6.749,2.618 -7.5,2.866 -14.66,4.841 -5.447,1.503 -9.393,3.781 -11.386,6.573 -4.999,7.006 -1.898,13.904 8.504,18.918 3.164,1.526 7.608,3.334 7.772,3.163 0.071,-0.073 0.965,-1.699 1.987,-3.613 1.023,-1.914 2.083,-3.885 2.357,-4.38 l 0.497,-0.899 -2.038,-1.438 c -2.777,-1.959 -5.991,-4.354 -5.922,-4.411 0.031,-0.027 1.896,0.017 4.145,0.096 11.779,0.416 12.528,0.634 12.528,3.65 l 0,1.514 1.218,0.984 c 3.466,2.801 5.489,8.243 6.438,17.324 0.417,3.983 -0.415,6.678 -2.782,9.023 l -1.195,1.182 0.959,2.249 c 0.527,1.237 1.27,3.15 1.649,4.25 4.127,11.958 14.992,22.815 30.772,30.749 l 1.999,1.005 1.081,5.54 c 0.933,4.786 1.143,5.623 1.541,6.144 2.103,2.758 9.787,5.483 18.783,6.663 z" />
    <path
       inkscape:connector-curvature="0"
       style="fill:#ffffff;stroke:none;stroke-linejoin:round"
       label="Layer 1* (2)"
       id="Layer 1* (2)"
       d="m 406.55545,540.02821 c 0,0 -0.358,4.4 -2.159,10.207 -0.621,0.116 -1.212,0.162 -1.703,0.051 -1.369,-0.309 -3.084,-2.866 -3.084,-2.866 0,0 -2.369,1.224 -3.654,1.234 -4.355,0.034 -6.349,-1.926 -6.349,-1.926 0,0 -2.17,2.739 -7.186,4.21 -2.875,0.844 -6.298,0.797 -8.977,-0.55 -1.382,-0.695 -2.494,-2.229 -2.494,-2.229 0,0 -1.001,1.499 -2.042,2.295 -1.994,1.527 -5.191,2.088 -7.624,2.044 -4.051,-0.074 -9.044,-2.269 -9.044,-2.269 0,0 -1.316,2.219 -5.694,3.388 -3.707,0.99 -7.317,0.029 -7.317,0.029 l -4.479,2.164 -0.108,0.015 c -3.527,-7.172 -4.628,-13.557 -4.628,-13.557 16.776,3.152 56.706,-0.376 76.542,-2.24 z" />
    <path
       inkscape:connector-curvature="0"
       style="fill:#ff8080;stroke:none;stroke-linejoin:round"
       label="Layer 1* (1)"
       id="Layer 1* (1)"
       d="m 392.06645,556.27421 c 2.831,0.366 6.156,1.21 9.068,2.077 -2.146,4.241 -5.12,8.53 -9.238,12.011 -4.956,4.188 -15.049,6.595 -21.517,7.11 -6.649,0.529 -17.169,-2.709 -22.79,-6.299 -3.477,-2.221 -6.31,-5.102 -8.6,-8.174 2.965,-1.854 7.428,-4.378 10.403,-4.808 11.287,-1.631 21.015,1.525 21.015,1.525 0,0 9.347,-3.552 18.945,-3.637 0.824,-0.007 1.739,0.07 2.714,0.195 z" />
    <path
       inkscape:connector-curvature="0"
       style="fill:#216fc5;stroke:none;stroke-linejoin:round"
       label="Layer 1* (21) (W)"
       id="Layer 1* (21) (W)"
       d="m 348.76545,681.77621 c -8.142,-0.655 -18.241,-4.272 -19.676,-7.047 -0.337,-0.652 -2.001,-8.981 -2.041,-10.219 l -0.032,-0.976 -2.697,-1.368 c -11.601,-5.888 -20.783,-13.635 -26.45,-22.316 -1.741,-2.667 -4.047,-7.874 -4.441,-10.027 l -0.119,-0.653 1.558,0 c 5.946,0 10.396,-3.752 12.275,-10.353 1.292,-4.534 1.485,-11.475 0.571,-20.531 l -0.509,-5.046 -1.056,-0.952 c -2.8,-2.527 -5.148,-4.95 -10.337,-10.671 -1.502,-1.657 -2.676,-3.279 -3.676,-5.081 -0.319,-0.574 -1.38,-2.375 -2.358,-4.001 -2.899,-4.822 -3.167,-5.671 -3.329,-10.527 -0.126,-3.804 0.416,-10.387 0.821,-9.973 0.077,0.078 0.741,1.277 1.475,2.665 4.681,8.847 16.621,22.04 21.742,24.025 6.966,2.7 21.964,7.175 31.074,9.273 18.505,4.261 28.01,4.788 42.614,2.361 10.105,-1.679 23.083,-5.499 34.594,-10.182 2.707,-1.102 2.502,-1.057 2.364,-0.509 -0.151,0.605 -0.058,0.572 1.811,-0.626 9.086,-5.828 16.708,-13.301 21.721,-21.302 l 1.072,-1.709 0.109,1.031 c 0.06,0.567 0.273,1.97 0.472,3.119 0.199,1.148 0.436,2.518 0.526,3.045 0.235,1.376 -0.431,8.23 -0.91,9.367 -0.094,0.224 -0.849,1.281 -1.677,2.349 -5.887,7.591 -12.68,13.714 -22.325,20.122 -0.909,0.604 -1.68,1.12 -1.712,1.146 -0.41,0.332 -0.786,9.098 -0.56,13.071 1.006,17.669 7.705,23.985 18.606,17.543 0.892,-0.526 1.907,-1.18 2.257,-1.451 0.349,-0.272 0.731,-0.55 0.847,-0.617 0.583,-0.339 -3.41,8.142 -5.534,11.754 -6.614,11.246 -15.314,20.045 -25.856,26.151 -0.975,0.565 -1.737,1.085 -1.694,1.155 0.08,0.13 -1.019,6.829 -1.695,10.332 -0.487,2.528 -0.801,2.843 -4.309,4.345 -7.071,3.026 -18.749,3.424 -27.851,0.949 -1.919,-0.522 -2.118,-0.69 -2.009,-1.691 0.049,-0.45 0.178,-1.68 0.287,-2.733 0.108,-1.053 0.259,-1.953 0.333,-2.001 0.075,-0.048 -1.979,-0.112 -4.566,-0.142 l -4.702,-0.055 0.101,0.577 c 0.265,1.522 0.334,6.153 0.095,6.351 -1.772,1.465 -9.457,2.491 -15.204,2.028 z" />
    <path
       inkscape:connector-curvature="0"
       style="fill:#185292;stroke:none;stroke-linejoin:round"
       label="Layer 1* (9)"
       id="Layer 1* (9)"
       d="m 342.98045,605.95121 c 15.034,2.801 30.068,3.206 45.102,0 0.293,9.091 -0.151,17.815 -2.255,25.708 -5.512,5.563 -12.38,9.093 -20.296,11.05 -7.315,-3.184 -14.02,-6.671 -18.943,-11.05 -3.327,-8.57 -3.861,-17.139 -3.608,-25.708 z" />
    <path
       inkscape:connector-curvature="0"
       style="fill:#804000;stroke:none;stroke-linejoin:round"
       label="Layer 1* (10) (J)"
       id="Layer 1* (10) (J)"
       d="m 368.04445,474.47851 c 3.279,-0.4324 6.293,1.8791 6.725,5.1577 0.432,3.279 -1.879,6.292 -5.158,6.725 -3.279,0.432 -6.292,-1.879 -6.725,-5.158 -0.432,-3.2787 1.879,-6.2923 5.158,-6.7247 z m -3.846,-23.7023 c -19.153,2.5258 -32.617,20.0808 -30.091,39.233 2.526,19.153 20.085,32.648 39.237,30.122 19.153,-2.525 32.644,-20.115 30.118,-39.268 -2.526,-19.1526 -20.111,-32.6128 -39.264,-30.087 z" />
    <path
       inkscape:connector-curvature="0"
       style="fill:#ffffff;stroke:none;stroke-linejoin:round"
       label="Layer 1* (12) (J)"
       id="Layer 1* (12) (J)"
       d="m 366.90345,465.82831 c 8.054,-1.062 15.454,4.6139 16.516,12.6672 1.062,8.0527 -4.614,15.4537 -12.667,16.5157 -8.053,1.062 -15.454,-4.614 -16.516,-12.667 -1.062,-8.0534 4.614,-15.4538 12.667,-16.5159 z m -2.705,-15.0521 c -19.153,2.5258 -32.617,20.0808 -30.091,39.233 2.526,19.153 20.085,32.648 39.237,30.122 19.153,-2.525 32.644,-20.115 30.118,-39.268 -2.526,-19.1526 -20.111,-32.6128 -39.264,-30.087 z" />
    <path
       inkscape:connector-curvature="0"
       style="fill:#000000;stroke:none;stroke-linejoin:round"
       label="Layer 1* (18) (J)"
       id="Layer 1* (18) (J)"
       d="m 364.19845,450.77621 c 19.153,-2.5258 36.738,10.9344 39.264,30.087 2.526,19.153 -10.965,36.743 -30.118,39.268 -19.152,2.526 -36.711,-10.969 -39.237,-30.122 -2.526,-19.1522 10.938,-36.7072 30.091,-39.233 z m -1.595,-12.0979 c -18.688,2.4645 -33.366,15.5337 -38.765,32.3596 l -6.372,0.8403 -0.038,1.8528 c -2.291,0.2369 -22.673,2.3759 -30.435,3.1368 -1.059,0.1038 -1.611,1.5661 -1.785,2.6154 -0.274,1.655 1.218,3.161 1.357,4.832 0.224,2.676 -2.655,7.243 1.088,8.25 5.623,1.513 22.101,0.389 29.289,-0.198 l -0.1,3.991 6.161,0.409 c 5.676,23.037 27.868,38.636 51.937,35.462 19.061,-2.514 33.962,-16.083 39.096,-33.405 l 5.056,-0.135 0.132,-2.804 c 6.151,0.543 20.328,1.796 25.852,2.008 1.012,0.039 1.574,-2.115 1.751,-3.112 0.441,-2.496 -1.019,-4.426 -0.44,-6.895 1.796,-2.796 1.619,-3.771 0.395,-6.034 -3.863,-0.886 -18.129,-3.1506 -26.676,-4.6872 l 0.133,-2.5544 -5.534,0.0721 c -5.447,-23.3507 -27.832,-39.2051 -52.102,-36.0044 z" />
    <path
       inkscape:connector-curvature="0"
       style="fill:#e6e6fa;stroke:none;stroke-linejoin:round"
       label="Layer 1* (14) (J)"
       id="Layer 1* (14) (J)"
       d="m 364.19845,450.77621 c 19.153,-2.5258 36.738,10.9344 39.264,30.087 2.526,19.153 -10.965,36.743 -30.118,39.268 -19.152,2.526 -36.711,-10.969 -39.237,-30.122 -2.526,-19.1522 10.938,-36.7072 30.091,-39.233 z m -1.595,-12.0979 c -18.688,2.4645 -33.366,15.5337 -38.765,32.3596 l -6.372,0.8403 -0.624,24.48 6.161,0.409 c 5.676,23.037 27.868,38.636 51.937,35.462 19.061,-2.514 33.962,-16.083 39.096,-33.405 l 5.056,-0.135 1.147,-24.0786 -5.534,0.0721 c -5.447,-23.3507 -27.832,-39.2051 -52.102,-36.0044 z" />
    <path
       inkscape:connector-curvature="0"
       style="fill:#000000;stroke:none;stroke-linejoin:round"
       label="Layer_2* (J): 1 (J)"
       id="Layer_2* (J): 1 (J)"
       d="m 330.11945,595.66821 c 0,3.492 -2.832,6.323 -6.324,6.323 -3.492,0 -6.323,-2.831 -6.323,-6.323 0,-3.493 2.831,-6.324 6.323,-6.324 3.492,0 6.324,2.831 6.324,6.324 z m 83.947,0 c 0,3.492 -2.831,6.322 -6.323,6.322 -3.492,0 -6.322,-2.83 -6.322,-6.322 0,-3.492 2.83,-6.323 6.322,-6.323 3.492,0 6.323,2.831 6.323,6.323 z" />
  </g>
</svg>
