<?xml version="1.0" encoding="ISO-8859-1" standalone="no"?>
<!-- Created with Make The Cut! -->
<!DOCTYPE svg PUBLIC "-//W3C//DTD SVG 1.1//EN" "http://www.w3.org/Graphics/SVG/1.1/DTD/svg11.dtd">
<svg mtc:dpi="90" xmlns="http://www.w3.org/2000/svg" version="1.1" width="8.49104in" height="3.95646in" viewBox="0 0 764.194 356.081" xmlns:inkscape="http://www.inkscape.org/namespaces/inkscape" xmlns:xlink="http://www.w3.org/1999/xlink" xmlns:mtc="http://www.make-the-cut.com/namespaces/make-the-cut">
	<g inkscape:groupmode="layer" label="New Layer" id="New Layer">
		<path label="Layer 1&#42; &#40;23&#41; &#40;J&#41; &#40;3&#41; &#40;J&#41;" id="Layer 1&#42; &#40;23&#41; &#40;J&#41; &#40;3&#41; &#40;J&#41;" fill="#000000" stroke="none"  stroke-linejoin="round" d="M469.525,214.608 C469.525,214.608 465.512,217.623 463.436,219.063 C462.826,219.486 462.077,220.002 461.396,220.463 L459.326,216.556 C459.326,216.556 459.287,216.566 459.286,216.567 C459.286,216.567 459.02,216.679 458.748,216.79 C458.667,216.823 458.685,216.81 458.585,216.851 C458.249,216.99 457.801,217.176 457.317,217.389 C457.133,217.469 456.954,217.544 456.759,217.632 C456.599,217.704 456.446,217.78 456.282,217.855 C456.021,217.976 455.763,218.102 455.5,218.231 C455.215,218.37 454.931,218.503 454.658,218.647 C454.457,218.753 454.277,218.866 454.09,218.972 C454.017,219.013 453.937,219.052 453.867,219.093 C453.831,219.114 453.789,219.134 453.755,219.154 C453.784,218.718 453.804,218.283 453.826,217.845 C453.832,217.733 453.841,217.623 453.846,217.51 C453.85,217.429 453.853,217.348 453.856,217.267 C453.876,216.8 453.886,216.326 453.897,215.856 C454.668,215.412 455.537,215.22 456.464,215.156 C457.495,215.084 458.591,215.116 459.59,215.014 C462.887,214.676 469.525,214.608 469.525,214.608 z M279.293,212.112 C279.293,212.112 285.931,212.18 289.228,212.518 C290.227,212.62 291.323,212.588 292.353,212.66 C293.383,212.731 294.342,212.953 295.174,213.512 C295.525,213.748 295.829,214.032 296.088,214.354 C296.089,214.356 296.086,214.362 296.088,214.364 C296.09,214.873 296.096,215.381 296.108,215.887 C296.12,216.392 296.137,216.896 296.159,217.399 C296.014,217.292 295.868,217.187 295.722,217.084 C295.715,217.079 295.709,217.069 295.702,217.064 C295.592,216.986 295.472,216.91 295.347,216.83 C295.339,216.826 295.334,216.815 295.326,216.81 C295.198,216.729 295.062,216.649 294.921,216.567 C294.914,216.563 294.907,216.56 294.9,216.556 C294.609,216.387 294.294,216.217 293.967,216.049 C293.96,216.046 293.953,216.042 293.946,216.039 C293.621,215.872 293.278,215.701 292.942,215.542 C292.932,215.537 292.921,215.536 292.911,215.532 C292.576,215.373 292.248,215.217 291.927,215.075 C291.917,215.07 291.907,215.069 291.897,215.065 C291.577,214.923 291.273,214.788 290.993,214.669 C290.135,214.302 289.532,214.06 289.532,214.06 L289.522,214.07 C289.521,214.07 289.491,214.06 289.491,214.06 L287.421,217.967 C286.741,217.506 285.992,216.99 285.382,216.567 C283.306,215.127 279.293,212.112 279.293,212.112 z M364.636,2.08126 C372.55,7.06394 375.164,15.4517 375.251,26.7913 C375.17,26.7911 375.089,26.7913 375.007,26.7913 C374.496,26.7913 373.985,26.802 373.475,26.8116 C373.026,26.8201 372.582,26.8364 372.136,26.8522 C372.075,26.8544 372.014,26.8499 371.953,26.8522 C372.258,26.8398 372.56,26.8197 372.866,26.8116 C372.751,22.395 372.662,17.6124 370.887,14.2181 C367.585,7.90251 362.95,4.46121 359.187,4.13113 C366.192,10.3823 367.308,17.5404 368.31,27.0653 C368.512,27.0486 368.717,27.0402 368.919,27.0247 C368.201,27.079 367.489,27.1444 366.778,27.2175 C366.181,27.2789 365.584,27.346 364.992,27.4205 C364.747,27.4512 364.504,27.4891 364.261,27.522 C363.803,27.5838 363.346,27.6452 362.891,27.7148 C362.712,27.7422 362.532,27.7673 362.353,27.796 C361.81,27.8829 361.269,27.9822 360.729,28.0801 C360.645,28.0954 360.56,28.1051 360.476,28.1207 C359.777,23.0894 357.666,18.4503 354.702,14.624 C350.603,8.823 346.274,5.6033 338.445,4.40516 C343.766,8.01488 348.504,12.987 351.667,18.0946 C353.861,21.7652 355.19,25.261 355.889,29.105 C355.493,29.2028 355.095,29.3059 354.702,29.4095 C354.552,29.4488 354.404,29.4911 354.255,29.5313 C353.821,29.6484 353.388,29.7621 352.956,29.8864 C352.915,29.8983 352.875,29.9151 352.834,29.927 C352.286,30.086 351.744,30.2438 351.201,30.4142 C351.18,30.4205 351.16,30.428 351.14,30.4344 C350.774,30.5493 350.407,30.6695 350.044,30.7896 C349.833,30.8593 349.624,30.9313 349.415,31.0027 C348.479,31.321 347.553,31.6552 346.634,32.0073 C343.788,28.4974 341.337,25.7696 337.623,22.8134 C333.681,19.8269 328.368,17.636 323.913,17.7902 C322.666,17.8333 321.488,18.0676 320.422,18.5107 C331.408,21.3135 337.82,28.2272 342.078,33.9253 C341.708,34.0943 341.338,34.2684 340.972,34.4428 C340.752,34.5477 340.531,34.6506 340.312,34.7574 C339.088,35.3546 337.887,35.9873 336.699,36.6449 C336.261,36.8877 335.823,37.1348 335.39,37.3857 C334.958,37.6358 334.528,37.8888 334.102,38.1468 C333.672,38.4066 333.247,38.6706 332.823,38.9383 C332.401,39.2045 331.981,39.4763 331.565,39.7502 C330.235,38.0105 328.634,36.5831 326.694,34.727 C320.527,30.163 316.129,28.7039 311.309,28.618 C309.119,28.5789 306.846,28.8252 304.277,29.1862 C315.096,32.0263 321.757,35.5546 327.313,42.7438 C327.146,42.8701 326.981,43.0007 326.815,43.1294 C326.45,43.4107 326.09,43.6943 325.73,43.9818 C323.374,42.0041 320.753,40.4236 318.119,39.669 C315.932,39.1862 313.665,38.7414 311.462,38.7252 C309.258,38.7091 307.118,39.1135 305.19,40.3185 C315.22,41.208 319.715,43.6444 322.685,46.5289 C322.81,46.419 322.935,46.3131 323.061,46.2042 C322.891,46.3522 322.722,46.5013 322.553,46.6507 C322.296,46.8796 322.037,47.1086 321.782,47.3408 C321.515,47.5841 321.254,47.8346 320.99,48.0816 C320.793,48.2665 320.597,48.4527 320.402,48.6397 C320.308,48.729 320.211,48.8138 320.118,48.9035 C318.312,47.8079 316.505,46.8103 314.81,46.5391 C313.32,46.3006 311.647,46.1544 309.99,46.1637 C307.228,46.1789 304.507,46.6333 302.704,47.8583 C308.685,47.6646 313.593,48.8765 317.794,51.2375 C317.475,51.5723 317.163,51.912 316.85,52.2523 C316.803,52.3035 316.755,52.3533 316.708,52.4046 C315.162,54.0957 313.689,55.8592 312.294,57.6815 C311.573,58.6222 310.871,59.5796 310.193,60.5533 C309.921,60.9439 309.657,61.3347 309.391,61.7305 C309.269,61.9126 309.147,62.0952 309.026,62.2785 C308.979,62.35 308.931,62.4198 308.884,62.4915 C308.661,62.8334 308.443,63.1811 308.224,63.5266 C307.909,64.0264 307.595,64.5313 307.291,65.0386 C306.753,65.9353 306.231,66.8388 305.728,67.7583 C305.684,67.8398 305.64,67.9201 305.596,68.0018 C305.467,68.2404 305.338,68.4823 305.211,68.7223 C305.086,68.9575 304.957,69.196 304.835,69.4327 C304.783,69.5331 304.734,69.6364 304.683,69.7371 C304.49,70.1145 304.301,70.4927 304.115,70.8737 C304.038,71.029 303.967,71.1845 303.891,71.3405 C303.631,71.8798 303.378,72.4179 303.13,72.9641 C302.915,73.4387 302.707,73.9154 302.501,74.395 C302.439,74.5395 302.38,74.6864 302.318,74.8313 C302.179,75.1612 302.038,75.4937 301.902,75.8258 C301.797,76.0832 301.69,76.3383 301.588,76.5971 C301.48,76.8693 301.378,77.1453 301.273,77.419 C301.186,77.6464 301.094,77.8706 301.009,78.0989 C300.982,78.1732 300.955,78.2479 300.928,78.3222 C300.763,78.7701 300.608,79.2201 300.451,79.6719 C300.253,80.2435 300.058,80.8194 299.873,81.397 C299.687,81.9734 299.507,82.5501 299.335,83.1323 C299.195,83.6031 299.06,84.0684 298.929,84.5429 C298.897,84.6578 298.869,84.7728 298.838,84.8879 C298.7,85.3962 298.56,85.9078 298.432,86.4202 C298.346,86.7628 298.269,87.1109 298.188,87.4553 C298.15,87.6172 298.114,87.7801 298.077,87.9424 C298,88.2761 297.925,88.6117 297.853,88.947 C297.784,89.271 297.716,89.5957 297.65,89.9212 C297.612,90.1106 297.576,90.2996 297.539,90.4895 C297.436,91.018 297.336,91.5504 297.244,92.0827 C297.139,92.6925 297.042,93.3049 296.95,93.9195 C296.859,94.5333 296.774,95.1479 296.697,95.7664 C296.619,96.3878 296.546,97.0077 296.483,97.6335 C296.229,97.6587 295.792,97.7021 295.56,97.7249 C294.501,97.8287 293.958,99.2935 293.784,100.343 C293.51,101.998 294.994,103.502 295.134,105.173 C295.354,107.811 292.573,112.281 296.077,113.373 L296.077,173.225 C295.935,172.939 295.763,172.596 295.763,172.596 C294.891,175.669 294.555,185.257 295.58,188.092 C295.663,188.32 295.743,188.535 295.824,188.741 C295.825,188.745 295.832,188.747 295.834,188.751 C295.913,188.953 295.988,189.146 296.067,189.33 C296.07,189.336 296.075,189.343 296.077,189.35 L296.077,191.978 C293.268,193.083 287.368,195.385 284.478,196.362 C280.412,197.737 276.029,198.267 272.21,200.218 C270.16,201.265 268.102,202.555 266.669,204.348 C265.304,206.056 264.259,208.163 263.98,210.326 C263.683,214.938 266.367,218.359 269.723,220.798 C272.648,222.922 275.303,224.046 278.623,225.487 C279.915,226.047 281.229,226.548 282.55,227.039 L280.744,230.479 L286.833,232.184 L286.965,232.905 L287.218,234.427 C287.186,234.403 286.901,234.189 286.457,233.909 C286.384,233.862 286.303,233.806 286.224,233.757 C286.146,233.711 286.073,233.672 285.99,233.625 C285.811,233.521 285.626,233.426 285.432,233.331 C285.428,233.329 285.426,233.323 285.422,233.321 C284.854,233.045 284.25,232.838 283.778,232.894 C282.371,233.062 281.061,234.201 280.429,235.462 C280.424,235.472 280.414,235.482 280.409,235.492 C280.353,235.607 280.306,235.729 280.257,235.847 C279.822,236.892 279.693,238.061 279.77,239.237 C279.778,239.376 279.796,239.514 279.81,239.653 C279.811,239.66 279.81,239.667 279.81,239.673 C279.825,239.812 279.842,239.951 279.861,240.089 C279.862,240.096 279.86,240.103 279.861,240.11 C279.881,240.248 279.908,240.388 279.932,240.526 C279.951,240.629 279.972,240.728 279.993,240.83 C280.088,241.299 280.201,241.761 280.338,242.2 C280.384,242.348 280.437,242.497 280.49,242.647 C280.492,242.651 280.499,242.653 280.5,242.657 C280.552,242.802 280.595,242.947 280.653,243.093 C280.654,243.097 280.661,243.099 280.663,243.103 C280.721,243.249 280.781,243.394 280.846,243.54 C280.847,243.544 280.854,243.546 280.856,243.55 C280.92,243.695 280.988,243.842 281.059,243.986 C281.061,243.99 281.067,243.992 281.069,243.996 C281.14,244.14 281.205,244.291 281.282,244.433 C281.284,244.437 281.29,244.439 281.292,244.443 C282.166,246.044 283.423,247.48 285.006,248.116 C285.208,248.198 285.408,248.252 285.605,248.279 C286.991,248.489 288.26,247.484 289.786,247.304 C292.535,246.981 295.568,248.059 298.087,246.919 C298.696,246.643 299.279,246.29 299.832,245.884 C300.059,246.485 300.288,247.071 300.522,247.649 C300.723,248.145 300.922,248.632 301.131,249.111 C301.214,249.301 301.3,249.491 301.385,249.679 C301.425,249.767 301.466,249.855 301.507,249.943 C301.678,250.317 301.854,250.685 302.034,251.049 C302.036,251.053 302.042,251.055 302.044,251.059 C302.049,251.076 302.05,251.093 302.055,251.11 C302.164,251.503 302.284,251.896 302.41,252.287 C302.417,252.31 302.422,252.335 302.43,252.358 C302.553,252.739 302.688,253.116 302.826,253.495 C302.833,253.515 302.839,253.535 302.846,253.555 C302.992,253.953 303.151,254.348 303.313,254.743 C303.469,255.125 303.629,255.511 303.8,255.89 C303.816,255.924 303.835,255.957 303.851,255.991 C303.863,256.017 303.869,256.046 303.881,256.072 C304.233,256.841 304.617,257.599 305.028,258.355 C305.675,259.544 306.393,260.712 307.179,261.867 C307.439,262.249 307.706,262.635 307.981,263.013 C308.258,263.394 308.542,263.773 308.833,264.15 C309.126,264.528 309.42,264.903 309.726,265.276 C309.782,265.344 309.833,265.412 309.889,265.479 C310.448,266.154 311.039,266.819 311.644,267.478 C311.976,267.84 312.314,268.198 312.659,268.554 C313.005,268.912 313.355,269.267 313.714,269.62 C314.378,270.271 315.058,270.915 315.764,271.548 C315.821,271.598 315.88,271.649 315.937,271.7 C315.94,271.703 315.943,271.707 315.947,271.71 C316.306,272.029 316.674,272.35 317.043,272.664 C317.116,272.726 317.193,272.785 317.266,272.847 C317.481,273.028 317.698,273.205 317.916,273.384 C318.132,273.562 318.345,273.746 318.565,273.922 C318.595,273.947 318.626,273.969 318.656,273.993 C318.952,274.23 319.248,274.46 319.549,274.694 C319.927,274.985 320.31,275.279 320.696,275.566 C320.739,275.598 320.785,275.626 320.828,275.658 C321.133,275.883 321.441,276.105 321.752,276.327 C321.955,276.473 322.155,276.62 322.36,276.764 C322.726,277.02 323.094,277.273 323.467,277.525 C323.917,277.829 324.376,278.13 324.836,278.428 C325.275,278.712 325.708,278.993 326.156,279.27 C326.179,279.285 326.203,279.296 326.227,279.311 C326.585,279.532 326.949,279.753 327.313,279.97 C327.427,280.039 327.543,280.105 327.658,280.173 C328.139,280.458 328.628,280.738 329.119,281.016 C329.304,281.12 329.491,281.227 329.677,281.33 C329.984,281.501 330.29,281.67 330.601,281.838 C331.5,282.324 332.413,282.807 333.34,283.268 C333.438,283.317 333.536,283.362 333.635,283.411 C334.091,283.636 334.552,283.851 335.015,284.07 C335.076,284.099 335.136,284.132 335.197,284.161 L337.288,294.878 C337.313,294.983 337.345,295.086 337.389,295.192 C337.395,295.206 337.404,295.219 337.41,295.233 C337.453,295.332 337.502,295.438 337.562,295.537 C337.567,295.545 337.577,295.55 337.582,295.558 C337.59,295.57 337.594,295.585 337.602,295.598 C337.662,295.693 337.732,295.787 337.806,295.882 C337.882,295.981 337.968,296.078 338.059,296.177 C338.09,296.21 338.118,296.245 338.15,296.278 C338.164,296.292 338.177,296.304 338.191,296.319 C338.269,296.398 338.347,296.473 338.435,296.552 C338.542,296.65 338.659,296.749 338.78,296.846 C338.8,296.863 338.819,296.88 338.841,296.897 C338.906,296.949 338.975,296.998 339.044,297.049 C339.125,297.111 339.201,297.171 339.287,297.232 C339.317,297.253 339.348,297.272 339.378,297.293 C339.609,297.452 339.857,297.612 340.119,297.77 C340.375,297.923 340.637,298.076 340.921,298.226 C340.935,298.234 340.948,298.239 340.961,298.247 C341.253,298.401 341.566,298.553 341.885,298.703 C342.53,299.008 343.222,299.301 343.965,299.586 C344.247,299.694 344.534,299.806 344.828,299.911 C344.923,299.945 345.015,299.979 345.112,300.012 C345.163,300.03 345.213,300.046 345.264,300.063 C343.83,300.207 341.933,300.447 340.718,300.774 C338.952,301.248 337.062,301.703 335.664,302.874 C334.331,303.992 333.455,305.649 332.863,307.278 C332.332,308.742 332.292,310.349 332.265,311.906 C332.244,313.071 332.6,315.376 332.6,315.376 C332.6,315.376 338.144,316.165 340.941,316.259 C343.665,316.351 346.424,316.291 349.13,315.975 C351.301,315.722 353.463,315.369 355.534,314.676 C357.593,313.987 361.42,311.845 361.42,311.845 L370.958,311.155 C370.958,311.155 371.437,306.284 371.202,303.848 C371.134,303.143 370.972,302.264 370.776,301.372 C370.952,301.307 371.122,301.24 371.293,301.169 C371.3,301.166 371.307,301.162 371.314,301.159 C371.484,301.088 371.656,301.012 371.821,300.936 C371.828,300.933 371.835,300.929 371.841,300.926 C371.848,300.923 371.855,300.919 371.862,300.916 C372.197,300.761 372.524,300.595 372.836,300.418 L372.328,293.609 C372.986,293.649 373.649,293.684 374.307,293.711 C374.43,293.716 374.55,293.716 374.673,293.721 C375.245,293.742 375.814,293.761 376.388,293.772 C376.699,293.777 377.01,293.779 377.321,293.782 C377.919,293.787 378.519,293.788 379.117,293.782 C379.871,293.774 380.627,293.757 381.38,293.731 L380.914,299.556 C381.32,299.715 381.759,299.868 382.213,300.012 C382.331,300.051 382.446,300.087 382.568,300.124 C382.649,300.149 382.728,300.17 382.811,300.195 C382.472,301.44 382.132,302.839 381.999,303.96 C381.713,306.39 382.091,311.287 382.091,311.287 L391.64,312.18 C391.64,312.18 395.38,314.418 397.424,315.153 C399.48,315.893 401.662,316.282 403.827,316.584 C406.526,316.961 409.272,317.081 411.996,317.051 C414.795,317.019 420.338,316.361 420.338,316.361 C420.338,316.361 420.77,314.066 420.774,312.9 C420.78,311.343 420.757,309.718 420.257,308.242 C419.7,306.6 418.866,304.935 417.557,303.787 C416.185,302.585 414.29,302.099 412.534,301.585 C411.039,301.148 408.423,300.811 407.054,300.652 C407.13,300.632 407.203,300.611 407.278,300.591 C407.36,300.568 407.439,300.543 407.521,300.52 C407.798,300.442 408.073,300.361 408.343,300.276 C408.691,300.168 409.032,300.062 409.368,299.941 C409.375,299.939 409.381,299.934 409.388,299.931 C409.686,299.825 409.973,299.712 410.261,299.596 C410.303,299.58 410.342,299.563 410.383,299.546 C410.676,299.426 410.964,299.3 411.246,299.17 C411.569,299.021 411.882,298.866 412.189,298.703 C412.497,298.541 412.801,298.373 413.092,298.196 C413.105,298.188 413.12,298.184 413.133,298.176 C413.181,298.146 413.227,298.114 413.275,298.084 C413.463,297.967 413.644,297.842 413.823,297.719 C413.865,297.69 413.913,297.667 413.955,297.638 C414.083,297.548 414.207,297.457 414.33,297.364 C414.334,297.361 414.337,297.357 414.341,297.354 C414.468,297.258 414.593,297.159 414.716,297.059 L417.02,284.395 C417.112,284.345 417.202,284.293 417.294,284.243 C417.633,284.055 417.972,283.868 418.308,283.674 C418.682,283.459 419.064,283.237 419.435,283.015 C419.489,282.982 419.543,282.946 419.597,282.913 C419.986,282.678 420.368,282.446 420.754,282.203 C420.789,282.181 420.821,282.154 420.856,282.132 C421.258,281.877 421.665,281.625 422.063,281.361 C422.081,281.349 422.096,281.332 422.114,281.32 C422.902,280.797 423.677,280.256 424.448,279.696 C424.491,279.665 424.536,279.637 424.58,279.605 C424.593,279.595 424.607,279.585 424.62,279.575 C425.016,279.286 425.407,278.99 425.798,278.692 C425.824,278.671 425.852,278.651 425.879,278.631 C426.252,278.345 426.626,278.053 426.995,277.758 C427.038,277.724 427.084,277.691 427.127,277.657 C427.481,277.373 427.833,277.086 428.182,276.794 C428.239,276.746 428.298,276.7 428.355,276.652 C428.688,276.372 429.02,276.087 429.349,275.8 C429.421,275.737 429.491,275.67 429.562,275.607 C429.877,275.33 430.185,275.049 430.496,274.764 C430.581,274.687 430.665,274.609 430.75,274.531 C431.044,274.259 431.342,273.988 431.633,273.709 C431.731,273.615 431.829,273.52 431.927,273.425 C432.202,273.158 432.477,272.886 432.749,272.613 C432.86,272.502 432.973,272.391 433.084,272.278 C433.34,272.018 433.591,271.752 433.845,271.487 C434.161,271.156 434.477,270.821 434.789,270.482 C434.836,270.431 434.884,270.381 434.931,270.33 C435.066,270.182 435.202,270.033 435.337,269.883 C435.557,269.638 435.778,269.392 435.996,269.143 C436.142,268.976 436.288,268.804 436.433,268.635 C436.636,268.398 436.84,268.156 437.041,267.915 C437.199,267.727 437.352,267.537 437.508,267.346 C437.511,267.343 437.515,267.34 437.518,267.336 C437.843,266.939 438.163,266.536 438.482,266.129 C438.509,266.095 438.537,266.061 438.564,266.027 C438.733,265.81 438.903,265.588 439.071,265.368 C439.248,265.136 439.424,264.903 439.599,264.667 C439.751,264.462 439.904,264.256 440.055,264.048 C440.111,263.972 440.162,263.892 440.218,263.815 C440.486,263.443 440.755,263.069 441.019,262.689 C441.337,262.231 441.652,261.767 441.963,261.298 C442.275,260.828 442.582,260.349 442.887,259.867 C443.184,259.397 443.479,258.918 443.769,258.437 C443.776,258.426 443.783,258.417 443.79,258.406 C444.006,258.046 444.227,257.686 444.439,257.32 C444.517,257.186 444.595,257.05 444.673,256.914 C444.895,256.526 445.114,256.133 445.332,255.737 C445.397,255.62 445.461,255.5 445.525,255.382 C445.536,255.362 445.545,255.341 445.555,255.321 C445.827,254.822 446.093,254.32 446.357,253.809 C446.589,253.361 446.821,252.916 447.047,252.46 C447.087,252.379 447.129,252.297 447.169,252.216 C447.404,251.739 447.641,251.251 447.869,250.765 C447.899,250.701 447.931,250.636 447.96,250.572 C448.029,250.424 448.095,250.274 448.163,250.126 C448.35,249.719 448.529,249.311 448.711,248.898 C448.791,248.718 448.865,248.531 448.945,248.35 C449.511,248.77 450.115,249.132 450.741,249.415 C453.26,250.555 456.283,249.488 459.032,249.811 C460.532,249.987 461.792,250.943 463.152,250.775 C463.329,250.753 463.508,250.718 463.69,250.653 C463.723,250.642 463.758,250.636 463.791,250.623 C463.798,250.62 463.805,250.615 463.812,250.613 C463.818,250.61 463.825,250.605 463.832,250.602 C464.106,250.491 464.369,250.353 464.623,250.197 C464.63,250.193 464.637,250.19 464.644,250.186 C464.771,250.108 464.897,250.021 465.019,249.933 C465.025,249.928 465.033,249.927 465.039,249.923 C465.161,249.833 465.278,249.737 465.395,249.638 C465.4,249.634 465.409,249.633 465.415,249.628 C465.531,249.53 465.639,249.421 465.75,249.314 C465.755,249.309 465.765,249.309 465.77,249.304 C465.883,249.195 465.988,249.085 466.095,248.969 C466.098,248.965 466.102,248.962 466.105,248.959 C466.212,248.842 466.318,248.717 466.419,248.593 C466.423,248.59 466.427,248.587 466.43,248.583 C466.529,248.461 466.63,248.335 466.724,248.208 C466.728,248.202 466.73,248.193 466.734,248.187 C466.786,248.117 466.836,248.046 466.886,247.974 C466.931,247.911 466.975,247.846 467.018,247.781 C467.108,247.647 467.188,247.514 467.272,247.375 C467.274,247.372 467.28,247.369 467.282,247.365 C467.366,247.227 467.448,247.081 467.526,246.939 C467.528,246.935 467.534,246.933 467.536,246.929 C467.56,246.885 467.584,246.841 467.607,246.797 C467.733,246.559 467.843,246.319 467.952,246.077 C467.958,246.063 467.966,246.05 467.972,246.036 C468.035,245.893 468.097,245.753 468.155,245.61 C468.158,245.603 468.162,245.596 468.165,245.59 C468.223,245.443 468.275,245.299 468.327,245.153 C468.328,245.15 468.326,245.146 468.327,245.143 C468.379,244.997 468.434,244.861 468.479,244.717 C468.481,244.711 468.478,244.703 468.479,244.696 C468.525,244.552 468.56,244.399 468.601,244.25 C468.636,244.124 468.681,244.003 468.713,243.875 C468.78,243.601 468.836,243.323 468.885,243.042 C468.887,243.036 468.884,243.029 468.885,243.022 C468.91,242.885 468.937,242.744 468.957,242.606 C468.957,242.599 468.955,242.592 468.957,242.586 C468.997,242.303 469.029,242.027 469.048,241.743 C469.048,241.733 469.047,241.723 469.048,241.713 C469.12,240.547 468.992,239.379 468.561,238.344 C468.513,238.228 468.464,238.111 468.408,237.999 C468.402,237.986 468.395,237.972 468.388,237.958 C468.316,237.814 468.234,237.672 468.145,237.532 C467.455,236.45 466.286,235.539 465.039,235.391 C464.254,235.297 463.111,235.923 462.36,236.406 C462.353,236.41 462.347,236.421 462.34,236.426 C462.201,236.516 462.07,236.596 461.965,236.67 C461.741,236.822 461.62,236.917 461.599,236.933 L461.843,235.431 L461.985,234.681 L468.074,232.976 L466.267,229.536 C467.589,229.044 468.903,228.543 470.195,227.983 C473.514,226.543 476.17,225.419 479.094,223.295 C482.45,220.855 485.135,217.434 484.838,212.822 C484.559,210.659 483.513,208.552 482.149,206.845 C480.716,205.051 478.658,203.762 476.608,202.715 C472.788,200.764 468.405,200.234 464.339,198.859 C461.785,197.995 456.978,196.135 453.927,194.941 L453.927,194.333 C454.12,194.072 454.314,193.807 454.506,193.541 C454.506,193.541 455.995,185.572 455.247,183.139 C454.697,181.354 454.273,176.848 454.273,176.848 C454.159,177.044 454.042,177.233 453.927,177.426 L453.927,118.701 C454.765,118.383 455.239,116.548 455.399,115.646 C455.841,113.149 454.384,111.214 454.962,108.746 C456.197,106.823 456.499,105.764 456.17,104.554 C456.14,104.444 456.109,104.333 456.069,104.22 C455.908,103.767 455.665,103.283 455.358,102.718 C454.97,102.628 454.449,102.518 453.867,102.403 C453.84,101.743 453.798,101.09 453.755,100.434 C453.712,99.7787 453.662,99.1269 453.603,98.4758 C453.544,97.8277 453.474,97.181 453.4,96.5376 C453.325,95.8904 453.246,95.2416 453.156,94.5993 C453.067,93.9601 452.967,93.3258 452.862,92.6916 C452.757,92.057 452.647,91.4231 452.527,90.7939 C452.406,90.1608 452.277,89.534 452.141,88.9064 C452.137,88.8862 452.136,88.8658 452.131,88.8455 C451.73,86.9946 451.269,85.165 450.741,83.3657 C450.586,82.8358 450.42,82.3078 450.254,81.7826 C450.23,81.7078 450.207,81.6342 450.183,81.5594 C450.182,81.5563 450.184,81.5523 450.183,81.5492 C449.991,80.9502 449.79,80.3559 449.584,79.7632 C449.553,79.6722 449.525,79.5801 449.493,79.4892 C449.317,78.9874 449.141,78.4844 448.955,77.9873 C448.86,77.7314 448.759,77.4809 448.661,77.2263 C448.533,76.8963 448.406,76.5696 448.275,76.2419 C448.258,76.1982 448.242,76.1536 448.224,76.11 C448.008,75.5721 447.783,75.0385 447.555,74.5066 C447.467,74.3023 447.38,74.1012 447.291,73.8977 C447.129,73.5295 446.971,73.167 446.804,72.8018 C446.639,72.4423 446.466,72.0826 446.296,71.7261 C446.198,71.5197 446.102,71.3125 446.002,71.1071 C445.928,70.9543 445.854,70.8026 445.779,70.6504 C445.579,70.2466 445.376,69.8427 445.17,69.4428 C445.012,69.136 444.845,68.8339 444.683,68.5295 C444.496,68.1797 444.306,67.8309 444.114,67.4843 C443.872,67.0457 443.634,66.6086 443.384,66.1752 C443.238,65.9223 443.086,65.6753 442.937,65.4243 C446.761,63.8243 452.17,64.9812 455.835,64.8459 C455.835,64.8459 452.038,62.1464 449.838,61.5173 C448.477,61.2044 447.188,61.0626 445.941,61.0607 C444.158,61.0579 442.455,61.3477 440.695,61.8421 C440.611,61.716 440.525,61.5918 440.441,61.4666 C440.361,61.3478 440.278,61.2298 440.197,61.1114 C440.012,60.8407 439.828,60.569 439.639,60.2996 C443.542,56.9921 447.977,55.1248 452.263,53.1961 C451.55,53.1603 450.859,53.152 450.183,53.1656 C445.454,53.2613 441.597,54.5838 437.955,57.3669 C437.855,57.4429 437.751,57.5144 437.65,57.5901 C437.511,57.4083 437.365,57.2325 437.224,57.0523 C437.206,57.0294 437.191,57.0041 437.173,56.9812 C437.157,56.9604 437.139,56.9412 437.123,56.9203 C436.759,56.4594 436.39,56.0031 436.016,55.5504 C435.881,55.3855 435.748,55.2172 435.611,55.0531 C443.296,49.3372 454.977,51.6276 459.732,52.4857 C459.732,52.4857 455.515,49.0167 450.64,47.9598 C445.25,46.7914 441.091,48.3135 436.321,50.0604 C442.175,41.5224 456.168,47.7611 462.32,46.2549 C456.373,44.0936 454.934,42.0232 447.179,42.003 C445.743,41.9993 444.095,42.0667 442.156,42.2161 C437.748,42.5558 434.342,46.7594 431.014,50.0096 C430.688,49.6823 430.36,49.357 430.029,49.0355 C429.942,48.9505 429.853,48.8663 429.765,48.7818 C429.323,48.3558 428.868,47.939 428.416,47.5234 C427.988,47.1307 427.564,46.7397 427.127,46.3564 C427.1,46.3326 427.073,46.3092 427.046,46.2854 C427.022,46.2648 426.998,46.2451 426.975,46.2245 C426.536,45.8417 426.092,45.4611 425.645,45.0879 C425.384,44.8693 425.118,44.6537 424.854,44.4385 C424.642,44.2663 424.428,44.091 424.215,43.9209 C424.065,43.8019 423.918,43.6837 423.768,43.5658 C423.435,43.3043 423.101,43.0507 422.763,42.7945 C422.733,42.7714 422.703,42.7466 422.672,42.7235 C429.128,36.1716 438.282,32.7254 447.747,33.631 C445.164,31.6314 442.236,30.8446 439.264,30.8201 C434.919,30.7841 430.48,32.3674 426.873,34.1181 C424.715,35.5424 421.54,37.6298 418.714,39.9227 C418.552,39.8152 418.39,39.7044 418.227,39.598 C417.992,39.444 417.754,39.2927 417.517,39.1413 C417.233,38.9599 416.951,38.7813 416.664,38.6034 C416.548,38.531 416.427,38.4622 416.309,38.3904 C416.123,38.2758 415.939,38.1584 415.751,38.0453 C415.532,37.9137 415.312,37.7792 415.092,37.6496 C415.085,37.6457 415.078,37.6432 415.071,37.6394 C414.842,37.5046 414.612,37.3762 414.381,37.2436 C414.205,37.1422 414.031,37.0393 413.854,36.9392 C413.577,36.783 413.3,36.6254 413.021,36.4724 C412.625,36.2544 412.225,36.0444 411.824,35.8331 C411.277,35.5449 410.724,35.2663 410.17,34.9908 C410.129,34.9707 410.089,34.95 410.048,34.9299 C409.619,34.7178 409.193,34.5051 408.759,34.3008 C412.672,24.712 420.424,20.0571 434.697,15.4054 C433.351,15.2569 432.046,15.1754 430.79,15.172 C424.008,15.154 418.415,17.2893 412.504,21.8595 C408.507,24.9494 406.424,28.6623 404.517,32.464 C403.899,32.2158 403.277,31.9764 402.65,31.7435 C402.022,31.5097 401.389,31.2817 400.753,31.0636 C400.127,30.849 399.498,30.6336 398.865,30.4344 C398.855,30.4312 398.845,30.4275 398.835,30.4242 C398.825,30.421 398.814,30.4173 398.804,30.4142 C398.554,30.3357 398.304,30.2567 398.053,30.1807 C401.901,21.7778 409.34,18.2099 414.625,14.5124 C408.568,14.4753 404.209,17.1931 399.951,20.6011 C397.277,22.7411 395.129,25.6066 393.538,28.7296 C393.449,28.7797 393.345,28.8393 393.253,28.8919 C393.012,28.8351 392.766,28.7842 392.523,28.7296 C392.452,28.7137 392.38,28.7046 392.31,28.689 C391.725,28.5593 391.143,28.4303 390.554,28.3135 C389.987,28.2011 389.42,28.089 388.849,27.9888 C388.788,27.9781 388.727,27.9689 388.667,27.9584 C388.626,27.9513 388.585,27.945 388.545,27.938 C387.952,27.8364 387.356,27.7424 386.759,27.6539 C386.668,27.6405 386.576,27.6264 386.485,27.6133 C385.935,27.5339 385.384,27.4582 384.831,27.39 C384.234,27.3165 383.635,27.2473 383.034,27.1871 C382.987,27.1824 382.94,27.1816 382.892,27.177 C382.632,27.1513 382.372,27.129 382.111,27.1059 C382.033,27.0991 381.955,27.0923 381.878,27.0856 C381.465,27.0504 381.054,27.0131 380.64,26.9841 C380.586,26.9804 380.531,26.9777 380.477,26.974 C380.517,24.482 380.325,21.7748 379.868,19.3529 C378.468,9.56056 372.458,2.63345 364.636,2.08126 z " />
		<path label="Layer 1&#42; &#40;7&#41; &#40;J&#41; &#40;B&#41;" id="Layer 1&#42; &#40;7&#41; &#40;J&#41; &#40;B&#41;" fill="#f8e67c" stroke="none"  stroke-linejoin="round" d="M375.311,198.351 C370.176,197.947 362.488,195.577 357.694,192.92 C348.713,187.944 341.721,177.159 338.693,163.61 C338.591,163.155 338.617,163.119 338.982,163.211 C347.091,165.246 374.836,164.566 408.554,161.506 C412.135,161.181 415.093,160.944 415.128,160.979 C415.163,161.014 415.023,162.066 414.817,163.316 C412.465,177.547 405.251,189.434 396.291,193.842 C390.313,196.783 380.95,198.795 375.311,198.351 z M375.82,107.072 C369.237,104.92 370.549,95.3711 377.424,95.4013 C383.717,95.4288 385.662,103.86 380.016,106.639 C378.706,107.284 377.006,107.46 375.82,107.072 z M356.648,302.576 C360.044,303.021 366.908,302.601 369.524,301.787 C371.972,301.026 372.895,300.502 372.819,299.915 C372.681,298.839 372.37,293.854 372.436,293.787 C372.474,293.749 374.514,293.769 376.97,293.83 C381.38,293.94 381.435,293.946 381.362,294.305 C381.321,294.505 381.241,295.413 381.183,296.322 C381.126,297.231 381.034,298.342 380.979,298.79 L380.879,299.605 L382.596,300.137 C393.055,303.376 408.3,302.086 414.208,297.462 L414.755,297.034 L415.897,290.739 L417.038,284.445 L418.684,283.494 C431.237,276.247 441.318,264.903 448.013,250.494 L448.974,248.425 L447.909,247.373 C444.971,244.472 444.397,241.535 445.469,234.902 C446.812,226.589 449.391,221.582 453.434,219.437 C453.755,219.267 453.825,219.082 453.827,218.409 C453.83,216.458 453.998,215.839 454.585,215.609 C455.343,215.312 460.621,214.914 465.396,214.795 L469.398,214.694 L468.893,215.098 C468.493,215.418 463.899,218.782 461.849,220.256 L461.434,220.554 L463.827,225.031 C465.143,227.493 466.276,229.508 466.343,229.508 C466.915,229.508 474.022,226.396 475.991,225.283 C484.585,220.428 487.039,214.141 482.817,207.79 C480.563,204.399 476.628,202.201 469.485,200.34 C465.763,199.37 463.994,198.793 459.327,197.029 C456.923,196.12 454.741,195.297 454.478,195.2 C453.91,194.989 453.883,194.711 454.34,193.763 C455.173,192.035 455.707,184.735 455.156,182.616 C454.912,181.679 454.351,177.915 454.344,177.169 C454.342,176.915 454.318,176.91 454.173,177.135 C454.064,177.304 454.004,167.079 454.002,148.103 L453.999,118.81 L454.43,118.298 C455.42,117.122 455.698,115.134 455.232,112.579 C454.732,109.841 454.755,109.446 455.509,107.921 C456.707,105.497 456.285,102.902 454.638,102.556 L453.912,102.403 L453.795,100.663 C451.268,63.143 423.347,32.9885 386.141,27.5972 C342.458,21.2674 301.442,52.8903 296.618,96.6183 L296.508,97.6187 L295.838,97.7259 C293.918,98.0329 293.313,100.39 294.465,103.079 C295.188,104.767 295.26,105.721 294.825,107.813 C294.283,110.423 294.248,110.748 294.426,111.541 C294.594,112.286 295.368,113.278 295.783,113.278 C295.97,113.278 296.011,118.602 296.011,143.129 C296.011,162.985 295.953,172.944 295.837,172.872 C295.741,172.813 295.661,172.828 295.66,172.905 C295.658,172.983 295.541,173.829 295.4,174.786 C294.759,179.141 294.902,186.031 295.68,188.265 C295.9,188.898 296.011,189.689 296.011,190.632 L296.011,192.049 L292.401,193.449 C285.652,196.067 284.901,196.315 277.741,198.29 C272.294,199.793 268.348,202.071 266.355,204.863 C261.356,211.869 264.457,218.767 274.859,223.781 C278.023,225.307 282.467,227.115 282.631,226.944 C282.702,226.871 283.596,225.245 284.618,223.331 C285.641,221.417 286.701,219.446 286.975,218.951 L287.472,218.052 L285.434,216.614 C282.657,214.655 279.443,212.26 279.512,212.203 C279.543,212.176 281.408,212.22 283.657,212.299 C295.436,212.715 296.185,212.933 296.185,215.949 L296.185,217.463 L297.403,218.447 C300.869,221.248 302.892,226.69 303.841,235.771 C304.258,239.754 303.426,242.449 301.059,244.794 L299.864,245.976 L300.823,248.225 C301.35,249.462 302.093,251.375 302.472,252.475 C306.599,264.433 317.464,275.29 333.244,283.224 L335.243,284.229 L336.324,289.769 C337.257,294.555 337.467,295.392 337.865,295.913 C339.968,298.671 347.652,301.396 356.648,302.576 z " />
		<path label="Layer 1&#42; &#40;2&#41;" id="Layer 1&#42; &#40;2&#41;" fill="#ffffff" stroke="none"  stroke-linejoin="round" d="M415.127,160.89 C415.127,160.89 414.769,165.29 412.968,171.097 C412.347,171.213 411.756,171.259 411.265,171.148 C409.896,170.839 408.181,168.282 408.181,168.282 C408.181,168.282 405.812,169.506 404.527,169.516 C400.172,169.55 398.178,167.59 398.178,167.59 C398.178,167.59 396.008,170.329 390.992,171.8 C388.117,172.644 384.694,172.597 382.015,171.25 C380.633,170.555 379.521,169.021 379.521,169.021 C379.521,169.021 378.52,170.52 377.479,171.316 C375.485,172.843 372.288,173.404 369.855,173.36 C365.804,173.286 360.811,171.091 360.811,171.091 C360.811,171.091 359.495,173.31 355.117,174.479 C351.41,175.469 347.8,174.508 347.8,174.508 L343.321,176.672 L343.213,176.687 C339.686,169.515 338.585,163.13 338.585,163.13 C355.361,166.282 395.291,162.754 415.127,160.89 z " />
		<path label="Layer 1&#42; &#40;1&#41;" id="Layer 1&#42; &#40;1&#41;" fill="#ff8080" stroke="none"  stroke-linejoin="round" d="M400.638,177.136 C403.469,177.502 406.794,178.346 409.706,179.213 C407.56,183.454 404.586,187.743 400.468,191.224 C395.512,195.412 385.419,197.819 378.951,198.334 C372.302,198.863 361.782,195.625 356.161,192.035 C352.684,189.814 349.851,186.933 347.561,183.861 C350.526,182.007 354.989,179.483 357.964,179.053 C369.251,177.422 378.979,180.578 378.979,180.578 C378.979,180.578 388.326,177.026 397.924,176.941 C398.748,176.934 399.663,177.011 400.638,177.136 z " />
		<path label="Layer 1&#42; &#40;21&#41; &#40;W&#41;" id="Layer 1&#42; &#40;21&#41; &#40;W&#41;" fill="#216fc5" stroke="none"  stroke-linejoin="round" d="M357.337,302.638 C349.195,301.983 339.096,298.366 337.661,295.591 C337.324,294.939 335.66,286.61 335.62,285.372 L335.588,284.396 L332.891,283.028 C321.29,277.14 312.108,269.393 306.441,260.712 C304.7,258.045 302.394,252.838 302,250.685 L301.881,250.032 L303.439,250.032 C309.385,250.032 313.835,246.28 315.714,239.679 C317.006,235.145 317.199,228.204 316.285,219.148 L315.776,214.102 L314.72,213.15 C311.92,210.623 309.572,208.2 304.383,202.479 C302.881,200.822 301.707,199.2 300.707,197.398 C300.388,196.824 299.327,195.023 298.349,193.397 C295.45,188.575 295.182,187.726 295.02,182.87 C294.894,179.066 295.436,172.483 295.841,172.897 C295.918,172.975 296.582,174.174 297.316,175.562 C301.997,184.409 313.937,197.602 319.058,199.587 C326.024,202.287 341.022,206.762 350.132,208.86 C368.637,213.121 378.142,213.648 392.746,211.221 C402.851,209.542 415.829,205.722 427.34,201.039 C430.047,199.937 429.842,199.982 429.704,200.53 C429.553,201.135 429.646,201.102 431.515,199.904 C440.601,194.076 448.223,186.603 453.236,178.602 L454.308,176.893 L454.417,177.924 C454.477,178.491 454.69,179.894 454.889,181.043 C455.088,182.191 455.325,183.561 455.415,184.088 C455.65,185.464 454.984,192.318 454.505,193.455 C454.411,193.679 453.656,194.736 452.828,195.804 C446.941,203.395 440.148,209.518 430.503,215.926 C429.594,216.53 428.823,217.046 428.791,217.072 C428.381,217.404 428.005,226.17 428.231,230.143 C429.237,247.812 435.936,254.128 446.837,247.686 C447.729,247.16 448.744,246.506 449.094,246.235 C449.443,245.963 449.825,245.685 449.941,245.618 C450.524,245.279 446.531,253.76 444.407,257.372 C437.793,268.618 429.093,277.417 418.551,283.523 C417.576,284.088 416.814,284.608 416.857,284.678 C416.937,284.808 415.838,291.507 415.162,295.01 C414.675,297.538 414.361,297.853 410.853,299.355 C403.782,302.381 392.104,302.779 383.002,300.304 C381.083,299.782 380.884,299.614 380.993,298.613 C381.042,298.163 381.171,296.933 381.28,295.88 C381.388,294.827 381.539,293.927 381.613,293.879 C381.688,293.831 379.634,293.767 377.047,293.737 L372.345,293.682 L372.446,294.259 C372.711,295.781 372.78,300.412 372.541,300.61 C370.769,302.075 363.084,303.101 357.337,302.638 z " />
		<path label="Layer 1&#42; &#40;9&#41;" id="Layer 1&#42; &#40;9&#41;" fill="#185292" stroke="none"  stroke-linejoin="round" d="M351.552,226.813 C366.586,229.614 381.62,230.019 396.654,226.813 C396.947,235.904 396.503,244.628 394.399,252.521 C388.887,258.084 382.019,261.614 374.103,263.571 C366.788,260.387 360.083,256.9 355.16,252.521 C351.833,243.951 351.299,235.382 351.552,226.813 z " />
		<path label="Layer 1&#42; &#40;10&#41; &#40;J&#41;" id="Layer 1&#42; &#40;10&#41; &#40;J&#41;" fill="#804000" stroke="none"  stroke-linejoin="round" d="M376.616,95.3403 C379.895,94.9079 382.909,97.2194 383.341,100.498 C383.773,103.777 381.462,106.79 378.183,107.223 C374.904,107.655 371.891,105.344 371.458,102.065 C371.026,98.7863 373.337,95.7727 376.616,95.3403 z M372.77,71.638 C353.617,74.1638 340.153,91.7188 342.679,110.871 C345.205,130.024 362.764,143.519 381.916,140.993 C401.069,138.468 414.56,120.878 412.034,101.725 C409.508,82.5724 391.923,69.1122 372.77,71.638 z " />
		<path label="Layer 1&#42; &#40;12&#41; &#40;J&#41;" id="Layer 1&#42; &#40;12&#41; &#40;J&#41;" fill="#ffffff" stroke="none"  stroke-linejoin="round" d="M375.475,86.6901 C383.529,85.6281 390.929,91.304 391.991,99.3573 C393.053,107.41 387.377,114.811 379.324,115.873 C371.271,116.935 363.87,111.259 362.808,103.206 C361.746,95.1526 367.422,87.7522 375.475,86.6901 z M372.77,71.638 C353.617,74.1638 340.153,91.7188 342.679,110.871 C345.205,130.024 362.764,143.519 381.916,140.993 C401.069,138.468 414.56,120.878 412.034,101.725 C409.508,82.5724 391.923,69.1122 372.77,71.638 z " />
		<path label="Layer 1&#42; &#40;18&#41; &#40;J&#41;" id="Layer 1&#42; &#40;18&#41; &#40;J&#41;" fill="#000000" stroke="none"  stroke-linejoin="round" d="M372.77,71.638 C391.923,69.1122 409.508,82.5724 412.034,101.725 C414.56,120.878 401.069,138.468 381.916,140.993 C362.764,143.519 345.205,130.024 342.679,110.871 C340.153,91.7188 353.617,74.1638 372.77,71.638 z M371.175,59.5401 C352.487,62.0046 337.809,75.0738 332.41,91.8997 L326.038,92.74 L326,94.5928 C323.709,94.8297 303.327,96.9687 295.565,97.7296 C294.506,97.8334 293.954,99.2957 293.78,100.345 C293.506,102 294.998,103.506 295.137,105.177 C295.361,107.853 292.482,112.42 296.225,113.427 C301.848,114.94 318.326,113.816 325.514,113.229 L325.414,117.22 L331.575,117.629 C337.251,140.666 359.443,156.265 383.512,153.091 C402.573,150.577 417.474,137.008 422.608,119.686 L427.664,119.551 L427.796,116.747 C433.947,117.29 448.124,118.543 453.648,118.755 C454.66,118.794 455.222,116.64 455.399,115.643 C455.84,113.147 454.38,111.217 454.959,108.748 C456.755,105.952 456.578,104.977 455.354,102.714 C451.491,101.828 437.225,99.5634 428.678,98.0268 L428.811,95.4724 L423.277,95.5445 C417.83,72.1938 395.445,56.3394 371.175,59.5401 z " />
		<path label="Layer 1&#42; &#40;14&#41; &#40;J&#41;" id="Layer 1&#42; &#40;14&#41; &#40;J&#41;" fill="#e6e6fa" stroke="none"  stroke-linejoin="round" d="M372.77,71.638 C391.923,69.1122 409.508,82.5724 412.034,101.725 C414.56,120.878 401.069,138.468 381.916,140.993 C362.764,143.519 345.205,130.024 342.679,110.871 C340.153,91.7188 353.617,74.1638 372.77,71.638 z M371.175,59.5401 C352.487,62.0046 337.809,75.0738 332.41,91.8997 L326.038,92.74 L325.414,117.22 L331.575,117.629 C337.251,140.666 359.443,156.265 383.512,153.091 C402.573,150.577 417.474,137.008 422.608,119.686 L427.664,119.551 L428.811,95.4724 L423.277,95.5445 C417.83,72.1938 395.445,56.3394 371.175,59.5401 z " />
		<path label="Layer&#95;2&#42; &#40;J&#41;&#58; 1 &#40;J&#41;" id="Layer&#95;2&#42; &#40;J&#41;&#58; 1 &#40;J&#41;" fill="#000000" stroke="none"  stroke-linejoin="round" d="M338.691,216.53 C338.691,220.022 335.859,222.853 332.367,222.853 C328.875,222.853 326.044,220.022 326.044,216.53 C326.044,213.037 328.875,210.206 332.367,210.206 C335.859,210.206 338.691,213.037 338.691,216.53 z M422.638,216.53 C422.638,220.022 419.807,222.852 416.315,222.852 C412.823,222.852 409.993,220.022 409.993,216.53 C409.993,213.038 412.823,210.207 416.315,210.207 C419.807,210.207 422.638,213.038 422.638,216.53 z " />
	</g>
	<g inkscape:groupmode="layer" label="New Layer" id="New Layer">
		<path label="Layer 1&#42; &#40;18&#41; &#40;J&#41;" id="Layer 1&#42; &#40;18&#41; &#40;J&#41;" fill="#000000" stroke="none"  stroke-linejoin="round" d="M529.287,212.659 C529.287,212.659 535.923,212.727 539.218,213.065 C540.217,213.167 541.313,213.135 542.342,213.207 C543.372,213.278 544.331,213.5 545.162,214.059 C545.583,214.341 545.935,214.701 546.227,215.104 L546.227,216.645 C546.227,217.104 546.24,217.558 546.248,218.015 C546.07,217.883 545.889,217.756 545.71,217.629 C545.703,217.624 545.697,217.614 545.69,217.609 C545.58,217.531 545.46,217.456 545.335,217.376 C544.954,217.133 544.51,216.881 544.036,216.635 C544.009,216.621 543.983,216.609 543.955,216.595 C543.949,216.591 543.942,216.588 543.935,216.585 C543.609,216.417 543.267,216.246 542.931,216.088 C542.921,216.083 542.91,216.082 542.9,216.077 C542.565,215.919 542.237,215.763 541.917,215.621 C541.906,215.616 541.896,215.615 541.886,215.611 C541.567,215.469 541.263,215.334 540.983,215.215 C540.972,215.21 540.964,215.21 540.953,215.205 C540.677,215.088 540.435,214.988 540.222,214.901 C540.204,214.893 540.21,214.898 540.192,214.891 C539.78,214.722 539.55,214.627 539.523,214.617 C539.521,214.616 539.482,214.607 539.482,214.607 L537.413,218.512 C536.732,218.051 535.984,217.535 535.374,217.112 C533.298,215.673 529.287,212.659 529.287,212.659 z M657.196,319.601 C660.988,319.898 662.253,319.882 666.464,319.48 C668.636,319.273 670.432,319.084 670.456,319.059 C670.76,318.753 670.948,315.084 670.752,313.324 C670.087,307.364 667.003,304.738 659.397,303.654 L657.436,303.375 L658.999,302.811 C661.263,301.996 664.276,300.388 664.638,299.802 C664.81,299.524 665.4,296.808 665.948,293.766 C666.497,290.725 667.002,287.956 667.071,287.614 C667.155,287.195 667.487,286.854 668.087,286.568 C668.577,286.334 670.331,285.248 671.984,284.154 C692.438,270.62 705.184,246.464 703.979,223.522 L703.877,221.568 L706.727,216.909 C708.295,214.346 711.526,209.112 713.908,205.276 C720.51,194.645 725.645,186.157 729.327,179.787 C731.162,176.613 732.696,173.974 732.737,173.922 C732.777,173.87 734.102,174.6 735.682,175.545 C737.262,176.49 738.602,177.263 738.659,177.263 C738.717,177.263 738.834,176.504 738.92,175.578 C739.534,168.975 740.888,166.21 744.604,163.971 C747.563,162.188 749.412,160.169 755.55,152.014 C757.139,149.903 759.194,147.543 760.759,146.033 C763.875,143.025 764.209,142.356 764.187,139.149 C764.162,135.555 762.961,133.577 759.825,131.969 C757.991,131.029 755.612,131.717 753.273,133.865 C752.339,134.721 751.533,135.422 751.482,135.422 C751.43,135.422 751.65,134.597 751.97,133.589 C754.31,126.222 751.951,121.604 745.686,121.286 C740.018,120.998 736.114,126.044 737.382,132.019 C737.79,133.939 735.659,140.472 734.625,140.472 C733.077,140.472 732.727,138.44 733.807,135.729 C735.982,130.268 732.911,126.17 726.946,126.573 C721.402,126.948 719.735,132.407 722.443,141.313 C722.966,143.033 723.632,145.576 723.925,146.964 C724.217,148.353 724.868,150.644 725.372,152.056 C726.821,156.121 726.961,157.081 726.3,158.447 C725.618,159.854 723.239,162.221 720.761,163.957 C718.497,165.544 718.5,165.213 720.738,166.537 C721.763,167.144 722.744,167.733 722.917,167.846 C723.152,167.999 720.935,171.309 714.293,180.725 C709.376,187.695 705.314,193.359 705.266,193.311 C705.219,193.264 705.301,191.983 705.45,190.467 C705.694,187.977 705.672,187.464 705.224,185.191 C704.951,183.806 704.654,181.997 704.564,181.17 C704.473,180.344 704.302,179.729 704.182,179.803 C704.052,179.883 703.988,168.743 704.025,152.224 L704.086,124.512 L704.865,124.31 C706.29,123.941 706.744,122.35 706.352,119.106 C706.076,116.829 706.084,116.734 706.84,113.903 C707.952,109.737 707.528,108.12 705.031,107.015 L704.037,106.576 L703.87,103.746 C703.186,92.1711 699.774,80.2699 694.327,70.4616 C693.677,69.2903 693.145,68.2923 693.145,68.2436 C693.145,67.757 695.916,67.4964 700.599,67.5424 C706.503,67.6004 706.376,67.7092 702.798,65.6571 C699.842,63.9618 695.87,63.4535 692.291,64.3123 L690.835,64.6615 L690.318,63.8727 L689.801,63.0839 L691.076,62.1213 C693.151,60.5542 695.47,59.2154 698.862,57.6254 C702.437,55.9499 702.451,55.7373 698.966,56.066 C695.238,56.4176 692.168,57.4624 689.327,59.3456 L687.793,60.3625 L686.773,59.1178 L685.753,57.8731 L686.744,57.2097 C691.137,54.2692 699.126,53.4354 708.051,54.986 L709.852,55.299 L709.157,54.7445 C703.29,50.0662 695.726,49.221 687.867,52.3656 C686.519,52.9049 686.461,52.7109 687.622,51.5502 C690.575,48.5964 694.891,47.8107 703.124,48.7275 C712.526,49.7745 713.484,49.5497 708.594,47.4442 C702.874,44.9815 698.92,44.3485 693.189,44.9779 C689.362,45.3981 687.668,46.3774 683.243,50.7274 L681.156,52.7789 L679.035,50.7883 C677.868,49.6934 676.021,48.0856 674.93,47.2153 C672.568,45.3313 672.623,45.6399 674.371,44.102 C679.927,39.2112 686.269,36.7463 694.227,36.3845 L697.594,36.2315 L696.471,35.559 C690.09,31.7353 680.782,33.7117 671.263,40.9118 C670.271,41.662 669.321,42.3581 669.151,42.4586 C668.962,42.571 667.832,42.034 666.217,41.0642 C664.772,40.1967 662.584,38.9828 661.355,38.3665 C660.125,37.7503 659.074,37.2068 659.019,37.1589 C658.837,37.0019 660.057,34.5991 661.251,32.7623 C664.892,27.1609 670.841,23.1796 680.881,19.6246 C685.324,18.0517 685.306,18.0076 680.28,18.1466 C669.713,18.4388 660.574,24.0337 655.856,33.0984 C655.27,34.2233 654.706,35.145 654.601,35.1465 C654.496,35.1481 653.015,34.6472 651.311,34.0334 L648.213,32.9174 L648.958,31.5687 C651.455,27.0475 655.196,23.4897 662.014,19.1499 C664.954,17.2786 664.9,17.032 661.673,17.5939 C655.385,18.689 647.917,24.0845 644.651,29.8929 C643.588,31.784 643.709,31.75 640.431,31.0755 C637.803,30.5348 632.863,29.8592 631.536,29.8592 L630.625,29.8592 L630.625,28.2179 C630.625,16.14 624.651,6.65249 616.077,5.114 L614.875,4.89826 L615.716,5.53516 C621.885,10.2032 625.335,18.1678 625.335,27.7399 L625.335,29.6188 L624.169,29.6188 L623.004,29.6188 L622.853,26.4326 C622.584,20.7433 621.889,18.181 619.709,14.8383 C617.308,11.1577 614.133,8.35749 611.285,7.40969 C609.351,6.76605 609.305,6.93138 610.942,8.63845 C613.912,11.7337 615.705,15.1661 616.883,20.0113 C617.58,22.8745 618.571,29.489 618.339,29.7216 C618.205,29.8553 612.284,30.6641 611.281,30.6856 C610.6,30.7003 610.561,30.6418 610.256,29.1378 C608.207,19.0298 600.336,10.0798 591.531,7.84631 C588.442,7.06264 588.404,7.11575 590.79,8.88292 C596.91,13.4158 602.898,21.3797 604.912,27.6651 C606.024,31.1375 606.079,31.9189 605.224,32.116 C604.845,32.2034 602.784,32.8304 600.643,33.5094 L596.752,34.7439 L596.074,33.9279 C587.816,23.9809 577.942,18.7655 571.628,21.0159 L570.704,21.3455 L572.951,22.0885 C579.482,24.248 585.347,28.3254 589.993,33.9353 C591.114,35.2884 592.058,36.4693 592.093,36.5595 C592.127,36.6498 591.207,37.1915 590.049,37.7634 C588.89,38.3354 586.644,39.5772 585.057,40.5232 C583.47,41.4691 582.081,42.2821 581.971,42.3299 C581.861,42.3778 580.562,41.2277 579.085,39.7742 C572.275,33.071 566.181,30.8662 556.727,31.685 C554.538,31.8746 554.587,32.0361 557.043,32.7174 C561.135,33.8521 566.416,36.1275 569.281,37.9902 C572.265,39.9303 577.242,44.5716 577.242,45.4144 C577.242,45.8988 576.028,46.8029 575.699,46.5633 C569.666,42.1692 562.914,40.4925 557.765,42.1104 C554.84,43.0294 554.838,43.027 559.419,43.6863 C564.539,44.4232 569.252,46.2125 571.711,48.3536 L572.794,49.2956 L571.844,50.277 C570.53,51.6355 570.319,51.6522 568.182,50.5679 C564.317,48.6066 556.073,48.4651 553.661,50.3186 C553.076,50.7686 553.076,50.7688 555.24,50.7744 C559.372,50.7853 566.235,52.5735 567.85,54.0601 C567.908,54.1138 567.405,54.7232 566.731,55.4143 C555.662,66.7695 547.735,85.3153 546.474,102.806 C546.224,106.27 546.195,106.399 545.536,107.015 C544.401,108.075 544.211,109.096 544.389,113.166 C544.529,116.376 544.492,116.977 544.062,118.469 C543.16,121.6 543.463,122.7 545.321,123.045 L546.223,123.212 L546.223,149.396 C546.223,163.802 546.13,175.579 546.016,175.579 C545.619,175.579 545.204,180.054 545.214,184.23 C545.224,188.227 545.312,188.981 546.129,192.062 C546.303,192.718 536.651,196.427 530.15,198.203 C521.026,200.695 517.161,203.134 515.03,207.746 C511.673,215.01 516.382,221.04 529.631,226.444 C531.152,227.065 532.436,227.609 532.484,227.654 C532.533,227.699 532.181,228.449 531.703,229.319 C531.224,230.19 530.833,230.937 530.833,230.98 C530.833,231.023 532.104,231.414 533.658,231.849 C536.642,232.685 537.085,232.97 537.085,234.058 C537.085,234.877 537.157,234.874 535.777,234.102 C531.184,231.536 528.128,238.3 531.083,244.491 C532.742,247.969 535.031,249.314 537.861,248.475 C539.319,248.043 540.231,247.956 543.337,247.952 C546.53,247.949 547.214,247.88 548.112,247.472 C549.491,246.847 549.412,246.812 549.916,248.259 C550.159,248.953 550.82,250.604 551.385,251.926 C551.951,253.249 552.605,254.926 552.838,255.653 C556.328,266.542 567.992,278.173 582.948,285.678 L585.34,286.879 L586.448,292.415 C587.839,299.366 588.171,299.834 593.151,301.865 L595.11,302.664 L594.051,302.86 C585.047,304.534 582.667,306.938 582.657,314.365 C582.655,316.305 582.708,317.947 582.776,318.015 C583.102,318.343 589.835,318.894 593.473,318.89 C600.492,318.882 604.321,318.14 608.943,315.891 L611.668,314.565 L616.372,314.211 C618.959,314.016 621.114,313.817 621.161,313.77 C621.34,313.591 621.359,306.456 621.183,305.286 L621,304.062 L621.99,303.615 L622.981,303.169 L622.827,300.632 C622.742,299.236 622.61,297.673 622.534,297.157 L622.395,296.218 L623.537,296.375 C624.166,296.461 626.241,296.532 628.15,296.532 C631.338,296.532 631.61,296.566 631.502,296.953 C631.438,297.184 631.315,298.473 631.228,299.816 L631.07,302.259 L631.93,302.57 C632.919,302.928 632.909,302.871 632.41,305.286 C632.053,307.011 631.975,313.598 632.308,313.924 C632.374,313.989 634.538,314.228 637.117,314.456 C641.693,314.861 641.839,314.891 643.174,315.689 C647.009,317.982 651.096,319.123 657.196,319.601 z " />
		<path label="Layer 1&#42; &#40;3&#41; &#40;W&#41; &#40;B&#41; &#40;1&#41; &#40;J&#41;" id="Layer 1&#42; &#40;3&#41; &#40;W&#41; &#40;B&#41; &#40;1&#41; &#40;J&#41;" fill="#f8e67c" stroke="none"  stroke-linejoin="round" d="M594.773,116.069 C593.035,115.308 592.241,112.493 593.317,110.912 C595.459,107.765 599.818,108.788 600.165,112.519 C600.42,115.256 597.423,117.229 594.773,116.069 z M649.42,116.417 C647.533,115.146 646.97,112.841 648.157,111.25 C649.913,108.899 652.778,108.975 654.422,111.415 C656.454,114.43 652.435,118.449 649.42,116.417 z M618.539,188.664 C594.48,187.022 580.088,178.966 576.558,165.163 C575.997,162.972 575.826,163.106 578.269,163.825 C597.335,169.434 618.177,171.966 631.652,170.311 C642.698,168.954 657.936,164.9 669.096,160.349 C670.716,159.688 672.042,159.195 672.042,159.252 C672.042,159.657 670.7,164.944 670.122,166.817 C665.371,182.211 645.75,190.521 618.539,188.664 z M604.535,304.897 C610.8,305.853 618.426,305.29 621.871,303.616 L622.975,303.08 L622.82,300.433 C622.734,298.978 622.607,297.489 622.538,297.126 L622.411,296.464 L627.018,296.464 L631.625,296.464 L631.498,297.126 C631.428,297.489 631.301,298.782 631.214,299.998 L631.057,302.209 L631.973,302.592 C639.238,305.627 655.17,305.059 662.101,301.518 C664.883,300.097 664.812,300.241 665.96,293.699 C666.516,290.525 667.022,287.749 667.083,287.529 C667.144,287.31 667.974,286.672 668.928,286.111 C690.932,273.18 705.207,247.722 703.982,223.595 L703.877,221.542 L706.97,216.501 C708.672,213.729 711.846,208.594 714.024,205.089 C719.848,195.721 725.609,186.2 729.086,180.201 C730.772,177.291 732.298,174.679 732.475,174.396 C732.786,173.901 732.632,173.779 728.542,171.286 C726.2,169.86 724.052,168.544 723.768,168.363 C723.268,168.045 722.959,168.447 714.884,179.888 C710.283,186.408 706.208,192.175 705.828,192.702 L705.138,193.661 L705.333,191.74 C705.693,188.204 704.793,179.333 704.141,179.986 C704.045,180.082 703.966,167.642 703.966,152.341 L703.966,124.522 L704.693,124.376 C706.237,124.068 706.766,122.365 706.338,119.079 C706.056,116.906 706.064,116.823 706.854,113.822 C707.965,109.606 707.563,108.102 705.048,107.061 L704.03,106.64 L703.866,103.865 C701.753,68.092 675.732,38.1182 640.724,31.1295 C594.175,21.8368 549.758,55.6403 546.477,102.855 L546.237,106.304 L545.402,107.229 C544.326,108.42 544.198,109.194 544.392,113.326 C544.533,116.32 544.494,116.917 544.064,118.401 C543.098,121.741 543.578,123.091 545.734,123.091 C546.222,123.091 546.223,123.113 546.223,149.422 C546.223,164.173 546.13,175.752 546.013,175.752 C545.02,175.752 544.915,188.124 545.883,191.085 C546.392,192.641 546.78,192.333 541.973,194.193 C536.396,196.351 534.497,196.99 529.579,198.359 C520.023,201.02 515.918,204.028 514.348,209.523 C512.407,216.315 517.672,221.745 531.461,227.175 L532.69,227.659 L535.008,223.264 C536.282,220.847 537.321,218.772 537.315,218.652 C537.309,218.532 535.875,217.428 534.129,216.198 C532.382,214.968 530.628,213.697 530.232,213.374 L529.51,212.786 L531.915,212.795 C536.694,212.814 543.635,213.398 544.539,213.857 C546.056,214.627 546.223,214.887 546.223,216.488 L546.223,217.954 L547.79,219.485 C551.31,222.925 553.677,230.177 553.763,237.792 C553.809,241.845 553.482,242.776 551.15,245.221 L549.406,247.049 L550.607,249.935 C551.268,251.522 552.13,253.74 552.523,254.864 C556.843,267.215 568.725,279.076 583.889,286.176 L585.367,286.867 L586.393,292.207 C587.011,295.418 587.605,297.859 587.884,298.331 C589.379,300.865 596.489,303.669 604.535,304.897 z " />
		<path label="Layer 1&#42; &#40;21&#41; &#40;B&#41;&#58; 3 &#40;J&#41; &#40;W&#41;" id="Layer 1&#42; &#40;21&#41; &#40;B&#41;&#58; 3 &#40;J&#41; &#40;W&#41;" fill="#216fc5" stroke="none"  stroke-linejoin="round" d="M606.108,304.654 C599.832,303.926 591.956,301.276 589.665,299.122 C588.372,297.906 588.236,297.538 587.221,292.526 C586.686,289.881 586.198,287.499 586.136,287.234 C586.062,286.913 585.198,286.317 583.55,285.452 C567.825,277.196 557.301,266.525 553.646,255.134 C552.846,252.64 552.81,252.729 554.627,252.729 C561.358,252.729 565.934,247.998 567.534,239.384 C568.028,236.729 567.943,227.333 567.374,221.616 L566.898,216.834 L564.768,214.883 C562.731,213.017 556.803,206.746 554.487,204.007 C553.262,202.557 547.886,193.644 547.109,191.772 C546.124,189.403 545.808,184.139 546.351,179.149 C546.781,175.197 546.825,175.13 547.764,176.984 C551.631,184.618 559.727,194.528 566.437,199.841 L569.119,201.965 L575.561,204.148 C595.363,210.859 613.2,214.829 625.921,215.355 C639.239,215.906 658.405,211.749 677.131,204.25 C680.724,202.811 680.747,202.805 680.747,203.314 C680.747,203.85 680.812,203.818 683.545,201.958 C692.786,195.668 699.573,188.945 704.083,181.615 C705.393,179.484 705.408,179.483 705.602,181.492 C705.689,182.385 705.921,183.873 706.118,184.799 C706.935,188.637 706.241,195.368 704.829,197.301 C699.517,204.571 692.445,211.175 683.239,217.46 L679.84,219.781 L679.661,220.926 C679.053,224.808 679.193,234.68 679.916,238.937 C682.239,252.611 689.257,256.315 699.586,249.318 C700.359,248.795 701.02,248.401 701.055,248.444 C701.218,248.641 697.891,255.676 696.224,258.657 C689.679,270.365 680.367,280.053 669.926,286.014 C668.802,286.656 667.859,287.198 667.83,287.22 C667.802,287.241 667.276,289.904 666.663,293.138 C665.347,300.07 665.532,299.699 662.679,301.126 C655.641,304.649 642.081,305.267 633.404,302.46 L631.869,301.963 L631.989,299.228 L632.11,296.493 L628.688,296.493 C626.807,296.493 624.782,296.427 624.189,296.345 C623.117,296.199 623.111,296.201 623.184,296.887 C623.224,297.265 623.304,298.75 623.362,300.185 L623.467,302.795 L622.186,303.381 C619.223,304.737 611.856,305.321 606.108,304.654 z " />
		<path label="Layer 1&#42; &#40;25&#41;" id="Layer 1&#42; &#40;25&#41;" fill="#1c5ca4" stroke="none"  stroke-linejoin="round" d="M601.683,229.498 C616.711,232.298 631.739,232.703 646.767,229.498 C647.06,238.586 646.616,247.306 644.513,255.196 C639.003,260.757 632.138,264.285 624.225,266.241 C616.913,263.059 610.211,259.573 605.29,255.196 C601.963,246.63 601.43,238.064 601.683,229.498 z " />
		<path label="Layer 1&#42; &#40;7&#41; &#40;J&#41;" id="Layer 1&#42; &#40;7&#41; &#40;J&#41;" fill="#ffffff" stroke="none"  stroke-linejoin="round" d="M672.162,158.747 C672.162,158.747 670.82,165.902 669.158,169.308 C668.422,170.084 667.662,170.826 667.061,171.358 C666.253,172.073 665.511,172.946 664.49,173.294 C663.446,173.649 662.24,173.615 661.171,173.347 C660.099,173.078 658.272,171.708 658.272,171.708 C657.34,173.412 656.659,174.625 654.379,175.047 C652.965,175.48 650.751,175.366 649.279,175.23 C646.806,175 643.192,173.067 643.192,173.067 C643.192,173.067 643.03,173.719 642.487,174.571 C642.14,174.957 640.648,176.366 639.253,176.68 C637.778,177.123 636.179,176.875 634.639,176.907 C632.872,176.944 631.301,177.041 629.573,176.673 C627.967,176.331 626.103,175.892 624.794,174.902 C624.182,174.439 623.362,173.117 623.362,173.117 C623.362,173.117 621.751,174.635 620.831,175.236 C619.768,175.931 618.59,176.221 617.35,176.495 C613.367,177.455 608.598,176.628 604.669,175.467 C603.449,175.106 601.897,172.195 601.897,172.195 C601.897,172.195 600.574,174.769 599.368,175.37 C597.835,176.134 596.247,175.966 594.538,175.843 C592.773,175.717 590.379,175.356 588.897,174.388 C587.731,173.626 586.691,171.103 586.691,171.103 C586.691,171.103 586.598,173.418 585.761,173.978 C584.727,174.67 583.163,174.246 582.037,173.718 C581.249,173.349 580.38,172.544 579.588,171.696 C579.575,171.675 579.537,171.671 579.525,171.651 C576.766,167.124 576.204,162.726 576.204,162.726 C576.204,162.726 603.695,171.28 624.567,170.499 C647.26,169.65 672.162,158.747 672.162,158.747 z M662.649,177.85 C661.081,179.257 659.354,180.503 657.432,181.534 C647.437,186.895 637.694,188.812 626.355,188.537 C611.966,188.188 597.406,186.804 586.291,178.678 C586.535,178.352 587.027,177.771 587.506,177.715 C592.074,177.187 597.835,178.506 602.104,180.361 C603.118,180.802 603.658,183.328 603.658,183.328 L603.746,184.293 C603.746,184.293 605.399,182.831 606.248,182.134 C606.805,181.677 607.259,181.004 607.947,180.794 C611.932,179.58 616.533,180.245 621.332,182.043 C622.459,182.465 622.719,183.281 623.051,184.438 C623.258,185.162 623.399,186.819 623.399,186.819 C623.399,186.819 623.831,183.198 624.889,181.818 C625.71,180.748 627.014,180.107 628.3,179.703 C630.246,179.092 632.378,179.205 634.41,179.369 C636.044,179.501 637.848,179.542 639.239,180.409 C640.302,181.072 641.57,183.363 641.57,183.363 C641.57,183.363 642.168,181.172 642.991,180.498 C644.492,179.269 646.66,179.18 648.591,178.989 C650.36,178.815 652.299,178.607 653.92,179.337 C654.614,179.65 655.557,180.944 655.557,180.944 C655.557,180.944 656.252,179.08 657.014,178.508 C657.79,177.926 658.88,177.879 659.845,177.776 C660.709,177.684 661.944,177.774 662.649,177.85 z " />
		<path label="Layer 1&#42; &#40;14&#41; &#40;J&#41;&#58; 1 &#40;2&#41; &#40;J&#41;" id="Layer 1&#42; &#40;14&#41; &#40;J&#41;&#58; 1 &#40;2&#41; &#40;J&#41;" fill="#804000" stroke="none"  stroke-linejoin="round" d="M652.119,109.559 C654.161,109.992 655.441,112.009 655.009,114.051 C654.576,116.092 652.588,117.417 650.546,116.984 C648.504,116.551 647.188,114.527 647.62,112.485 C648.053,110.443 650.078,109.126 652.119,109.559 z M597.388,108.771 C599.429,109.203 600.71,111.221 600.277,113.262 C599.844,115.304 597.856,116.628 595.814,116.196 C593.772,115.763 592.456,113.738 592.888,111.697 C593.321,109.655 595.346,108.338 597.388,108.771 z M661.001,87.8328 C647.207,84.9097 633.623,93.9149 630.649,107.947 C627.676,121.979 636.44,135.719 650.234,138.642 C664.028,141.565 677.612,132.56 680.585,118.528 C683.559,104.497 674.795,90.7558 661.001,87.8328 z M596.656,86.5579 C583.315,84.4419 570.459,93.3485 567.579,106.942 C564.605,120.974 573.369,134.714 587.163,137.637 C600.957,140.561 614.541,131.555 617.515,117.524 C620.488,103.492 611.724,89.7509 597.93,86.8278 C597.499,86.7365 597.087,86.6261 596.656,86.5579 z " />
		<path label="Layer 1&#42; &#40;14&#41; &#40;J&#41;" id="Layer 1&#42; &#40;14&#41; &#40;J&#41;" fill="#ffffff" stroke="none"  stroke-linejoin="round" d="M653.447,103.623 C658.66,104.728 661.981,109.835 660.876,115.048 C659.772,120.26 654.665,123.581 649.452,122.477 C644.24,121.372 640.882,116.257 641.987,111.045 C643.091,105.832 648.235,102.519 653.447,103.623 z M598.711,103.13 C603.924,104.234 607.245,109.341 606.14,114.554 C605.036,119.766 599.929,123.088 594.716,121.983 C589.504,120.879 586.146,115.764 587.25,110.551 C588.355,105.339 593.499,102.025 598.711,103.13 z M596.769,86.631 C583.428,84.5149 570.572,93.4215 567.691,107.015 C564.718,121.047 573.482,134.787 587.276,137.711 C601.07,140.634 614.654,131.628 617.628,117.597 C620.601,103.565 611.837,89.8239 598.043,86.9009 C597.612,86.8095 597.199,86.6992 596.769,86.631 z M661.114,87.9058 C647.319,84.9828 633.735,93.988 630.762,108.02 C627.789,122.052 636.552,135.792 650.347,138.715 C664.141,141.639 677.725,132.633 680.698,118.601 C683.672,104.57 674.908,90.8289 661.114,87.9058 z " />
		<path label="Layer 1&#42; &#40;14&#41; &#40;J&#41; &#40;J&#41; &#40;3&#41; &#40;J&#41;" id="Layer 1&#42; &#40;14&#41; &#40;J&#41; &#40;J&#41; &#40;3&#41; &#40;J&#41;" fill="#000000" stroke="none"  stroke-linejoin="round" d="M596.362,86.937 C596.792,87.0052 597.205,87.1156 597.636,87.2069 C611.43,90.13 620.194,103.871 617.22,117.903 C614.247,131.934 600.663,140.94 586.869,138.017 C573.075,135.093 564.311,121.353 567.284,107.321 C570.165,93.7275 583.021,84.821 596.362,86.937 z M660.706,88.2119 C674.5,91.1349 683.264,104.876 680.291,118.908 C677.318,132.939 663.733,141.945 649.939,139.022 C636.145,136.098 627.381,122.358 630.355,108.326 C633.328,94.294 646.912,85.2888 660.706,88.2119 z M653.089,149.283 C654.213,149.382 655.566,149.431 656.095,149.391 C656.624,149.352 657.997,149.261 659.147,149.191 C671.023,148.46 682.738,140.284 688.199,128.915 L689.245,126.737 L691.306,126.466 C694.604,126.033 694.412,126.132 694.593,124.768 C694.785,123.315 694.858,123.26 696.177,123.561 C696.747,123.692 698.783,123.93 700.701,124.089 C706.715,124.59 707.327,124.099 707.061,118.985 C706.915,116.173 706.95,115.791 707.554,113.575 C709.205,107.517 707.719,106.335 696.098,104.466 C695.213,104.323 694.948,103.941 694.928,102.774 C694.921,102.397 694.349,102.037 692.27,101.103 C689.236,99.7416 689.481,99.9635 688.416,97.6039 C679.463,77.7596 654.675,70.8917 636.445,83.2039 C633.457,85.2215 628.777,89.9601 626.881,92.8858 C624.595,96.4156 624.939,96.2493 623.875,94.3378 C609.396,68.3332 571.283,70.7257 559.959,98.3501 C559.635,99.1392 559.399,99.2956 557.314,100.104 C554.879,101.047 554.864,101.061 554.621,102.683 L554.463,103.736 L551.899,104.297 C545.782,105.635 544.728,106.962 545.025,112.952 C545.172,115.928 545.132,116.502 544.637,118.555 C543.67,122.566 544.101,122.928 549.878,122.955 L553.551,122.973 L553.696,123.874 C553.775,124.37 553.868,124.776 553.903,124.776 C553.993,124.776 558.609,125.711 559.208,125.851 C559.556,125.932 559.991,126.574 560.636,127.957 C572.509,153.435 607.923,155.457 622.834,131.508 L624.196,129.32 L625.098,130.955 C630.783,141.271 641.453,148.258 653.089,149.283 z " />
		<path label="Layer 1&#42; &#40;14&#41; &#40;J&#41; &#40;J&#41; &#40;3&#41; &#40;J&#41;" id="Layer 1&#42; &#40;14&#41; &#40;J&#41; &#40;J&#41; &#40;3&#41; &#40;J&#41;" fill="#c0c0c0" stroke="none"  stroke-linejoin="round" d="M596.399,87.3851 C596.83,87.4534 597.242,87.5637 597.673,87.6551 C611.467,90.5781 620.231,104.319 617.258,118.351 C614.285,132.383 600.7,141.388 586.906,138.465 C573.112,135.542 564.348,121.801 567.322,107.769 C570.202,94.1757 583.058,85.2691 596.399,87.3851 z M660.744,88.66 C674.538,91.5831 683.302,105.324 680.328,119.356 C677.355,133.388 663.771,142.393 649.977,139.47 C636.183,136.547 627.419,122.806 630.392,108.774 C633.366,94.7421 646.95,85.737 660.744,88.66 z M663.704,77.8979 C647.834,74.535 632.16,82.4579 624.812,96.3163 C620.178,86.7065 611.407,79.29 600.283,76.9327 C582.93,73.2556 565.79,83.1272 559.535,99.4453 L554.867,101.194 C553.006,111.092 552.893,118.65 553.757,124.919 L559.668,126.095 C563.931,136.866 573.204,145.317 585.251,147.87 C601.12,151.232 616.795,143.31 624.142,129.451 C628.777,139.061 637.548,146.477 648.672,148.835 C665.823,152.469 682.756,142.861 689.187,126.881 L694.354,126.189 C695.637,119.993 696.042,112.487 694.851,102.487 L689.406,100.002 C685.203,89.0771 675.871,80.4761 663.704,77.8979 z " />
		<path label="Layer&#95;2&#42; &#40;J&#41;&#58; 1 &#40;J&#41;" id="Layer&#95;2&#42; &#40;J&#41;&#58; 1 &#40;J&#41;" fill="#000000" stroke="none"  stroke-linejoin="round" d="M589.003,222.155 C589.003,225.647 586.172,228.478 582.68,228.478 C579.187,228.478 576.356,225.647 576.356,222.155 C576.356,218.662 579.187,215.831 582.68,215.831 C586.172,215.831 589.003,218.662 589.003,222.155 z M672.95,222.155 C672.95,225.647 670.119,228.477 666.628,228.477 C663.136,228.477 660.305,225.647 660.305,222.155 C660.305,218.663 663.136,215.832 666.628,215.832 C670.119,215.832 672.95,218.663 672.95,222.155 z " />
	</g>
	<g inkscape:groupmode="layer" label="New Layer" id="New Layer">
		<path label="Layer&#95;2&#42; &#40;W&#41; &#40;W&#41;" id="Layer&#95;2&#42; &#40;W&#41; &#40;W&#41;" fill="#000000" stroke="none"  stroke-linejoin="round" d="M90.3181,17.4692 L90.0323,16.172 L89.6723,13.772 L90.1593,14.8113 L90.9032,16.7163 L91.1236,17.365 z M65.2279,355.987 C70.0225,356.72 88.4636,352.959 96.4046,349.629 L97.3433,349.236 L97.3306,339.995 C97.32,332.249 97.3583,330.437 97.5674,328.789 C98.2474,323.431 97.991,319.937 96.7994,318.323 L96.4396,317.836 L96.86,317.721 C97.4101,317.57 104.331,317.574 104.572,317.725 C104.707,317.81 104.638,318.004 104.317,318.448 C103.411,319.699 103.059,323.971 103.54,327.882 C103.632,328.63 103.781,329.889 103.871,330.679 C103.962,331.469 104.08,335.99 104.135,340.725 L104.235,349.334 L105.445,349.829 C108.916,351.251 115.613,353.122 120.756,354.107 C122.064,354.357 124.382,354.801 125.908,355.093 C138.275,357.458 143.248,355.528 143.23,348.368 C143.218,343.211 140.429,339.635 134.625,337.334 C131.547,336.114 131.105,334.964 132.387,331.511 C133.377,328.846 137.038,322.719 139.843,319.034 C141.29,317.133 141.195,317.18 147.098,315.48 C155.766,312.985 161.212,310.597 165.997,307.195 C178.87,298.041 183.107,282.259 179.436,257.147 C179.268,255.996 179.158,255.025 179.193,254.99 C179.352,254.831 182.34,269.461 183.08,274.022 C184.711,284.081 185.865,297.762 185.404,301.594 L185.311,302.369 L181.328,302.433 C179.138,302.469 177.308,302.535 177.262,302.581 C177.216,302.627 177.63,303.814 178.182,305.219 C179.52,308.628 180.459,311.466 180.685,312.788 L180.87,313.871 L180.333,314.527 C179.227,315.878 177.989,318.913 176.493,323.947 C175.938,325.813 175.853,325.985 174.72,327.499 C172.181,330.892 171.479,333.071 172.318,334.954 C173.3,337.16 177.778,338.914 180.203,338.041 C181.058,337.733 181.044,337.633 180.377,339.302 C178.396,344.258 179.734,347.554 184.442,349.316 C189.89,351.355 192.817,349.216 196.997,340.137 C199.054,335.669 199.595,333.466 200.008,327.882 C200.516,321.013 200.011,317.824 198.07,315.636 C196.256,313.591 196.135,310.963 197.667,306.892 C197.877,306.334 198.049,305.786 198.049,305.675 C198.049,305.496 195.933,304.416 195.063,304.152 L194.723,304.049 L194.723,295.555 C194.722,281.001 194.188,269.604 192.978,258.296 C191.901,248.229 190.322,240.461 188.222,234.9 C187.547,233.112 187.497,232.762 186.778,224.77 L186.233,218.722 L186.715,218.319 L187.198,217.916 L187.096,216.353 C186.822,212.17 186.115,205.656 185.491,201.562 C185.096,198.974 185.082,198.926 184.804,199.157 C184.684,199.256 184.554,199.306 184.515,199.267 C184.418,199.17 184.177,190.485 183.988,180.32 C182.959,124.726 181.85,89.4811 180.966,84.3185 C179.322,74.7169 173.717,59.3271 169.733,53.4735 C169.176,52.6565 169.146,52.7038 170.721,51.959 C175.109,49.8849 179.711,48.8776 181.861,49.5209 C183.573,50.0329 184.464,49.174 183.46,47.9805 C181.823,46.0352 175.318,46.9915 169.144,50.0848 L167.982,50.6669 L167.637,50.1033 C166.899,48.901 163.676,44.6246 162.369,43.1142 C160.757,41.2507 160.779,41.464 161.936,38.964 C163.649,35.2601 165.701,32.4086 167.216,31.6253 C168.286,31.0719 168.519,30.4247 167.906,29.7117 C166.502,28.0793 162.834,31.6264 160.145,37.2178 C159.605,38.3404 159.136,39.2877 159.102,39.3229 C159.067,39.3582 158.445,38.8099 157.718,38.1045 C153.739,34.2443 148.173,30.0721 143.448,27.4074 L142.595,26.9265 L143.102,25.6343 C145.549,19.4005 145.627,13.632 143.264,13.632 C142.297,13.632 142.064,14.2837 142.505,15.759 C142.982,17.3555 142.494,20.3776 141.187,23.9178 C140.834,24.8714 140.521,25.6826 140.49,25.7203 C140.459,25.7581 139.875,25.5102 139.192,25.1694 C136.83,23.9906 132.949,22.426 129.83,21.3951 L126.698,20.36 L126.692,18.8799 C126.675,14.0664 127.792,9.62541 129.708,6.89005 C130.677,5.5061 130.397,4.74199 129.109,5.25732 C126.618,6.2541 124.117,13.0084 124.117,18.7391 C124.117,19.5827 124.084,19.6906 123.852,19.6232 C121.733,19.0081 112.688,17.4121 111.32,17.4118 C111.309,17.4118 111.217,16.9525 111.116,16.3912 C109.796,9.04671 106.112,3.02441 103.971,4.70904 C103.28,5.25239 103.403,5.72013 104.515,6.77312 C105.717,7.91142 106.556,9.3121 107.313,11.4431 C107.911,13.1294 108.958,17.0548 108.837,17.1616 C108.801,17.1938 107.886,17.1552 106.805,17.0758 C105.221,16.9595 95.1971,17.0165 93.3614,17.1523 C92.9513,17.1826 92.9054,17.1311 92.7182,16.429 C91.5964,12.2215 91.2843,5.20215 92.112,2.79162 C92.9184,0.443074 92.3312,-0.73124 90.9547,0.477278 C89.3347,1.8997 88.6365,8.36908 89.5839,13.1784 C89.6249,13.3863 89.2249,12.706 88.6951,11.6665 C85.3042,5.01371 81.0882,0.746657 79.6776,2.53985 C79.0458,3.34309 79.3454,3.94973 81.0308,5.27946 C82.8243,6.69451 84.596,9.06395 86.3718,12.4225 C87.2066,14.0015 88.7937,17.5578 88.7036,17.6479 C88.6776,17.6739 87.8073,17.8035 86.7696,17.936 C84.2501,18.2576 78.4316,19.424 76.1429,20.0662 C73.7541,20.7366 73.8708,20.7519 73.4946,19.7174 C72.3715,16.6298 71.9858,13.6077 72.481,11.7779 C72.7844,10.6572 72.6647,10.2244 72.0059,10.0591 C69.6205,9.46035 69.1613,14.8456 71.1345,20.2814 C71.5698,21.4807 71.7875,21.2903 68.7125,22.3995 C60.243,25.4547 49.7289,31.8478 44.763,36.962 L44.104,37.6406 L43.1755,37.3681 C37.5156,35.7068 32.5603,32.7262 30.6445,29.8308 C30.1414,29.0705 29.5315,28.9795 28.9353,29.5757 C27.1374,31.3736 32.9348,36.2115 39.9791,38.7916 C40.8106,39.0962 41.608,39.394 41.751,39.4533 C41.9639,39.5417 41.6151,40.0199 39.8264,42.0918 C32.7935,50.2385 27.6389,59.5774 23.9076,70.9333 C22.0302,76.6471 20.2613,84.0248 19.9488,87.4452 C19.3645,93.8386 18.3589,129.261 17.3808,177.901 C16.9556,199.041 16.9303,199.636 16.4738,199.223 C16.1227,198.905 16.143,198.82 15.4919,203.34 C14.8307,207.929 14.4097,211.812 14.201,215.245 C14.0205,218.215 13.9842,218.034 14.8676,218.571 C15.0966,218.71 15.0671,219.288 14.4979,225.828 L13.8795,232.934 L13.1527,234.9 C10.7578,241.377 9.07004,250.639 7.863,263.928 C6.99976,273.432 6.76497,278.877 6.66112,291.801 L6.56589,303.647 L5.38211,304.079 C1.91854,305.341 1.88713,305.376 2.54223,307.178 C3.93449,311.008 3.79484,313.665 2.10471,315.502 C0.525423,317.218 0.171415,318.42 0.0382912,322.515 C-0.20624,330.04 0.584131,334.62 3.05159,339.977 C7.263,349.121 9.90178,351.181 15.1861,349.451 C20.3807,347.751 21.8363,344.572 19.7812,339.413 C19.4562,338.598 19.1903,337.904 19.1903,337.872 C19.1903,337.841 19.5135,337.913 19.9085,338.033 C21.5485,338.532 23.6853,338.19 25.5906,337.124 C29.1268,335.147 29.0068,332.026 25.2106,327.234 C24.4449,326.268 24.2711,325.915 23.7949,324.361 C22.1333,318.941 21.2398,316.677 20.0985,314.995 L19.2357,313.723 L19.3773,312.944 C19.6367,311.517 20.5583,308.714 21.7695,305.668 C22.4284,304.011 22.9468,302.635 22.9214,302.61 C22.896,302.584 21.383,302.488 19.5591,302.396 C17.7352,302.303 16.2021,302.161 16.1521,302.081 C15.9522,301.757 15.8767,297.457 16.0175,294.405 C16.458,284.857 18.3713,271.865 21.2179,259.09 C22.408,253.75 22.6041,253.163 21.9969,256.758 C21.5538,259.381 21.24,262.065 20.9372,265.818 C20.8131,267.357 20.6435,268.971 20.5604,269.405 C20.3173,270.675 20.6286,279.262 21.0128,281.884 C23.3017,297.505 30.4481,306.525 45.2708,312.5 C47.5891,313.435 50.6642,314.449 55.6273,315.917 C60.3131,317.303 59.9399,317.09 61.5419,319.297 C66.9226,326.713 69.3611,331.469 69.4386,334.698 C69.4725,336.11 69.2548,336.326 66.7859,337.331 C60.9929,339.69 58.0401,343.393 58.0343,348.307 C58.0285,353.121 59.9581,355.181 65.2279,355.987 z " />
		<path label="Layer&#95;2&#42; &#40;J&#41; &#40;B&#41;&#58; 6" id="Layer&#95;2&#42; &#40;J&#41; &#40;B&#41;&#58; 6" fill="#f8e67c" stroke="none"  stroke-linejoin="round" d="M98.4703,106.872 C87.4441,104.451 83.4297,91.8672 91.2144,84.1266 C98.985,76.4 111.77,80.3572 113.948,91.163 C115.73,100.005 107.098,108.766 98.4703,106.872 z M95.3672,169.397 C81.5956,168.81 69.3538,163.529 66.0078,156.732 C65.1898,155.071 65.1142,154.653 65.5008,153.931 C65.8306,153.315 66.1186,153.559 67.4879,155.619 C72.0528,162.486 84.0355,166.618 99.3833,166.618 C115.291,166.618 126.886,162.468 131.008,155.3 C132.741,152.286 133.652,154.195 131.979,157.335 C127.772,165.233 112.867,170.144 95.3672,169.397 z M113.857,332.529 C119.229,332.565 125.488,332.618 127.766,332.649 L131.908,332.705 L133.061,330.303 C135.135,325.983 139.071,319.927 140.849,318.32 C142.046,317.238 142.914,316.859 147.078,315.595 C168.858,308.984 177.983,299.577 180.268,281.377 C180.792,277.206 180.66,265.687 180.035,261.03 C179.19,254.729 179.489,255.609 181.398,265.047 C183.935,277.587 185.044,286.619 185.309,296.904 L185.453,302.471 L186.331,302.471 C187.473,302.471 192.202,303.297 193.682,303.756 C194.316,303.952 194.876,304.07 194.927,304.019 C195.168,303.778 194.452,276.435 194.036,270.01 C193.115,255.771 191.643,246.167 189.04,237.415 C187.257,231.422 186.008,220.766 186.774,218.096 C187.428,215.819 186.079,201.892 184.998,199.764 C184.644,199.067 184.346,192.758 184.098,180.713 C182.674,111.518 181.953,90.3244 180.786,83.3302 C179.225,73.9747 171.086,53.0958 169.001,53.0958 C168.284,53.0958 165.694,54.967 164.022,56.6938 C162.349,58.42 161.634,58.6133 161.334,57.4199 C161.019,56.1646 162.908,53.9685 166.008,51.986 C166.931,51.3956 167.726,50.8813 167.773,50.8429 C168.034,50.6346 163.472,44.1821 161.853,42.4689 C160.534,41.0729 159.6,44.0755 159.6,49.7144 L159.6,51.924 L159.004,51.924 C156.743,51.924 156.534,48.102 158.446,41.7287 L159.15,39.3849 L158.346,38.6818 C152.547,33.6108 144.425,27.5302 143.113,27.2786 C142.792,27.2171 142.384,27.727 141.433,29.3739 C138.44,34.5574 136.194,36.7934 134.58,36.1962 C133.671,35.8601 133.973,35.1343 135.87,33.0889 C138.082,30.7044 140.199,27.2864 140.099,26.2614 C140.019,25.4421 137.859,24.3877 131.71,22.1661 C127.063,20.4873 126.788,20.4519 126.788,21.5328 C126.788,22.6618 127.778,25.7199 128.398,26.5091 C129.369,27.7434 128.788,28.9552 127.226,28.9552 C125.762,28.9552 124.917,27.1333 124.339,22.7273 C124.14,21.203 123.897,19.8872 123.8,19.8034 C123.187,19.273 112.027,17.3178 111.791,17.6995 C111.691,17.8614 111.561,19.9064 111.501,22.244 C111.431,25.0179 111.288,26.7127 111.091,27.123 C110.757,27.8205 109.659,28.3848 109.074,28.1603 C108.665,28.0032 108.664,28.0424 109.192,23.4474 C109.573,20.1321 109.347,18.0404 108.551,17.5185 C107.893,17.0873 95.3472,16.8995 93.9169,17.2995 C92.5562,17.68 93.8916,21.7583 96.7741,26.0255 C97.8301,27.5889 97.9011,27.9039 97.3376,28.5266 C96.4821,29.4718 95.0959,28.7325 93.623,26.5454 L92.8378,25.3795 L92.5771,26.3477 C92.2728,27.4777 91.3425,28.2458 90.7391,27.8651 C90.4369,27.6745 90.3553,27.1457 90.3256,25.186 C90.2677,21.3607 89.3838,18.3246 88.2449,18.0387 C86.1202,17.5055 74.4856,20.3064 74.3315,21.3883 C74.1575,22.609 76.858,26.9931 79.5221,29.815 C81.1255,31.5134 81.3433,32.0669 80.5938,32.5388 C79.0911,33.485 75.0205,29.0815 72.6452,23.9399 C71.4805,21.4191 71.6292,21.4639 68.4072,22.6641 C61.201,25.3485 51.4867,31.1422 46.2049,35.9056 C44.0393,37.8586 44.1119,37.9422 48.1073,38.0948 C51.1819,38.2123 51.202,38.2167 51.202,38.7737 C51.202,40.228 48.8965,40.654 43.9354,40.1164 L42.0593,39.913 L40.9539,41.0552 C31.7773,50.5375 23.3435,68.6948 20.2836,85.5567 C19.5847,89.4083 18.7534,115.663 17.571,171.221 C17.0723,194.654 16.9221,198.311 16.4124,199.43 C15.2345,202.016 13.8388,217.462 14.6986,218.396 L15.1773,218.916 L14.5291,226.065 C14.1726,229.996 13.7615,233.51 13.6155,233.873 C9.41152,244.332 7.13245,263.976 6.6521,293.893 L6.49443,303.713 L7.05139,303.557 C8.74453,303.082 13.2129,302.469 15.073,302.456 C16.5962,302.445 17.0648,302.38 16.6903,302.229 C14.7013,301.43 17.8119,273.152 21.5365,258.174 C22.1314,255.782 22.1178,256.193 21.4118,261.969 C19.4118,278.33 21.5699,291.152 27.7732,299.765 C32.6173,306.49 39.8513,310.908 52.9509,315.14 C60.1647,317.471 60.251,317.511 61.43,319.126 C64.1857,322.899 68.094,329.532 68.8454,331.711 L69.1086,332.474 L83.2413,332.414 L97.3739,332.354 L97.6432,329.541 C98.1084,324.684 98.0331,321.588 97.4047,319.744 C96.6942,317.659 96.7372,317.635 101.013,317.742 C104.733,317.834 104.744,317.839 104.149,319.16 C103.654,320.257 103.495,327.624 103.896,330.886 L104.09,332.466 L113.857,332.529 z " />
		<path label="Layer&#95;2&#42;" id="Layer&#95;2&#42;" fill="#3a53ce" stroke="none"  stroke-linejoin="round" d="M142.03,274.446 C152.569,276.976 180.704,268.96 180.704,268.958 C181.945,301.452 166.103,310.749 144.031,316.221 L141.028,317.327 C141.028,317.327 130.596,330.606 131.745,335.039 C131.745,335.039 123.904,341.994 104.514,334.406 C104.514,334.406 101.564,320.644 104.514,317.989 C104.634,317.882 104.821,317.778 105.039,317.68 C104.295,317.634 103.569,317.582 102.872,317.528 C102.075,317.466 101.307,317.415 100.564,317.369 C99.8203,317.413 99.0495,317.466 98.2544,317.528 C97.5577,317.582 96.8312,317.632 96.0877,317.68 C96.3047,317.778 96.4925,317.882 96.6111,317.989 C99.5631,320.644 96.6111,334.406 96.6111,334.406 C77.2231,341.994 69.3798,335.039 69.3798,335.039 C70.5296,330.606 60.0963,317.327 60.0963,317.327 L57.0934,316.221 C35.0228,310.749 19.1796,301.452 20.4214,268.958 C20.4214,268.958 48.5574,276.977 59.0964,274.446 C59.0964,274.446 59.9382,240.302 60.3607,239.039 L42.234,229.344 C42.234,229.344 35.7219,224.882 30.0097,223.865 C24.1419,222.82 14.0246,218.016 14.0246,218.016 C14.0246,218.016 14.0447,211.22 16.1525,198.573 C16.1525,198.573 20.3133,208.268 27.4802,209.954 C34.647,211.64 47.2914,217.543 48.9791,218.806 C50.666,220.072 62.4669,224.707 62.4669,224.707 L62.4669,222.178 C62.4669,222.178 83.0805,224.217 100.563,224.805 C118.044,224.215 138.657,222.178 138.657,222.178 L138.657,224.707 C138.657,224.707 150.459,220.072 152.146,218.806 C153.833,217.541 166.477,211.64 173.643,209.954 C180.81,208.268 184.972,198.573 184.972,198.573 C187.08,211.219 187.1,218.016 187.1,218.016 C187.1,218.016 176.982,222.82 171.115,223.865 C165.401,224.882 158.89,229.344 158.89,229.344 L140.764,239.039 C141.187,240.302 142.03,274.446 142.03,274.446 z " />
		<path label="Layer&#95;2&#42; &#40;W&#41;" id="Layer&#95;2&#42; &#40;W&#41;" fill="#4f69c6" stroke="none"  stroke-linejoin="round" d="M95.8072,289.869 C92.6023,289.614 89.16,288.464 86.6834,286.821 C79.8859,282.309 76.8015,276.057 75.589,264.334 C75.3185,261.719 75.3645,248.899 75.6483,247.837 L75.8549,247.063 L77.8935,247.809 C90.8143,252.534 108.097,252.531 120.754,247.8 C123.111,246.919 122.953,246.805 123.115,249.512 C124.391,270.876 120.323,282.86 110.094,287.879 C106.64,289.573 101.357,290.309 95.8072,289.869 z " />
		<path label="Layer&#95;2&#42;" id="Layer&#95;2&#42;" fill="none" stroke="black"  stroke-linejoin="round" d="M75.641,233.296 C75.641,236.788 72.8099,239.619 69.3176,239.619 C65.8253,239.619 62.9942,236.788 62.9942,233.296 C62.9942,229.803 65.8253,226.972 69.3176,226.972 C72.8099,226.972 75.641,229.803 75.641,233.296 z " />
		<path label="Layer&#95;2&#42;" id="Layer&#95;2&#42;" fill="none" stroke="black"  stroke-linejoin="round" d="M138.026,233.296 C138.026,236.788 135.195,239.618 131.703,239.618 C128.212,239.618 125.381,236.788 125.381,233.296 C125.381,229.804 128.212,226.973 131.703,226.973 C135.195,226.973 138.026,229.804 138.026,233.296 z " />
		<path label="Layer&#95;2&#42; &#40;J&#41;" id="Layer&#95;2&#42; &#40;J&#41;" fill="#ffffff" stroke="none"  stroke-linejoin="round" d="M114.91,93.6323 C114.91,101.14 108.823,107.227 101.316,107.227 C93.8077,107.227 87.7213,101.14 87.7213,93.6323 C87.7213,86.1244 93.8077,80.0381 101.316,80.0381 C108.823,80.0381 114.91,86.1244 114.91,93.6323 z M140.917,93.6323 C140.917,77.9186 123.154,65.1803 101.241,65.1803 C79.3291,65.1803 61.5658,77.9186 61.5658,93.6323 C61.5658,109.346 79.3291,122.084 101.241,122.084 C123.154,122.084 140.917,109.346 140.917,93.6323 z " />
		<path label="Layer&#95;2&#42; &#40;J&#41; &#40;1&#41; &#40;J&#41;" id="Layer&#95;2&#42; &#40;J&#41; &#40;1&#41; &#40;J&#41;" fill="#804000" stroke="none"  stroke-linejoin="round" d="M115.205,93.4728 C115.205,100.981 109.118,107.067 101.611,107.067 C94.1027,107.067 88.0162,100.981 88.0162,93.4728 C88.0162,85.9649 94.1027,79.8785 101.611,79.8785 C109.118,79.8785 115.205,85.9649 115.205,93.4728 z M124.119,93.4816 C124.119,81.0552 114.046,70.9817 101.619,70.9817 C89.1929,70.9817 79.1194,81.0552 79.1194,93.4816 C79.1194,105.908 89.1929,115.982 101.619,115.982 C114.046,115.982 124.119,105.908 124.119,93.4816 z " />
		<path label="Basic&#58; Trapezoid&#42; &#40;W&#41;" id="Basic&#58; Trapezoid&#42; &#40;W&#41;" fill="none" stroke="black"  stroke-linejoin="round" d="M98.1345,129.337 C74.1557,127.199 59.6125,101.26 70.2826,79.6604 C82.0236,55.893 115.259,53.5559 129.904,75.468 C144.744,97.6735 130.473,127.149 103.805,129.371 C100.971,129.607 101.181,129.609 98.1345,129.337 z M100.44,143.291 C101.95,143.81 103.838,142.771 103.838,141.422 C103.838,140.805 103.714,140.839 107.512,140.391 C115.217,139.48 123.785,135.772 130.146,130.594 L131.729,129.306 L132.526,129.684 C135.032,130.873 137.527,128.227 136.04,125.957 C135.673,125.396 135.7,125.338 137.298,123.328 C140.247,119.618 143.068,114.59 144.523,110.452 L145.196,108.536 L146.729,108.665 C149.158,108.868 151.661,107.464 152.62,105.359 C152.853,104.848 153.583,104.704 167.433,102.429 C175.446,101.113 182.186,99.9824 182.412,99.9164 C182.786,99.807 182.822,99.3561 182.822,94.789 C182.822,90.2216 182.786,89.7711 182.412,89.6624 C182.186,89.597 175.431,88.4665 167.4,87.1503 L152.797,84.7572 L152.465,84.1144 C151.291,81.844 148.772,80.7375 145.685,81.1362 C145.304,81.1855 145.068,80.7688 144.26,78.6171 C142.55,74.0637 140.262,70.0557 137.184,66.2225 C135.76,64.4492 135.714,64.3527 136.058,63.8284 C137.541,61.5641 134.787,58.7475 132.443,60.1322 C131.799,60.5125 131.787,60.5074 130.063,59.1085 C125.046,55.0385 118.977,51.962 112.877,50.397 C110.531,49.7951 109.317,49.5763 105.261,49.0246 C104.12,48.8694 103.97,48.7824 103.809,48.1818 C103.091,45.4928 98.6815,45.8366 98.6815,48.5817 C98.6815,48.8323 98.2369,48.9623 96.9822,49.0786 C88.351,49.8781 79.8082,53.3308 72.8371,58.837 C70.7946,60.4503 70.7774,60.4582 70.0948,60.1052 C67.6683,58.8504 65.3042,61.159 66.4794,63.6357 L66.8555,64.4281 L65.2346,66.4836 C62.2031,70.3282 59.6732,74.8474 58.1409,79.1559 L57.3658,81.3353 L56.6369,81.1665 C54.0394,80.5652 51.7637,81.6248 49.9315,84.2887 C49.6109,84.7549 48.311,85.0075 35.1658,87.1576 C27.2381,88.4543 20.5144,89.5701 20.2244,89.6371 C19.4912,89.8065 19.3783,99.7034 20.1073,99.9163 C20.3328,99.9822 27.0895,101.114 35.122,102.431 L49.7266,104.826 L50.1668,105.689 C51.1984,107.711 53.4285,108.875 55.8929,108.677 L57.4002,108.556 L58.2679,110.931 C59.8508,115.261 62.697,120.22 65.7796,124.02 L66.867,125.36 L66.4852,126.165 C65.3575,128.541 67.997,131.221 69.9843,129.718 C70.653,129.213 70.789,129.257 72.1988,130.438 C78.2687,135.521 87.1982,139.421 94.9314,140.364 C98.7532,140.831 98.6102,140.789 98.7675,141.494 C98.975,142.424 99.472,142.958 100.44,143.291 z " />
		<path label="Layer&#95;2&#42;" id="Layer&#95;2&#42;" fill="#b7b7b7" stroke="none"  stroke-linejoin="round" d="M100.907,129.442 C81.7888,129.442 66.29,113.943 66.29,94.8233 C66.29,75.7048 81.7888,60.2059 100.907,60.2059 C120.027,60.2059 135.525,75.7048 135.525,94.8233 C135.525,113.942 120.027,129.442 100.907,129.442 z M146.906,80.9138 C146.185,80.9138 145.501,81.0621 144.864,81.3008 C142.896,74.925 139.585,69.133 135.25,64.2667 C135.277,64.2425 135.308,64.224 135.334,64.199 C136.384,63.1491 136.384,61.4477 135.334,60.3978 C134.284,59.348 132.584,59.348 131.534,60.3978 C131.507,60.4236 131.489,60.4543 131.465,60.4817 C123.958,53.7946 114.255,49.5258 103.586,48.9089 C103.587,48.8807 103.595,48.8541 103.595,48.8251 C103.595,47.3406 102.392,46.1375 100.907,46.1375 C99.4229,46.1375 98.2198,47.3406 98.2198,48.8251 C98.2198,48.8541 98.2271,48.8807 98.2287,48.9089 C87.5599,49.5258 77.857,53.7946 70.3507,60.4817 C70.3257,60.4543 70.3079,60.4228 70.2813,60.3978 C69.2316,59.348 67.531,59.348 66.4811,60.3978 C65.4312,61.4477 65.4312,63.1491 66.4811,64.199 C66.5077,64.224 66.5383,64.2425 66.5649,64.2667 C62.2308,69.133 58.9191,74.9258 56.9509,81.3008 C56.3131,81.0613 55.6292,80.9138 54.9083,80.9138 C51.6781,80.9138 49.0599,83.5328 49.0599,86.7622 L49.0599,102.886 C49.0599,106.116 51.6781,108.735 54.9083,108.735 C55.6292,108.735 56.3131,108.586 56.9509,108.347 C58.9191,114.722 62.23,120.515 66.5649,125.382 C66.5375,125.407 66.5069,125.425 66.4811,125.451 C65.4312,126.501 65.4312,128.202 66.4811,129.252 C67.531,130.302 69.2316,130.302 70.2813,129.252 C70.3079,129.226 70.3257,129.195 70.3507,129.168 C77.8578,135.857 87.5599,140.125 98.2287,140.741 C98.2279,140.769 98.2198,140.796 98.2198,140.825 C98.2198,142.309 99.4229,143.512 100.907,143.512 C102.392,143.512 103.595,142.309 103.595,140.825 C103.595,140.796 103.587,140.769 103.586,140.741 C114.255,140.125 123.958,135.857 131.465,129.168 C131.489,129.195 131.507,129.226 131.534,129.252 C132.584,130.302 134.284,130.302 135.334,129.252 C136.384,128.202 136.384,126.501 135.334,125.451 C135.308,125.425 135.277,125.407 135.25,125.382 C139.585,120.517 142.896,114.723 144.864,108.347 C145.502,108.586 146.186,108.735 146.906,108.735 C150.137,108.735 152.755,106.115 152.755,102.886 L152.755,86.7622 C152.755,83.532 150.137,80.9138 146.906,80.9138 z " />
	</g>
</svg>
