<?xml version="1.0" encoding="UTF-8" standalone="no"?>
<!-- Created with Inkscape (http://www.inkscape.org/) -->

<svg
   xmlns:dc="http://purl.org/dc/elements/1.1/"
   xmlns:cc="http://creativecommons.org/ns#"
   xmlns:rdf="http://www.w3.org/1999/02/22-rdf-syntax-ns#"
   xmlns:svg="http://www.w3.org/2000/svg"
   xmlns="http://www.w3.org/2000/svg"
   xmlns:sodipodi="http://sodipodi.sourceforge.net/DTD/sodipodi-0.dtd"
   xmlns:inkscape="http://www.inkscape.org/namespaces/inkscape"
   width="990"
   height="765"
   id="svg4045"
   version="1.1"
   inkscape:version="0.47pre4 r22446"
   sodipodi:docname="New document 6">
  <defs
     id="defs4047">
    <inkscape:perspective
       sodipodi:type="inkscape:persp3d"
       inkscape:vp_x="0 : 526.18109 : 1"
       inkscape:vp_y="0 : 1000 : 0"
       inkscape:vp_z="744.09448 : 526.18109 : 1"
       inkscape:persp3d-origin="372.04724 : 350.78739 : 1"
       id="perspective4053" />
    <inkscape:perspective
       id="perspective4038"
       inkscape:persp3d-origin="0.5 : 0.33333333 : 1"
       inkscape:vp_z="1 : 0.5 : 1"
       inkscape:vp_y="0 : 1000 : 0"
       inkscape:vp_x="0 : 0.5 : 1"
       sodipodi:type="inkscape:persp3d" />
  </defs>
  <sodipodi:namedview
     id="base"
     pagecolor="#ffffff"
     bordercolor="#666666"
     borderopacity="1.0"
     inkscape:pageopacity="0.0"
     inkscape:pageshadow="2"
     inkscape:zoom="0.35"
     inkscape:cx="375"
     inkscape:cy="520"
     inkscape:document-units="mm"
     inkscape:current-layer="layer1"
     showgrid="false"
     inkscape:window-width="1280"
     inkscape:window-height="950"
     inkscape:window-x="0"
     inkscape:window-y="25"
     inkscape:window-maximized="1" />
  <metadata
     id="metadata4050">
    <rdf:RDF>
      <cc:Work
         rdf:about="">
        <dc:format>image/svg+xml</dc:format>
        <dc:type
           rdf:resource="http://purl.org/dc/dcmitype/StillImage" />
        <dc:title></dc:title>
      </cc:Work>
    </rdf:RDF>
  </metadata>
  <g
     inkscape:label="Layer 1"
     inkscape:groupmode="layer"
     id="layer1"
     transform="translate(0,-287.36218)">
    <g
       id="g4068"
       transform="translate(-142.35533,114.25819)">
      <path
         id="path3822"
         d="m 466.36158,606.72279 c -1.89223,-0.0392 -3.78891,0.40032 -5.53125,1.3125 l 5.15625,5.65625 -3.6875,3.34375 -5.21875,-5.875 c -3.04515,3.90791 -3.28535,9.46903 -0.375,13.65625 l -34.8125,27.78125 c -3.62625,-3.96696 -9.48717,-4.85699 -14.09375,-2.28125 l 5.125,5.71875 -3.65625,3.28125 -5.15625,-5.6875 c -3.14214,4.0861 -2.55362,8.40155 -0.15625,13.3125 l -19.65625,15.65625 0.0312,0.0312 -84,67.125 0.0625,0.0937 c -1.05691,1.41184 -33.11418,23.74586 -65.90625,57 -75.73711,76.8048 -91.26786,122.97127 -91.9062,124.9376 l 0,0.0312 c -0.012,0.0371 -0.125,0.34375 -0.125,0.34375 l 0.125,0 0,5.84375 24.625,0 0,-5.84375 23.78125,0 0,5.84375 24.625,0 0,-5.84375 23.75,0 0,5.84375 24.65625,0 0,-5.84375 23.75,0 0,5.84375 24.65625,0 0,-5.84375 23.75,0 0,5.84375 24.625,0 0,-6.21875 -0.125,0 c 0.26721,-1.4385 0.76147,-6.93199 -6.90625,-9.4375 -48.58163,-15.8745 -80.72529,-55.97303 -78.09375,-75.81245 2.3644,-17.82552 16.7709,-40.8042 45.625,-70.46875 l 148.3125,-119.5625 6.21875,-44.53125 c -0.21079,-0.32691 -0.40824,-0.59578 -0.65625,-0.90625 -0.16342,-0.20416 -0.38862,-0.40353 -0.5625,-0.59375 -2.19701,-2.40315 -5.18704,-3.68663 -8.25,-3.75 z m -0.90625,20.53125 2.03125,1.3125 -4.65625,23.4375 -24.75,-2.65625 27.375,-22.09375 z m -34.71875,28.03125 26.3125,2.8125 -31.5625,25.46875 2.8125,-26.34375 2.4375,-1.9375 z m -9.75,7.84375 -2.8125,26.3125 -2.46875,2 -26.3125,-2.84375 31.59375,-25.46875 z m -38.9375,31.40625 26.34375,2.8125 -31.59375,25.46875 2.8125,-26.3125 2.4375,-1.96875 z m -9.75,7.875 -2.8125,26.3125 -2.4375,1.96875 -26.34375,-2.8125 31.59375,-25.46875 z m -38.90625,31.375 26.3125,2.8125 -31.5625,25.46875 2.8125,-26.3125 2.4375,-1.96875 z m -9.75,7.875 -2.53125,23.5625 -10.5,-13.03125 13.03125,-10.53125 z m -42.40625,40.15625 c 4.89558,0 8.84375,3.97942 8.84375,8.875 0,4.89558 -3.94817,8.875 -8.84375,8.875 -4.89558,0 -8.875,-3.97942 -8.875,-8.875 0,-4.89558 3.97942,-8.875 8.875,-8.875 z m -26.15625,22.71875 c 9.79116,0 17.71875,7.92759 17.71875,17.71875 0,9.79116 -7.92759,17.71875 -17.71875,17.71875 -9.79116,0 -17.71875,-7.92759 -17.71875,-17.71875 0,-9.79116 7.92759,-17.71875 17.71875,-17.71875 z m -23.65625,44.34375 c 19.58233,0 35.46875,15.88642 35.46875,35.46875 0,19.58233 -15.88642,35.4375 -35.46875,35.4375 -19.58233,0 -35.46875,-15.85517 -35.46875,-35.4375 0,-19.58233 15.88642,-35.46875 35.46875,-35.46875 z"
         style="fill:#000000;fill-opacity:1;stroke:#000000;stroke-width:0.2;stroke-miterlimit:4;stroke-opacity:1;stroke-dasharray:none" />
      <path
         id="path3953"
         d="m 476.67245,766.2914 c -108.52072,0 -196.5,36.11444 -196.5,80.65625 0,44.54182 87.97928,80.65625 196.5,80.65625 108.52073,0 196.46875,-36.11443 196.46875,-80.65625 0,-44.54181 -87.94802,-80.65625 -196.46875,-80.65625 z m -4.78125,9.75 2.34375,0 c 0.0146,0.0148 0.0334,0.0496 0.0625,0.0937 l 4.25,15.15625 c 0.0286,0.11749 0.0106,0.18793 -0.0625,0.1875 l -2.125,-0.0312 c -0.0293,-2e-4 -0.0648,-0.004 -0.0937,-0.0625 l -4.40625,-15.25 c -0.0142,-0.0734 0.002,-0.0939 0.0312,-0.0937 z m 8.9375,0.0625 2.09375,0 c 0.10267,6.1e-4 0.15678,0.037 0.15625,0.125 l -3.78125,13.125 c -0.0149,0.0439 -0.0498,0.0627 -0.0937,0.0625 -0.044,-2.8e-4 -0.0794,-0.0185 -0.0937,-0.0625 l -1.03125,-3.84375 1.125,-3.9375 -2.3125,0 c -0.0147,-10e-5 -0.0334,-0.033 -0.0625,-0.0625 l -0.5625,-2.15625 c -0.0143,-0.0588 0.004,-0.0941 0.0625,-0.0937 l 3.5625,0 0.875,-3.125 c 0.0148,-0.0292 0.0185,-0.0315 0.0625,-0.0312 z m 5.1875,0.0625 2.1875,0.0312 c 0.044,0.001 0.0805,0.0348 0.0937,0.0937 l 2.03125,6.46875 0.8125,0.0312 c 0.10263,0.003 0.12758,0.0536 0.125,0.15625 l -0.0312,1.875 c -0.003,0.10263 -0.0536,0.15882 -0.15625,0.15625 l -0.875,-0.0312 c -0.65978,-0.0166 -1.18837,0.2124 -1.625,0.65625 -0.45128,0.44346 -0.70289,0.96327 -0.71875,1.59375 -0.0155,0.6158 0.19391,1.15822 0.59375,1.59375 0.39986,0.4355 0.95248,0.63855 1.65625,0.65625 l 0.84375,0.0312 c 0.10264,0.003 0.15883,0.0536 0.15625,0.15625 l -0.0625,1.90625 c -0.003,0.10262 -0.0536,0.15882 -0.15625,0.15625 l -0.875,0 c -1.27559,-0.0321 -2.32464,-0.44962 -3.15625,-1.21875 -0.87411,-0.8289 -1.28353,-1.91577 -1.25,-3.25 0.0254,-1.01169 0.28017,-1.87548 0.8125,-2.625 0.45645,-0.64875 1.08752,-1.15032 1.84375,-1.46875 l -2.40625,-6.75 c -0.0696,-0.14846 -0.005,-0.22281 0.15625,-0.21875 z m -24.6875,0.0625 c 0.10254,-0.005 0.15186,0.0371 0.15625,0.125 l -3.0625,13.3125 c -0.0125,0.0447 -0.0498,0.0603 -0.0937,0.0625 -0.0439,0.002 -0.0769,-0.0193 -0.0937,-0.0625 l -1.21875,-3.78125 0.875,-3.96875 -2.28125,0.0937 c -0.0146,7.2e-4 -0.063,-0.003 -0.0937,-0.0312 l -0.65625,-2.15625 c -0.0176,-0.0579 0.004,-0.0908 0.0625,-0.0937 l 3.5625,-0.15625 0.65625,-3.1875 c 0.0132,-0.03 0.0498,-0.0603 0.0937,-0.0625 l 2.09375,-0.0937 z m 31.28125,0.0937 1.96875,0.0625 c 0.10263,0.003 0.15847,0.0371 0.15625,0.125 l -0.375,15.09375 c -0.003,0.10262 -0.0371,0.15845 -0.125,0.15625 l -2.03125,-0.0312 c -0.088,-0.002 -0.12684,-0.0517 -0.125,-0.125 l 0.375,-15.125 c 0.003,-0.10264 0.0536,-0.15883 0.15625,-0.15625 z m 5.21875,0.15625 5.28125,0.25 c 0.0879,0.004 0.12966,0.0537 0.125,0.15625 l -0.0625,1.875 c -0.005,0.10256 -0.0683,0.12899 -0.15625,0.125 l -5.25,-0.21875 c -0.10255,-0.005 -0.16023,-0.0683 -0.15625,-0.15625 l 0.0937,-1.90625 c 0.004,-0.0879 0.0517,-0.12833 0.125,-0.125 z m -45.1875,0.1875 c 0.0154,0.0139 0.031,0.0513 0.0625,0.0937 l 5.09375,14.875 c 0.0351,0.11571 0.0107,0.18383 -0.0625,0.1875 l -2.125,0.125 c -0.0293,10e-4 -0.0615,-0.0366 -0.0937,-0.0937 l -5.25,-14.96875 c -0.0183,-0.0725 0.002,-0.0923 0.0312,-0.0937 l 2.34375,-0.125 z m 51.71875,0.125 2,0.0625 c 0.10256,0.005 0.12899,0.0683 0.125,0.15625 l -0.65625,15.09375 c -0.005,0.10255 -0.0683,0.16023 -0.15625,0.15625 l -2.03125,-0.0937 c -0.0879,-0.004 -0.12832,-0.0517 -0.125,-0.125 l 0.6875,-15.125 c 0.005,-0.10256 0.0537,-0.12965 0.15625,-0.125 z m -57.21875,0.21875 c 0.10237,-0.008 0.14948,0.006 0.15625,0.0937 l 1.15625,15.09375 c 0.008,0.10234 -0.0373,0.14946 -0.125,0.15625 l -2,0.15625 c -0.0877,0.007 -0.1506,-0.0206 -0.15625,-0.0937 L 445.0162,777.3226 c -0.008,-0.10237 0.0539,-0.1796 0.15625,-0.1875 l 1.96875,-0.125 z m -3.15625,0.21875 c 0.10236,-0.008 0.14836,0.0539 0.15625,0.15625 l 0.15625,1.875 c 0.008,0.10236 -0.0539,0.17959 -0.15625,0.1875 l -0.84375,0.0625 c -0.67266,0.0519 -1.2159,0.27769 -1.59375,0.71875 -0.39245,0.44218 -0.54853,0.9962 -0.5,1.625 l 0.46875,6.59375 c 0.0452,0.58491 0.27569,1.05739 0.6875,1.4375 0.46019,0.43519 1.06472,0.64905 1.78125,0.59375 l 0.84375,-0.0625 c 0.10237,-0.008 0.14835,0.0226 0.15625,0.125 l 0.15625,1.875 c 0.008,0.10235 -0.0226,0.17958 -0.125,0.1875 l -1,0.0625 c -1.41844,0.10947 -2.56549,-0.24721 -3.4375,-1.0625 -0.77748,-0.73435 -1.21767,-1.70916 -1.3125,-2.9375 l -0.5,-6.625 c -0.10384,-1.34534 0.22744,-2.42726 1,-3.28125 0.77258,-0.85399 1.7903,-1.33929 3.0625,-1.4375 l 1,-0.0937 z m 72.3125,0.28125 1.96875,0.125 c 0.10243,0.007 0.16224,0.0685 0.15625,0.15625 l -1.03125,15.0625 c -0.007,0.10241 -0.0685,0.16223 -0.15625,0.15625 l -2,-0.15625 c -0.0878,-0.006 -0.12999,-0.0519 -0.125,-0.125 l 1.03125,-15.09375 c 0.007,-0.10242 0.0538,-0.13199 0.15625,-0.125 z m 8.90625,0.71875 c 0.073,0.007 0.0979,0.05 0.0937,0.0937 l -0.1875,1.96875 c -0.0109,0.11682 -0.052,0.19434 -0.125,0.1875 -0.44765,0.0612 -0.81677,0.24075 -1.15625,0.5625 -0.38875,0.37606 -0.63006,0.88668 -0.6875,1.5 -0.0998,1.066 0.62863,1.84422 2.1875,2.34375 1.21297,0.26089 2.17217,0.79317 2.875,1.625 0.75715,0.8811 1.08499,1.94625 0.96875,3.1875 -0.12855,1.37265 -0.7215,2.42941 -1.75,3.1875 -0.82224,0.6006 -1.63434,0.8877 -2.4375,0.8125 -0.10222,-0.01 -0.13046,-0.0666 -0.125,-0.125 l 0.1875,-2 c 0.007,-0.073 0.0374,-0.10198 0.125,-0.0937 0.34271,-0.0416 0.69725,-0.20542 1.03125,-0.46875 0.46178,-0.36923 0.72245,-0.87209 0.78125,-1.5 0.0643,-0.68634 -0.13281,-1.23009 -0.59375,-1.65625 -0.33772,-0.32626 -0.90349,-0.6266 -1.6875,-0.90625 -1.12397,-0.2673 -2.01753,-0.75786 -2.6875,-1.46875 -0.80505,-0.8414 -1.15022,-1.91706 -1.03125,-3.1875 0.11488,-1.22663 0.64741,-2.23781 1.59375,-3.0625 0.86514,-0.74391 1.73424,-1.08342 2.625,-1 z m 1.1875,0.125 c 0.0229,-0.009 0.0812,-0.004 0.125,0 1.58076,0.26589 2.74144,1.06836 3.5,2.40625 0.0132,0.016 0.003,0.0333 0,0.0625 -0.003,0.0292 -0.0153,0.0492 -0.0312,0.0625 l -1.625,1.09375 c -0.0465,0.0251 -0.0986,0.032 -0.125,0 -0.46279,-0.72096 -1.08483,-1.18023 -1.90625,-1.375 -0.0876,-0.008 -0.15258,-0.0693 -0.15625,-0.1875 l 0.1875,-2 c 0.002,-0.0219 0.008,-0.0536 0.0312,-0.0625 z m -98.28125,0.34375 c 0.10185,-0.0129 0.17644,0.006 0.1875,0.0937 l -2.0625,13.5 c -0.009,0.0455 -0.0188,0.0883 -0.0625,0.0937 -0.0437,0.006 -0.0737,-0.0207 -0.0937,-0.0625 l -1.53125,-3.65625 0.59375,-4.0625 -2.28125,0.28125 c -0.0145,0.002 -0.061,-0.006 -0.0937,-0.0312 l -0.84375,-2.09375 c -0.0219,-0.0564 0.004,-0.0863 0.0625,-0.0937 l 3.53125,-0.4375 0.4375,-3.21875 c 0.0109,-0.0309 0.05,-0.057 0.0937,-0.0625 l 2.0625,-0.25 z m 104.78125,0.28125 2.34375,0.28125 c 0.0128,0.0164 0.0389,0.0465 0.0625,0.0937 l 2.40625,15.5625 c 0.0146,0.12005 0.0103,0.16529 -0.0625,0.15625 l -2.125,-0.25 c -0.0291,-0.004 -0.0719,-0.0319 -0.0937,-0.0937 L 532.86,779.0726 c -0.005,-0.0746 0.002,-0.0974 0.0312,-0.0937 z m -113.40625,0.8125 c 0.0164,0.0127 0.0591,0.0225 0.0937,0.0625 l 6.1875,14.46875 c 0.0439,0.1127 0.0415,0.17826 -0.0312,0.1875 l -2.125,0.28125 c -0.0291,0.004 -0.0573,-0.0392 -0.0937,-0.0937 l -6.375,-14.5 c -0.0237,-0.0709 0.002,-0.12131 0.0312,-0.125 l 2.3125,-0.28125 z m 122.28125,0.28125 2.09375,0.25 c 0.10189,0.0127 0.13586,0.069 0.125,0.15625 l -5.3125,12.59375 c -0.02,0.0418 -0.05,0.0367 -0.0937,0.0312 -0.0437,-0.005 -0.0533,-0.017 -0.0625,-0.0625 l -0.59375,-3.9375 1.59375,-3.75 -2.3125,-0.3125 c -0.0145,-0.002 -0.037,10e-4 -0.0625,-0.0312 l -0.28125,-2.25 c -0.007,-0.06 0.004,-0.0697 0.0625,-0.0625 l 3.53125,0.4375 1.21875,-3.03125 c 0.0182,-0.0273 0.05,-0.0366 0.0937,-0.0312 z m -130.375,0.96875 c 1.33965,0.0149 2.50173,0.50163 3.4375,1.46875 0.0168,0.0121 0.0266,0.0335 0.0312,0.0625 0.005,0.029 -0.0191,0.0456 -0.0312,0.0625 l -1.3125,1.46875 c -0.0388,0.0359 -0.0914,0.0556 -0.125,0.0312 -0.62861,-0.58208 -1.34348,-0.86091 -2.1875,-0.84375 -0.0869,0.014 -0.15435,-0.0428 -0.1875,-0.15625 l -0.3125,-1.96875 c -0.007,-0.0434 0.0381,-0.0797 0.125,-0.0937 0.19962,-0.0173 0.37112,-0.0334 0.5625,-0.0312 z m -1.84375,0.21875 c 0.0724,-0.0117 0.0867,0.0188 0.0937,0.0625 l 0.34375,1.96875 c 0.0187,0.11583 -0.0212,0.17583 -0.0937,0.1875 -0.41806,0.17135 -0.75192,0.47848 -1,0.875 -0.28218,0.46143 -0.37924,0.98559 -0.28125,1.59375 0.17034,1.05703 1.08445,1.62556 2.71875,1.71875 1.23964,-0.0512 2.29873,0.24571 3.1875,0.875 0.95368,0.66339 1.52043,1.61295 1.71875,2.84375 0.21933,1.3611 -0.0691,2.53974 -0.875,3.53125 -0.64562,0.78739 -1.35986,1.24666 -2.15625,1.375 -0.10136,0.0163 -0.14691,-0.004 -0.15625,-0.0625 l -0.34375,-2 c -0.0117,-0.0724 0.0381,-0.11101 0.125,-0.125 0.32137,-0.12608 0.61759,-0.38017 0.875,-0.71875 0.35459,-0.47312 0.47534,-1.00237 0.375,-1.625 -0.10966,-0.68056 -0.44702,-1.17161 -1,-1.46875 -0.40866,-0.23127 -1.01468,-0.39437 -1.84375,-0.46875 -1.15509,0.0227 -2.14209,-0.22956 -2.96875,-0.75 -0.99011,-0.61296 -1.60949,-1.55275 -1.8125,-2.8125 -0.19598,-1.21631 0.0716,-2.33958 0.78125,-3.375 0.65126,-0.93687 1.42923,-1.48267 2.3125,-1.625 z m 145,0.71875 2.15625,0.40625 c 0.0433,0.008 0.0586,0.0334 0.0625,0.0937 l 1,6.6875 0.8125,0.15625 c 0.10101,0.0184 0.14341,0.0865 0.125,0.1875 l -0.34375,1.84375 c -0.0184,0.101 -0.0865,0.14339 -0.1875,0.125 l -0.84375,-0.15625 c -0.64931,-0.11828 -1.21882,0.004 -1.71875,0.375 -0.51435,0.36845 -0.82447,0.87954 -0.9375,1.5 -0.11038,0.60602 -0.0156,1.16419 0.3125,1.65625 0.32781,0.49203 0.83866,0.78008 1.53125,0.90625 l 0.84375,0.15625 c 0.10101,0.0184 0.14341,0.0865 0.125,0.1875 l -0.34375,1.875 c -0.0184,0.10099 -0.0552,0.14339 -0.15625,0.125 l -0.875,-0.15625 c -1.25534,-0.22867 -2.23463,-0.79918 -2.9375,-1.6875 -0.73561,-0.95395 -0.98916,-2.06195 -0.75,-3.375 0.18137,-0.99562 0.60831,-1.84168 1.25,-2.5 0.55116,-0.57047 1.20367,-0.95843 2,-1.15625 l -1.3125,-7.0625 c -0.0459,-0.15743 0.0288,-0.21641 0.1875,-0.1875 z M 400.3287,782.8851 c 0.1008,-0.0195 0.13953,0.0386 0.15625,0.125 l 2.5,12.8125 2.53125,-0.46875 c 0.10079,-0.0195 0.13953,0.007 0.15625,0.0937 l 0.375,1.875 c 0.0195,0.10078 -0.007,0.17076 -0.0937,0.1875 l -7.375,1.40625 c -0.0864,0.0167 -0.14232,-0.0217 -0.15625,-0.0937 l -0.375,-1.875 c -0.0195,-0.10081 0.0242,-0.168 0.125,-0.1875 l 2.5625,-0.5 -2.46875,-12.8125 c -0.0195,-0.1008 -0.007,-0.16799 0.0937,-0.1875 l 1.96875,-0.375 z m 98.90625,0.25 3.59375,0.15625 c 0.0879,0.004 0.12966,0.0537 0.125,0.15625 l -0.0937,1.875 c -0.005,0.10255 -0.0371,0.16023 -0.125,0.15625 l -3.5625,-0.1875 c -0.10255,-0.005 -0.12898,-0.037 -0.125,-0.125 l 0.0625,-1.90625 c 0.004,-0.0879 0.0517,-0.12833 0.125,-0.125 z m 61.8125,0.0312 1.9375,0.34375 c 0.10101,0.0184 0.14077,0.10094 0.125,0.1875 l -2.71875,14.84375 c -0.0184,0.10099 -0.0697,0.14075 -0.15625,0.125 l -1.96875,-0.34375 c -0.0866,-0.0158 -0.13813,-0.0529 -0.125,-0.125 l 2.71875,-14.90625 c 0.0184,-0.101 0.0865,-0.14339 0.1875,-0.125 z m -47.5,0.75 0.96875,0.0625 c 0.10244,0.007 0.16325,0.0851 0.15625,0.1875 l -0.125,1.875 c -0.007,0.10242 -0.0538,0.16324 -0.15625,0.15625 l -0.875,-0.0625 c -0.67309,-0.046 -1.23517,0.11926 -1.6875,0.5 -0.45331,0.39536 -0.70703,0.90204 -0.75,1.53125 -0.042,0.61456 0.15053,1.14141 0.53125,1.59375 0.38075,0.45231 0.92265,0.70203 1.625,0.75 l 0.84375,0.0625 c 0.10243,0.007 0.16325,0.0538 0.15625,0.15625 l -0.125,1.90625 c -0.007,0.10242 -0.0851,0.13197 -0.1875,0.125 l -0.96875,-0.0625 c -1.2584,-0.086 -2.29503,-0.52692 -3.0625,-1.34375 -0.80836,-0.86376 -1.15442,-1.96631 -1.0625,-3.3125 0.0909,-1.33157 0.62959,-2.38415 1.59375,-3.15625 0.90166,-0.71758 1.93977,-1.04969 3.125,-0.96875 z m 52.53125,0.25 c 0.0226,-0.0175 0.0579,-0.008 0.0937,0 l 5.15625,1.125 c 0.0859,0.0189 0.11583,0.0872 0.0937,0.1875 l -0.40625,1.8125 c -0.0221,0.10027 -0.0703,0.14392 -0.15625,0.125 l -5.125,-1.125 c -0.10025,-0.0221 -0.14391,-0.0703 -0.125,-0.15625 l 0.40625,-1.875 c 0.009,-0.0429 0.0399,-0.0762 0.0625,-0.0937 z m -173.59375,0.28125 c 0.10007,-0.023 0.13657,0.0388 0.15625,0.125 l 3.375,14.71875 c 0.023,0.10005 -0.008,0.1678 -0.0937,0.1875 l -1.96875,0.4375 c -0.0858,0.0197 -0.13985,0.009 -0.15625,-0.0625 l -3.375,-14.75 c -0.023,-0.10007 0.0249,-0.16454 0.125,-0.1875 l 1.9375,-0.46875 z m 179.96875,1.125 c 0.0306,-0.0195 0.0436,-0.011 0.0937,0 l 1.9375,0.40625 c 0.10026,0.0221 0.14392,0.10158 0.125,0.1875 l -3.25,14.75 c -0.0221,0.10026 -0.0703,0.14391 -0.15625,0.125 l -1.96875,-0.4375 c -0.0859,-0.0189 -0.14076,-0.0846 -0.125,-0.15625 l 3.28125,-14.78125 c 0.011,-0.0501 0.0319,-0.0742 0.0625,-0.0937 z m -186.1875,0.3125 c 0.0429,-0.01 0.0663,0.009 0.0937,0.0625 l 3.5625,5.75 0.78125,-0.15625 c 0.10007,-0.023 0.16454,-0.006 0.1875,0.0937 l 0.4375,1.84375 c 0.023,0.10006 -0.0249,0.16453 -0.125,0.1875 l -0.84375,0.1875 c -0.64329,0.14758 -1.12461,0.49297 -1.4375,1.03125 -0.32718,0.54154 -0.42227,1.1353 -0.28125,1.75 0.13776,0.60039 0.47337,1.05226 0.96875,1.375 0.49538,0.32272 1.06383,0.40741 1.75,0.25 l 0.84375,-0.1875 c 0.10006,-0.023 0.16455,0.0249 0.1875,0.125 l 0.4375,1.84375 c 0.023,0.10005 -0.0249,0.16453 -0.125,0.1875 l -0.84375,0.1875 c -1.24368,0.28533 -2.3786,0.16381 -3.375,-0.375 -1.0524,-0.58618 -1.73278,-1.51165 -2.03125,-2.8125 -0.2263,-0.98638 -0.17353,-1.92311 0.15625,-2.78125 0.28127,-0.74169 0.75263,-1.3477 1.40625,-1.84375 l -4,-5.96875 c -0.10426,-0.12656 -0.0636,-0.21392 0.0937,-0.25 l 2.15625,-0.5 z m -5.15625,1.21875 c 0.099,-0.0272 0.16419,0.009 0.1875,0.0937 l -0.0937,13.65625 c -0.002,0.0463 -0.02,0.0508 -0.0625,0.0625 -0.0424,0.0117 -0.0992,0.007 -0.125,-0.0312 l -2.03125,-3.40625 0.0312,-4.09375 -2.25,0.625 c -0.0141,0.004 -0.0264,-0.0103 -0.0625,-0.0312 l -1.125,-1.9375 c -0.0297,-0.0527 -0.0253,-0.10945 0.0312,-0.125 l 3.4375,-0.9375 -0.0312,-3.25 c 0.006,-0.0322 0.0513,-0.0509 0.0937,-0.0625 l 2,-0.5625 z m 202.9375,1.34375 c 0.0313,-0.0183 0.0441,-0.013 0.0937,0 l 1.9375,0.5 c 0.0993,0.026 0.11605,0.0711 0.0937,0.15625 l -3.8125,14.625 c -0.026,0.0993 -0.0711,0.14728 -0.15625,0.125 l -1.96875,-0.53125 c -0.0851,-0.0223 -0.11235,-0.054 -0.0937,-0.125 l 3.8125,-14.65625 c 0.013,-0.0496 0.0624,-0.0754 0.0937,-0.0937 z m -211.3125,0.96875 c 0.018,0.0103 0.0537,0.0278 0.0937,0.0625 l 8.1875,13.4375 c 0.0594,0.10535 0.0394,0.16805 -0.0312,0.1875 l -2.0625,0.5625 c -0.0283,0.008 -0.0499,-0.0138 -0.0937,-0.0625 L 370.485,790.13505 c -0.0336,-0.0668 -0.0595,-0.086 -0.0312,-0.0937 l 2.28125,-0.625 z m 124.5,0.28125 5.28125,0.21875 c 0.0879,0.004 0.12966,0.0536 0.125,0.15625 l -0.0937,1.875 c -0.005,0.10255 -0.0371,0.16022 -0.125,0.15625 l -5.25,-0.25 c -0.10255,-0.005 -0.16023,-0.037 -0.15625,-0.125 l 0.0937,-1.90625 c 0.004,-0.0879 0.0517,-0.12833 0.125,-0.125 z m 24.625,0.25 c 0.0758,-0.0224 0.12979,-0.032 0.15625,0 0.40303,0.73008 1.0424,1.22401 1.90625,1.4375 0.0876,0.008 0.12135,0.0693 0.125,0.1875 l -0.1875,1.9375 c -0.004,0.0438 -0.0374,0.0707 -0.125,0.0625 -1.57939,-0.2805 -2.76858,-1.08093 -3.53125,-2.375 -0.0397,-0.0479 -0.0167,-0.0853 0.0312,-0.125 l 1.625,-1.125 z m 44.46875,1 c 0.0226,-0.0175 0.058,-0.008 0.0937,0 l 3.5,0.78125 c 0.086,0.0189 0.11583,0.056 0.0937,0.15625 l -0.40625,1.84375 c -0.0221,0.10026 -0.0703,0.14391 -0.15625,0.125 l -3.46875,-0.78125 c -0.10025,-0.0221 -0.14391,-0.0703 -0.125,-0.15625 l 0.4375,-1.875 c 0.009,-0.043 0.009,-0.0762 0.0312,-0.0937 z m -156.96875,2.46875 c 0.57303,0.60587 1.32896,0.91591 2.21875,0.90625 0.0869,-0.014 0.1231,0.0427 0.15625,0.15625 l 0.3125,1.90625 c 0.007,0.0434 -0.007,0.0797 -0.0937,0.0937 -1.5993,0.12399 -2.93754,-0.34443 -4,-1.40625 -0.0504,-0.0364 -0.0677,-0.0746 -0.0312,-0.125 l 1.3125,-1.5 c 0.0677,-0.0406 0.0914,-0.0555 0.125,-0.0312 z m 169.21875,0.6875 c 0.54227,-0.0589 1.08164,-0.0255 1.65625,0.125 l 0.96875,0.25 c 0.0993,0.026 0.15101,0.0882 0.125,0.1875 l -0.5,1.84375 c -0.026,0.0993 -0.0882,0.11975 -0.1875,0.0937 l -0.8125,-0.21875 c -0.65264,-0.17093 -1.23449,-0.10202 -1.75,0.1875 -0.5192,0.3037 -0.87146,0.7649 -1.03125,1.375 -0.15605,0.59589 -0.10198,1.14074 0.1875,1.65625 0.28952,0.51549 0.78773,0.88414 1.46875,1.0625 l 0.84375,0.21875 c 0.0993,0.026 0.11977,0.0882 0.0937,0.1875 l -0.46875,1.8125 c -0.026,0.0993 -0.0882,0.151 -0.1875,0.125 l -0.96875,-0.25 c -1.22018,-0.31957 -2.11742,-0.96039 -2.71875,-1.90625 -0.63272,-0.99959 -0.77934,-2.16345 -0.4375,-3.46875 0.33814,-1.29113 1.03354,-2.20291 2.125,-2.78125 0.50993,-0.26823 1.05148,-0.44113 1.59375,-0.5 z m -15.34375,2.96875 c 0.0226,-0.0175 0.058,-0.008 0.0937,0 l 5.15625,1.125 c 0.0859,0.0189 0.11583,0.0872 0.0937,0.1875 l -0.40625,1.8125 c -0.0221,0.10025 -0.0703,0.14391 -0.15625,0.125 l -5.125,-1.125 c -0.10025,-0.0221 -0.1439,-0.0703 -0.125,-0.15625 l 0.40625,-1.875 c 0.009,-0.043 0.0399,-0.0762 0.0625,-0.0937 z m -41.3125,20.9375 0.4375,4.96875 -23.34375,2.03125 -0.4375,-4.96875 23.34375,-2.03125 z m -48.21875,4.21875 0.4375,4.96875 -23.34375,2.03125 -0.4375,-4.96875 23.34375,-2.03125 z m -48.21875,4.21875 0.4375,4.96875 -23.34375,2.03125 -0.40625,-4.96875 23.3125,-2.03125 z m -48.21875,4.21875 0.4375,4.96875 -23.3125,2.03125 -0.4375,-4.96875 23.3125,-2.03125 z m -48.21875,4.21875 0.4375,4.96875 -23.3125,2.03125 -0.4375,-4.96875 23.3125,-2.03125 z m -22.875,17.125 23.3125,2.03125 -0.4375,4.96875 -23.3125,-2.03125 0.4375,-4.96875 z m 48.21875,4.21875 23.3125,2.03125 -0.4375,4.96875 -23.3125,-2.03125 0.4375,-4.96875 z m 48.1875,4.21875 23.34375,2.03125 -0.4375,4.96875 -23.3125,-2.03125 0.40625,-4.96875 z m 48.21875,4.21875 23.34375,2.03125 -0.4375,4.96875 -23.34375,-2.03125 0.4375,-4.96875 z m 48.21875,4.21875 23.34375,2.03125 -0.4375,4.96875 -23.34375,-2.03125 0.4375,-4.96875 z M 374.3287,890.0413 c 0.0278,-0.0193 0.0824,-0.0111 0.125,0 l 1.9375,0.5 c 0.0851,0.0223 0.1436,0.0853 0.125,0.15625 l -3.84375,14.625 c -0.026,0.0993 -0.0882,0.15101 -0.1875,0.125 l -1.90625,-0.5 c -0.0993,-0.026 -0.1473,-0.0711 -0.125,-0.15625 l 3.8125,-14.625 c 0.013,-0.0497 0.0347,-0.10574 0.0625,-0.125 z m 203.375,0.15625 c 0.0283,-0.008 0.0499,0.0138 0.0937,0.0625 l 8.375,13.46875 c 0.0336,0.0668 0.0282,0.11723 0,0.125 l -2.28125,0.625 c -0.018,-0.0103 -0.0225,-0.0278 -0.0625,-0.0625 l -8.21875,-13.46875 c -0.0594,-0.10535 -0.0394,-0.16805 0.0312,-0.1875 l 2.0625,-0.5625 z m -200.15625,0.6875 c 0.0313,-0.0183 0.0754,-0.013 0.125,0 l 0.9375,0.25 c 1.22018,0.31957 2.14867,0.96039 2.75,1.90625 0.63272,0.99959 0.77934,2.1322 0.4375,3.4375 -0.33814,1.29113 -1.06479,2.23416 -2.15625,2.8125 -1.01986,0.53646 -2.10077,0.64474 -3.25,0.34375 l -0.96875,-0.25 c -0.0993,-0.026 -0.11976,-0.0882 -0.0937,-0.1875 l 0.46875,-1.8125 c 0.026,-0.0993 0.0882,-0.151 0.1875,-0.125 l 0.84375,0.21875 c 0.65264,0.17093 1.23449,0.13327 1.75,-0.15625 0.5192,-0.3037 0.84021,-0.7649 1,-1.375 0.15605,-0.59589 0.10198,-1.17199 -0.1875,-1.6875 -0.28952,-0.51549 -0.78773,-0.85289 -1.46875,-1.03125 l -0.8125,-0.21875 c -0.0993,-0.026 -0.15102,-0.0882 -0.125,-0.1875 l 0.5,-1.84375 c 0.013,-0.0497 0.0312,-0.0754 0.0625,-0.0937 z m 7.78125,1.96875 c 0.027,-0.0203 0.0508,-0.009 0.0937,0 l 2,0.4375 c 0.0859,0.0189 0.10951,0.0534 0.0937,0.125 l -3.25,14.78125 c -0.0221,0.10027 -0.0872,0.14708 -0.1875,0.125 l -1.9375,-0.4375 c -0.10026,-0.0221 -0.14392,-0.0703 -0.125,-0.15625 l 3.25,-14.75 c 0.011,-0.0501 0.0355,-0.10466 0.0625,-0.125 z m 190.1875,0.0937 c 0.0424,-0.0117 0.0679,0.0242 0.0937,0.0625 l 2.03125,3.40625 0,4.09375 2.21875,-0.625 c 0.0141,-0.004 0.0264,0.0104 0.0625,0.0312 l 1.125,1.9375 c 0.0297,0.0527 0.0253,0.0782 -0.0312,0.0937 l -3.4375,0.96875 0.0312,3.25 c -0.006,0.0322 -0.0201,0.0509 -0.0625,0.0625 l -2.03125,0.5625 c -0.099,0.0272 -0.16419,-0.009 -0.1875,-0.0937 l 0.125,-13.65625 c 0.002,-0.0463 0.02,-0.082 0.0625,-0.0937 z m -9.8125,0.375 c 0.88639,-0.0595 1.6902,0.0959 2.4375,0.5 1.0524,0.58618 1.73278,1.5429 2.03125,2.84375 0.2263,0.98638 0.17353,1.92311 -0.15625,2.78125 -0.28127,0.74169 -0.75263,1.3477 -1.40625,1.84375 l 4,5.96875 c 0.10426,0.12656 0.0635,0.21392 -0.0937,0.25 l -2.125,0.5 c -0.0429,0.01 -0.0976,-0.0399 -0.125,-0.0937 l -3.53125,-5.75 -0.8125,0.1875 c -0.10007,0.023 -0.16454,-0.0249 -0.1875,-0.125 l -0.40625,-1.84375 c -0.023,-0.10006 0.0249,-0.13328 0.125,-0.15625 l 0.8125,-0.21875 c 0.64329,-0.14758 1.12461,-0.46172 1.4375,-1 0.32718,-0.54154 0.42227,-1.1353 0.28125,-1.75 -0.13776,-0.60039 -0.44212,-1.05226 -0.9375,-1.375 -0.49538,-0.32272 -1.09508,-0.40741 -1.78125,-0.25 l -0.84375,0.1875 c -0.10006,0.023 -0.16455,-0.0249 -0.1875,-0.125 l -0.40625,-1.84375 c -0.023,-0.10005 -0.006,-0.16453 0.0937,-0.1875 l 0.875,-0.21875 c 0.31092,-0.0713 0.61078,-0.10518 0.90625,-0.125 z m -177.09375,0.21875 5.125,1.15625 c 0.10025,0.0221 0.1439,0.0703 0.125,0.15625 l -0.40625,1.875 c -0.0189,0.086 -0.0534,0.10953 -0.125,0.0937 l -5.1875,-1.15625 c -0.0859,-0.0189 -0.11583,-0.056 -0.0937,-0.15625 l 0.40625,-1.84375 c 0.0221,-0.10025 0.0703,-0.14391 0.15625,-0.125 z m 174.0625,0.4375 c 0.0858,-0.0197 0.13985,-0.009 0.15625,0.0625 l 3.375,14.75 c 0.023,0.10007 0.006,0.16454 -0.0937,0.1875 l -1.9375,0.4375 c -0.10007,0.023 -0.16782,-0.008 -0.1875,-0.0937 L 560.61,894.6038 c -0.023,-0.10005 0.008,-0.1678 0.0937,-0.1875 l 1.96875,-0.4375 z m -4.625,1 c 0.0864,-0.0167 0.14232,-0.01 0.15625,0.0625 l 0.375,1.90625 c 0.0195,0.10081 -0.0242,0.168 -0.125,0.1875 l -2.53125,0.5 2.46875,12.78125 c 0.0195,0.1008 -0.0242,0.16799 -0.125,0.1875 l -1.9375,0.375 c -0.1008,0.0195 -0.17078,-0.007 -0.1875,-0.0937 l -2.46875,-12.8125 -2.53125,0.46875 c -0.10079,0.0195 -0.17078,-0.007 -0.1875,-0.0937 l -0.375,-1.875 c -0.0195,-0.10078 0.0386,-0.17076 0.125,-0.1875 l 7.34375,-1.40625 z m -161.65625,0.21875 2,0.375 c 0.0866,0.0158 0.10688,0.0529 0.0937,0.125 l -2.6875,14.90625 c -0.0184,0.101 -0.0865,0.14339 -0.1875,0.125 l -1.96875,-0.375 c -0.10101,-0.0184 -0.14077,-0.0697 -0.125,-0.15625 l 2.71875,-14.875 c 0.0184,-0.10099 0.0697,-0.14075 0.15625,-0.125 z m 3.15625,0.59375 c 0.0298,-0.0207 0.0745,-0.009 0.125,0 l 0.875,0.15625 c 1.25534,0.22867 2.20338,0.76793 2.90625,1.65625 0.73561,0.95395 0.98916,2.0932 0.75,3.40625 -0.18137,0.99562 -0.57706,1.84168 -1.21875,2.5 -0.55116,0.57047 -1.23492,0.92718 -2.03125,1.125 l 1.3125,7.0625 c 0.0459,0.15743 0.002,0.21641 -0.15625,0.1875 l -2.1875,-0.375 c -0.0433,-0.008 -0.0586,-0.0334 -0.0625,-0.0937 l -1,-6.6875 -0.78125,-0.15625 c -0.10101,-0.0184 -0.14341,-0.0865 -0.125,-0.1875 l 0.3125,-1.84375 c 0.0184,-0.101 0.0865,-0.14339 0.1875,-0.125 l 0.84375,0.15625 c 0.64931,0.11828 1.21882,-0.035 1.71875,-0.40625 0.51435,-0.36845 0.82447,-0.84829 0.9375,-1.46875 0.11038,-0.60602 0.0156,-1.16419 -0.3125,-1.65625 -0.32781,-0.49203 -0.83866,-0.78008 -1.53125,-0.90625 l -0.84375,-0.15625 c -0.10101,-0.0184 -0.14341,-0.0865 -0.125,-0.1875 l 0.34375,-1.875 c 0.009,-0.0505 0.0326,-0.10435 0.0625,-0.125 z m 145.75,1.59375 c 1.34067,0.0212 2.4766,0.50841 3.40625,1.4375 0.0504,0.0364 0.0364,0.0746 0,0.125 l -1.28125,1.5 c -0.0677,0.0406 -0.12263,0.0555 -0.15625,0.0312 -0.57303,-0.60587 -1.29771,-0.91591 -2.1875,-0.90625 -0.0869,0.014 -0.15435,-0.0427 -0.1875,-0.15625 l -0.3125,-1.9375 c -0.007,-0.0434 0.0381,-0.0484 0.125,-0.0625 0.19991,-0.0155 0.40223,-0.0343 0.59375,-0.0312 z m -1.875,0.21875 c 0.10136,-0.0163 0.17816,0.004 0.1875,0.0625 l 0.3125,2 c 0.0117,0.0724 -0.0381,0.11101 -0.125,0.125 -0.32137,0.12608 -0.58634,0.34892 -0.84375,0.6875 -0.35459,0.47312 -0.50659,1.03362 -0.40625,1.65625 0.10966,0.68056 0.44702,1.17161 1,1.46875 0.40866,0.23127 1.04593,0.39437 1.875,0.46875 1.15509,-0.0227 2.14209,0.19831 2.96875,0.71875 0.99011,0.61296 1.57824,1.55275 1.78125,2.8125 0.19598,1.21631 -0.0716,2.33958 -0.78125,3.375 -0.65126,0.93687 -1.39798,1.48267 -2.28125,1.625 -0.0724,0.0117 -0.118,0.0124 -0.125,-0.0312 l -0.3125,-2 c -0.0187,-0.11583 -0.0101,-0.17583 0.0625,-0.1875 0.41806,-0.17135 0.75192,-0.44723 1,-0.84375 0.28218,-0.46143 0.37924,-0.98559 0.28125,-1.59375 -0.17034,-1.05703 -1.0532,-1.62556 -2.6875,-1.71875 -1.23964,0.0512 -2.32998,-0.24571 -3.21875,-0.875 -0.95368,-0.66339 -1.52043,-1.61295 -1.71875,-2.84375 -0.21933,-1.3611 0.0691,-2.53974 0.875,-3.53125 0.64562,-0.78739 1.35986,-1.24666 2.15625,-1.375 z m -124.40625,1.1875 2.125,0.28125 c 0.0291,0.004 0.0406,0.0319 0.0625,0.0937 l 2.5625,15.625 c 0.005,0.0746 -0.002,0.12862 -0.0312,0.125 l -2.3125,-0.28125 c -0.0128,-0.0164 -0.0389,-0.0777 -0.0625,-0.125 l -2.4375,-15.53125 c -0.0146,-0.12005 0.0209,-0.19654 0.0937,-0.1875 z m 114,0.3125 c 0.0291,-0.004 0.0572,0.008 0.0937,0.0625 l 6.375,14.53125 c 0.0237,0.0709 0.0291,0.12131 0,0.125 l -2.34375,0.28125 c -0.0164,-0.0127 -0.0279,-0.0225 -0.0625,-0.0625 l -6.21875,-14.5 c -0.0439,-0.1127 -0.0416,-0.14701 0.0312,-0.15625 l 2.125,-0.28125 z m -145.84375,0.9375 3.46875,0.75 c 0.10025,0.0221 0.14391,0.10158 0.125,0.1875 l -0.40625,1.84375 c -0.0189,0.086 -0.0846,0.14078 -0.15625,0.125 l -3.5,-0.78125 c -0.086,-0.0189 -0.11583,-0.0872 -0.0937,-0.1875 l 0.40625,-1.8125 c 0.0221,-0.10026 0.0703,-0.14391 0.15625,-0.125 z m 43.875,0.15625 c 0.20198,-0.0234 0.39296,-0.0188 0.59375,0 0.10222,0.01 0.16171,0.0354 0.15625,0.0937 l -0.21875,2.03125 c -0.007,0.073 -0.0374,0.10198 -0.125,0.0937 -0.34271,0.0416 -0.69725,0.20542 -1.03125,0.46875 -0.46178,0.36923 -0.72245,0.84084 -0.78125,1.46875 -0.0643,0.68634 0.16406,1.26134 0.625,1.6875 0.33772,0.32626 0.87224,0.6266 1.65625,0.90625 1.12397,0.2673 2.01753,0.75786 2.6875,1.46875 0.80505,0.8414 1.15022,1.88581 1.03125,3.15625 -0.11488,1.22663 -0.64741,2.26906 -1.59375,3.09375 -0.86514,0.74391 -1.73424,1.05217 -2.625,0.96875 -0.073,-0.007 -0.0979,-0.0187 -0.0937,-0.0625 l 0.1875,-2 c 0.0109,-0.11682 0.052,-0.16309 0.125,-0.15625 0.44765,-0.0612 0.84802,-0.24075 1.1875,-0.5625 0.38875,-0.37606 0.59881,-0.88668 0.65625,-1.5 0.0998,-1.066 -0.62863,-1.84422 -2.1875,-2.34375 -1.21297,-0.26089 -2.17217,-0.82442 -2.875,-1.65625 -0.75715,-0.8811 -1.08499,-1.915 -0.96875,-3.15625 0.12855,-1.37265 0.7215,-2.46066 1.75,-3.21875 0.61668,-0.45045 1.2378,-0.71094 1.84375,-0.78125 z m 1.75,0.125 c 0.0229,-0.009 0.0812,-0.004 0.125,0 1.57939,0.2805 2.73733,1.08093 3.5,2.375 0.0397,0.0479 0.0479,0.0853 0,0.125 l -1.65625,1.125 c -0.0758,0.0224 -0.12979,7.5e-4 -0.15625,-0.0312 -0.40303,-0.73008 -1.01115,-1.19276 -1.875,-1.40625 -0.0876,-0.008 -0.1526,-0.0693 -0.15625,-0.1875 l 0.1875,-1.9375 c 0.002,-0.0219 0.008,-0.0536 0.0312,-0.0625 z m -14.75,0.4375 c 0.0437,0.005 0.0845,0.0482 0.0937,0.0937 l 0.5625,3.90625 -1.5625,3.78125 2.28125,0.28125 c 0.0145,0.002 0.037,0.0298 0.0625,0.0625 l 0.3125,2.21875 c 0.007,0.06 -0.0355,0.10095 -0.0937,0.0937 l -3.53125,-0.4375 -1.21875,3 c -0.0182,0.0273 -0.05,0.0367 -0.0937,0.0312 l -2.0625,-0.25 c -0.10189,-0.0127 -0.16711,-0.069 -0.15625,-0.15625 l 5.3125,-12.5625 c 0.02,-0.0418 0.05,-0.0679 0.0937,-0.0625 z m 21.34375,0.125 2.03125,0.125 c 0.0878,0.006 0.12999,0.0519 0.125,0.125 l -1.03125,15.09375 c -0.007,0.10242 -0.0851,0.16324 -0.1875,0.15625 l -1.96875,-0.125 c -0.10243,-0.007 -0.13099,-0.0685 -0.125,-0.15625 l 1,-15.0625 c 0.007,-0.10241 0.0685,-0.16223 0.15625,-0.15625 z m 3.3125,0.21875 1,0.0625 c 1.2584,0.086 2.26378,0.55817 3.03125,1.375 0.80836,0.86376 1.15442,1.96631 1.0625,3.3125 -0.0909,1.33157 -0.59834,2.38415 -1.5625,3.15625 -0.90166,0.71758 -1.97102,1.01844 -3.15625,0.9375 l -0.96875,-0.0625 c -0.10244,-0.007 -0.16325,-0.0538 -0.15625,-0.15625 l 0.125,-1.875 c 0.007,-0.10242 0.0851,-0.16324 0.1875,-0.15625 l 0.84375,0.0625 c 0.67309,0.046 1.23517,-0.11926 1.6875,-0.5 0.45331,-0.39536 0.70703,-0.90204 0.75,-1.53125 0.042,-0.61456 -0.11928,-1.17266 -0.5,-1.625 -0.38075,-0.45231 -0.92265,-0.70203 -1.625,-0.75 l -0.875,-0.0312 c -0.10243,-0.007 -0.132,-0.0851 -0.125,-0.1875 l 0.125,-1.875 c 0.007,-0.10242 0.0538,-0.16322 0.15625,-0.15625 z m 69.75,0.125 c 1.41844,-0.10947 2.56549,0.21596 3.4375,1.03125 0.77748,0.73435 1.21767,1.74041 1.3125,2.96875 l 0.5,6.625 c 0.10384,1.34534 -0.22744,2.42726 -1,3.28125 -0.77258,0.85399 -1.7903,1.33929 -3.0625,1.4375 l -0.96875,0.0625 c -0.10236,0.008 -0.17961,-0.0226 -0.1875,-0.125 l -0.125,-1.90625 c -0.008,-0.10236 0.0226,-0.14834 0.125,-0.15625 l 0.875,-0.0625 c 0.67266,-0.0519 1.18465,-0.30894 1.5625,-0.75 0.39245,-0.44218 0.57978,-0.96495 0.53125,-1.59375 l -0.5,-6.59375 c -0.0452,-0.58491 -0.27569,-1.08864 -0.6875,-1.46875 -0.46019,-0.43519 -1.03347,-0.6178 -1.75,-0.5625 l -0.875,0.0625 c -0.10237,0.008 -0.14835,-0.0226 -0.15625,-0.125 l -0.15625,-1.90625 c -0.008,-0.10235 0.0539,-0.14833 0.15625,-0.15625 l 0.96875,-0.0625 z m -2.125,0.15625 c 0.0877,-0.007 0.11935,0.0206 0.125,0.0937 l 1.15625,15.09375 c 0.008,0.10237 -0.0226,0.14835 -0.125,0.15625 l -1.96875,0.15625 c -0.10237,0.008 -0.18073,-0.0373 -0.1875,-0.125 l -1.15625,-15.0625 c -0.008,-0.10234 0.0372,-0.14946 0.125,-0.15625 l 2.03125,-0.15625 z m 20.125,0.125 c 0.0437,-0.006 0.0736,0.0207 0.0937,0.0625 l 1.53125,3.65625 -0.59375,4.0625 2.3125,-0.3125 c 0.0145,-0.002 0.0297,0.006 0.0625,0.0312 l 0.84375,2.09375 c 0.0219,0.0564 -0.004,0.0863 -0.0625,0.0937 l -3.53125,0.46875 -0.4375,3.21875 c -0.0109,0.0309 -0.05,0.057 -0.0937,0.0625 l -2.0625,0.25 c -0.10185,0.0129 -0.14519,-0.0377 -0.15625,-0.125 l 2.03125,-13.46875 c 0.009,-0.0455 0.0188,-0.0883 0.0625,-0.0937 z m -79.5,0.125 2.03125,0.0937 c 0.0879,0.004 0.12832,0.0517 0.125,0.125 l -0.6875,15.09375 c -0.005,0.10256 -0.0537,0.1609 -0.15625,0.15625 l -1.96875,-0.0937 c -0.10256,-0.005 -0.16024,-0.0371 -0.15625,-0.125 l 0.6875,-15.09375 c 0.005,-0.10255 0.037,-0.16023 0.125,-0.15625 z m 3.25,0.15625 5.25,0.21875 c 0.10255,0.005 0.16023,0.0683 0.15625,0.15625 l -0.0937,1.90625 c -0.004,0.0879 -0.0205,0.12833 -0.0937,0.125 l -5.3125,-0.25 c -0.0879,-0.004 -0.12966,-0.0536 -0.125,-0.15625 l 0.0937,-1.875 c 0.005,-0.10255 0.037,-0.12897 0.125,-0.125 z m 46.8125,0.15625 c 0.0293,-10e-4 0.0614,0.0367 0.0937,0.0937 l 5.25,14.96875 c 0.0183,0.0725 0.0293,0.0923 0,0.0937 l -2.375,0.125 c -0.0154,-0.0139 -0.031,-0.0512 -0.0625,-0.0937 l -5.09375,-14.90625 c -0.0351,-0.11571 -0.0107,-0.15258 0.0625,-0.15625 l 2.125,-0.125 z m -38.59375,0.15625 2,0.0625 c 0.088,0.002 0.15809,0.0517 0.15625,0.125 l -0.40625,15.125 c -0.003,0.10264 -0.0536,0.15883 -0.15625,0.15625 l -1.96875,-0.0625 c -0.10263,-0.003 -0.15847,-0.0371 -0.15625,-0.125 l 0.375,-15.125 c 0.003,-0.10262 0.0683,-0.15845 0.15625,-0.15625 z m 3.3125,0.0625 0.875,0.0312 c 1.27559,0.0321 2.32464,0.44962 3.15625,1.21875 0.87411,0.8289 1.31478,1.88452 1.28125,3.21875 -0.0254,1.01169 -0.31142,1.90673 -0.84375,2.65625 -0.45645,0.64875 -1.05627,1.11907 -1.8125,1.4375 l 2.375,6.78125 c 0.0696,0.14846 0.005,0.22281 -0.15625,0.21875 l -2.1875,-0.0625 c -0.044,-10e-4 -0.0806,-0.0348 -0.0937,-0.0937 l -2,-6.4375 -0.8125,-0.0312 c -0.10263,-0.003 -0.15883,-0.0536 -0.15625,-0.15625 l 0.0625,-1.875 c 0.003,-0.10263 0.0536,-0.15882 0.15625,-0.15625 l 0.84375,0 c 0.65978,0.0166 1.21962,-0.18115 1.65625,-0.625 0.45128,-0.44346 0.67164,-0.99452 0.6875,-1.625 0.0155,-0.6158 -0.16266,-1.12697 -0.5625,-1.5625 -0.39986,-0.4355 -0.95248,-0.6698 -1.65625,-0.6875 l -0.875,0 c -0.10264,-0.003 -0.15883,-0.0849 -0.15625,-0.1875 l 0.0625,-1.90625 c 0.003,-0.10262 0.0536,-0.15882 0.15625,-0.15625 z m 12.40625,0.25 2.15625,0 c 0.0293,2e-4 0.0335,0.0349 0.0625,0.0937 l 4.40625,15.21875 c 0.0142,0.0734 -0.002,0.12518 -0.0312,0.125 l -2.34375,-0.0312 c -0.0146,-0.0148 -0.0334,-0.0183 -0.0625,-0.0625 l -4.25,-15.1875 c -0.0286,-0.11749 -0.0106,-0.15668 0.0625,-0.15625 z m 20.15625,1.75 c 0.0439,-0.002 0.0768,0.0193 0.0937,0.0625 l 1.25,3.75 -0.90625,4 2.3125,-0.125 c 0.0146,-7.2e-4 0.0317,0.0346 0.0625,0.0625 l 0.6875,2.125 c 0.0176,0.0579 -0.004,0.0908 -0.0625,0.0937 l -3.5625,0.1875 -0.6875,3.1875 c -0.0132,0.03 -0.0499,0.029 -0.0937,0.0312 l -2.0625,0.125 c -0.10254,0.005 -0.18311,-0.0371 -0.1875,-0.125 l 3.0625,-13.3125 c 0.0125,-0.0447 0.0497,-0.0603 0.0937,-0.0625 z m -20.875,0.3125 c 0.044,2.8e-4 0.0793,0.0185 0.0937,0.0625 l 1.03125,3.84375 -1.125,3.90625 2.3125,0.0312 c 0.0147,10e-5 0.0334,0.002 0.0625,0.0312 l 0.5625,2.1875 c 0.0143,0.0588 -0.004,0.0942 -0.0625,0.0937 l -3.5625,-0.0312 -0.84375,3.15625 c -0.0148,0.0292 -0.0498,0.0314 -0.0937,0.0312 l -2.09375,0 c -0.10267,-6.1e-4 -0.15678,-0.0682 -0.15625,-0.15625 l 3.8125,-13.09375 c 0.0149,-0.0439 0.0185,-0.0627 0.0625,-0.0625 z m -91.75,2 c 0.027,-0.0203 0.0508,-0.009 0.0937,0 l 5.125,1.125 c 0.10025,0.0221 0.14391,0.0703 0.125,0.15625 l -0.40625,1.875 c -0.0189,0.0859 -0.0534,0.10952 -0.125,0.0937 l -5.1875,-1.125 c -0.0859,-0.0189 -0.11583,-0.0872 -0.0937,-0.1875 l 0.40625,-1.84375 c 0.011,-0.0501 0.0355,-0.0734 0.0625,-0.0937 z m 68.25,1.9375 3.53125,0.15625 c 0.10255,0.005 0.16023,0.0683 0.15625,0.15625 l -0.0937,1.90625 c -0.004,0.0879 -0.0517,0.12833 -0.125,0.125 l -3.5625,-0.15625 c -0.0879,-0.004 -0.12966,-0.0537 -0.125,-0.15625 l 0.0625,-1.875 c 0.005,-0.10255 0.0683,-0.16023 0.15625,-0.15625 z m 89.3125,1.34375 c 0.62861,0.58208 1.37473,0.86091 2.21875,0.84375 0.0869,-0.014 0.1231,0.0428 0.15625,0.15625 l 0.34375,1.96875 c 0.007,0.0434 -0.0381,0.0797 -0.125,0.0937 -1.59697,0.13849 -2.93055,-0.36347 -4,-1.46875 -0.0168,-0.0121 -0.0267,-0.002 -0.0312,-0.0312 -0.005,-0.029 -0.0121,-0.0769 0,-0.0937 l 1.3125,-1.4375 c 0.0388,-0.0359 0.0914,-0.0556 0.125,-0.0312 z m -114.9375,2.15625 c 0.0465,-0.0251 0.0673,-0.032 0.0937,0 0.46279,0.72096 1.11608,1.18023 1.9375,1.375 0.0876,0.008 0.12133,0.0693 0.125,0.1875 l -0.1875,2 c -0.004,0.0438 -0.0374,0.0707 -0.125,0.0625 -1.58076,-0.26589 -2.74144,-1.06836 -3.5,-2.40625 -0.0132,-0.016 -0.034,-0.0646 -0.0312,-0.0937 0.003,-0.0292 0.0152,-0.0492 0.0312,-0.0625 l 1.65625,-1.0625 z m 25.3125,3.0625 5.25,0.25 c 0.10255,0.005 0.16023,0.0371 0.15625,0.125 l -0.0937,1.9375 c -0.004,0.0879 -0.0517,0.12833 -0.125,0.125 l -5.28125,-0.25 c -0.0879,-0.004 -0.12966,-0.0537 -0.125,-0.15625 l 0.0937,-1.875 c 0.005,-0.10256 0.037,-0.16024 0.125,-0.15625 z"
         style="fill:#000000;fill-opacity:1;stroke:#000000;stroke-width:0.2153488;stroke-miterlimit:4;stroke-opacity:1" />
      <path
         style="fill:#000000;fill-opacity:1;stroke:#000000;stroke-width:0.2;stroke-miterlimit:4;stroke-opacity:1;stroke-dasharray:none"
         d="m 487.92408,606.72279 c 1.89223,-0.0392 3.78891,0.40032 5.53125,1.3125 l -5.15625,5.65625 3.6875,3.34375 5.21875,-5.875 c 3.04515,3.90791 3.28535,9.46903 0.375,13.65625 l 34.8125,27.78125 c 3.62625,-3.96696 9.48717,-4.85699 14.09375,-2.28125 l -5.125,5.71875 3.65625,3.28125 5.15625,-5.6875 c 3.14214,4.0861 2.55362,8.40155 0.15625,13.3125 l 19.65625,15.65625 -0.0312,0.0312 84,67.125 -0.0625,0.0937 c 1.05691,1.41184 33.11418,23.74586 65.90625,57 75.73717,76.8047 91.26792,122.97117 91.90625,124.9375 l 0,0.0312 c 0.012,0.0371 0.125,0.34375 0.125,0.34375 l -0.125,0 0,5.84375 -24.625,0 0,-5.84375 -23.78125,0 0,5.84375 -24.625,0 0,-5.84375 -23.75,0 0,5.84375 -24.65625,0 0,-5.84375 -23.75,0 0,5.84375 -24.65625,0 0,-5.84375 -23.75,0 0,5.84375 -24.625,0 0,-6.21875 0.125,0 c -0.26721,-1.4385 -0.76147,-6.93199 6.90625,-9.4375 48.58163,-15.87455 80.72529,-55.97308 78.09375,-75.8125 -2.3644,-17.82552 -16.7709,-40.8042 -45.625,-70.46875 L 484.67408,656.50404 478.45533,611.97279 c 0.21079,-0.32691 0.40824,-0.59578 0.65625,-0.90625 0.16342,-0.20416 0.38862,-0.40353 0.5625,-0.59375 2.19701,-2.40315 5.18704,-3.68663 8.25,-3.75 z m 0.90625,20.53125 -2.03125,1.3125 4.65625,23.4375 24.75,-2.65625 -27.375,-22.09375 z m 34.71875,28.03125 -26.3125,2.8125 31.5625,25.46875 -2.8125,-26.34375 -2.4375,-1.9375 z m 9.75,7.84375 2.8125,26.3125 2.46875,2 26.3125,-2.84375 -31.59375,-25.46875 z m 38.9375,31.40625 -26.34375,2.8125 31.59375,25.46875 -2.8125,-26.3125 -2.4375,-1.96875 z m 9.75,7.875 2.8125,26.3125 2.4375,1.96875 26.34375,-2.8125 -31.59375,-25.46875 z m 38.90625,31.375 -26.3125,2.8125 31.5625,25.46875 -2.8125,-26.3125 -2.4375,-1.96875 z m 9.75,7.875 2.53125,23.5625 10.5,-13.03125 -13.03125,-10.53125 z m 42.40625,40.15625 c -4.89558,0 -8.84375,3.97942 -8.84375,8.875 0,4.89558 3.94817,8.875 8.84375,8.875 4.89558,0 8.875,-3.97942 8.875,-8.875 0,-4.89558 -3.97942,-8.875 -8.875,-8.875 z m 26.15625,22.71875 c -9.79116,0 -17.71875,7.92759 -17.71875,17.71875 0,9.79116 7.92759,17.71875 17.71875,17.71875 9.79116,0 17.71875,-7.92759 17.71875,-17.71875 0,-9.79116 -7.92759,-17.71875 -17.71875,-17.71875 z m 23.65625,44.34375 c -19.58233,0 -35.46875,15.88642 -35.46875,35.46875 0,19.58233 15.88642,35.4375 35.46875,35.4375 19.58233,0 35.46875,-15.85517 35.46875,-35.4375 0,-19.58233 -15.88642,-35.46875 -35.46875,-35.46875 z"
         id="path4028" />
    </g>
  </g>
</svg>
