<?xml version="1.0" encoding="UTF-8" standalone="no"?>
<!-- Created with Inkscape (http://www.inkscape.org/) -->

<svg
   xmlns:dc="http://purl.org/dc/elements/1.1/"
   xmlns:cc="http://creativecommons.org/ns#"
   xmlns:rdf="http://www.w3.org/1999/02/22-rdf-syntax-ns#"
   xmlns:svg="http://www.w3.org/2000/svg"
   xmlns="http://www.w3.org/2000/svg"
   xmlns:sodipodi="http://sodipodi.sourceforge.net/DTD/sodipodi-0.dtd"
   xmlns:inkscape="http://www.inkscape.org/namespaces/inkscape"
   width="744.09448819"
   height="1052.3622047"
   id="svg2"
   version="1.1"
   inkscape:version="0.47pre4 r22446"
   sodipodi:docname="rocket.dxf">
  <defs
     id="defs4">
    <inkscape:perspective
       sodipodi:type="inkscape:persp3d"
       inkscape:vp_x="0 : 526.18109 : 1"
       inkscape:vp_y="0 : 1000 : 0"
       inkscape:vp_z="744.09448 : 526.18109 : 1"
       inkscape:persp3d-origin="372.04724 : 350.78739 : 1"
       id="perspective10" />
  </defs>
  <sodipodi:namedview
     id="base"
     pagecolor="#ffffff"
     bordercolor="#666666"
     borderopacity="1.0"
     inkscape:pageopacity="0.0"
     inkscape:pageshadow="2"
     inkscape:zoom="0.65312309"
     inkscape:cx="224.16048"
     inkscape:cy="413.50503"
     inkscape:document-units="px"
     inkscape:current-layer="layer1"
     showgrid="false"
     inkscape:snap-smooth-nodes="true"
     showguides="true"
     inkscape:guide-bbox="true"
     inkscape:window-width="1280"
     inkscape:window-height="950"
     inkscape:window-x="0"
     inkscape:window-y="25"
     inkscape:window-maximized="1" />
  <metadata
     id="metadata7">
    <rdf:RDF>
      <cc:Work
         rdf:about="">
        <dc:format>image/svg+xml</dc:format>
        <dc:type
           rdf:resource="http://purl.org/dc/dcmitype/StillImage" />
        <dc:title></dc:title>
      </cc:Work>
    </rdf:RDF>
  </metadata>
  <g
     inkscape:label="Layer 1"
     inkscape:groupmode="layer"
     id="layer1">
    <path
       style="fill:none;stroke:#000000;stroke-width:0.76634401px;stroke-linecap:butt;stroke-linejoin:miter;stroke-opacity:1"
       d="m 392.27199,282.98535 c 0,0 0,0 0,0"
       id="path4102" />
    <path
       style="fill:none;stroke:#000000;stroke-width:0.76634401px;stroke-linecap:butt;stroke-linejoin:miter;stroke-opacity:1"
       d="m 396.78904,328.05964 c 0,0 0,0 0,0"
       id="path2896" />
    <g
       id="g4442">
      <path
         d="m 538.67004,799.32146 c -1.08372,-5.38214 -5.65566,-10.97923 -16.62346,-15.94159 0,0 -18.51584,-8.43648 -51.97138,-15.13571 l 1.43813,14.24006 -4.97469,0.50241 -1.592,-15.76356 c -17.69057,-3.28805 -39.19174,-5.9867 -64.03734,-6.78732 l 1.05191,10.41577 -4.91251,0.49613 -1.11471,-11.03761 c -18.95322,-0.407 -39.78748,0.32425 -62.29292,2.71048 l 0.86665,8.58134 -4.91251,0.49613 -0.86351,-8.55026 c -19.44402,2.24951 -40.10719,5.76049 -61.87756,10.86627 l 0.77873,7.71078 -4.91251,0.49612 -0.71279,-7.05785 c -13.5159,3.29353 -27.44796,7.20682 -41.77375,11.81979 -0.2515,0.081 -0.50986,0.15259 -0.7616,0.23396 -0.35866,0.11241 -0.72378,0.22943 -1.06623,0.32755 -8.79555,2.51987 -12.35488,0.43588 -14.36314,-0.40257 -10.67299,-4.45586 -129.849882,-44.19572 -200.8717648,-36.50093 -3.67497964,0.39808 -2.50167804,10.34397 1.171232,11.59726 45.6437868,15.5747 88.3924538,32.84507 112.1077228,61.35834 3.21824,2.12527 3.47423,2.89013 1.19394,6.22403 -6.27691,3.22273 -12.61227,6.58242 -18.989089,10.08408 -2.386744,-3.76852 -6.74916,-6.07132 -11.495068,-5.59202 -3.866035,0.39044 -7.108287,2.58177 -9.043099,5.62463 -0.24743,-0.21912 -0.483658,-0.40047 -0.746822,-0.55276 -11.165857,-6.46138 -41.090382,-4.73893 -41.090382,-4.73893 l 1.500936,14.8619 48.378907,-4.88589 0.408205,4.04194 -48.378908,4.88589 1.504075,14.893 c 0,0 29.66466,-4.29558 39.313124,-12.85906 0.21779,-0.19329 0.398768,-0.437 0.590128,-0.68778 2.504689,2.6051 6.138659,4.05998 10.013061,3.6687 4.739869,-0.47869 8.52303,-3.63238 10.110622,-7.80543 6.97741,2.16551 13.86475,4.19838 20.68723,6.10849 2.85713,2.77746 2.75844,3.62778 0.0435,6.34021 -17.5353,32.67925 -55.964489,58.17935 -97.572512,82.56581 -3.348155,1.96236 -2.512281,11.91084 1.168092,11.56616 71.126283,-6.66105 179.94772,-69.45837 189.51426,-75.95826 1.89502,-1.28757 5.19259,-4.24717 15.48534,-3.10294 0.0548,0.006 0.10641,0.0402 0.16174,0.0465 0.0794,0.009 0.17255,-0.003 0.25187,0.006 14.95872,1.65667 29.39202,2.70407 43.29353,3.22866 l -0.71279,-7.05785 4.91251,-0.49612 0.77873,7.71077 c 22.35165,0.64965 43.29952,-0.0413 62.80073,-1.72526 l -0.86351,-8.55026 4.91251,-0.49612 0.86665,8.58135 c 22.52815,-2.16234 43.08765,-5.60913 61.57699,-9.79942 l -1.11471,-11.0376 4.91251,-0.49613 1.05191,10.41577 c 24.16874,-5.75106 44.68641,-12.69585 61.35606,-19.45106 l -1.592,-15.76357 5.00579,-0.50554 1.44128,14.27115 c 31.45398,-13.2596 47.89247,-25.25259 47.89247,-25.25259 0,0 11.88358,-8.56553 12.8827,-18.92148 l -30.19017,3.04897 -0.40821,-4.04194 30.40782,-3.07095 z m -60.115,7.17046 c -0.57647,-3.98731 -3.75566,-8.1747 -11.90857,-11.86346 0,0 -115.66824,-41.64359 -264.29645,13.78279 l -0.68767,-6.80911 -4.91251,0.49612 0.81327,8.05279 0.24873,-0.0251 c -22.19986,8.5371 -45.0999,19.22362 -68.44836,32.57387 25.53485,8.4085 50.09912,14.30722 73.54808,18.23334 l -0.24873,0.0251 0.81326,8.05279 4.9747,-0.50241 -0.68453,-6.77802 c 156.69127,24.57716 261.68112,-39.36823 261.68112,-39.36823 0,0 9.67787,-7.00719 9.1893,-15.06208 -0.016,-0.2637 -0.0432,-0.54256 -0.0816,-0.80839 z"
         style="fill:none;stroke:#000000;stroke-width:0.2;stroke-linecap:butt;stroke-linejoin:miter;stroke-miterlimit:4;stroke-opacity:1;stroke-dasharray:none"
         id="path4104" />
      <path
         d="m 267.69191,728.19712 c 0,30.3926 -24.63808,55.03067 -55.03068,55.03067 -30.39259,0 -55.03067,-24.63807 -55.03067,-55.03067 0,-30.39261 24.63808,-55.03068 55.03067,-55.03068 30.3926,0 55.03068,24.63807 55.03068,55.03068 z m -57.49488,-44.01413 0,10.9375 c -16.37231,1.19975 -29.42525,14.2527 -30.625,30.625 l -10.9375,0 0,4.90625 10.9375,0 c 1.19975,16.37231 14.25269,29.42525 30.625,30.625 l 0,10.9375 4.93751,0 0,-10.9375 c 16.3657,-1.20621 29.4256,-14.25739 30.62499,-30.625 l 10.90625,0 0,-4.90625 -10.90625,0 c -1.19939,-16.36761 -14.25929,-29.41878 -30.62499,-30.625 l 0,-10.9375 -4.93751,0 z"
         style="fill:none;stroke:#000000;stroke-width:0.2;stroke-miterlimit:4;stroke-opacity:1;stroke-dasharray:none"
         id="path4251" />
      <path
         d="m 571.06582,929.19706 c -32.55318,0 -58.9375,26.38433 -58.9375,58.9375 0,32.55314 26.38432,58.93744 58.9375,58.93744 32.55317,0 58.9375,-26.3843 58.9375,-58.93744 0,-32.55317 -26.38433,-58.9375 -58.9375,-58.9375 z m -2.46875,8.875 4.90625,0 0,8.53125 c 21.02676,1.20919 37.85596,18.04343 39.09375,39.0625 l 8.5,0 0,4.9375 -8.5,0 c -1.22527,21.03139 -18.05821,37.85279 -39.09375,39.06249 l 0,8.5313 -4.90625,0 0,-8.5313 c -21.01064,-1.2372 -37.86757,-18.0504 -39.09375,-39.06249 l -8.5,0 0,-4.9375 8.5,0 c 1.23871,-20.99981 18.09189,-37.82584 39.09375,-39.0625 l 0,-8.53125 z m 44.04088,50.06249 c 0,22.95965 -18.61248,41.57215 -41.57213,41.57215 -22.95966,0 -41.57213,-18.6125 -41.57213,-41.57215 0,-22.95965 18.61247,-41.57213 41.57213,-41.57213 22.95965,0 41.57213,18.61248 41.57213,41.57213 z m -44.09799,-25.41492 0,11.34375 c -5.8609,1.05483 -10.49033,5.69624 -11.53125,11.56249 l -11.34375,0 0,5.00001 11.34375,0 c 1.0399,5.88002 5.68501,10.51912 11.5625,11.56252 l 0,11.3437 5.00001,0 0,-11.3437 c 5.8703,-1.0404 10.51277,-5.66551 11.5625,-11.53127 l 11.34375,0 0,-5.03126 -11.34375,0 c -1.0436,-5.87769 -5.68348,-10.5236 -11.5625,-11.56249 l 0,-11.34375 -5.03126,0 z"
         style="fill:none;stroke:#000000;stroke-width:0.2;stroke-miterlimit:4;stroke-opacity:1;stroke-dasharray:none"
         id="path4292" />
      <path
         d="m 625.11725,870.27332 c 0,29.85178 -24.19966,54.05143 -54.05143,54.05143 -29.85177,0 -54.05142,-24.19965 -54.05142,-54.05143 0,-29.85178 24.19965,-54.05142 54.05142,-54.05142 29.85177,0 54.05143,24.19964 54.05143,54.05142 z m -56.53197,-46.3347 0,7.46875 c -19.53672,1.22623 -35.15238,16.86855 -36.375,36.40625 l -7.46875,0 0,4.9375 7.46875,0 c 1.22608,19.53428 16.84072,35.14892 36.375,36.375 l 0,7.46875 4.9375,0 0,-7.46875 c 19.54889,-1.21134 35.17951,-16.83028 36.40625,-36.375 l 7.46875,0 0,-4.9375 -7.46875,0 c -1.2233,-19.54814 -16.85492,-35.19476 -36.40625,-36.40625 l 0,-7.46875 -4.9375,0 z"
         style="fill:none;stroke:#000000;stroke-width:0.2;stroke-miterlimit:4;stroke-opacity:1;stroke-dasharray:none"
         id="path4345" />
      <path
         d="m 171.98382,983.74635 m 67.46279,-4.84864 c 1.55352,14.29132 -8.77248,27.13609 -23.06381,28.68969 -14.29131,1.5535 -27.13611,-8.77254 -28.68965,-23.06384 -1.55353,-14.29132 8.77249,-27.13611 23.06381,-28.68964 14.29132,-1.55355 27.13611,8.77247 28.68965,23.06379 z m -32.85386,-38.23758 c -20.76554,3.50569 -35.65544,22.0521 -34.60893,43.08622 l 8.01529,-0.8713 0.53358,4.90857 -8.01528,0.87131 c 3.49975,20.77717 22.04274,35.69417 43.08958,34.63997 l -0.85103,-7.8289 4.90858,-0.5336 0.85104,7.8289 c 20.77142,-3.4911 35.6734,-22.0274 34.64337,-43.05847 l -7.82886,0.85103 -0.54035,-4.97072 7.82888,-0.85104 c -3.5108,-20.75151 -22.03182,-35.6499 -43.05515,-34.61231 l 0.85104,7.82889 -4.97071,0.54034 -0.85105,-7.82889 z m -34.07534,47.9948 M 0.25678806,1006.2174 c 0.85754904,5.5921 5.39326554,11.4283 16.88439194,16.5222 0,0 18.579666,8.2949 52.085338,14.7388 l -1.546724,-14.2288 4.970718,-0.5403 1.7122,15.7511 c 17.715141,3.1528 39.236278,5.6874 64.087268,6.2985 l -1.13135,-10.4075 4.9086,-0.5336 1.19887,11.0289 c 18.95578,0.2624 39.78385,-0.6279 62.27043,-3.1857 l -0.93209,-8.5745 4.90858,-0.5335 0.92872,8.5433 c 19.42629,-2.3978 40.06206,-6.0663 61.79286,-11.338 l -0.83416,-7.6735 4.90859,-0.5337 0.76324,7.0212 c 13.49037,-3.3966 27.39218,-7.416 41.68235,-12.1381 0.25087,-0.083 0.50868,-0.1565 0.7598,-0.2398 0.35779,-0.1151 0.72201,-0.2349 1.06369,-0.3356 8.77607,-2.5869 12.35121,-0.5302 14.3658,0.293 10.70666,4.3742 130.18326,43.2038 201.14438,34.9674 3.67181,-0.4263 2.42271,-10.3627 -1.25966,-11.588 -45.76128,-15.2261 -88.64046,-32.1697 -112.57257,-60.50125 -3.23434,-2.10066 -3.49617,-2.86354 -1.24139,-6.21474 6.25215,-3.27052 12.5617,-6.67844 18.91163,-10.22865 2.41542,3.7502 6.79528,6.01965 11.53738,5.50416 3.86296,-0.41992 7.08839,-2.63592 8.99994,-5.69346 0.24908,0.21723 0.48669,0.39678 0.75101,0.54705 11.21483,6.37601 41.12534,4.42532 41.12534,4.42532 l -1.83378,-16.86937 -1.83716,-16.90043 c 0,0 -29.63104,4.52175 -39.21389,13.15858 -0.21631,0.19496 -0.39542,0.44003 -0.58486,0.69227 -2.52448,-2.58591 -6.16945,-4.01303 -10.04075,-3.59221 -4.73609,0.51484 -8.49507,3.69729 -10.05078,7.88233 -6.99373,-2.11222 -13.8964,-4.09249 -20.73325,-5.95049 -2.87823,-2.75558 -2.78604,-3.60662 -0.0919,-6.3397 17.2855,-32.81206 55.51904,-58.60459 96.9398,-83.30775 3.3331,-1.98785 2.42136,-11.92967 -1.25629,-11.55693 -71.0734,7.20347 -179.41262,70.82913 -188.92929,77.40182 -1.88514,1.30199 -5.16004,4.28666 -15.46121,3.22098 -0.0549,-0.005 -0.10672,-0.0394 -0.16209,-0.0452 -0.0795,-0.008 -0.17252,0.004 -0.25193,-0.004 -14.97198,-1.54262 -29.41129,-2.47987 -43.31691,-2.8983 l 0.76661,7.05222 -4.90858,0.53358 -0.83752,-7.70461 c -22.35663,-0.47894 -43.30079,0.37206 -62.78573,2.2043 l 0.93208,8.57449 -4.90858,0.53359 -0.93547,-8.60555 c -22.51826,2.33419 -43.03922,5.93605 -61.50044,10.26888 l 1.19888,11.02878 -4.90858,0.53358 -1.13134,-10.40744 c -24.12402,5.93577 -44.587995,13.03637 -61.205891,19.91858 l 1.715585,15.78202 -5.001786,0.54372 -1.553481,-14.29081 c -31.339558,13.49288 -47.69844,25.61721 -47.69844,25.61721 0,0 -13.5537267,9.91556 -12.78118329,21.22423 0.0252614,0.3702 0.0677347,0.7767 0.12495349,1.1495 z m 30.43011094,-2.5848 30.010713,-3.2624 c 0.995816,3.651 4.310664,7.3978 11.756263,10.6984 0,0 115.990415,40.7572 264.183615,-15.7986 l 0.73959,6.8037 4.90858,-0.5336 -0.8713,-8.0153 -0.40387,0.0439 c 20.77049,-8.16225 42.14347,-18.23517 63.9093,-30.61713 l 47.37715,-5.15013 -0.43903,-4.03871 -47.37715,5.15013 c -23.87217,-7.40166 -46.86678,-12.64358 -68.86761,-16.15215 l 0.31067,-0.0337 -0.87468,-8.04636 -4.97072,0.54035 0.73959,6.80367 C 173.95076,918.64492 69.441472,983.35692 69.441472,983.35692 c 0,0 -7.929025,5.84085 -8.965422,12.95103 l -30.228172,3.2859 0.439021,4.03875 z"
         style="fill:none;stroke:#000000;stroke-width:0.2;stroke-miterlimit:4;stroke-opacity:1;stroke-dasharray:none"
         id="path4388" />
    </g>
  </g>
</svg>
