<?xml version="1.0" encoding="UTF-8" standalone="no"?>
<!-- Created with Inkscape (http://www.inkscape.org/) -->

<svg
   xmlns:dc="http://purl.org/dc/elements/1.1/"
   xmlns:cc="http://creativecommons.org/ns#"
   xmlns:rdf="http://www.w3.org/1999/02/22-rdf-syntax-ns#"
   xmlns:svg="http://www.w3.org/2000/svg"
   xmlns="http://www.w3.org/2000/svg"
   xmlns:sodipodi="http://sodipodi.sourceforge.net/DTD/sodipodi-0.dtd"
   xmlns:inkscape="http://www.inkscape.org/namespaces/inkscape"
   width="210mm"
   height="297mm"
   viewBox="0 0 744.09448819 1052.3622047"
   id="svg3455"
   version="1.1"
   inkscape:version="0.91pre4 r13712"
   sodipodi:docname="minion2.svg"
   inkscape:export-filename="E:\TJ\GitHub\02.Robot\03.Mostly-Printed-CNC\tools\ex\minion2.png"
   inkscape:export-xdpi="200"
   inkscape:export-ydpi="200">
  <defs
     id="defs3457" />
  <sodipodi:namedview
     id="base"
     pagecolor="#ffffff"
     bordercolor="#666666"
     borderopacity="1.0"
     inkscape:pageopacity="0.0"
     inkscape:pageshadow="2"
     inkscape:zoom="0.35"
     inkscape:cx="-322.14286"
     inkscape:cy="520"
     inkscape:document-units="px"
     inkscape:current-layer="layer1"
     showgrid="false"
     inkscape:window-width="1366"
     inkscape:window-height="715"
     inkscape:window-x="-8"
     inkscape:window-y="-8"
     inkscape:window-maximized="1" />
  <metadata
     id="metadata3460">
    <rdf:RDF>
      <cc:Work
         rdf:about="">
        <dc:format>image/svg+xml</dc:format>
        <dc:type
           rdf:resource="http://purl.org/dc/dcmitype/StillImage" />
        <dc:title />
      </cc:Work>
    </rdf:RDF>
  </metadata>
  <g
     inkscape:label="Layer 1"
     inkscape:groupmode="layer"
     id="layer1">
    <path
       inkscape:connector-curvature="0"
       style="fill:#000000;stroke:none;stroke-linejoin:round"
       label="Layer_2* (W) (W)"
       id="Layer_2* (W) (W)"
       d="m 328.66111,229.17908 -0.57015,-2.58785 -0.71819,-4.78788 0.97155,2.07335 1.48404,3.80038 0.43969,1.29413 z m -50.0537,675.32617 c 9.56499,1.46229 46.35407,-6.04071 62.19597,-12.6839 l 1.87266,-0.78401 -0.0253,-18.43534 c -0.0211,-15.45288 0.0553,-19.06773 0.47241,-22.35541 1.35656,-10.68894 0.84506,-17.6593 -1.53213,-20.87915 l -0.71778,-0.97154 0.83868,-0.22942 c 1.09742,-0.30124 14.90427,-0.29326 15.38505,0.008 0.26932,0.16957 0.13167,0.55659 -0.50871,1.44235 -1.80742,2.49568 -2.50965,11.01811 -1.55007,18.82036 0.18353,1.49222 0.48078,4.00386 0.66032,5.57988 0.18154,1.57601 0.41695,10.59518 0.52667,20.04127 l 0.1995,17.17452 2.41389,0.9875 c 6.92447,2.83682 20.28465,6.56937 30.54468,8.5344 2.60939,0.49874 7.23369,1.38449 10.27798,1.96702 24.67155,4.71806 34.59244,0.8678 34.55653,-13.41604 -0.0239,-10.28796 -5.58785,-17.4219 -17.16655,-22.01228 -6.14045,-2.43384 -7.02222,-4.72803 -4.46469,-11.6166 1.975,-5.31654 9.27851,-17.5396 14.87434,-24.89099 2.8867,-3.7924 2.69718,-3.69864 14.47337,-7.09005 17.29223,-4.9774 28.15673,-9.74135 37.70256,-16.52817 25.681,-18.26177 34.1336,-49.74608 26.81014,-99.84327 -0.33515,-2.29618 -0.5546,-4.23328 -0.48477,-4.3031 0.31719,-0.3172 6.2781,28.86892 7.75437,37.96789 3.25376,20.0672 5.55593,47.36012 4.63626,55.00477 l -0.18553,1.54608 -7.94589,0.12768 c -4.36894,0.0718 -8.0197,0.20349 -8.11146,0.29525 -0.0918,0.0918 0.73414,2.45978 1.83535,5.26268 2.66924,6.80079 4.5425,12.46246 4.99336,15.09978 l 0.36907,2.16053 -1.07129,1.30869 c -2.20642,2.69518 -4.67616,8.74985 -7.66061,18.79243 -1.1072,3.72258 -1.27677,4.06571 -3.53705,7.08606 -5.06518,6.76887 -6.46563,11.11587 -4.79187,14.87236 1.95904,4.40086 10.89243,7.9 15.73019,6.15841 1.70568,-0.61445 1.67775,-0.81394 0.34712,2.51563 -3.952,9.88697 -1.28276,16.46233 8.10947,19.97743 10.86849,4.06771 16.70771,-0.19949 25.0466,-18.31165 4.10361,-8.91343 5.18288,-13.30831 6.00679,-24.44811 1.01344,-13.70331 0.006,-20.06521 -3.86621,-24.43016 -3.61884,-4.07967 -3.86023,-9.3224 -0.80396,-17.44385 0.41894,-1.11318 0.76207,-2.20641 0.76207,-2.42785 0,-0.3571 -4.22132,-2.51164 -5.95692,-3.03831 l -0.67829,-0.20548 0,-16.94511 c -0.002,-29.0345 -1.0673,-51.77095 -3.48119,-74.32985 -2.14856,-20.08316 -5.29858,-35.57993 -9.48798,-46.67385 -1.34659,-3.56697 -1.44634,-4.26521 -2.88071,-20.20885 l -1.08724,-12.06546 0.96156,-0.80396 0.96356,-0.80397 -0.20348,-3.11811 c -0.54662,-8.34487 -1.95705,-21.33998 -3.2019,-29.5073 -0.788,-5.16294 -0.81593,-5.25869 -1.37053,-4.79786 -0.23939,0.1975 -0.49874,0.29725 -0.57654,0.21945 -0.19351,-0.19351 -0.67429,-17.51966 -1.05134,-37.79833 -2.0528,-110.90726 -4.2652,-181.21908 -6.02874,-191.51821 -3.2797,-19.15472 -14.46139,-49.8566 -22.40927,-61.53424 -1.11119,-1.62988 -1.17104,-1.53551 1.97101,-3.02135 8.75384,-4.13773 17.9346,-6.14724 22.22374,-4.86389 3.41536,1.02141 5.19286,-0.69205 3.18993,-3.07302 -3.26574,-3.88078 -16.24289,-1.97301 -28.55971,4.19797 l -2.31813,1.16126 -0.68826,-1.12435 c -1.47227,-2.39853 -7.902,-10.92974 -10.5094,-13.94291 -3.21586,-3.71759 -3.17197,-3.29207 -0.86381,-8.27944 3.41735,-7.3891 7.51099,-13.0777 10.53334,-14.64034 2.13459,-1.10401 2.59942,-2.39514 1.37651,-3.81754 -2.80091,-3.25656 -10.11838,3.81973 -15.48281,14.9743 -1.07727,2.23953 -2.0129,4.12934 -2.08073,4.19957 -0.0698,0.0704 -1.31068,-1.02341 -2.76101,-2.43065 -7.93791,-7.70091 -19.0418,-16.02424 -28.46794,-21.34018 l -1.70169,-0.95938 1.01144,-2.57787 c 4.88164,-12.43612 5.03725,-23.94399 0.32318,-23.94399 -1.92912,0 -2.39394,1.30011 -1.51417,4.24326 0.95159,3.18494 -0.0219,9.21388 -2.62934,16.2764 -0.70422,1.90238 -1.32864,3.52069 -1.39048,3.5959 -0.0619,0.0754 -1.2269,-0.41914 -2.58945,-1.09902 -4.71207,-2.35165 -12.45447,-5.47295 -18.67672,-7.52954 l -6.24819,-2.06498 -0.012,-2.95272 c -0.0339,-9.60269 2.19445,-18.46225 6.01677,-23.91916 1.93311,-2.76091 1.37452,-4.28527 -1.19497,-3.25721 -4.96942,1.98853 -9.95879,15.46302 -9.95879,26.89548 0,1.68294 -0.0658,1.89819 -0.52866,1.76373 -4.2273,-1.22709 -22.27163,-4.41103 -25.00072,-4.41163 -0.022,0 -0.20548,-0.91628 -0.40697,-2.03604 -2.63334,-14.6519 -9.98273,-26.66609 -14.25392,-23.30533 -1.37851,1.08395 -1.13313,2.01707 1.08525,4.11773 2.39793,2.27086 4.0717,5.06514 5.58187,9.31638 1.19298,3.36409 3.2817,11.19506 3.04031,11.40813 -0.0718,0.0642 -1.8972,-0.012 -4.05374,-0.17117 -3.16,-0.23201 -23.15718,-0.1183 -26.81931,0.15261 -0.81813,0.0605 -0.9097,-0.0423 -1.28316,-1.44295 -2.23793,-8.39375 -2.86056,-22.397 -1.20934,-27.20589 1.60873,-4.68522 0.4373,-7.02793 -2.30875,-4.61699 -3.23182,2.83765 -4.62469,15.74375 -2.73468,25.3381 0.0818,0.41475 -0.71619,-0.94242 -1.77311,-3.01617 -6.76468,-13.27198 -15.17539,-21.78453 -17.98946,-18.20721 -1.26041,1.60243 -0.66273,2.81264 2.69956,5.46539 3.57795,2.82295 7.1124,7.54987 10.65503,14.25001 1.66539,3.15002 4.83157,10.24466 4.65183,10.42441 -0.0519,0.0519 -1.78808,0.31041 -3.85824,0.57474 -5.02627,0.64158 -16.63389,2.96849 -21.19974,4.24965 -4.76553,1.33741 -4.53272,1.36793 -5.28322,-0.69584 -2.24053,-6.15961 -3.00998,-12.18855 -2.02208,-15.83891 0.60526,-2.23574 0.36647,-3.09915 -0.9478,-3.42892 -4.75876,-1.19448 -5.67484,9.54883 -1.7384,20.39298 0.8684,2.39254 1.3027,2.01271 -4.83177,4.2255 -16.89623,6.09498 -37.87134,18.84889 -47.77806,29.05147 l -1.31468,1.35377 -1.85231,-0.54362 c -11.29122,-3.31421 -21.17679,-9.26036 -24.99872,-15.03654 -1.00366,-1.51676 -2.22038,-1.6983 -3.40977,-0.50891 -3.58672,3.58672 7.97881,13.23809 22.03183,18.38526 1.6588,0.60766 3.24958,1.20176 3.53486,1.32006 0.42472,0.17635 -0.27112,1.13034 -3.83949,5.26367 -14.03028,16.25226 -24.31345,34.88291 -31.75721,57.53736 -3.74532,11.39875 -7.27419,26.11689 -7.89761,32.94042 -1.16565,12.75451 -3.17177,83.42044 -5.12303,180.45482 -0.84825,42.17325 -0.89873,43.36024 -1.80942,42.53633 -0.70043,-0.6344 -0.65993,-0.80397 -1.95884,8.21321 -1.31906,9.15482 -2.15894,16.90122 -2.57528,23.74988 -0.36009,5.925 -0.43251,5.56392 1.32983,6.6352 0.45684,0.2773 0.39799,1.43038 -0.73753,14.47736 l -1.23368,14.17611 -1.44993,3.92208 c -4.77771,12.92129 -8.1447,31.39852 -10.55269,57.90941 -1.72212,18.96001 -2.19051,29.82251 -2.39769,55.60525 l -0.18992,23.63218 -2.36158,0.86182 c -6.90965,2.51763 -6.97231,2.58745 -5.66542,6.18235 2.77749,7.64066 2.4989,12.94124 -0.87283,16.60597 -3.1506,3.42333 -3.85684,5.82126 -4.1224,13.99058 -0.48783,15.012 1.08892,24.14887 6.01138,34.83582 8.40155,18.24183 13.66579,22.35142 24.20774,18.90016 10.36297,-3.39141 13.26682,-9.73336 9.167,-20.02531 -0.64836,-1.62588 -1.17882,-3.01038 -1.17882,-3.07422 0,-0.0618 0.64477,0.0818 1.43278,0.32119 3.27171,0.99548 7.53452,0.31321 11.3355,-1.81341 7.05455,-3.94402 6.81515,-10.17026 -0.75808,-19.73006 -1.52753,-1.92712 -1.87425,-2.63134 -2.82425,-5.73149 -3.31481,-10.81263 -5.0973,-15.3292 -7.37413,-18.6847 l -1.72125,-2.53758 0.28249,-1.55407 c 0.51749,-2.84679 2.35603,-8.43864 4.77232,-14.51526 1.31447,-3.30563 2.34865,-6.05068 2.29798,-6.10055 -0.0507,-0.0519 -3.06903,-0.24339 -6.70762,-0.42692 -3.63859,-0.18553 -6.69705,-0.46882 -6.7968,-0.62841 -0.39879,-0.64637 -0.5494,-9.22465 -0.26852,-15.31324 0.87878,-19.04778 4.69572,-44.96618 10.37454,-70.45167 2.37419,-10.65303 2.7654,-11.82407 1.55407,-4.65222 -0.88396,5.23275 -1.50998,10.5872 -2.11405,18.07425 -0.24757,3.07023 -0.58592,6.29008 -0.7517,7.15588 -0.48497,2.53359 0.13606,19.66423 0.90252,24.89499 4.56624,31.16312 18.82295,49.15757 48.3935,61.07739 4.62489,1.86528 10.75957,3.88816 20.6607,6.81675 9.34794,2.765 8.60343,2.34008 11.79934,6.74293 10.73423,14.79455 15.59891,24.28254 15.75352,30.72423 0.0676,2.81687 -0.36667,3.24778 -5.292,5.2527 -11.55675,4.70609 -17.44744,12.09339 -17.45901,21.89658 -0.012,9.60369 3.83788,13.71329 14.35087,15.32122 z" />
    <path
       inkscape:connector-curvature="0"
       style="fill:#f8e67c;stroke:none;stroke-linejoin:round"
       label="Layer_2* (J) (B): 6"
       id="Layer_2* (J) (B): 6"
       d="m 344.92435,407.53322 c -21.99672,-4.82978 -30.00525,-29.93383 -14.47516,-45.37594 15.50196,-15.41418 41.0074,-7.51977 45.3524,14.03727 3.555,17.63935 -13.66541,35.1171 -30.87724,31.33867 z m -6.19053,124.73426 c -27.47366,-1.17103 -51.89544,-11.70637 -58.57055,-25.26604 -1.63186,-3.31362 -1.78268,-4.1475 -1.01143,-5.58786 0.65793,-1.22889 1.23248,-0.74212 3.96416,3.36748 9.10675,13.69932 33.01164,21.94246 63.62974,21.94246 31.73507,0 54.86651,-8.27905 63.0897,-22.57885 3.45725,-6.01278 5.27465,-2.20442 1.9371,4.05972 -8.39276,15.75612 -38.12749,25.55332 -73.03872,24.06309 z m 36.88623,325.44022 c 10.71687,0.0718 23.20326,0.17755 27.74776,0.2394 l 8.26308,0.11171 2.30018,-4.79187 c 4.13753,-8.61818 11.98965,-20.6996 15.53667,-23.90548 2.38796,-2.15854 4.11958,-2.91463 12.42655,-5.43624 43.45002,-13.18862 61.65394,-31.95512 66.2124,-68.26321 1.04535,-8.32094 0.78202,-31.30077 -0.46483,-40.59125 -1.68573,-12.57019 -1.08924,-10.81463 2.71912,8.01371 5.06119,25.01668 7.27359,43.03507 7.80225,63.55313 l 0.28727,11.10589 1.75157,0 c 2.27823,0 11.71235,1.64783 14.66488,2.56351 1.2648,0.39101 2.38197,0.62641 2.48371,0.52467 0.48079,-0.48078 -0.9476,-55.02871 -1.7775,-67.84626 -1.83735,-28.4061 -4.77391,-47.5656 -9.96677,-65.0254 -3.557,-11.95574 -6.04869,-33.21393 -4.52056,-38.54045 1.3047,-4.5425 -1.38649,-32.32617 -3.54303,-36.57142 -0.70621,-1.39048 -1.30071,-13.97663 -1.79545,-38.0058 -2.84081,-138.04058 -4.27917,-180.32076 -6.60728,-194.27384 -3.11412,-18.66376 -19.35102,-60.31612 -23.51049,-60.31612 -1.43038,0 -6.5973,3.73295 -9.93285,7.17783 -3.33756,3.44368 -4.76395,3.8293 -5.36243,1.44853 -0.62841,-2.50426 3.14005,-6.88537 9.3244,-10.84036 1.84134,-1.17782 3.42732,-2.20382 3.52108,-2.28043 0.52069,-0.41555 -8.58028,-13.28796 -11.8101,-16.70571 -2.63134,-2.78495 -4.49462,3.20509 -4.49462,14.45441 l 0,4.40804 -1.18899,0 c -4.51059,0 -4.92753,-7.6247 -1.11319,-20.33911 l 1.40445,-4.67577 -1.60394,-1.40265 c -11.56872,-10.11639 -27.7717,-22.24688 -30.38908,-22.74881 -0.64038,-0.12269 -1.45432,0.89453 -3.35151,4.18002 -5.97089,10.34082 -10.45155,14.80153 -13.6714,13.61014 -1.81341,-0.6705 -1.21093,-2.11843 2.57349,-6.1989 4.41283,-4.75696 8.63614,-11.5757 8.43664,-13.62053 -0.15959,-1.63446 -4.46869,-3.73793 -16.73564,-8.16992 -9.27053,-3.34912 -9.81914,-3.41974 -9.81914,-1.2634 0,2.2523 1.975,8.35306 3.21187,9.92747 1.9371,2.46237 0.77803,4.87985 -2.33808,4.87985 -2.92061,0 -4.60634,-3.6346 -5.75942,-12.42435 -0.397,-3.0409 -0.88177,-5.66586 -1.07528,-5.83304 -1.22291,-1.05812 -23.48655,-4.95864 -23.95736,-4.19717 -0.19949,0.32298 -0.45884,4.40265 -0.57854,9.06605 -0.13964,5.53379 -0.42492,8.91483 -0.81792,9.73336 -0.66632,1.39148 -2.85677,2.51723 -4.02382,2.06936 -0.81593,-0.3134 -0.81793,-0.2352 0.2354,-9.402 0.76008,-6.61386 0.30922,-10.78669 -1.27876,-11.82786 -1.31268,-0.86022 -26.34092,-1.23487 -29.1943,-0.43689 -2.71453,0.75908 -0.0505,8.89508 5.69997,17.40793 2.10667,3.11891 2.24831,3.74732 1.12416,4.98957 -1.70668,1.88563 -4.47208,0.41076 -7.41045,-3.95239 l -1.56643,-2.32591 -0.52008,1.93151 c -0.60707,2.25429 -2.46297,3.78661 -3.66672,3.02713 -0.60288,-0.38023 -0.76566,-1.43516 -0.82491,-5.34467 -0.11551,-7.63128 -1.87885,-13.68815 -4.1509,-14.2585 -4.23867,-1.06371 -27.44912,4.52394 -27.75654,6.68228 -0.34712,2.43524 5.04024,11.1813 10.35499,16.81085 3.1987,3.38822 3.6332,4.49243 2.13799,5.43384 -2.99781,1.88763 -11.11846,-6.89714 -15.85706,-17.15437 -2.32352,-5.02887 -2.02687,-4.9395 -8.4546,-2.54516 -14.37601,5.35524 -33.75556,16.91339 -44.29249,26.41613 -4.32026,3.89614 -4.17543,4.06292 3.7952,4.36735 6.13367,0.2344 6.17377,0.24318 6.17377,1.35437 0,2.90126 -4.59936,3.7511 -14.4965,2.67862 l -3.74273,-0.40577 -2.20522,2.27863 c -18.30686,18.91671 -35.13187,55.13962 -41.23622,88.77828 -1.39427,7.68375 -3.05267,60.06057 -5.4115,170.89601 -0.99488,46.74767 -1.29452,54.0432 -2.31135,56.27555 -2.34985,5.15894 -5.1342,35.97294 -3.41895,37.83623 l 0.95499,1.03737 -1.29313,14.2619 c -0.7112,7.84215 -1.53132,14.85241 -1.82259,15.57657 -8.38673,20.86519 -12.93336,60.05399 -13.89163,119.73692 l -0.31455,19.59041 1.11111,-0.31122 c 3.37773,-0.9476 12.29191,-2.1705 16.00271,-2.19644 3.03871,-0.0219 3.97355,-0.15161 3.22644,-0.45285 -3.96796,-1.59396 2.23753,-58.00717 9.66792,-87.88753 1.1868,-4.77192 1.15967,-3.952 -0.24877,7.57083 -3.9899,32.63939 0.31541,58.21864 12.69068,75.40114 9.66374,13.41604 24.09521,22.22973 50.22826,30.67236 14.39117,4.65023 14.56334,4.73003 16.91538,7.95188 5.49749,7.52694 13.29435,20.75945 14.79336,25.10644 l 0.52507,1.52215 28.19403,-0.1197 28.19383,-0.11969 0.53724,-5.6118 c 0.92805,-9.68947 0.77783,-15.86584 -0.47579,-19.54453 -1.41741,-4.15947 -1.33163,-4.20735 7.19838,-3.99389 7.42121,0.18354 7.44316,0.19351 6.25616,2.82884 -0.9875,2.18846 -1.3047,16.88526 -0.50472,23.39279 l 0.38702,3.15202 19.48468,0.12568 z" />
    <path
       inkscape:connector-curvature="0"
       style="fill:#3a53ce;stroke:none;stroke-linejoin:round"
       label="Layer_2*"
       id="Layer_2*"
       d="m 431.82378,741.83501 c 21.02478,5.04722 77.15271,-10.9443 77.15271,-10.94829 2.47573,64.82391 -29.12827,83.37097 -73.16081,94.28733 l -5.99084,2.20642 c 0,0 -20.81132,26.49094 -18.51912,35.33456 0,0 -15.64241,13.87488 -54.32449,-1.26281 0,0 -5.88511,-27.4545 0,-32.75109 0.23939,-0.21346 0.61245,-0.42094 1.04735,-0.61644 -1.48425,-0.0918 -2.93258,-0.19551 -4.32306,-0.30324 -1.58998,-0.12368 -3.1221,-0.22542 -4.60435,-0.31719 -1.48364,0.0878 -3.02135,0.19351 -4.60753,0.31719 -1.38988,0.10773 -2.83922,0.20748 -4.32246,0.30324 0.4329,0.1955 0.80755,0.40298 1.04416,0.61644 5.88909,5.29659 0,32.75109 0,32.75109 -38.6781,15.13769 -54.32509,1.26281 -54.32509,1.26281 2.29379,-8.84362 -18.52012,-35.33456 -18.52012,-35.33456 l -5.99064,-2.20642 c -44.02975,-10.91636 -75.63614,-29.46342 -73.15881,-94.28733 0,0 56.12992,15.99751 77.1547,10.94829 0,0 1.67934,-68.11558 2.52221,-70.6352 l -36.16186,-19.34105 c 0,0 -12.99132,-8.90146 -24.38687,-10.93033 -11.70597,-2.08472 -31.88948,-11.66846 -31.88948,-11.66846 0,0 0.0401,-13.55768 4.24505,-38.78782 0,0 8.30059,19.34104 22.5982,22.70453 14.29741,3.36348 39.52236,15.13968 42.88924,17.6593 3.36528,2.5256 26.90749,11.7722 26.90749,11.7722 l 0,-5.04523 c 0,0 41.1231,4.0677 75.99982,5.24073 34.87372,-1.17702 75.99563,-5.24073 75.99563,-5.24073 l 0,5.04523 c 0,0 23.54441,-9.2466 26.90989,-11.7722 3.36548,-2.52361 28.58963,-14.29582 42.88544,-17.6593 14.29781,-3.36349 22.60079,-22.70453 22.60079,-22.70453 4.20536,25.22814 4.24526,38.78782 4.24526,38.78782 0,0 -20.18491,9.58374 -31.88928,11.66846 -11.39915,2.02887 -24.38827,10.93033 -24.38827,10.93033 l -36.16047,19.34105 c 0.84387,2.51962 2.52561,70.6352 2.52561,70.6352 z" />
    <path
       inkscape:connector-curvature="0"
       style="fill:#4f69c6;stroke:none;stroke-linejoin:round"
       label="Layer_2* (W)"
       id="Layer_2* (W)"
       d="m 339.61159,772.60313 c -6.39361,-0.50872 -13.26083,-2.80291 -18.20152,-6.08061 -13.56068,-9.00122 -19.7139,-21.47365 -22.13278,-44.86045 -0.53963,-5.21679 -0.44786,-30.79205 0.1183,-32.91069 l 0.41216,-1.54409 4.0669,1.48823 c 25.77636,9.42614 60.25448,9.42015 85.50457,-0.018 4.7021,-1.75755 4.38689,-1.98497 4.71008,3.41536 2.54555,42.62012 -5.5699,66.5276 -25.97625,76.54026 -6.89056,3.37944 -17.42988,4.84772 -28.50146,3.96995 z" />
    <path
       inkscape:connector-curvature="0"
       style="fill:none;stroke:#000000;stroke-width:1.99495018;stroke-linejoin:round"
       label="Layer_2*"
       id="path3372"
       d="m 299.38103,659.74281 c 0,6.96636 -5.6479,12.61407 -12.61487,12.61407 -6.96696,0 -12.61487,-5.64771 -12.61487,-12.61407 0,-6.96836 5.64791,-12.61607 12.61487,-12.61607 6.96697,0 12.61487,5.64771 12.61487,12.61607 z" />
    <path
       inkscape:connector-curvature="0"
       style="fill:none;stroke:#000000;stroke-width:1.99495018;stroke-linejoin:round"
       label="Layer_2*"
       id="path3374"
       d="m 423.836,659.74281 c 0,6.96636 -5.6477,12.61207 -12.61407,12.61207 -6.96437,0 -12.61208,-5.64571 -12.61208,-12.61207 0,-6.96637 5.64771,-12.61407 12.61208,-12.61407 6.96637,0 12.61407,5.6477 12.61407,12.61407 z" />
    <path
       inkscape:connector-curvature="0"
       style="fill:#ffffff;stroke:none;stroke-linejoin:round"
       label="Layer_2* (J)"
       id="Layer_2* (J)"
       d="m 377.72073,381.12068 c 0,14.97748 -12.14326,27.12075 -27.11935,27.12075 -14.97869,0 -27.12075,-12.14327 -27.12075,-27.12075 0,-14.97789 12.14206,-27.11976 27.12075,-27.11976 14.97609,0 27.11935,12.14187 27.11935,27.11976 z m 51.88267,0 c 0,-31.34805 -35.4363,-56.76033 -79.15164,-56.76033 -43.71315,0 -79.15005,25.41228 -79.15005,56.76033 0,31.34805 35.4369,56.75972 79.15005,56.75972 43.71534,0 79.15164,-25.41167 79.15164,-56.75972 z" />
    <path
       inkscape:connector-curvature="0"
       style="fill:#804000;stroke:none;stroke-linejoin:round"
       label="Layer_2* (J) (1) (J)"
       id="Layer_2* (J) (1) (J)"
       d="m 378.30924,380.80248 c 0,14.97849 -12.14326,27.11975 -27.11935,27.11975 -14.97869,0 -27.12095,-12.14126 -27.12095,-27.11975 0,-14.97789 12.14226,-27.11995 27.12095,-27.11995 14.97609,0 27.11935,12.14206 27.11935,27.11995 z m 17.78299,0.018 c 0,-24.79005 -20.09514,-44.88618 -44.88638,-44.88618 -24.78945,0 -44.88559,20.09613 -44.88559,44.88618 0,24.79005 20.09614,44.88717 44.88559,44.88717 24.79124,0 44.88638,-20.09712 44.88638,-44.88717 z" />
    <path
       inkscape:connector-curvature="0"
       style="fill:none;stroke:#000000;stroke-width:1.99495018;stroke-linejoin:round"
       label="Basic: Trapezoid* (W)"
       id="Basic: Trapezoid* (W)"
       d="m 344.25444,452.34978 c -47.83651,-4.26521 -76.84947,-56.01222 -55.56315,-99.10235 23.42271,-47.41478 89.72568,-52.07718 118.94172,-8.36363 29.60507,44.29887 1.13513,103.10102 -52.0662,107.5338 -5.65369,0.47081 -5.23475,0.4748 -11.31237,-0.0678 z m 4.59936,27.83753 c 3.01238,1.03538 6.77884,-1.03737 6.77884,-3.72856 0,-1.23089 -0.24737,-1.16306 7.32945,-2.05679 15.37109,-1.8174 32.46382,-9.21468 45.1537,-19.54453 l 3.15801,-2.5695 1.58997,0.75409 c 4.99935,2.372 9.97675,-2.90664 7.01026,-7.43518 -0.73215,-1.11916 -0.67828,-1.23487 2.50965,-5.24472 5.8831,-7.40127 11.51086,-17.43188 14.41351,-25.68698 l 1.3426,-3.82232 3.05826,0.25734 c 4.84574,0.40498 9.8391,-2.39593 11.75225,-6.5953 0.46483,-1.01942 1.92114,-1.30669 29.5512,-5.84521 15.98554,-2.62535 29.4315,-4.88084 29.88236,-5.01251 0.74611,-0.21824 0.81793,-1.11777 0.81793,-10.22891 0,-9.11173 -0.0718,-10.01046 -0.81793,-10.22731 -0.45086,-0.13047 -13.92675,-2.38576 -29.94819,-5.01151 l -29.13226,-4.77412 -0.66232,-1.28235 c -2.34208,-4.52934 -7.36736,-6.73675 -13.52577,-5.94136 -0.76007,0.0984 -1.23088,-0.73295 -2.8428,-5.02548 -3.41137,-9.08381 -7.97581,-17.07957 -14.11627,-24.72661 -2.84081,-3.53765 -2.93258,-3.73016 -2.24631,-4.77611 2.95851,-4.51717 -2.53558,-10.13614 -7.21175,-7.37374 -1.28475,0.75868 -1.30868,0.74851 -4.74798,-2.04223 -10.00866,-8.11944 -22.11602,-14.25691 -34.28521,-17.37901 -4.68016,-1.20076 -7.10203,-1.63725 -15.19354,-2.73787 -2.27624,-0.30961 -2.57549,-0.48317 -2.89667,-1.68134 -1.43238,-5.36442 -10.22911,-4.67856 -10.22911,0.79778 0,0.49994 -0.88695,0.75928 -3.39002,0.99129 -17.21881,1.59496 -34.26127,8.48293 -48.16827,19.46752 -4.07469,3.21846 -4.109,3.23422 -5.47075,2.53 -4.84075,-2.50326 -9.55701,2.10228 -7.21255,7.04317 l 0.7503,1.5808 -3.23361,4.10062 c -6.04769,7.66979 -11.09472,16.68537 -14.15158,25.28061 l -1.54629,4.34779 -1.45411,-0.33674 c -5.18189,-1.19957 -9.7218,0.91428 -13.37694,6.22863 -0.63958,0.93004 -3.23282,1.43397 -29.45684,5.72331 -15.81537,2.58685 -29.22881,4.81282 -29.80735,4.94648 -1.4627,0.33795 -1.68793,20.08177 -0.23361,20.50649 0.44986,0.13147 13.92914,2.38936 29.95358,5.0167 l 29.13545,4.77791 0.87818,1.72164 c 2.05799,4.03379 6.50693,6.35591 11.42328,5.96091 l 3.00699,-0.24139 1.73102,4.73801 c 3.15781,8.63814 8.83583,18.53109 14.98547,26.11191 l 2.16931,2.67323 -0.76168,1.60593 c -2.2497,4.74001 3.01597,10.08647 6.98053,7.08806 1.33403,-1.00745 1.60534,-0.91967 4.41782,1.43637 12.10915,10.14033 29.92306,17.92063 45.35041,19.80187 7.6243,0.93164 7.33902,0.84786 7.65283,2.2543 0.41395,1.8553 1.40544,2.9206 3.33655,3.58492 z" />
    <path
       inkscape:connector-curvature="0"
       style="fill:#b7b7b7;stroke:none;stroke-linejoin:round"
       label="Layer_2*"
       id="path3379"
       d="m 349.78544,452.55925 c -38.13986,0 -69.05919,-30.91974 -69.05919,-69.06259 0,-38.14045 30.91933,-69.05999 69.05919,-69.05999 38.14345,0 69.06119,30.91954 69.06119,69.05999 0,38.14086 -30.91774,69.06259 -69.06119,69.06259 z m 91.76572,-96.81135 c -1.43836,0 -2.80291,0.29585 -4.07369,0.77205 -3.92606,-12.71941 -10.53134,-24.27416 -19.17945,-33.98218 0.0539,-0.0483 0.1157,-0.0852 0.16757,-0.13506 2.0947,-2.0945 2.0947,-5.48871 0,-7.58321 -2.09469,-2.0943 -5.48611,-2.0943 -7.58081,0 -0.0539,0.0515 -0.0898,0.11272 -0.13765,0.16738 -14.97609,-13.34043 -34.33309,-21.85648 -55.61722,-23.08716 0.002,-0.0563 0.018,-0.10932 0.018,-0.16718 0,-2.9615 -2.39993,-5.36163 -5.36243,-5.36163 -2.9607,0 -5.36083,2.40013 -5.36083,5.36163 0,0.0579 0.014,0.11092 0.018,0.16718 -21.28373,1.23068 -40.64053,9.74673 -55.61523,23.08716 -0.0499,-0.0547 -0.0854,-0.1175 -0.13845,-0.16738 -2.0941,-2.0943 -5.48671,-2.0943 -7.58121,0 -2.09449,2.0945 -2.09449,5.48871 0,7.58321 0.0531,0.0499 0.11412,0.0868 0.16718,0.13506 -8.64631,9.70802 -15.25299,21.26437 -19.17945,33.98218 -1.27238,-0.47779 -2.63673,-0.77205 -4.07489,-0.77205 -6.44408,0 -11.66726,5.22478 -11.66726,11.66727 l 0,32.16618 c 0,6.44369 5.22318,11.66846 11.66726,11.66846 1.43816,0 2.80251,-0.29725 4.07489,-0.77404 3.92646,12.71781 10.53154,24.27455 19.17945,33.98398 -0.0547,0.0499 -0.11571,0.0858 -0.16718,0.13765 -2.09449,2.0947 -2.09449,5.48811 0,7.5828 2.0945,2.0947 5.48711,2.0947 7.58121,0 0.0531,-0.0519 0.0886,-0.11371 0.13845,-0.16757 14.97629,13.34422 34.3315,21.85867 55.61523,23.08756 -0.002,0.0559 -0.018,0.10972 -0.018,0.16757 0,2.96051 2.40013,5.36043 5.36083,5.36043 2.9625,0 5.36243,-2.39992 5.36243,-5.36043 0,-0.0579 -0.016,-0.11171 -0.018,-0.16757 21.28413,-1.22889 40.64113,-9.74334 55.61722,-23.08756 0.0479,0.0539 0.0838,0.11571 0.13765,0.16757 2.0947,2.0947 5.48612,2.0947 7.58081,0 2.0947,-2.09469 2.0947,-5.4881 0,-7.5828 -0.0519,-0.0519 -0.11371,-0.0878 -0.16757,-0.13765 8.64811,-9.70544 15.25339,-21.26418 19.17945,-33.98398 1.27278,0.47679 2.63732,0.77404 4.07369,0.77404 6.44568,0 11.66846,-5.22677 11.66846,-11.66846 l 0,-32.16618 c 0,-6.44409 -5.22278,-11.66727 -11.66846,-11.66727 z" />
  </g>
</svg>
