<?xml version="1.0" encoding="UTF-8" standalone="no"?>
<!-- Created with Inkscape (http://www.inkscape.org/) -->

<svg
   xmlns:dc="http://purl.org/dc/elements/1.1/"
   xmlns:cc="http://creativecommons.org/ns#"
   xmlns:rdf="http://www.w3.org/1999/02/22-rdf-syntax-ns#"
   xmlns:svg="http://www.w3.org/2000/svg"
   xmlns="http://www.w3.org/2000/svg"
   xmlns:sodipodi="http://sodipodi.sourceforge.net/DTD/sodipodi-0.dtd"
   xmlns:inkscape="http://www.inkscape.org/namespaces/inkscape"
   width="210mm"
   height="297mm"
   viewBox="0 0 744.09448819 1052.3622047"
   id="svg3405"
   version="1.1"
   inkscape:version="0.91pre4 r13712"
   sodipodi:docname="minion1.svg">
  <defs
     id="defs3407" />
  <sodipodi:namedview
     id="base"
     pagecolor="#ffffff"
     bordercolor="#666666"
     borderopacity="1.0"
     inkscape:pageopacity="0.0"
     inkscape:pageshadow="2"
     inkscape:zoom="0.35"
     inkscape:cx="-55"
     inkscape:cy="520"
     inkscape:document-units="px"
     inkscape:current-layer="layer1"
     showgrid="false"
     inkscape:window-width="1366"
     inkscape:window-height="715"
     inkscape:window-x="-8"
     inkscape:window-y="-8"
     inkscape:window-maximized="1" />
  <metadata
     id="metadata3410">
    <rdf:RDF>
      <cc:Work
         rdf:about="">
        <dc:format>image/svg+xml</dc:format>
        <dc:type
           rdf:resource="http://purl.org/dc/dcmitype/StillImage" />
        <dc:title></dc:title>
      </cc:Work>
    </rdf:RDF>
  </metadata>
  <g
     inkscape:label="Layer 1"
     inkscape:groupmode="layer"
     id="layer1">
    <path
       inkscape:connector-curvature="0"
       style="fill:#000000;stroke:none;stroke-linejoin:round"
       label="Layer 1* (18) (J)"
       id="path3352"
       d="m 99.204961,651.20348 c 0,0 16.713499,0.17125 25.012319,1.02255 2.51608,0.2569 5.27649,0.1763 7.86814,0.35764 2.59416,0.17882 5.00951,0.73795 7.10247,2.14586 1.06033,0.71024 1.94688,1.61694 2.68231,2.63195 l 0,3.88116 c 0,1.15605 0.0327,2.2995 0.0529,3.4505 -0.4483,-0.33245 -0.90417,-0.65232 -1.35501,-0.97217 -0.0177,-0.0126 -0.0327,-0.0378 -0.0504,-0.0504 -0.27704,-0.19645 -0.57928,-0.38535 -0.89409,-0.58684 -0.9596,-0.61202 -2.07786,-1.2467 -3.27167,-1.86628 -0.068,-0.0352 -0.13354,-0.0654 -0.20402,-0.10067 -0.0158,-0.009 -0.0327,-0.0177 -0.0504,-0.0251 -0.82107,-0.42313 -1.68243,-0.85382 -2.52869,-1.25175 -0.0251,-0.0127 -0.0529,-0.0158 -0.0781,-0.0277 -0.84373,-0.39794 -1.66984,-0.79085 -2.47578,-1.14849 -0.0276,-0.0126 -0.0529,-0.0158 -0.0781,-0.0251 -0.80343,-0.35764 -1.56909,-0.69764 -2.2743,-0.99736 -0.0277,-0.0127 -0.0479,-0.0127 -0.0755,-0.0251 -0.69513,-0.29467 -1.30464,-0.54654 -1.84111,-0.76565 -0.0454,-0.0201 -0.0302,-0.008 -0.0755,-0.0251 -1.03766,-0.42564 -1.61694,-0.66492 -1.68494,-0.69011 -0.005,-0.003 -0.10336,-0.0251 -0.10336,-0.0251 l -5.211,9.83517 c -1.71517,-1.16109 -3.59909,-2.46069 -5.13544,-3.52606 -5.22864,-3.62427 -15.330779,-11.21536 -15.330779,-11.21536 z M 421.3578,920.5486 c 9.55057,0.74803 12.7366,0.70773 23.34247,-0.30476 5.47043,-0.52134 9.99385,-0.99737 10.05429,-1.06033 0.76566,-0.7707 1.23916,-10.01148 0.74552,-14.44422 -1.67488,-15.01091 -9.44227,-21.62478 -28.59883,-24.35496 l -4.93898,-0.70269 3.93659,-1.42049 c 5.70213,-2.05267 13.29069,-6.1026 14.20244,-7.5785 0.43319,-0.70017 1.91917,-7.54071 3.29937,-15.20233 1.38271,-7.65909 2.65461,-14.63312 2.8284,-15.49448 0.21157,-1.0553 1.04774,-1.91414 2.5589,-2.63446 1.23413,-0.58936 5.65176,-3.32457 9.81503,-6.07993 51.51562,-34.08686 83.61783,-94.92638 80.5829,-152.70832 l -0.25689,-4.92136 7.17802,-11.73421 c 3.94919,-6.45519 12.08681,-19.6376 18.08615,-29.29898 16.62785,-26.77534 29.56092,-48.15329 38.83443,-64.19684 4.62165,-7.99407 8.4852,-14.64067 8.58845,-14.77164 0.10083,-0.13101 3.43791,1.70762 7.41732,4.08771 3.9794,2.38008 7.35433,4.32696 7.49791,4.32696 0.14602,0 0.44074,-1.91163 0.65734,-4.24385 1.54643,-16.63038 4.95663,-23.59434 14.31578,-29.2335 7.45256,-4.49069 12.10947,-9.57575 27.5687,-30.11502 4.00207,-5.31678 9.17782,-11.2607 13.11943,-15.0638 7.84799,-7.57597 8.6892,-9.26093 8.6338,-17.33811 -0.0629,-9.05188 -3.08782,-14.03369 -10.98617,-18.08362 -4.61913,-2.36748 -10.61091,-0.63468 -16.50194,4.7753 -2.35237,2.15592 -4.38237,3.92146 -4.51082,3.92146 -0.13101,0 0.42313,-2.07784 1.22908,-4.6166 5.89354,-18.5546 -0.0479,-30.18553 -15.82694,-30.98645 -14.27548,-0.72536 -24.10814,11.98354 -20.91453,27.03223 1.02758,4.83574 -4.33957,21.2898 -6.94381,21.2898 -3.89881,0 -4.78032,-5.11781 -2.06022,-11.94577 5.47797,-13.75411 -2.25667,-24.07538 -17.28019,-23.06038 -13.96316,0.94447 -18.16169,14.69357 -11.3413,37.12431 1.31724,4.33201 2.99463,10.73683 3.73259,14.23266 0.73543,3.49834 2.37505,9.26849 3.64442,12.82476 3.64947,10.23814 4.00207,12.656 2.33728,16.09642 -1.71769,3.54369 -7.70947,9.50525 -13.95058,13.87754 -5.70213,3.99704 -5.69458,3.16337 -0.058,6.49802 2.58158,1.5288 5.05233,3.01225 5.48806,3.29686 0.59187,0.38535 -4.99189,8.72194 -21.72049,32.43717 -12.384,17.5547 -22.61459,31.82012 -22.73549,31.69922 -0.11836,-0.11836 0.0882,-3.34471 0.46343,-7.16293 0.61454,-6.27133 0.55913,-7.56338 -0.56921,-13.28818 -0.68758,-3.48827 -1.4356,-8.04444 -1.66228,-10.12734 -0.2292,-2.08037 -0.65988,-3.62931 -0.96211,-3.44293 -0.32743,0.20149 -0.48861,-27.85582 -0.39543,-69.46072 l 0.15361,-69.79571 1.962,-0.50877 c 3.58902,-0.92936 4.73247,-4.93646 3.74517,-13.10683 -0.69514,-5.73488 -0.67499,-5.97415 1.22908,-13.10433 2.8007,-10.49253 1.7328,-14.56512 -4.55616,-17.34819 l -2.5035,-1.10566 -0.42062,-7.12767 c -1.72273,-29.15264 -10.31621,-59.12711 -24.03509,-83.83039 -1.63709,-2.95005 -2.97699,-5.46363 -2.97699,-5.58628 0,-1.22556 6.97907,-1.88191 18.77371,-1.76606 14.86988,0.14602 14.55001,0.42011 5.53843,-4.74833 -7.44501,-4.2698 -17.44892,-5.55001 -26.46304,-3.38702 l -3.66708,0.87949 -1.30213,-1.98667 -1.30211,-1.98669 3.21122,-2.4244 c 5.22611,-3.94691 11.06677,-7.31884 19.60989,-11.32343 9.00403,-4.21992 9.03929,-4.75538 0.26193,-3.92751 -9.38937,0.88554 -17.1215,3.51698 -24.27687,8.26003 l -3.86355,2.56118 -2.56897,-3.13493 -2.56899,-3.13491 2.49595,-1.67083 c 11.06425,-7.40597 31.18541,-9.506 53.66401,-5.60064 l 4.53601,0.78832 -1.75043,-1.39657 c -14.77669,-11.7828 -33.82744,-13.91153 -53.6212,-5.99151 -3.39508,1.35828 -3.54116,0.86967 -0.61706,-2.05368 7.43745,-7.43946 18.30777,-9.41834 39.04348,-7.10927 23.67997,2.63697 26.0928,2.07079 13.7768,-3.23213 -14.40644,-6.20259 -24.36503,-7.79687 -38.79917,-6.21166 -9.63873,1.05832 -13.90524,3.52479 -25.05009,14.48075 l -5.25634,5.16692 -5.34198,-5.01354 c -2.93922,-2.75762 -7.59109,-6.80705 -10.33889,-8.99899 -5.94895,-4.74506 -5.81042,-3.96781 -1.4079,-7.84119 13.9934,-12.31801 29.96642,-18.52614 50.00951,-19.43736 l 8.48016,-0.38534 -2.8284,-1.69378 c -16.07125,-9.63041 -39.51446,-4.65261 -63.4891,13.48162 -2.49846,1.88946 -4.89115,3.64267 -5.31932,3.89579 -0.476,0.28308 -3.32203,-1.06942 -7.38958,-3.51196 -3.6394,-2.18489 -9.15012,-5.24223 -12.24549,-6.79444 -3.09789,-1.55198 -5.74494,-2.92084 -5.88347,-3.04149 -0.45839,-0.3954 2.61431,-6.44713 5.62153,-11.0733 9.17027,-14.10775 24.15347,-24.13509 49.44031,-33.08875 11.19017,-3.96151 11.14485,-4.07259 -1.51369,-3.7225 -26.61414,0.73594 -49.63171,14.82731 -61.51452,37.65774 -1.4759,2.83318 -2.89639,5.1546 -3.16084,5.15838 -0.26445,0.005 -3.99453,-1.25755 -8.28623,-2.80348 l -7.80266,-2.81076 1.87637,-3.39684 c 6.28897,-11.38715 15.71108,-20.34786 32.88297,-31.27812 7.40471,-4.71308 7.26871,-5.33415 -0.85885,-3.91895 -15.83702,2.75813 -34.64599,16.34728 -42.87178,30.97637 -2.67727,4.76295 -2.37252,4.67731 -10.62853,2.97851 -6.6189,-1.36181 -19.06083,-3.06339 -22.40302,-3.06339 l -2.29445,0 0,-4.13378 c 0,-30.41952 -15.04619,-54.31484 -36.64074,-58.18971 l -3.02737,-0.54337 2.11816,1.60411 c 15.53729,11.75697 24.22649,31.81669 24.22649,55.92507 l 0,4.73221 -2.93669,0 -2.93418,0 -0.3803,-8.02479 c -0.67751,-14.32913 -2.42795,-20.78255 -7.91852,-29.20152 -6.04717,-9.26998 -14.04376,-16.32262 -21.21679,-18.70976 -4.87098,-1.62108 -4.98685,-1.20468 -0.86388,3.09476 7.48027,7.79573 11.99616,16.4406 14.96309,28.64377 1.75546,7.21128 4.2514,23.87063 3.66708,24.45646 -0.33749,0.33674 -15.2502,2.37379 -17.77636,2.42793 -1.71517,0.037 -1.81341,-0.1103 -2.58158,-3.8983 -5.16063,-25.45811 -24.9846,-47.99966 -47.16096,-53.62494 -7.77999,-1.97376 -7.87569,-1.84 -1.86629,2.61082 15.41389,11.41655 30.49533,31.4745 35.5678,47.30496 2.80071,8.74562 2.93922,10.71366 0.78581,11.21008 -0.95456,0.22012 -6.14541,1.7993 -11.53775,3.50943 l -9.79991,3.10923 -1.70762,-2.05519 C 246.61665,175.99703 221.7479,162.86148 205.84541,168.52937 l -2.3272,0.83012 5.65932,1.87132 c 16.44902,5.43895 31.22067,15.70832 42.92214,29.83748 2.82335,3.40792 5.20092,6.38215 5.28908,6.60932 0.0857,0.22744 -2.23149,1.59177 -5.14804,3.03216 -2.91907,1.44064 -8.57586,4.56825 -12.57289,6.95086 -3.99704,2.38235 -7.49539,4.42998 -7.77244,4.55036 -0.27704,0.12058 -3.54871,-2.776 -7.2687,-6.4368 -17.15173,-16.88275 -32.50014,-22.43578 -56.31107,-20.37353 -5.51325,0.47752 -5.38982,0.88428 0.79588,2.60021 10.30615,2.85787 23.60692,8.58871 30.82273,13.28012 7.51554,4.88635 20.05065,16.57597 20.05065,18.69866 0,1.22002 -3.05758,3.49709 -3.8862,2.89363 -15.19478,-11.06702 -32.20042,-15.28998 -45.16875,-11.21511 -7.36694,2.3146 -7.37196,2.30855 4.16578,3.96906 12.89529,1.85597 24.76548,6.36253 30.95876,11.75512 l 2.72765,2.37252 -2.39269,2.47177 c -3.30944,3.42153 -3.84087,3.46358 -9.22314,0.73266 -9.73442,-4.93975 -30.49784,-5.29613 -36.57273,-0.62789 -1.47339,1.13337 -1.47339,1.13388 3.97688,1.14799 10.40689,0.0275 27.69211,4.53123 31.75967,8.2754 0.14602,0.13527 -1.12079,1.67009 -2.81833,3.41069 -27.87848,28.59931 -47.8435,75.30894 -51.01946,119.36118 -0.62966,8.72447 -0.70271,9.04937 -2.36246,10.60082 -2.85863,2.66973 -3.33716,5.24123 -2.88884,15.49197 0.3526,8.08474 0.25941,9.59842 -0.8236,13.3562 -2.27177,7.88575 -1.50864,10.65623 3.17093,11.52515 l 2.27179,0.4206 0,65.94728 c 0,36.28308 -0.23423,65.94474 -0.52136,65.94474 -0.99988,0 -2.04509,11.27078 -2.01992,21.7885 0.0251,10.06687 0.24683,11.9659 2.30454,19.72574 0.43823,1.65222 -23.87139,10.99374 -40.24487,15.46678 -22.979793,6.27638 -32.714218,12.41926 -38.081374,24.03509 -8.454972,18.29517 3.405159,33.4824 36.774214,47.09296 3.83081,1.56405 7.0647,2.93418 7.1856,3.04752 0.12342,0.11331 -0.76315,2.00229 -1.96705,4.19349 -1.20641,2.19371 -2.19118,4.0751 -2.19118,4.18341 0,0.10825 3.20116,1.09307 7.11507,2.18867 7.51554,2.10556 8.63127,2.82336 8.63127,5.5636 0,2.06275 0.18134,2.0552 -3.29433,0.11078 -11.56798,-6.46275 -19.264849,10.57312 -11.82236,26.16582 4.17837,8.75974 9.94348,12.14726 17.07114,10.03415 3.67213,-1.08803 5.96911,-1.30716 13.79191,-1.31724 8.04192,-0.008 9.76465,-0.18133 12.02636,-1.20892 3.47316,-1.57414 3.27418,-1.66229 4.54357,1.98213 0.61202,1.74792 2.27682,5.90615 3.69984,9.23576 1.42552,3.33212 3.0727,7.55582 3.65953,9.38684 8.78995,27.42515 38.16701,56.71909 75.83533,75.62126 l 6.02452,3.02484 2.79061,13.94303 c 3.5034,17.50685 4.33957,18.68556 16.88224,23.80086 l 4.93397,2.01237 -2.66722,0.49364 c -22.67755,4.21616 -28.67185,10.27089 -28.69703,28.9766 -0.005,4.8861 0.12848,9.02167 0.29971,9.19292 0.82107,0.82611 17.77887,2.21386 26.94157,2.2038 17.67811,-0.0201 27.32187,-1.88897 38.96289,-7.55333 l 6.86321,-3.33967 11.84755,-0.89158 c 6.51564,-0.49113 11.94326,-0.99234 12.06162,-1.11071 0.45083,-0.45083 0.4987,-18.42111 0.0555,-21.36788 l -0.46091,-3.08278 2.49343,-1.12581 2.49594,-1.1233 -0.38787,-6.38973 c -0.21408,-3.51597 -0.54653,-7.45256 -0.73796,-8.75216 l -0.35008,-2.36497 2.87626,0.39541 c 1.5842,0.21662 6.81031,0.39543 11.61834,0.39543 8.02933,0 8.71439,0.0857 8.44238,1.06034 -0.1612,0.58179 -0.47099,3.82829 -0.6901,7.21077 l -0.39795,6.15296 2.16601,0.7833 c 2.4909,0.90166 2.46573,0.75809 1.20894,6.84054 -0.89915,4.34459 -1.0956,20.93467 -0.2569,21.75574 0.16622,0.16372 5.61649,0.76566 12.11198,1.3399 11.52517,1.02004 11.89288,1.0956 15.25523,3.10545 9.65887,5.77518 19.95242,8.64891 35.31594,9.85281 z" />
    <path
       inkscape:connector-curvature="0"
       style="fill:#f8e67c;stroke:none;stroke-linejoin:round"
       label="Layer 1* (3) (W) (B) (1) (J)"
       id="Layer 1* (3) (W) (B) (1) (J)"
       d="m 264.13861,407.931 c -4.37733,-1.91667 -6.37711,-9.00656 -3.66708,-12.98848 5.39485,-7.92607 16.37347,-5.34952 17.24743,4.0474 0.64225,6.89344 -6.90603,11.86266 -13.58035,8.94108 z m 137.63448,0.87647 c -4.75261,-3.20116 -6.17059,-9.00655 -3.18101,-13.01366 4.42269,-5.92126 11.63851,-5.72983 15.7791,0.41557 5.11781,7.59361 -5.00448,17.7159 -12.59809,12.59809 z m -77.77718,181.96197 c -60.59524,-4.13556 -96.84307,-24.42547 -105.73377,-59.18983 -1.41294,-5.51828 -1.84362,-5.18079 4.30936,-3.36991 48.01979,14.12688 100.51268,20.50399 134.45094,16.3357 27.82057,-3.41776 66.19913,-13.6282 94.30681,-25.09039 4.08015,-1.66479 7.41982,-2.90648 7.41982,-2.76291 0,1.02003 -3.37997,14.33593 -4.83572,19.05329 -11.96592,38.77146 -61.38355,59.70111 -129.91744,55.02405 z m -35.27063,292.74552 c 15.7791,2.40779 34.98603,0.98981 43.66264,-3.22633 l 2.78054,-1.34997 -0.39038,-6.66677 c -0.2166,-3.66457 -0.53645,-7.41479 -0.71024,-8.32905 l -0.31987,-1.6673 11.60323,0 11.60324,0 -0.31986,1.6673 c -0.17631,0.91426 -0.49617,4.17083 -0.7153,7.23346 l -0.39541,5.56865 2.30704,0.96462 c 18.2977,7.64399 58.42419,6.21341 75.88066,-2.70498 7.00677,-3.57895 6.82796,-3.21627 9.71932,-19.69301 1.40034,-7.99407 2.67477,-14.98572 2.82841,-15.53983 0.1536,-0.55157 2.24407,-2.15843 4.64682,-3.57137 55.41949,-32.56815 91.37264,-96.68691 88.28733,-157.4534 l -0.26444,-5.1707 7.79005,-12.69632 c 4.28667,-6.98158 12.28074,-19.91463 17.76627,-28.74236 14.66838,-23.59434 29.17809,-47.57401 37.9353,-62.68315 4.24637,-7.32915 8.08977,-13.90776 8.53556,-14.62052 0.7833,-1.24673 0.39543,-1.55399 -9.90568,-7.83288 -5.89859,-3.59155 -11.30855,-6.90603 -12.02385,-7.3619 -1.2593,-0.80092 -2.03754,0.21156 -22.37532,29.02698 -11.58813,16.42133 -21.85146,30.94615 -22.80853,32.27346 l -1.73784,2.41535 0.49113,-4.83825 c 0.90671,-8.90581 -1.36005,-31.2484 -3.00218,-29.60375 -0.24179,0.24179 -0.44076,-31.08971 -0.44076,-69.62694 l 0,-70.0652 1.83102,-0.36772 c 3.88874,-0.77573 5.22109,-5.06492 4.14312,-13.34107 -0.71025,-5.47294 -0.6901,-5.68198 1.29961,-13.24033 2.79817,-10.61846 1.78568,-14.40646 -4.54862,-17.02832 l -2.56394,-1.06034 -0.41305,-6.98914 C 533.57948,287.09566 468.04274,211.60337 379.87127,194.00156 262.6325,170.59689 150.76342,255.7347 142.49986,374.65009 l -0.60447,8.68667 -2.10303,2.32973 c -2.71003,2.99965 -3.03241,4.94906 -2.5438,15.35595 0.35511,7.54071 0.2569,9.04433 -0.82611,12.78194 -2.43296,8.41216 -1.22404,11.81228 4.20608,11.81228 1.22909,0 1.2316,0.0555 1.2316,66.3175 0,37.15201 -0.23423,66.31499 -0.52891,66.31499 -2.50097,0 -2.76544,31.16025 -0.32741,38.61785 1.28197,3.91895 2.25918,3.14322 -9.84776,7.82784 -14.04629,5.43515 -18.82913,7.04454 -31.215659,10.49252 -24.067829,6.70201 -34.40672,14.27799 -38.360937,28.11775 -4.88862,17.1064 8.371857,30.78245 43.100966,44.4585 l 3.09537,1.21901 5.83813,-11.0693 c 3.20872,-6.08747 5.82556,-11.31359 5.81043,-11.61583 -0.0158,-0.30223 -3.62678,-3.08277 -8.02428,-6.18066 -4.40001,-3.09789 -8.81766,-6.29904 -9.81503,-7.11256 l -1.818429,-1.48094 6.057259,0.0228 c 12.03643,0.0479 29.51809,1.51871 31.79493,2.67475 3.82072,1.93933 4.24133,2.59417 4.24133,6.62647 l 0,3.69228 3.94666,3.85599 c 8.8655,8.66401 14.82705,26.92897 15.04365,46.10819 0.11584,10.20791 -0.70773,12.55275 -6.58111,18.71075 l -4.39246,4.60402 3.02484,7.2687 c 1.66481,3.99702 3.83584,9.5833 4.82566,12.41422 10.8804,31.10735 40.80651,60.98057 78.99871,78.8627 l 3.7225,1.74036 2.5841,13.44938 c 1.5565,8.08724 3.05254,14.23518 3.75525,15.42395 3.76531,6.38217 21.67263,13.44434 41.93735,16.53719 z" />
    <path
       inkscape:connector-curvature="0"
       style="fill:#216fc5;stroke:none;stroke-linejoin:round"
       label="Layer 1* (21) (B): 3 (J) (W)"
       id="Layer 1* (21) (B): 3 (J) (W)"
       d="m 292.68706,882.90294 c -15.80679,-1.83354 -35.64337,-8.50787 -41.4135,-13.93295 -3.25656,-3.06263 -3.59909,-3.98946 -6.15549,-16.61274 -1.34745,-6.66173 -2.57652,-12.66105 -2.73269,-13.32848 -0.18636,-0.80847 -2.36245,-2.30956 -6.51311,-4.48816 -39.60514,-20.79364 -66.11099,-47.66972 -75.31649,-76.3592 -2.0149,-6.28141 -2.10556,-6.05726 2.47075,-6.05726 16.95275,0 28.47792,-11.91554 32.5077,-33.61085 1.24417,-6.6869 1.03011,-30.35175 -0.40298,-44.75065 l -1.19886,-12.04398 -5.36465,-4.91381 c -5.13041,-4.69972 -20.06072,-20.49393 -25.89382,-27.3924 -3.08529,-3.65197 -16.62534,-26.10035 -18.58231,-30.81518 -2.48082,-5.96659 -3.27669,-19.22456 -1.90909,-31.79241 1.083,-9.95355 1.19381,-10.1223 3.5588,-5.45279 9.73946,19.22707 30.13011,44.18648 47.02998,57.56785 l 6.75492,5.34953 16.22487,5.49813 c 49.87351,16.90238 94.79795,26.90127 126.83721,28.22606 33.54283,1.38775 81.81449,-9.08212 128.97798,-27.96917 9.04936,-3.62427 9.10729,-3.63939 9.10729,-2.35741 0,1.34997 0.16371,1.26937 7.04707,-3.41524 23.27447,-15.84205 40.36826,-32.77466 51.7272,-51.23607 3.29937,-5.36715 3.33716,-5.36968 3.82576,-0.30979 0.21912,2.24912 0.80344,5.99681 1.29962,8.32904 2.05769,9.66643 0.30978,26.61918 -3.2465,31.48766 -13.37886,18.31029 -31.19046,34.94318 -54.37678,50.77264 l -8.56075,5.8457 -0.45084,2.8838 c -1.5313,9.77725 -1.1787,34.64096 0.64226,45.36268 5.85072,34.43947 23.52632,43.7684 49.54104,26.14569 1.94689,-1.31724 3.61169,-2.30958 3.69984,-2.20126 0.41053,0.49615 -7.96888,18.21458 -12.16741,25.72254 -16.48429,29.48788 -39.93759,53.88818 -66.23439,68.9016 -2.83091,1.61696 -5.20596,2.98203 -5.279,3.03745 -0.0705,0.0529 -1.3953,6.75995 -2.93922,14.90513 -3.31449,17.459 -2.84855,16.52459 -10.03413,20.11865 -17.72598,8.87307 -51.87832,10.42956 -73.73229,3.35982 l -3.86608,-1.25174 0.30224,-6.8884 0.30476,-6.88839 -8.61869,0 c -4.73751,0 -9.83769,-0.16623 -11.33121,-0.37277 -2.69997,-0.3677 -2.71507,-0.36268 -2.53122,1.36509 0.10082,0.95205 0.30223,4.69217 0.44832,8.30638 l 0.26445,6.57357 -3.22634,1.4759 c -7.46264,3.41525 -26.01726,4.88611 -40.49422,3.20619 z" />
    <path
       inkscape:connector-curvature="0"
       style="fill:#1c5ca4;stroke:none;stroke-linejoin:round"
       label="Layer 1* (25)"
       id="Layer 1* (25)"
       d="m 281.54221,693.61434 c 37.84968,7.05211 75.69935,8.07213 113.54901,0 0.73796,22.88912 -0.3803,44.8514 -5.67694,64.72322 -13.87754,14.00599 -31.1678,22.89164 -51.09755,27.81804 -18.41607,-8.01421 -35.29582,-16.79409 -47.68989,-27.81804 -8.37942,-21.5744 -9.72185,-43.14882 -9.08463,-64.72322 z" />
    <path
       inkscape:connector-curvature="0"
       style="fill:#ffffff;stroke:none;stroke-linejoin:round"
       label="Layer 1* (7) (J)"
       id="Layer 1* (7) (J)"
       d="m 459.05131,515.42021 c 0,0 -3.37998,18.02064 -7.56591,26.59903 -1.85369,1.95444 -3.76784,3.82325 -5.28152,5.16315 -2.03504,1.80079 -3.90385,3.99955 -6.47535,4.87602 -2.62942,0.89411 -5.66687,0.80847 -8.35926,0.13353 -2.69995,-0.67751 -7.30145,-4.12799 -7.30145,-4.12799 -2.34734,4.2917 -4.06251,7.34677 -9.80494,8.40963 -3.56131,1.09056 -9.13752,0.80345 -12.84492,0.46091 -6.22851,-0.57928 -15.33076,-5.44776 -15.33076,-5.44776 0,0 -0.40802,1.64213 -1.77562,3.78799 -0.87396,0.97219 -4.63172,4.52091 -8.14518,5.31175 -3.71495,1.11574 -7.74222,0.49113 -11.62087,0.57172 -4.45038,0.0932 -8.40712,0.33749 -12.75928,-0.58934 -4.04489,-0.86137 -8.73957,-1.96705 -12.03643,-4.46047 -1.54139,-1.16611 -3.60665,-4.49571 -3.60665,-4.49571 0,0 -4.05749,3.82324 -6.3746,5.33693 -2.67729,1.75043 -5.64421,2.48084 -8.76729,3.17093 -10.03164,2.41786 -22.04288,0.33498 -31.93849,-2.58914 -3.07272,-0.90921 -6.9816,-8.24088 -6.9816,-8.24088 0,0 -3.33212,6.4829 -6.36956,7.99658 -3.86103,1.92422 -7.86058,1.50109 -12.16489,1.1913 -4.44534,-0.31734 -10.47489,-1.22656 -14.20746,-3.66457 -2.93671,-1.91919 -5.55606,-8.27364 -5.55606,-8.27364 0,0 -0.23424,5.83059 -2.34231,7.24101 -2.60424,1.74287 -6.54334,0.67498 -9.37929,-0.65484 -1.98467,-0.92936 -4.17334,-2.95684 -6.16809,-5.09263 -0.0327,-0.0529 -0.12848,-0.0629 -0.15866,-0.11331 -6.94885,-11.40175 -8.36431,-22.47858 -8.36431,-22.47858 0,0 69.23909,21.54419 121.80753,19.57714 57.15481,-2.13829 119.87322,-29.59869 119.87322,-29.59869 z m -23.95954,48.11299 c -3.94917,3.54369 -8.29882,6.68187 -13.13958,9.27856 -25.1735,13.50226 -49.71231,18.33043 -78.27082,17.63781 -36.2403,-0.87898 -72.91125,-4.36474 -100.9056,-24.83096 0.61455,-0.82107 1.8537,-2.28438 3.06011,-2.42542 11.50501,-1.32983 26.01472,1.99222 36.76667,6.66424 2.55386,1.11071 3.91391,7.47271 3.91391,7.47271 l 0.22164,2.43046 c 0,0 4.16327,-3.68221 6.30156,-5.43768 1.40287,-1.15101 2.54632,-2.84603 4.27912,-3.37493 10.03665,-3.05761 21.62481,-1.38273 33.7116,3.14573 2.83848,1.06286 3.49332,3.11804 4.32951,6.03207 0.52134,1.82347 0.87647,5.99681 0.87647,5.99681 0,0 1.08804,-9.11989 3.75272,-12.59556 2.06779,-2.69491 5.35206,-4.30934 8.59098,-5.32685 4.90121,-1.53888 10.27089,-1.25428 15.3887,-0.84122 4.11542,0.33245 8.65899,0.43571 12.16237,2.61935 2.67728,1.66984 5.87089,7.43997 5.87089,7.43997 0,0 1.50611,-5.51828 3.57893,-7.21582 3.78044,-3.09537 9.24078,-3.31952 14.10422,-3.80058 4.45542,-0.43824 9.33899,-0.96211 13.42167,0.87649 1.74792,0.78832 4.12297,4.0474 4.12297,4.0474 0,0 1.75043,-4.6947 3.66961,-6.13534 1.95443,-1.46582 4.69972,-1.5842 7.13017,-1.84363 2.17608,-0.2317 5.28657,-0.005 7.06218,0.18639 z" />
    <path
       inkscape:connector-curvature="0"
       style="fill:#804000;stroke:none;stroke-linejoin:round"
       label="Layer 1* (14) (J): 1 (2) (J)"
       id="Layer 1* (14) (J): 1 (2) (J)"
       d="m 408.57082,391.53483 c 5.143,1.09056 8.36682,6.1706 7.27877,11.3136 -1.09055,5.14049 -6.09754,8.47765 -11.24055,7.38709 -5.143,-1.09056 -8.45748,-6.18822 -7.36945,-11.33123 1.09057,-5.143 6.19074,-8.46001 11.33123,-7.36946 z m -137.84604,-1.98465 c 5.14049,1.08803 8.36682,6.17058 7.27626,11.31107 -1.09055,5.143 -6.09755,8.47765 -11.24055,7.3896 -5.143,-1.09056 -8.4575,-6.19074 -7.36945,-11.33121 1.09056,-5.14302 6.19074,-8.46001 11.33374,-7.36946 z m 160.21633,-52.73514 c -34.7417,-7.36216 -68.95449,15.31843 -76.44483,50.6598 -7.48784,35.34113 14.58526,69.94683 49.32697,77.30871 34.74168,7.3619 68.95449,-15.31818 76.4423,-50.6593 7.49035,-35.33861 -14.58275,-69.94733 -49.32444,-77.30921 z m -162.05995,-3.21099 c -33.60076,-5.32937 -65.98001,17.10288 -73.23361,51.33959 -7.49035,35.34113 14.58275,69.94683 49.32446,77.30871 34.74168,7.36441 68.9545,-15.31818 76.44485,-50.65678 7.48783,-35.34113 -14.58529,-69.9496 -49.32699,-77.31174 -1.08553,-0.22995 -2.12319,-0.508 -3.20871,-0.67978 z" />
    <path
       inkscape:connector-curvature="0"
       style="fill:#ffffff;stroke:none;stroke-linejoin:round"
       label="Layer 1* (14) (J)"
       id="path3359"
       d="m 411.91553,376.58437 c 13.12952,2.78307 21.49381,15.64561 18.71075,28.77511 -2.78054,13.127 -15.64308,21.49131 -28.77259,18.71075 -13.12699,-2.78305 -21.58449,-15.66574 -18.80141,-28.79273 2.78054,-13.12951 15.73627,-21.47367 28.86325,-18.69313 z M 274.0569,375.34271 c 13.12952,2.78054 21.49381,15.64308 18.71075,28.77259 -2.78054,13.12699 -15.64308,21.49381 -28.77259,18.71075 -13.12699,-2.78056 -21.58449,-15.66324 -18.80394,-28.79274 2.78307,-13.127 15.7388,-21.47367 28.86578,-18.6906 z m -4.89114,-41.55454 c -33.60077,-5.32963 -65.98001,17.10261 -73.23613,51.33932 -7.48781,35.34113 14.58527,69.94683 49.32697,77.31124 34.74171,7.3619 68.95453,-15.32069 76.44486,-50.65931 7.48783,-35.34113 -14.58529,-69.94958 -49.32699,-77.31148 -1.08552,-0.2302 -2.12571,-0.50801 -3.20871,-0.67977 z m 162.05995,3.21072 c -34.74421,-7.3619 -68.957,15.31869 -76.44483,50.65982 -7.48782,35.34111 14.58275,69.94681 49.32696,77.30871 34.74171,7.36441 68.95449,-15.31818 76.44231,-50.65931 7.49035,-35.3386 -14.58274,-69.94707 -49.32444,-77.30922 z" />
    <path
       inkscape:connector-curvature="0"
       style="fill:#000000;stroke:none;stroke-linejoin:round"
       label="Layer 1* (14) (J) (J) (3) (J)"
       id="Layer 1* (14) (J) (J) (3) (J)"
       d="m 268.14069,334.55886 c 1.083,0.17178 2.12318,0.44982 3.20871,0.67977 34.7417,7.36215 56.81482,41.97036 49.32447,77.31149 -7.48783,35.3386 -41.70065,58.0212 -76.44234,50.65932 -34.7417,-7.36443 -56.8148,-41.97012 -49.32696,-77.31125 7.25611,-34.23671 39.63535,-56.66871 73.23612,-51.33933 z m 162.05742,3.21097 c 34.74171,7.3619 56.81481,41.97036 49.32697,77.31149 -7.48782,35.33861 -41.70313,58.0212 -76.44483,50.65932 -34.74169,-7.36443 -56.81479,-41.97011 -49.32444,-77.31124 7.48781,-35.34113 41.70062,-58.02171 76.4423,-50.65957 z m -19.18424,153.81425 c 2.83092,0.24934 6.2386,0.37276 7.57094,0.27202 1.33235,-0.0983 4.7904,-0.32743 7.6868,-0.50373 29.911,-1.84111 59.41652,-22.43325 73.17063,-51.06732 l 2.63448,-5.48553 5.19085,-0.68255 c 8.30637,-1.09056 7.82279,-0.84122 8.27867,-4.27659 0.48357,-3.65955 0.66743,-3.79808 3.98948,-3.03997 1.4356,0.32994 6.56349,0.92937 11.39419,1.32983 15.14691,1.26182 16.6883,0.0251 16.01834,-12.85498 -0.36771,-7.08234 -0.27956,-8.04445 1.24168,-13.62569 4.15823,-15.25773 0.41558,-18.23473 -28.85319,-22.942 -2.22897,-0.36017 -2.89639,-1.32228 -2.94677,-4.2615 -0.0176,-0.94952 -1.45827,-1.8562 -6.69446,-4.20859 -7.64147,-3.42884 -7.02441,-2.86996 -9.70673,-8.81286 -22.54911,-49.98005 -84.9804,-67.27761 -130.89464,-36.26799 -7.5256,5.08156 -19.31271,17.01623 -24.08798,24.38494 -5.75755,8.89019 -4.89115,8.47134 -7.57095,3.65702 -36.46697,-65.49544 -132.45873,-59.46967 -160.97946,10.10541 -0.81602,1.98743 -1.41043,2.38134 -6.66172,4.41738 -6.13281,2.37505 -6.1706,2.41031 -6.78262,6.4955 l -0.39794,2.65209 -6.45771,1.41294 c -15.40633,3.36991 -18.06096,6.71211 -17.31292,21.79857 0.37024,7.49539 0.2695,8.94107 -0.97723,14.11178 -2.43548,10.10214 -1.34996,11.01387 13.20005,11.08187 l 9.25084,0.0453 0.3652,2.26927 c 0.19897,1.24924 0.43321,2.27179 0.52136,2.27179 0.22666,0 11.85257,2.3549 13.36122,2.7075 0.87647,0.20401 1.97207,1.82096 3.59657,5.30419 29.90345,64.16913 119.09748,69.26177 156.6525,8.94359 l 3.43034,-5.51072 2.27179,4.11793 c 14.31829,25.98197 41.19185,43.5795 70.49839,46.16106 z" />
    <path
       inkscape:connector-curvature="0"
       style="fill:#c0c0c0;stroke:none;stroke-linejoin:round"
       label="Layer 1* (14) (J) (J) (3) (J)"
       id="path3362"
       d="m 268.23388,335.68745 c 1.08552,0.17202 2.12318,0.44982 3.20871,0.68003 34.74169,7.36189 56.81481,41.96985 49.32699,77.31097 -7.48784,35.34113 -41.70317,58.02121 -76.44485,50.65931 -34.74171,-7.3619 -56.81481,-41.97011 -49.32446,-77.31122 7.2536,-34.23623 39.63285,-56.66847 73.23361,-51.33909 z m 162.05995,3.21097 c 34.74169,7.36216 56.81479,41.97012 49.32444,77.31125 -7.48783,35.34111 -41.70062,58.02119 -76.44232,50.65929 -34.74169,-7.36189 -56.81479,-41.97009 -49.32695,-77.31122 7.49034,-35.34088 41.70313,-58.02121 76.44483,-50.65932 z m 7.45508,-27.10552 c -39.97033,-8.46984 -79.44702,11.48485 -97.95375,46.38876 -11.67124,-24.20333 -33.76199,-42.8826 -61.77901,-48.81972 -43.70542,-9.26118 -86.87439,15.60152 -102.62829,56.70045 l -11.75688,4.40428 c -4.68712,24.9292 -4.97172,43.96484 -2.79565,59.75401 l 14.88751,2.96188 c 10.73682,27.12795 34.09189,48.41271 64.43358,54.84273 39.96781,8.46757 79.44705,-11.48486 97.95126,-46.39027 11.67375,24.20383 33.76449,42.88184 61.78149,48.82073 43.19667,9.15261 85.84428,-15.04618 102.04146,-55.29356 l 13.01365,-1.74288 c 3.23139,-15.6053 4.25142,-34.50998 1.25175,-59.69608 l -13.71382,-6.25874 c -10.58572,-27.51555 -34.08938,-49.17812 -64.7333,-55.67159 z" />
    <path
       inkscape:connector-curvature="0"
       style="fill:#000000;stroke:none;stroke-linejoin:round"
       label="Layer_2* (J): 1 (J)"
       id="path3364"
       d="m 249.60624,675.12018 c 0,8.79499 -7.13018,15.92517 -15.92517,15.92517 -8.7975,0 -15.92768,-7.13018 -15.92768,-15.92517 0,-8.7975 7.13018,-15.92767 15.92768,-15.92767 8.79499,0 15.92517,7.13017 15.92517,15.92767 z m 211.42973,0 c 0,8.79499 -7.13018,15.92266 -15.92265,15.92266 -8.79497,0 -15.92517,-7.12767 -15.92517,-15.92266 0,-8.79498 7.1302,-15.92516 15.92517,-15.92516 8.79247,0 15.92265,7.13018 15.92265,15.92516 z" />
  </g>
</svg>
