<?xml version="1.0" encoding="UTF-8" standalone="no"?>
<!-- Created with Inkscape (http://www.inkscape.org/) -->

<svg
   xmlns:dc="http://purl.org/dc/elements/1.1/"
   xmlns:cc="http://creativecommons.org/ns#"
   xmlns:rdf="http://www.w3.org/1999/02/22-rdf-syntax-ns#"
   xmlns:svg="http://www.w3.org/2000/svg"
   xmlns="http://www.w3.org/2000/svg"
   xmlns:sodipodi="http://sodipodi.sourceforge.net/DTD/sodipodi-0.dtd"
   xmlns:inkscape="http://www.inkscape.org/namespaces/inkscape"
   width="210mm"
   height="297mm"
   viewBox="0 0 744.09448819 1052.3622047"
   id="svg3506"
   version="1.1"
   inkscape:version="0.91pre4 r13712"
   sodipodi:docname="minion3.svg">
  <defs
     id="defs3508" />
  <sodipodi:namedview
     id="base"
     pagecolor="#ffffff"
     bordercolor="#666666"
     borderopacity="1.0"
     inkscape:pageopacity="0.0"
     inkscape:pageshadow="2"
     inkscape:zoom="0.35"
     inkscape:cx="-55"
     inkscape:cy="520"
     inkscape:document-units="px"
     inkscape:current-layer="layer1"
     showgrid="false"
     inkscape:window-width="1366"
     inkscape:window-height="715"
     inkscape:window-x="-8"
     inkscape:window-y="-8"
     inkscape:window-maximized="1" />
  <metadata
     id="metadata3511">
    <rdf:RDF>
      <cc:Work
         rdf:about="">
        <dc:format>image/svg+xml</dc:format>
        <dc:type
           rdf:resource="http://purl.org/dc/dcmitype/StillImage" />
        <dc:title></dc:title>
      </cc:Work>
    </rdf:RDF>
  </metadata>
  <g
     inkscape:label="Layer 1"
     inkscape:groupmode="layer"
     id="layer1">
    <path
       inkscape:connector-curvature="0"
       style="fill:#000000;stroke:none;stroke-linejoin:round"
       label="Layer 1* (23) (J) (3) (J)"
       id="Layer 1* (23) (J) (3) (J)"
       d="m 613.30493,669.26651 c 0,0 -10.4682,7.86483 -15.8836,11.62118 -1.59123,1.10343 -3.54505,2.44945 -5.32149,3.652 l -5.39975,-10.1917 c 0,0 -0.10176,0.026 -0.10432,0.0287 0,0 -0.69387,0.29216 -1.4034,0.5817 -0.21129,0.0861 -0.16434,0.0522 -0.42519,0.15913 -0.8765,0.36259 -2.04513,0.84778 -3.30768,1.40341 -0.47998,0.20869 -0.94691,0.40433 -1.45558,0.63389 -0.41738,0.18781 -0.81649,0.38607 -1.24429,0.58171 -0.68084,0.31563 -1.35385,0.64432 -2.03991,0.98083 -0.74344,0.36259 -1.48428,0.70952 -2.19641,1.08515 -0.52433,0.27652 -0.99387,0.57129 -1.48167,0.84779 -0.19042,0.107 -0.39911,0.20869 -0.58172,0.31564 -0.0938,0.0548 -0.20347,0.107 -0.29216,0.15912 0.0756,-1.13734 0.12783,-2.27206 0.18521,-3.41461 0.0157,-0.29216 0.0392,-0.57911 0.0522,-0.87388 0.011,-0.21129 0.0183,-0.42259 0.0261,-0.63388 0.0522,-1.21821 0.0783,-2.45466 0.107,-3.68069 2.01122,-1.15821 4.27806,-1.65906 6.69621,-1.82601 2.68944,-0.18781 5.54843,-0.10432 8.15439,-0.37042 8.60047,-0.88169 25.91617,-1.05907 25.91617,-1.05907 z M 117.07098,662.7555 c 0,0 17.31571,0.17739 25.91616,1.05909 2.60596,0.26607 5.46497,0.18259 8.1518,0.37042 2.68683,0.1852 5.18845,0.7643 7.35877,2.22249 0.91562,0.61563 1.70862,1.35647 2.38424,2.19643 0.002,0.005 -0.005,0.0208 0,0.0261 0.005,1.32776 0.0208,2.65291 0.0522,3.97285 0.0313,1.31733 0.0756,2.63205 0.13304,3.94416 -0.37825,-0.27911 -0.7591,-0.55301 -1.13995,-0.8217 -0.0183,-0.013 -0.034,-0.0391 -0.0522,-0.0522 -0.28695,-0.20347 -0.59997,-0.40172 -0.92604,-0.61041 -0.0208,-0.011 -0.034,-0.0391 -0.0548,-0.0522 -0.3339,-0.2113 -0.68867,-0.41998 -1.05648,-0.63388 -0.0183,-0.0109 -0.0365,-0.0182 -0.0548,-0.0287 -0.75909,-0.44084 -1.58079,-0.88431 -2.43379,-1.32254 -0.0183,-0.007 -0.0365,-0.0183 -0.0548,-0.026 -0.84779,-0.43563 -1.74252,-0.8817 -2.61901,-1.29647 -0.026,-0.013 -0.0548,-0.0157 -0.0808,-0.0261 -0.87387,-0.41476 -1.72948,-0.8217 -2.56683,-1.19212 -0.026,-0.013 -0.0522,-0.0156 -0.0783,-0.0261 -0.83474,-0.3704 -1.62775,-0.72256 -2.35815,-1.03298 -2.23816,-0.95735 -3.81113,-1.58862 -3.81113,-1.58862 l -0.026,0.026 c -0.002,0 -0.0808,-0.026 -0.0808,-0.026 l -5.39975,10.19169 c -1.77382,-1.20255 -3.72764,-2.54858 -5.31887,-3.652 -5.4154,-3.75635 -15.8836,-11.62119 -15.8836,-11.62119 z m 222.6234,-547.88036 c 20.64425,12.99768 27.46306,34.87776 27.69001,64.45792 -0.2113,-5.1e-4 -0.4226,0 -0.6365,0 -1.33298,0 -2.66596,0.0279 -3.99633,0.053 -1.17125,0.0235 -2.32946,0.0646 -3.49287,0.1059 -0.15913,0.005 -0.31825,-0.005 -0.47737,0 0.79561,-0.0324 1.5834,-0.0847 2.38162,-0.1059 -0.29999,-11.52102 -0.53215,-23.99678 -5.16237,-32.85106 -8.6135,-16.47467 -20.70426,-25.45155 -30.52032,-26.31259 18.27308,16.30663 21.18425,34.97905 23.79804,59.82544 0.52692,-0.0436 1.06169,-0.0655 1.58861,-0.10591 -1.87296,0.14165 -3.73026,0.31225 -5.58496,0.50294 -1.55731,0.16017 -3.11463,0.3352 -4.6589,0.52954 -0.6391,0.0801 -1.27299,0.17895 -1.90686,0.26477 -1.19476,0.1612 -2.38687,0.32137 -3.57378,0.50293 -0.46694,0.0714 -0.93648,0.13694 -1.4034,0.21182 -1.41647,0.22668 -2.8277,0.48571 -4.23633,0.74109 -0.21913,0.0399 -0.44085,0.0652 -0.65996,0.1059 -1.8234,-13.12451 -7.3301,-25.22593 -15.0619,-35.2071 -10.69254,-15.13233 -21.98505,-23.53116 -42.40757,-26.6566 13.88022,9.41623 26.23964,22.38636 34.49055,35.7099 5.72321,9.57503 9.19,18.69408 11.01339,28.72143 -1.033,0.25511 -2.0712,0.52406 -3.09637,0.79431 -0.3913,0.10249 -0.77736,0.21285 -1.16603,0.31772 -1.13212,0.30547 -2.26164,0.60206 -3.38855,0.9263 -0.107,0.031 -0.21128,0.0749 -0.31824,0.10591 -1.42949,0.41476 -2.84334,0.82638 -4.25979,1.27089 -0.0548,0.0157 -0.107,0.036 -0.15912,0.0527 -0.95474,0.29972 -1.9121,0.61328 -2.85901,0.92657 -0.5504,0.18182 -1.0956,0.36963 -1.64078,0.55589 -2.44163,0.8303 -4.85717,1.70208 -7.25444,2.62057 -7.424,-9.15584 -13.81761,-16.2715 -23.50585,-23.98296 -10.283,-7.79049 -24.14233,-13.50561 -35.76353,-13.10337 -3.25289,0.11247 -6.32579,0.72361 -9.10652,1.87946 28.65778,7.31132 45.38394,25.3462 56.49123,40.21011 -0.96517,0.44085 -1.93033,0.89499 -2.88507,1.34993 -0.57389,0.27364 -1.15038,0.54207 -1.72166,0.82067 -3.19289,1.55783 -6.32578,3.20827 -9.42477,4.92368 -1.14255,0.63335 -2.28511,1.27793 -3.41462,1.93242 -1.12691,0.65241 -2.2486,1.31237 -3.35984,1.98538 -1.12169,0.67771 -2.23034,1.36637 -3.33637,2.06469 -1.10081,0.6944 -2.19641,1.40342 -3.28158,2.1179 -3.4694,-4.53813 -7.64573,-8.26161 -12.70635,-13.10338 -16.08707,-11.90553 -27.55957,-15.71169 -40.13289,-15.93577 -5.71278,-0.10201 -11.64207,0.5405 -18.34349,1.4822 28.22215,7.4086 45.59786,16.61243 60.09108,35.36597 -0.43563,0.32946 -0.86605,0.67014 -1.29907,1.00587 -0.95212,0.73378 -1.89122,1.47357 -2.8303,2.22354 -6.1458,-5.15897 -12.98287,-9.28181 -19.85385,-11.25025 -5.70494,-1.25941 -11.61857,-2.41971 -17.36526,-2.46196 -5.7493,-0.042 -11.33163,1.0129 -16.36096,4.15623 26.16398,2.32033 37.88951,8.67585 45.63697,16.20027 0.32606,-0.28668 0.65214,-0.56293 0.98083,-0.84699 -0.44347,0.38606 -0.88432,0.775 -1.32516,1.16473 -0.6704,0.5971 -1.34603,1.19446 -2.01121,1.80017 -0.6965,0.63467 -1.37733,1.28811 -2.066,1.93242 -0.51388,0.48234 -1.02517,0.96805 -1.53383,1.45585 -0.24521,0.23295 -0.49825,0.45415 -0.74084,0.68815 -4.71108,-2.85795 -9.42477,-5.46027 -13.8463,-6.16772 -3.88677,-0.62214 -8.25092,-1.00351 -12.57332,-0.97925 -7.20488,0.0397 -14.3028,1.22499 -19.00606,4.42048 15.60187,-0.50528 28.40475,2.65606 39.36336,8.81489 -0.83214,0.87335 -1.64601,1.75948 -2.46249,2.64718 -0.1226,0.13356 -0.24781,0.26347 -0.37042,0.39729 -4.03285,4.41136 -7.87528,9.01157 -11.51424,13.76517 -1.88078,2.45388 -3.712,4.95133 -5.48061,7.49131 -0.70953,1.0189 -1.39819,2.03833 -2.09207,3.0708 -0.31824,0.47502 -0.63649,0.95135 -0.95213,1.42949 -0.1226,0.18653 -0.24781,0.3686 -0.37042,0.55563 -0.58171,0.89188 -1.15038,1.79887 -1.72166,2.70014 -0.8217,1.30376 -1.64078,2.62083 -2.43379,3.94416 -1.40342,2.33911 -2.76509,4.69595 -4.0772,7.09454 -0.11479,0.21259 -0.22955,0.42206 -0.34433,0.63519 -0.33651,0.62239 -0.67302,1.25341 -1.00431,1.87946 -0.32607,0.61354 -0.66257,1.23569 -0.98082,1.85313 -0.13564,0.26191 -0.26347,0.53137 -0.3965,0.79406 -0.50346,0.98447 -0.99648,1.97103 -1.48167,2.9649 -0.20086,0.40511 -0.38607,0.81075 -0.58433,1.21769 -0.67822,1.40679 -1.33819,2.81046 -1.98511,4.23527 -0.56085,1.23803 -1.10343,2.48153 -1.6408,3.7326 -0.16173,0.37695 -0.31563,0.76015 -0.47737,1.13813 -0.36259,0.86056 -0.73039,1.72791 -1.08515,2.59421 -0.27391,0.67146 -0.55303,1.33691 -0.8191,2.012 -0.28173,0.71005 -0.5478,1.43002 -0.8217,2.14398 -0.22695,0.5932 -0.46694,1.17804 -0.68867,1.77358 -0.0705,0.19382 -0.14086,0.38868 -0.21129,0.58249 -0.43042,1.16837 -0.83474,2.34223 -1.24429,3.52079 -0.5165,1.49106 -1.02517,2.99333 -1.50775,4.50004 -0.4852,1.50359 -0.95474,3.00795 -1.40342,4.52667 -0.36519,1.22811 -0.71735,2.44188 -1.05908,3.67964 -0.0835,0.29973 -0.1565,0.59972 -0.23738,0.89996 -0.35997,1.32594 -0.72518,2.66049 -1.05907,3.99711 -0.22435,0.89371 -0.42521,1.80175 -0.63649,2.70014 -0.0991,0.42233 -0.19304,0.84726 -0.28956,1.27063 -0.20086,0.87049 -0.3965,1.74592 -0.58432,2.62058 -0.18,0.84518 -0.35738,1.69217 -0.52954,2.54128 -0.0991,0.49405 -0.19303,0.98708 -0.28955,1.48244 -0.26868,1.37863 -0.52954,2.76743 -0.76953,4.15597 -0.2739,1.59072 -0.52694,3.18821 -0.76692,4.79144 -0.23738,1.60114 -0.45911,3.20437 -0.65996,4.81776 -0.20347,1.62097 -0.3939,3.23803 -0.55825,4.87048 -0.66258,0.0657 -1.80252,0.17894 -2.40771,0.23841 -2.76247,0.27077 -4.17893,4.09181 -4.63282,6.82951 -0.71475,4.31719 3.15637,8.24047 3.52157,12.59941 0.57389,6.88141 -6.68055,18.54172 2.45989,21.39028 l 0,156.12828 c -0.37042,-0.74606 -0.81909,-1.6408 -0.81909,-1.6408 -2.27468,8.01615 -3.15117,33.02713 -0.47737,40.42244 0.2165,0.59475 0.42519,1.15559 0.63649,1.69296 0.002,0.0109 0.0208,0.0157 0.026,0.026 0.20607,0.52693 0.40171,1.03039 0.6078,1.51036 0.007,0.0157 0.0208,0.034 0.026,0.0522 l 0,6.85534 c -7.32748,2.88247 -22.71806,8.8874 -30.25683,11.43597 -10.60646,3.58679 -22.03984,4.96933 -32.001971,10.05865 -5.347574,2.73118 -10.716016,6.09624 -14.4541,10.77341 -3.560701,4.45544 -6.286658,9.95171 -7.014451,15.59405 -0.774745,12.03073 6.226662,20.95465 14.981032,27.31696 7.630073,5.54061 14.55583,8.47265 23.21629,12.2316 3.37028,1.4608 6.79794,2.76769 10.24387,4.0485 l -4.71108,8.97349 15.88359,4.44761 0.34434,1.88079 0.65996,3.97024 c -0.0835,-0.0626 -0.82691,-0.62083 -1.98512,-1.35124 -0.19043,-0.1226 -0.40173,-0.26868 -0.6078,-0.3965 -0.20347,-0.12003 -0.3939,-0.22173 -0.6104,-0.34434 -0.46694,-0.27128 -0.94952,-0.51909 -1.45559,-0.76691 -0.011,-0.005 -0.0157,-0.0209 -0.0261,-0.026 -1.48166,-0.71997 -3.05725,-1.25994 -4.28849,-1.11386 -3.67026,0.43824 -7.0875,3.4094 -8.73611,6.69882 -0.013,0.0261 -0.0392,0.0522 -0.0522,0.0783 -0.14609,0.29999 -0.26868,0.61823 -0.3965,0.92605 -1.13473,2.72596 -1.47123,5.77538 -1.27038,8.84306 0.0209,0.3626 0.0678,0.72257 0.10432,1.08516 0.002,0.0183 0,0.0365 0,0.0522 0.0392,0.36259 0.0835,0.72518 0.13304,1.08517 0.002,0.0183 -0.002,0.0365 0,0.0548 0.0522,0.35999 0.1226,0.72518 0.1852,1.08517 0.0495,0.26868 0.10433,0.52693 0.15913,0.79301 0.24781,1.22341 0.54259,2.42857 0.89996,3.57374 0.12002,0.38607 0.25824,0.77475 0.3965,1.16603 0.005,0.011 0.0235,0.0157 0.026,0.0261 0.13564,0.37825 0.24782,0.75648 0.39911,1.13733 0.002,0.011 0.0208,0.0157 0.0261,0.026 0.1513,0.38085 0.30781,0.7591 0.47737,1.13995 0.002,0.0109 0.0208,0.0157 0.026,0.0261 0.16695,0.37824 0.34433,0.7617 0.52954,1.13734 0.005,0.0109 0.0208,0.0157 0.0261,0.026 0.18521,0.37563 0.35476,0.76953 0.55563,1.13994 0.005,0.011 0.0208,0.0157 0.026,0.0261 2.27988,4.17632 5.55886,7.92224 9.68824,9.58129 0.52692,0.2139 1.04863,0.35477 1.56252,0.4252 3.61548,0.5478 6.92577,-2.07382 10.90644,-2.54336 7.17097,-0.84257 15.08277,1.96947 21.65377,-1.00431 1.58861,-0.71996 3.10941,-1.64078 4.55196,-2.69987 0.59214,1.56775 1.1895,3.09638 1.7999,4.60414 0.52434,1.29384 1.04343,2.56422 1.58863,3.81372 0.21652,0.49563 0.44085,0.99126 0.66258,1.48168 0.10432,0.22955 0.21129,0.45911 0.31824,0.68866 0.44606,0.9756 0.90517,1.93556 1.37471,2.88508 0.005,0.0109 0.0209,0.0157 0.026,0.0261 0.013,0.0443 0.0157,0.0887 0.0287,0.13303 0.28433,1.02517 0.59736,2.05034 0.92603,3.0703 0.0183,0.06 0.0313,0.12521 0.0522,0.18521 0.32086,0.99386 0.67301,1.97729 1.03299,2.96594 0.0183,0.0522 0.034,0.10432 0.0522,0.15652 0.38085,1.03821 0.79562,2.0686 1.21821,3.09898 0.40694,0.99647 0.8243,2.00338 1.27038,2.99203 0.0418,0.0887 0.0913,0.17478 0.13303,0.26347 0.0313,0.0678 0.047,0.14347 0.0783,0.2113 0.91821,2.00598 1.91991,3.98328 2.99203,5.95536 1.68775,3.10159 3.5607,6.14841 5.61104,9.16131 0.67822,0.99647 1.37471,2.00338 2.09207,2.98943 0.72258,0.99386 1.46341,1.98251 2.22251,2.96594 0.76431,0.98604 1.53123,1.96426 2.32945,2.93726 0.14609,0.17738 0.27912,0.35476 0.4252,0.52953 1.45819,1.76079 2.99986,3.49549 4.57804,5.21453 0.86605,0.94431 1.74775,1.87818 2.64771,2.80683 0.90256,0.93388 1.81556,1.85991 2.75204,2.78073 1.73209,1.69819 3.50592,3.37811 5.34757,5.02933 0.14869,0.13043 0.30259,0.26347 0.45128,0.39651 0.007,0.007 0.0157,0.0183 0.026,0.026 0.93648,0.83213 1.89644,1.66948 2.85901,2.48858 0.19041,0.16173 0.39128,0.31563 0.5817,0.47737 0.56085,0.47214 1.12691,0.93386 1.69557,1.4008 0.56346,0.46433 1.11908,0.9443 1.69297,1.40341 0.0783,0.0652 0.15912,0.12261 0.23738,0.18521 0.77214,0.61823 1.54427,1.21821 2.32945,1.82861 0.98605,0.7591 1.98513,1.52601 2.99204,2.27467 0.11211,0.0835 0.23216,0.15652 0.34433,0.23999 0.79562,0.58693 1.59905,1.16603 2.41031,1.74514 0.52955,0.38085 1.05126,0.76431 1.58602,1.13995 0.95474,0.66778 1.91469,1.32776 2.88769,1.98511 1.17386,0.79301 2.3712,1.5782 3.57113,2.35555 1.14517,0.74084 2.27468,1.47384 3.44332,2.19641 0.06,0.0392 0.12261,0.0678 0.18521,0.107 0.93386,0.57651 1.88339,1.153 2.8329,1.71906 0.29739,0.17998 0.59998,0.35216 0.89996,0.52954 1.25473,0.74344 2.53032,1.47383 3.81113,2.19902 0.48259,0.27129 0.97039,0.55041 1.45558,0.81909 0.80083,0.44607 1.59906,0.88691 2.41033,1.32516 2.3451,1.26776 4.72672,2.5277 7.14488,3.73026 0.25564,0.12781 0.51128,0.2452 0.76952,0.37302 1.18951,0.58694 2.39206,1.14777 3.59983,1.71906 0.15912,0.0756 0.31564,0.16172 0.47476,0.23738 l 5.45453,27.95606 c 0.0652,0.2739 0.14869,0.54258 0.26347,0.81909 0.0156,0.0365 0.0391,0.0705 0.0548,0.107 0.11224,0.25825 0.23999,0.53476 0.39651,0.79301 0.013,0.0208 0.0391,0.0338 0.0522,0.0548 0.0208,0.0313 0.0313,0.0705 0.0522,0.10432 0.15651,0.24782 0.33911,0.49301 0.53215,0.74083 0.19824,0.25825 0.42259,0.51128 0.65996,0.76952 0.0808,0.0861 0.15391,0.17739 0.23738,0.26347 0.0365,0.0365 0.0705,0.0678 0.107,0.107 0.20347,0.20609 0.40694,0.40173 0.63649,0.6078 0.27912,0.25564 0.58432,0.51389 0.89996,0.76693 0.0522,0.0443 0.10177,0.0887 0.15912,0.13303 0.16956,0.13564 0.34956,0.26347 0.52954,0.39651 0.2113,0.16172 0.40955,0.31824 0.63389,0.47737 0.0783,0.0548 0.15912,0.10432 0.23738,0.15912 0.60258,0.41476 1.24951,0.83213 1.93295,1.24429 0.6678,0.39911 1.35124,0.79822 2.09208,1.1895 0.0365,0.0208 0.0705,0.034 0.10432,0.0548 0.7617,0.40173 1.57818,0.79823 2.41031,1.18951 1.68254,0.79562 3.48767,1.55992 5.42583,2.30337 0.73562,0.28172 1.48428,0.57388 2.2512,0.84778 0.24782,0.0887 0.48781,0.17739 0.74084,0.26347 0.13304,0.047 0.26347,0.0887 0.39651,0.13304 -3.74071,0.37564 -8.68916,1.00169 -11.85858,1.8547 -4.60674,1.23646 -9.53694,2.42336 -13.18372,5.478 -3.47723,2.91639 -5.76234,7.23879 -7.30661,11.48815 -1.38516,3.81895 -1.48949,8.01093 -1.55993,12.07247 -0.0548,3.03899 0.87387,9.05175 0.87387,9.05175 0,0 14.46192,2.05816 21.7581,2.30337 7.10576,0.23999 14.30281,0.0835 21.3616,-0.74083 5.66321,-0.65998 11.30294,-1.5808 16.7053,-3.38855 5.37105,-1.7973 15.35405,-7.38486 15.35405,-7.38486 l 24.88059,-1.79992 c 0,0 1.24951,-12.70635 0.63649,-19.06083 -0.17738,-1.83905 -0.59997,-4.13198 -1.11125,-6.45883 0.45911,-0.16956 0.90256,-0.34434 1.34864,-0.52953 0.0183,-0.007 0.0365,-0.0183 0.0548,-0.0261 0.44346,-0.18521 0.89214,-0.38347 1.32256,-0.58172 0.0183,-0.007 0.0365,-0.0183 0.0522,-0.026 0.0183,-0.007 0.0365,-0.0183 0.0548,-0.0261 0.87388,-0.40433 1.72687,-0.83735 2.54075,-1.29907 l -1.32516,-17.76176 c 1.71644,0.10432 3.44593,0.19564 5.16237,0.26607 0.32086,0.013 0.63388,0.013 0.95473,0.0261 1.49211,0.0548 2.97639,0.10432 4.4737,0.13304 0.81127,0.013 1.62254,0.0183 2.43381,0.0261 1.55992,0.013 3.12506,0.0156 4.685,0 1.96685,-0.0209 3.93893,-0.0652 5.90319,-0.13304 l -1.21559,15.19494 c 1.05908,0.41475 2.20424,0.81387 3.38853,1.1895 0.30781,0.10176 0.6078,0.19564 0.92604,0.29216 0.2113,0.0652 0.41737,0.12002 0.63389,0.18521 -0.8843,3.24768 -1.77123,6.89706 -2.11816,9.82127 -0.74605,6.33883 0.23998,19.11301 0.23998,19.11301 l 24.90926,2.32946 c 0,0 9.75607,5.83798 15.08798,7.75528 5.36323,1.93035 11.05514,2.94508 16.7027,3.73286 7.04053,0.98344 14.20367,1.29647 21.30942,1.21821 7.30139,-0.0835 21.76071,-1.79991 21.76071,-1.79991 0,0 1.1269,-5.98668 1.13734,-9.02828 0.0157,-4.06154 -0.0443,-8.30047 -1.34863,-12.15072 -1.45297,-4.28328 -3.62852,-8.62655 -7.04315,-11.62119 -3.57896,-3.13551 -8.52221,-4.40327 -13.10286,-5.74408 -3.89981,-1.13995 -10.72384,-2.01903 -14.29497,-2.43379 0.19824,-0.0522 0.38868,-0.107 0.58432,-0.15913 0.2139,-0.06 0.41997,-0.12521 0.63388,-0.18521 0.72257,-0.20346 1.43994,-0.41476 2.14424,-0.63649 0.90779,-0.28172 1.79732,-0.55823 2.6738,-0.87387 0.0183,-0.005 0.034,-0.0183 0.0522,-0.0261 0.77735,-0.27651 1.526,-0.57127 2.27727,-0.87387 0.10956,-0.0418 0.2113,-0.0861 0.31825,-0.13042 0.76432,-0.31304 1.51559,-0.64172 2.2512,-0.98083 0.84257,-0.38867 1.65906,-0.79301 2.45988,-1.2182 0.80344,-0.42259 1.59645,-0.86084 2.35555,-1.32255 0.034,-0.0208 0.073,-0.0313 0.107,-0.0522 0.12521,-0.0783 0.24519,-0.16172 0.37042,-0.23998 0.4904,-0.3052 0.96256,-0.63127 1.42949,-0.95213 0.10955,-0.0756 0.23477,-0.13565 0.34433,-0.21129 0.3339,-0.23477 0.65737,-0.47216 0.97822,-0.71475 0.011,-0.007 0.0183,-0.0183 0.0287,-0.026 0.3313,-0.25043 0.65737,-0.50868 0.97822,-0.76953 l 6.01015,-33.03495 c 0.23999,-0.13044 0.47476,-0.26609 0.71475,-0.39651 0.88431,-0.49042 1.76862,-0.97822 2.64509,-1.48428 0.97561,-0.56085 1.97208,-1.13994 2.93986,-1.71905 0.14086,-0.0861 0.28173,-0.17999 0.42259,-0.26608 1.01474,-0.61301 2.01121,-1.2182 3.01812,-1.85208 0.0913,-0.0573 0.17477,-0.12782 0.26608,-0.18521 1.04864,-0.66518 2.11032,-1.32255 3.14854,-2.01121 0.047,-0.0313 0.0861,-0.0756 0.13304,-0.107 2.05556,-1.36428 4.07719,-2.77552 6.08841,-4.23632 0.11211,-0.0808 0.22955,-0.15391 0.34433,-0.23738 0.034,-0.0261 0.0705,-0.0522 0.10432,-0.0783 1.03299,-0.75387 2.05295,-1.52601 3.07289,-2.30336 0.0678,-0.0548 0.14087,-0.107 0.2113,-0.15913 0.97299,-0.74606 1.9486,-1.50776 2.91116,-2.27728 0.11223,-0.0887 0.23217,-0.17478 0.34433,-0.26347 0.92344,-0.74084 1.84166,-1.48949 2.75206,-2.25119 0.14867,-0.12522 0.30259,-0.24521 0.45128,-0.37042 0.86865,-0.73041 1.7347,-1.47385 2.59291,-2.22251 0.18782,-0.16433 0.37042,-0.33911 0.55563,-0.50346 0.8217,-0.72256 1.62514,-1.45557 2.43641,-2.19903 0.22173,-0.20085 0.44084,-0.40432 0.66257,-0.60778 0.76692,-0.70954 1.54428,-1.41647 2.30337,-2.14426 0.25564,-0.2452 0.51129,-0.49302 0.76693,-0.74083 0.71735,-0.69648 1.43471,-1.40602 2.14424,-2.11816 0.28955,-0.28955 0.58431,-0.5791 0.87387,-0.87387 0.6678,-0.67823 1.32255,-1.3721 1.98513,-2.06339 0.8243,-0.86343 1.64861,-1.7373 2.46248,-2.6216 0.12261,-0.13304 0.24782,-0.26347 0.37042,-0.39651 0.35216,-0.38607 0.70693,-0.77475 1.05908,-1.16603 0.57389,-0.6391 1.15038,-1.28081 1.71906,-1.93034 0.38085,-0.43564 0.7617,-0.88431 1.13995,-1.32516 0.52953,-0.61823 1.06168,-1.24951 1.586,-1.87818 0.41216,-0.4904 0.81127,-0.98603 1.21821,-1.48427 0.007,-0.007 0.0183,-0.0156 0.026,-0.026 0.84779,-1.03561 1.68252,-2.08686 2.51466,-3.14855 0.0705,-0.0887 0.14347,-0.17738 0.2139,-0.26607 0.44085,-0.56606 0.8843,-1.14516 1.32255,-1.71905 0.46171,-0.60519 0.92082,-1.21298 1.37733,-1.82861 0.3965,-0.53476 0.79561,-1.07212 1.1895,-1.61471 0.14608,-0.19824 0.27912,-0.40693 0.42519,-0.6078 0.69911,-0.97038 1.40081,-1.94599 2.08948,-2.93725 0.82953,-1.19472 1.65123,-2.4051 2.46248,-3.62851 0.81388,-1.22604 1.61471,-2.47554 2.41033,-3.73288 0.77475,-1.22602 1.54428,-2.47553 2.30076,-3.73026 0.0183,-0.0287 0.0365,-0.0522 0.0548,-0.0808 0.56345,-0.93908 1.13994,-1.87816 1.69296,-2.8329 0.20347,-0.34955 0.40694,-0.70432 0.61041,-1.05908 0.57911,-1.01213 1.15037,-2.03729 1.71905,-3.07029 0.16956,-0.30521 0.33651,-0.61823 0.50346,-0.92604 0.0287,-0.0522 0.0521,-0.107 0.0783,-0.15913 0.70954,-1.30167 1.40341,-2.61118 2.09208,-3.94415 0.60519,-1.16864 1.21038,-2.32947 1.79992,-3.51897 0.10432,-0.21129 0.2139,-0.42519 0.31824,-0.63649 0.61301,-1.24429 1.23124,-2.51727 1.826,-3.78505 0.0783,-0.16694 0.16174,-0.3365 0.23738,-0.50345 0.17998,-0.38606 0.35216,-0.77735 0.52954,-1.16342 0.4878,-1.06169 0.95474,-2.12599 1.4295,-3.20333 0.20868,-0.46954 0.40171,-0.95735 0.61041,-1.42949 1.47645,1.0956 3.05202,2.0399 4.68499,2.77812 6.57099,2.97377 14.4567,0.19044 21.62767,1.033 3.91286,0.45911 7.19966,2.9529 10.74732,2.51466 0.46171,-0.0573 0.92865,-0.14868 1.40341,-0.31825 0.0861,-0.0287 0.17738,-0.0443 0.26347,-0.0783 0.0183,-0.007 0.0365,-0.0209 0.0548,-0.0261 0.0157,-0.007 0.034,-0.0209 0.0522,-0.0287 0.71475,-0.28954 1.4008,-0.64952 2.06337,-1.05646 0.0183,-0.011 0.0365,-0.0183 0.0548,-0.0287 0.33128,-0.20347 0.65996,-0.43042 0.97821,-0.65997 0.0157,-0.013 0.0365,-0.0157 0.0522,-0.0261 0.31824,-0.23478 0.62345,-0.4852 0.92865,-0.74344 0.013,-0.011 0.0365,-0.013 0.0522,-0.0261 0.30259,-0.25564 0.58432,-0.53998 0.87387,-0.8191 0.013,-0.013 0.0391,-0.013 0.0522,-0.0261 0.29476,-0.28433 0.56866,-0.57127 0.84778,-0.87387 0.007,-0.011 0.0183,-0.0183 0.0261,-0.026 0.27911,-0.3052 0.55563,-0.63127 0.81909,-0.95474 0.011,-0.007 0.0209,-0.0157 0.0287,-0.0261 0.25825,-0.31825 0.52172,-0.64694 0.76692,-0.97822 0.0109,-0.0157 0.0157,-0.0392 0.026,-0.0548 0.13565,-0.1826 0.26607,-0.36781 0.3965,-0.55562 0.11735,-0.16435 0.23216,-0.3339 0.34433,-0.50346 0.23478,-0.34955 0.44346,-0.69649 0.66258,-1.05908 0.005,-0.007 0.0208,-0.0157 0.0261,-0.026 0.21912,-0.35999 0.43302,-0.74084 0.63649,-1.11126 0.005,-0.0109 0.0208,-0.0157 0.0261,-0.0261 0.0626,-0.11479 0.12521,-0.22955 0.18521,-0.34433 0.32868,-0.62084 0.61563,-1.2469 0.89996,-1.87816 0.0157,-0.0365 0.0365,-0.0705 0.0522,-0.107 0.16433,-0.37303 0.32606,-0.73824 0.47737,-1.11126 0.007,-0.0183 0.0183,-0.0365 0.0261,-0.0522 0.1513,-0.38346 0.28694,-0.7591 0.42258,-1.13995 0.002,-0.007 -0.002,-0.0183 0,-0.0261 0.13565,-0.38085 0.27912,-0.73561 0.3965,-1.11124 0.005,-0.0157 -0.002,-0.0365 0,-0.0548 0.12003,-0.37563 0.2113,-0.77474 0.31825,-1.16341 0.0913,-0.32868 0.20869,-0.64432 0.29216,-0.97822 0.17478,-0.71475 0.32086,-1.43994 0.44868,-2.17294 0.005,-0.0156 -0.002,-0.034 0,-0.0522 0.0652,-0.35737 0.13564,-0.72518 0.18781,-1.08515 0,-0.0183 -0.005,-0.0365 0,-0.0522 0.10432,-0.73824 0.18783,-1.4582 0.23738,-2.19903 0,-0.026 -0.002,-0.0522 0,-0.0783 0.18782,-3.0416 -0.14607,-6.08842 -1.27038,-8.78828 -0.12521,-0.30259 -0.25302,-0.6078 -0.39911,-0.89996 -0.0157,-0.034 -0.034,-0.0705 -0.0522,-0.107 -0.18781,-0.37563 -0.40171,-0.74605 -0.63387,-1.11126 -1.79992,-2.82247 -4.84934,-5.19888 -8.10223,-5.58494 -2.04774,-0.24521 -5.02933,1.38776 -6.98836,2.64769 -0.0183,0.011 -0.034,0.0392 -0.0522,0.0522 -0.36259,0.23477 -0.70432,0.44345 -0.97822,0.63649 -0.58432,0.3965 -0.89996,0.64432 -0.95474,0.68606 l 0.63649,-3.91809 0.37042,-1.95642 15.8836,-4.44762 -4.7137,-8.97348 c 3.44854,-1.28342 6.8762,-2.59032 10.24648,-4.05111 8.65785,-3.75635 15.58622,-6.68839 23.21369,-12.229 8.75436,-6.36491 15.75837,-15.28883 14.98364,-27.31957 -0.7278,-5.64235 -3.45636,-11.13861 -7.01446,-15.59144 -3.73809,-4.67978 -9.10652,-8.04223 -14.4541,-10.7734 -9.96474,-5.08933 -21.39812,-6.47187 -32.00456,-10.05866 -6.6623,-2.25381 -19.20171,-7.10575 -27.16046,-10.22038 l 0,-1.58602 c 0.50345,-0.68084 1.00951,-1.37211 1.51036,-2.06598 0,0 3.88416,-20.78772 1.93294,-27.13438 -1.43471,-4.6563 -2.54074,-16.41052 -2.54074,-16.41052 -0.29738,0.51128 -0.60258,1.00429 -0.90256,1.50775 l 0,-153.1884 c 2.18598,-0.82953 3.42244,-5.61626 3.83981,-7.96919 1.153,-6.51361 -2.64769,-11.5612 -1.13995,-17.99915 3.2216,-5.01629 4.00938,-7.77876 3.15116,-10.93513 -0.0783,-0.28695 -0.15912,-0.5765 -0.26346,-0.87127 -0.41998,-1.18168 -1.05386,-2.44423 -1.8547,-3.91808 -1.01212,-0.23477 -2.37119,-0.52171 -3.88938,-0.8217 -0.0705,-1.72166 -0.17999,-3.42505 -0.29216,-5.13627 -0.11211,-1.70941 -0.24259,-3.40967 -0.39651,-5.10812 -0.1539,-1.6906 -0.3365,-3.37757 -0.52954,-5.05592 -0.19564,-1.68827 -0.40171,-3.38072 -0.63649,-5.05621 -0.23216,-1.66739 -0.49301,-3.322 -0.76691,-4.97636 -0.2739,-1.6554 -0.56085,-3.30898 -0.87387,-4.95029 -0.31564,-1.65148 -0.65215,-3.28655 -1.00691,-4.92368 -0.011,-0.0527 -0.013,-0.1059 -0.026,-0.15887 -1.04604,-4.82819 -2.24859,-9.60085 -3.62592,-14.29445 -0.40433,-1.38228 -0.83735,-2.75961 -1.27037,-4.12963 -0.0626,-0.19512 -0.12261,-0.38711 -0.18521,-0.58223 -0.002,-0.007 0.002,-0.0183 0,-0.0267 -0.50085,-1.56254 -1.02517,-3.1128 -1.56254,-4.65891 -0.0808,-0.23738 -0.1539,-0.47762 -0.23738,-0.71475 -0.4591,-1.30898 -0.91821,-2.6211 -1.40341,-3.91782 -0.24781,-0.66753 -0.51128,-1.32098 -0.76692,-1.98511 -0.3339,-0.86084 -0.66518,-1.71306 -1.00691,-2.56788 -0.0443,-0.11406 -0.0861,-0.23035 -0.13304,-0.34408 -0.56345,-1.40314 -1.15037,-2.79508 -1.74513,-4.18258 -0.22955,-0.53293 -0.4565,-1.05752 -0.68866,-1.58836 -0.42259,-0.96047 -0.83475,-1.90608 -1.27038,-2.85873 -0.43042,-0.93778 -0.8817,-1.87609 -1.32515,-2.80604 -0.25564,-0.53842 -0.50606,-1.07891 -0.76693,-1.61471 -0.19303,-0.39859 -0.38606,-0.79431 -0.58171,-1.19133 -0.52172,-1.05335 -1.05124,-2.10696 -1.58861,-3.15012 -0.41216,-0.80031 -0.84779,-1.58835 -1.27038,-2.38241 -0.4878,-0.91247 -0.98343,-1.82234 -1.48428,-2.72648 -0.63127,-1.14412 -1.25211,-2.28432 -1.90425,-3.41488 -0.38085,-0.65971 -0.77736,-1.30402 -1.16604,-1.95878 9.97518,-4.17371 24.08494,-1.15585 33.64537,-1.50879 0,0 -9.90475,-7.04185 -15.64361,-8.6829 -3.55026,-0.81622 -6.91272,-1.18612 -10.16561,-1.19107 -4.65108,-0.007 -9.09347,0.74866 -13.68457,2.03834 -0.21912,-0.32895 -0.44345,-0.65293 -0.66258,-0.97953 -0.20868,-0.30989 -0.42519,-0.6177 -0.63649,-0.92655 -0.48258,-0.70615 -0.96256,-1.4149 -1.45557,-2.11764 10.18124,-8.62786 21.75027,-13.49884 32.93061,-18.52999 -1.85992,-0.0934 -3.66243,-0.11504 -5.42583,-0.0796 -12.33594,0.24963 -22.39721,3.69947 -31.89762,10.95939 -0.26086,0.19825 -0.53216,0.38476 -0.79561,0.58223 -0.3626,-0.47425 -0.74345,-0.93283 -1.11126,-1.4029 -0.047,-0.0598 -0.0861,-0.12573 -0.13304,-0.18546 -0.0417,-0.0543 -0.0887,-0.10432 -0.13043,-0.15887 -0.94951,-1.20228 -1.91208,-2.39258 -2.88769,-3.57347 -0.35215,-0.43016 -0.6991,-0.86919 -1.05647,-1.29724 20.04688,-14.91035 50.51762,-8.93567 62.92137,-6.69726 0,0 -11.00034,-9.04913 -23.71713,-11.80614 -14.06021,-3.04785 -24.90926,0.92265 -37.35216,5.47958 15.27059,-22.272 51.77234,-5.9979 67.82028,-9.92692 -15.51318,-5.63791 -19.26692,-11.0387 -39.49639,-11.0914 -3.74591,-0.011 -8.04484,0.16617 -13.10287,0.55588 -11.49857,0.88615 -20.38338,11.85153 -29.06471,20.32991 -0.85039,-0.85377 -1.70601,-1.70235 -2.56943,-2.54101 -0.22695,-0.22173 -0.45911,-0.44136 -0.68867,-0.66179 -1.15299,-1.11125 -2.33989,-2.1985 -3.51896,-3.28262 -1.11648,-1.02439 -2.22251,-2.04434 -3.36246,-3.04422 -0.0705,-0.0621 -0.14086,-0.12311 -0.21129,-0.18519 -0.0626,-0.0538 -0.12521,-0.10518 -0.18521,-0.15887 -1.14516,-0.99856 -2.30337,-1.99139 -3.4694,-2.96491 -0.68084,-0.57023 -1.37472,-1.13264 -2.06337,-1.694 -0.55303,-0.4492 -1.11126,-0.90648 -1.66689,-1.35019 -0.39128,-0.31042 -0.77475,-0.61876 -1.16603,-0.92631 -0.86865,-0.68215 -1.73992,-1.34368 -2.62161,-2.01199 -0.0783,-0.0603 -0.15652,-0.12495 -0.23738,-0.18521 16.84094,-17.0911 40.71981,-26.08077 65.40994,-23.71844 -6.73794,-5.21611 -14.37584,-7.26853 -22.12851,-7.33244 -11.33425,-0.0939 -22.9137,4.03624 -32.32283,8.60307 -5.62929,3.71539 -13.9115,9.16053 -21.28333,15.14172 -0.42259,-0.28043 -0.84518,-0.56946 -1.27038,-0.84701 -0.61301,-0.40171 -1.23386,-0.79639 -1.85209,-1.19133 -0.74082,-0.47319 -1.47645,-0.93908 -2.2251,-1.40315 -0.30261,-0.18886 -0.61824,-0.36833 -0.92605,-0.55562 -0.4852,-0.29895 -0.96517,-0.6052 -1.45559,-0.90023 -0.57127,-0.34329 -1.14515,-0.69413 -1.71904,-1.03221 -0.0183,-0.011 -0.0365,-0.0157 -0.0548,-0.0266 -0.59737,-0.35164 -1.19734,-0.68657 -1.79992,-1.03248 -0.45911,-0.2645 -0.91299,-0.53292 -1.37472,-0.79404 -0.72257,-0.40746 -1.44514,-0.81857 -2.17293,-1.21768 -1.033,-0.56868 -2.07643,-1.11648 -3.12247,-1.66767 -1.42689,-0.75179 -2.86942,-1.47854 -4.31458,-2.1972 -0.107,-0.0525 -0.21129,-0.10639 -0.31825,-0.15885 -1.11907,-0.55328 -2.23032,-1.10813 -3.36244,-1.64107 10.20735,-25.01307 30.42899,-37.15572 67.66114,-49.29001 -3.51113,-0.38737 -6.91532,-0.59997 -10.19169,-0.60884 -17.69133,-0.047 -32.28108,5.52313 -47.70035,17.44483 -10.42646,8.06022 -15.86012,17.7456 -20.83467,27.6626 -1.61209,-0.64745 -3.23463,-1.27194 -4.8702,-1.87947 -1.63818,-0.60989 -3.28941,-1.20464 -4.94847,-1.77358 -1.63295,-0.55979 -3.27375,-1.12168 -4.92498,-1.6413 -0.026,-0.007 -0.0522,-0.0183 -0.0783,-0.0267 -0.026,-0.007 -0.0548,-0.0183 -0.0808,-0.026 -0.65214,-0.20477 -1.30428,-0.41085 -1.95903,-0.60911 10.03778,-21.91956 29.44295,-31.2267 43.22926,-40.87189 -15.80012,-0.0968 -27.17089,6.9928 -38.27819,15.88282 -6.97532,5.58234 -12.57853,13.05721 -16.72878,21.20378 -0.23216,0.13069 -0.50345,0.28616 -0.74344,0.42337 -0.62866,-0.14816 -1.27038,-0.28095 -1.90425,-0.42337 -0.18521,-0.0415 -0.37303,-0.0652 -0.55563,-0.1059 -1.52602,-0.33833 -3.0442,-0.67484 -4.58065,-0.97952 -1.47907,-0.2932 -2.95813,-0.58562 -4.44761,-0.847 -0.15913,-0.0279 -0.31825,-0.0519 -0.47477,-0.0792 -0.107,-0.0183 -0.2139,-0.0349 -0.31824,-0.0532 -1.54689,-0.26504 -3.1016,-0.51023 -4.65891,-0.7411 -0.23739,-0.0349 -0.47737,-0.0717 -0.71475,-0.10591 -1.43472,-0.20712 -2.87204,-0.40458 -4.31458,-0.58249 -1.55732,-0.19173 -3.11986,-0.37224 -4.6876,-0.52929 -0.12261,-0.013 -0.24521,-0.013 -0.37042,-0.0263 -0.67823,-0.0671 -1.35647,-0.12521 -2.0373,-0.18546 -0.20347,-0.0183 -0.40694,-0.0354 -0.6078,-0.053 -1.07733,-0.0918 -2.14946,-0.18912 -3.22941,-0.26476 -0.14086,-0.011 -0.28433,-0.0157 -0.4252,-0.0263 0.10432,-6.50055 -0.3965,-13.56248 -1.58862,-19.88018 -3.652,-25.54404 -19.32951,-43.61389 -39.73377,-45.05433 z" />
    <path
       inkscape:connector-curvature="0"
       style="fill:#f8e67c;stroke:none;stroke-linejoin:round"
       label="Layer 1* (7) (J) (B)"
       id="Layer 1* (7) (J) (B)"
       d="m 367.5409,626.85894 c -13.39502,-1.05386 -33.44975,-7.23617 -45.95524,-14.16716 -23.4276,-12.98025 -41.66673,-41.11371 -49.56549,-76.45725 -0.26608,-1.1869 -0.19825,-1.28081 0.75388,-1.04082 21.15292,5.30845 93.52777,3.53461 181.48361,-4.44762 9.3413,-0.84778 17.05746,-1.46602 17.14875,-1.37471 0.0913,0.0913 -0.2739,2.83552 -0.81125,6.09623 -6.13536,37.12259 -24.95361,68.1307 -48.32641,79.62928 -15.59405,7.6718 -40.01811,12.92026 -54.72785,11.76205 z m 1.32776,-238.10787 c -17.17223,-5.61364 -13.74979,-30.52264 4.18415,-30.44386 16.41574,0.0717 21.48942,22.06513 6.76142,29.31435 -3.41723,1.68252 -7.8518,2.14163 -10.94557,1.12951 z m -50.01157,509.98632 c 8.85871,1.16081 26.76398,0.0652 33.588,-2.05817 6.38578,-1.98512 8.7935,-3.35201 8.59524,-4.88325 -0.35998,-2.80682 -1.17124,-15.81055 -0.99908,-15.98533 0.0991,-0.0991 5.42061,-0.047 11.82727,0.11212 11.5038,0.28693 11.64728,0.30259 11.45685,1.23906 -0.107,0.52172 -0.31564,2.8903 -0.46694,5.26149 -0.14868,2.37119 -0.38868,5.26932 -0.53215,6.43797 l -0.26085,2.12598 4.47891,1.38776 c 27.28307,8.44917 67.05075,5.0841 82.46219,-6.97793 l 1.42689,-1.11648 2.97899,-16.42095 2.97638,-16.41836 4.29371,-2.48075 c 32.74541,-18.90432 59.04243,-48.49596 76.50682,-86.08289 l 2.50683,-5.39713 -2.77812,-2.74422 c -7.66399,-7.56747 -9.1613,-15.22884 -6.36492,-32.53151 3.50331,-21.68506 10.23082,-34.74617 20.77727,-40.34156 0.83736,-0.44347 1.01996,-0.92605 1.02517,-2.68162 0.007,-5.08931 0.44608,-6.70403 1.9773,-7.304 1.97731,-0.77475 15.74534,-1.81296 28.20128,-2.12337 l 10.4395,-0.26347 -1.31733,1.05386 c -1.04343,0.83475 -13.0272,9.60998 -18.37477,13.45501 l -1.08257,0.77736 6.24232,11.67857 c 3.43288,6.42232 6.38839,11.67859 6.56317,11.67859 1.49211,0 20.03123,-8.11788 25.1675,-11.02122 22.41807,-12.66462 28.81951,-29.06471 17.80611,-45.63175 -5.87972,-8.84567 -16.14445,-14.57932 -34.77748,-19.43387 -9.7091,-2.53031 -14.32366,-4.03546 -26.49788,-8.63698 -6.271,-2.37119 -11.96291,-4.51805 -12.64896,-4.77108 -1.48167,-0.55041 -1.5521,-1.27559 -0.35998,-3.74852 2.17294,-4.50762 3.56591,-23.55019 2.1286,-29.07775 -0.6365,-2.44424 -2.09991,-12.2629 -2.11817,-14.2089 -0.005,-0.66258 -0.0678,-0.67562 -0.44606,-0.0887 -0.28434,0.44085 -0.44085,-26.2318 -0.44607,-75.73207 l -0.007,-76.4129 1.1243,-1.33559 c 2.58249,-3.06768 3.30768,-8.25353 2.09207,-14.91843 -1.30427,-7.14227 -1.24429,-8.17266 0.72258,-12.15073 3.12507,-6.32318 2.02425,-13.09243 -2.27206,-13.99499 l -1.89382,-0.39911 -0.30521,-4.53891 C 565.68022,274.15911 492.84628,195.49891 395.79173,181.43532 281.84145,164.92358 174.84825,247.41419 162.26449,361.48184 l -0.28694,2.60962 -1.74774,0.27963 c -5.00847,0.80084 -6.58665,6.9495 -3.58157,13.96396 1.88599,4.40327 2.07381,6.89184 0.93908,12.34898 -1.41384,6.80837 -1.50514,7.65616 -1.04082,9.72476 0.43824,1.94338 2.45727,4.53108 3.53984,4.53108 0.4878,0 0.59475,13.88804 0.59475,77.86849 0,51.79582 -0.1513,77.77459 -0.45389,77.58676 -0.25043,-0.1539 -0.45911,-0.11479 -0.46171,0.0861 -0.005,0.20346 -0.31043,2.41032 -0.67824,4.90672 -1.67209,11.36033 -1.29906,29.3334 0.7304,35.16095 0.57388,1.65123 0.86344,3.7146 0.86344,6.17448 l 0,3.69635 -9.41694,3.65201 c -17.60526,6.82924 -19.56429,7.47616 -38.24167,12.62809 -14.208898,3.92069 -24.502325,9.86302 -29.701209,17.14615 -13.040253,18.27565 -4.95107,36.26959 22.183299,49.34898 8.25352,3.98067 19.84601,8.69697 20.27383,8.25091 0.18521,-0.19044 2.51726,-4.43196 5.18323,-9.42477 2.66857,-4.99281 5.43366,-10.13431 6.14841,-11.42556 l 1.29645,-2.3451 -5.31627,-3.75112 c -7.24401,-5.11021 -15.62795,-11.35773 -15.44797,-11.50642 0.0808,-0.0705 4.94586,0.0443 10.81253,0.25042 30.72638,1.08517 32.6802,1.65383 32.6802,9.52129 l 0,3.94938 3.17724,2.56683 c 9.04132,7.30662 14.31846,21.50247 16.79399,45.19092 1.08778,10.38993 -1.08256,17.42003 -7.25704,23.53713 l -3.11725,3.08334 2.50162,5.86668 c 1.37472,3.22681 3.31289,8.217 4.30154,11.08643 10.76558,31.19331 39.10771,59.51458 80.27098,80.21099 l 5.21453,2.62162 2.81987,14.45148 c 2.43381,12.48464 2.98161,14.66801 4.01981,16.02708 5.48583,7.19443 25.5301,14.3028 48.99682,17.38092 z" />
    <path
       inkscape:connector-curvature="0"
       style="fill:#ffffff;stroke:none;stroke-linejoin:round"
       label="Layer 1* (2)"
       id="Layer 1* (2)"
       d="m 471.40381,529.13921 c 0,0 -0.93387,11.47772 -5.63191,26.62571 -1.61992,0.30259 -3.16159,0.42258 -4.4424,0.13303 -3.57114,-0.80605 -8.04484,-7.47617 -8.04484,-7.47617 0,0 -6.1797,3.19289 -9.53172,3.21898 -11.36033,0.0887 -16.56181,-5.02411 -16.56181,-5.02411 0,0 -5.66061,7.14488 -18.74521,10.98209 -7.49964,2.20163 -16.42879,2.07903 -23.41715,-1.43471 -3.60505,-1.81296 -6.50578,-5.81451 -6.50578,-5.81451 0,0 -2.61119,3.91024 -5.32671,5.98667 -5.20149,3.98329 -13.5411,5.44669 -19.88776,5.33192 -10.56732,-0.19303 -23.59195,-5.91885 -23.59195,-5.91885 0,0 -3.43288,5.78843 -14.85321,8.83785 -9.66998,2.58248 -19.08692,0.0756 -19.08692,0.0756 l -11.6838,5.64496 -0.28173,0.0391 c -9.20042,-18.70867 -12.07246,-35.3644 -12.07246,-35.3644 43.7614,8.22221 147.92173,-0.98083 199.66536,-5.84322 z" />
    <path
       inkscape:connector-curvature="0"
       style="fill:#ff8080;stroke:none;stroke-linejoin:round"
       label="Layer 1* (1)"
       id="Layer 1* (1)"
       d="m 433.6082,571.51809 c 7.38488,0.95473 16.05838,3.15637 23.65454,5.418 -5.598,11.06295 -13.35588,22.25112 -24.09799,31.33156 -12.92808,10.9247 -39.25641,17.20353 -56.12865,18.54694 -17.34439,1.37994 -44.7866,-7.06661 -59.44939,-16.43139 -9.07001,-5.79364 -16.46009,-13.30893 -22.43372,-21.32247 7.73441,-4.83629 19.37647,-11.42033 27.13697,-12.54202 29.44299,-4.25458 54.81918,3.97807 54.81918,3.97807 0,0 24.38232,-9.26564 49.41941,-9.48737 2.14946,-0.0183 4.5363,0.1826 7.07965,0.50868 z" />
    <path
       inkscape:connector-curvature="0"
       style="fill:#216fc5;stroke:none;stroke-linejoin:round"
       label="Layer 1* (21) (W)"
       id="Layer 1* (21) (W)"
       d="m 320.65439,898.89912 c -21.23899,-1.70861 -47.58297,-11.14383 -51.32626,-18.38262 -0.8791,-1.70078 -5.21976,-23.42758 -5.3241,-26.65699 l -0.0835,-2.54597 -7.03532,-3.56853 c -30.26204,-15.35926 -54.21396,-35.56787 -68.99674,-58.21289 -4.54152,-6.95706 -10.55688,-20.5399 -11.58467,-26.15615 l -0.31042,-1.70341 4.06416,0 c 15.51057,0 27.11872,-9.78736 32.02022,-27.00654 3.37028,-11.82727 3.87374,-29.93337 1.4895,-53.5566 l -1.32776,-13.16286 -2.75466,-2.48336 c -7.304,-6.59185 -13.42892,-12.91242 -26.9648,-27.83608 -3.91809,-4.3224 -6.98055,-8.5535 -9.58912,-13.25415 -0.83213,-1.49731 -3.59982,-6.19536 -6.15101,-10.4369 -7.56225,-12.57853 -8.26136,-14.79321 -8.68394,-27.46043 -0.32869,-9.92302 1.08516,-27.09524 2.14164,-26.01529 0.20086,0.20346 1.93296,3.33114 3.84764,6.95184 12.21073,23.07804 43.35708,57.49293 56.71558,62.67095 18.17132,7.04315 57.29469,18.7165 81.05877,24.18928 48.27166,11.11514 73.06614,12.48985 111.16174,6.15885 26.35962,-4.37979 60.21366,-14.34455 90.24094,-26.56049 7.0614,-2.87464 6.52665,-2.75726 6.16667,-1.32776 -0.3939,1.57819 -0.1513,1.4921 4.72412,-1.63297 23.70148,-15.20275 43.58403,-34.69662 56.6608,-55.56781 l 2.79638,-4.45804 0.28435,2.68943 c 0.1565,1.47907 0.71213,5.1389 1.23124,8.13615 0.51911,2.99463 1.13733,6.56838 1.37211,7.94309 0.61301,3.5894 -1.1243,21.46856 -2.3738,24.4345 -0.24521,0.58432 -2.21468,3.34158 -4.37458,6.12754 -15.35667,19.80167 -33.07669,35.77396 -58.23637,52.4897 -2.3712,1.57557 -4.38241,2.92159 -4.46589,2.98942 -1.06951,0.86604 -2.05033,23.73278 -1.46079,34.09664 2.62422,46.09086 20.09905,62.56661 48.5351,45.76219 2.32684,-1.37211 4.97454,-3.07812 5.88754,-3.78504 0.9104,-0.70954 1.90686,-1.43472 2.20947,-1.60949 1.52079,-0.8843 -8.89524,21.23899 -14.43584,30.66115 -17.2531,29.33601 -39.94769,52.28883 -67.44725,68.21678 -2.54336,1.47384 -4.53109,2.83029 -4.41892,3.0129 0.20868,0.33911 -2.65814,17.81394 -4.42154,26.95177 -1.27037,6.59447 -2.08946,7.41617 -11.24033,11.33424 -18.44522,7.89354 -48.90812,8.93176 -72.65135,2.47554 -5.00585,-1.36168 -5.52495,-1.79991 -5.24062,-4.4111 0.12782,-1.17386 0.46433,-4.38239 0.74866,-7.12922 0.28173,-2.74683 0.67562,-5.09455 0.86865,-5.21976 0.19564,-0.12521 -5.16236,-0.29216 -11.91073,-0.37042 l -12.26552,-0.14347 0.26347,1.50515 c 0.69127,3.97025 0.87127,16.05054 0.24782,16.56705 -4.62239,3.82155 -24.6693,6.49795 -39.66076,5.29018 z" />
    <path
       inkscape:connector-curvature="0"
       style="fill:#185292;stroke:none;stroke-linejoin:round"
       label="Layer 1* (9)"
       id="Layer 1* (9)"
       d="m 305.5638,701.10412 c 39.21731,7.30662 78.43458,8.36308 117.65186,0 0.7643,23.71454 -0.3939,46.47172 -5.88234,67.06119 -14.37844,14.51148 -32.29412,23.71974 -52.94358,28.82471 -19.08171,-8.30569 -36.5722,-17.40178 -49.41421,-28.82471 -8.67872,-22.35547 -10.0717,-44.70833 -9.41173,-67.06119 z" />
    <path
       inkscape:connector-curvature="0"
       style="fill:#804000;stroke:none;stroke-linejoin:round"
       label="Layer 1* (10) (J)"
       id="Layer 1* (10) (J)"
       d="m 370.94509,358.14808 c 8.5535,-1.12794 16.41574,4.90177 17.54264,13.45424 1.12691,8.55351 -4.9015,16.41314 -13.45501,17.54264 -8.55352,1.12691 -16.41314,-4.9015 -17.54265,-13.45501 -1.12691,-8.55272 4.90151,-16.41392 13.45502,-17.54187 z m -10.03257,-61.82916 c -49.96201,6.58874 -85.08384,52.38222 -78.49458,102.34212 6.58925,49.96198 52.39318,85.16466 102.35258,78.57541 49.96199,-6.58664 85.15423,-52.47143 78.56497,-102.43341 -6.58925,-49.96094 -52.46099,-85.07285 -102.42297,-78.48412 z" />
    <path
       inkscape:connector-curvature="0"
       style="fill:#ffffff;stroke:none;stroke-linejoin:round"
       label="Layer 1* (12) (J)"
       id="Layer 1* (12) (J)"
       d="m 367.9687,335.58342 c 21.00945,-2.77031 40.31287,12.03569 43.08319,33.04331 2.77029,21.00604 -12.03596,40.31209 -33.04279,43.08239 -21.00684,2.7703 -40.31291,-12.03596 -43.0832,-33.04279 -2.77032,-21.00787 12.03596,-40.31236 33.0428,-43.08291 z m -7.05618,-39.2645 c -49.96201,6.58874 -85.08384,52.38222 -78.49458,102.34212 6.58925,49.96198 52.39318,85.16466 102.35258,78.57541 49.96199,-6.58664 85.15423,-52.47143 78.56497,-102.43341 -6.58925,-49.96094 -52.46099,-85.07285 -102.42297,-78.48412 z" />
    <path
       inkscape:connector-curvature="0"
       style="fill:#000000;stroke:none;stroke-linejoin:round"
       label="Layer 1* (18) (J)"
       id="Layer 1* (18) (J)"
       d="m 360.91252,296.31892 c 49.96198,-6.58873 95.83372,28.52318 102.42297,78.48412 6.58926,49.96198 -28.60298,95.84677 -78.56497,102.43341 -49.9594,6.58925 -95.76333,-28.61343 -102.35258,-78.57541 -6.58926,-49.9599 28.53257,-95.75338 78.49458,-102.34212 z m -4.16068,-31.55824 c -48.74902,6.42882 -87.03764,40.52078 -101.12133,84.41235 l -16.62182,2.19199 -0.0991,4.83316 c -5.97624,0.61797 -59.14416,6.1977 -79.3919,8.18256 -2.76247,0.27077 -4.20241,4.08529 -4.65629,6.82247 -0.71476,4.31718 3.17723,8.2457 3.53982,12.60462 0.58432,6.98053 -6.92575,18.89389 2.83813,21.52072 14.66801,3.94677 57.65205,1.01473 76.40247,-0.5165 l -0.26085,10.41082 16.07141,1.0669 c 14.80626,60.09367 72.6957,100.7848 135.48145,92.50519 49.72199,-6.55795 88.59233,-41.95367 101.98474,-87.13936 l 13.18894,-0.35216 0.34433,-7.31443 c 16.04533,1.41645 53.02705,4.685 67.43681,5.23802 2.63987,0.10176 4.10589,-5.51714 4.56761,-8.11789 1.15037,-6.51099 -2.65813,-11.54554 -1.14778,-17.98611 4.685,-7.29356 4.22328,-9.83691 1.03039,-15.74011 -10.07691,-2.3112 -47.2908,-8.21857 -69.58627,-12.2269 l 0.34694,-6.66335 -14.43584,0.18808 C 478.45478,297.76877 420.06189,256.41141 356.75184,264.76068 Z" />
    <path
       inkscape:connector-curvature="0"
       style="fill:#e6e6fa;stroke:none;stroke-linejoin:round"
       label="Layer 1* (14) (J)"
       id="Layer 1* (14) (J)"
       d="m 360.91252,296.31892 c 49.96198,-6.58873 95.83372,28.52318 102.42297,78.48412 6.58926,49.96198 -28.60298,95.84677 -78.56497,102.43341 -49.9594,6.58925 -95.76333,-28.61343 -102.35258,-78.57541 -6.58926,-49.9599 28.53257,-95.75338 78.49458,-102.34212 z m -4.16068,-31.55824 c -48.74902,6.42882 -87.03764,40.52078 -101.12133,84.41235 l -16.62182,2.19199 -1.62775,63.85785 16.07141,1.0669 c 14.80626,60.09367 72.6957,100.7848 135.48145,92.50519 49.72199,-6.55795 88.59233,-41.95367 101.98474,-87.13936 l 13.18894,-0.35216 2.99203,-62.81077 -14.43584,0.18808 C 478.45478,297.76877 420.06189,256.41141 356.75184,264.76068 Z" />
    <path
       inkscape:connector-curvature="0"
       style="fill:#000000;stroke:none;stroke-linejoin:round"
       label="Layer_2* (J): 1 (J)"
       id="Layer_2* (J): 1 (J)"
       d="m 272.01496,674.28018 c 0,9.10913 -7.38748,16.494 -16.49661,16.494 -9.10914,0 -16.49401,-7.38487 -16.49401,-16.494 0,-9.11175 7.38487,-16.49661 16.49401,-16.49661 9.10913,0 16.49661,7.38486 16.49661,16.49661 z m 218.98184,0 c 0,9.10913 -7.38487,16.49139 -16.494,16.49139 -9.10914,0 -16.4914,-7.38226 -16.4914,-16.49139 0,-9.10914 7.38226,-16.494 16.4914,-16.494 9.10913,0 16.494,7.38486 16.494,16.494 z" />
  </g>
</svg>
